<svg xmlns:xlink="http://www.w3.org/1999/xlink" viewBox="0 0 1199.98 1199.98" xmlns="http://www.w3.org/2000/svg">
    <defs>
        <style>
            .cls-1{fill:#edd2a6;}.cls-2{fill:url(#未命名的渐变_42);}.cls-3{fill:#dcefed;}.cls-4{fill:#212121;}.cls-5{fill:#ffe2d2;}.cls-6{fill:#474747;}.cls-7{fill:#e09c44;}.cls-8{fill:#fff;}.cls-9{fill:#f2b879;}.cls-10{fill:url(#未命名的渐变_42-2);}.cls-11{fill:url(#未命名的渐变_42-3);}.cls-12{fill:#efcbbd;}.cls-13{fill:#898989;}.cls-14{fill:#eadcd6;}.cls-15{fill:#ff8a8a;}
        </style>
        <linearGradient gradientUnits="userSpaceOnUse" y2="743.23" x2="1124.11" y1="743.23" x1="1023.94"
                        id="未命名的渐变_42">
            <stop stop-color="#f0bdff" offset="0"></stop>
            <stop stop-color="#feff96" offset="0.22"></stop>
            <stop stop-color="#6ebdff" offset="0.5"></stop>
            <stop stop-color="#ffd7e2" offset="0.81"></stop>
            <stop stop-color="#3fe1ff" offset="1"></stop>
        </linearGradient>
        <linearGradient xlink:href="#未命名的渐变_42" y2="599.97" x2="213.87" y1="599.97" x1="113.73"
                        id="未命名的渐变_42-2"></linearGradient>
        <linearGradient xlink:href="#未命名的渐变_42" y2="197.34" x2="191.97" y1="197.34" x1="135.63"
                        id="未命名的渐变_42-3"></linearGradient>
    </defs>
    <title>2 (3)</title>
    <g id="图层_2">
        <g id="_2">
            <g id="_编组_">
                <path d="M1200,0V1200H0V0Zm-22.53,1177.45V22.54H22.54V1177.45H1177.45Z"></path>
                <path d="M1177.45,22.54V1177.45H919.52q-7.72-27.84-15.18-53.3v0C978,974.51,994,881.28,953.17,839.25c-6.72-7-15.06-12.62-23.85-18.59-17.13-11.68-34.85-23.74-41.88-46-4.28-13.6-3.87-29,1.2-45.86,0-.08,0-.15.08-.19.15-.3.26-.64.38-.94,7.77-21.26,16-42.29,24.48-62.57,13.49-32.31,20.29-48.53,24.57-56.91,2.74-5.41,5.18-9.95,7.36-14,7.33-13.6,12.17-22.61,14.31-37.9,1.24-8.86,3.53-25.35-1.84-44.21-.34-1.24-.71-2.4-1.09-3.53a62.07,62.07,0,0,1-1.76-6.72c-.08-.45-.19-.9-.23-1.32a2.9,2.9,0,0,0,.38-.52c18.36-27.91,7.06-59,5.71-62.43l-.64-1.61-1.43-1c-.26-.19-.53-.37-.83-.56,0-.45,0-.9,0-1.35.26-9.92.53-19.24,1.32-28.59,1.95-23.7,3.56-48.15,4.69-72.75,11.46-77.6,1.8-126.54-29.52-149.68-12.51-9.24-24-10.89-35.12-12.55-11.87-1.72-24.11-3.49-43.23-14.65A206.58,206.58,0,0,1,834,139.46c-10.44-7.92-22.31-16.9-42.85-27.57a385.26,385.26,0,0,0-35.38-15.74c-10.15-3.79-101.91-36.54-206.06-6.64-1.43.45-146.6,47.25-208.5,179-30.57,65-24.56,114.6-18.14,167.07,5.93,48.72,12.66,104-7.29,185-6.35,25.81-13.93,48.38-23.21,69-12.88,28.58-25.39,55.63-38.24,82.67-9.88,20.77-20.21,41.84-30.2,62.2q-6.26,12.67-12.43,25.39c-27.76,56.83-18.78,160.91,27.42,317.58H22.54V22.54Zm-42.07,720.67A61.36,61.36,0,1,0,1074,804.58,61.44,61.44,0,0,0,1135.38,743.21ZM225.14,600a61.34,61.34,0,1,0-61.34,61.34A61.41,61.41,0,0,0,225.14,600Zm-21.9-402.65a39.44,39.44,0,1,0-39.44,39.44A39.49,39.49,0,0,0,203.24,197.34Z"
                      class="cls-1"></path>
                <path d="M1074,681.87a61.36,61.36,0,1,1-61.34,61.34A61.44,61.44,0,0,1,1074,681.87Zm50.1,61.34a50.09,50.09,0,1,0-50.1,50.11A50.13,50.13,0,0,0,1124.11,743.21Z"></path>
                <path d="M1074,693.14a50.09,50.09,0,1,1-50.07,50.07A50.13,50.13,0,0,1,1074,693.14Z"
                      class="cls-2"></path>
                <path d="M934.62,182c31.32,23.14,41,72.08,29.52,149.68,0-.27,0-.49,0-.75l.49-11.23-28-9.66c5.93-54.09-.87-89.81-19.87-103.85-6.46-4.77-12.17-5.6-21.64-7-12.58-1.84-29.86-4.36-54-18.4a241.83,241.83,0,0,1-25.28-17.39c-10-7.55-20.28-15.37-38.53-24.83a343.79,343.79,0,0,0-32.23-14.31c-21-8-59.54-17.09-104.46-17.09A300.48,300.48,0,0,0,558,118.39c-1.28.41-133.83,44.21-189.61,162.86-26.89,57.21-21.89,98.45-15.51,150.66,6.24,51.31,13.34,109.45-7.92,195.84-6.8,27.61-14.95,51.83-25,74.18-13,28.77-25.54,56-38.5,83.24-9.95,21-20.32,42.1-30.35,62.53Q244.9,860.38,238.7,873c-23.22,47.59-14.8,142.09,24.94,281.21l32-94.53a276.48,276.48,0,0,1,42.21-79.37,280.22,280.22,0,0,0-42.14,79.7L256.2,1177.45H239.11c-46.2-156.67-55.18-260.75-27.42-317.58q6.19-12.74,12.43-25.39c10-20.36,20.32-41.43,30.2-62.2,12.85-27,25.36-54.09,38.24-82.67,9.28-20.66,16.86-43.23,23.21-69,20-81.05,13.22-136.3,7.29-185-6.42-52.47-12.43-102.05,18.14-167.07C403.1,136.76,548.27,90,549.7,89.51c104.15-29.9,195.91,2.85,206.06,6.64a385.26,385.26,0,0,1,35.38,15.74c20.54,10.67,32.41,19.65,42.85,27.57a206.58,206.58,0,0,0,22.28,15.36c19.12,11.16,31.36,12.93,43.23,14.65C910.62,171.13,922.11,172.78,934.62,182Z"></path>
                <path d="M964.67,319.72,964.18,331c0,.26,0,.48,0,.75l-.11.79-2.67,17.87-27.72-9.54h0v0L806.8,297.1c-3.46.94-6.95,1.92-10.37,3-4.24,1.2-8.41,2.52-12.58,3.91-1.46.45-2.89.94-4.32,1.42-.79.23-1.61.53-2.4.83-4.1,1.39-8.23,2.86-12.29,4.43-2.51.94-5,1.92-7.54,2.93-6.5,2.56-12.93,5.34-19.31,8.27-6.54,2.93-13,6-19.34,9.39-3,1.54-6.09,3.15-9.09,4.84-2.45,1.32-4.85,2.67-7.25,4.06-1.43.79-2.82,1.58-4.21,2.44s-2.82,1.65-4.21,2.48c-3.08,1.88-6.16,3.75-9.16,5.67-1.62,1-3.23,2.07-4.81,3.12-2.22,1.42-4.39,2.89-6.57,4.39-.72.45-1.43.94-2.14,1.43-.38.26-.72.49-1.13.79-1,.71-2.07,1.43-3.08,2.18-1.47,1-2.93,2-4.36,3.11-1.61,1.13-3.23,2.33-4.81,3.54-1.31.93-2.59,1.87-3.83,2.85-1.76,1.35-3.53,2.7-5.25,4.06-3.61,2.85-7.18,5.74-10.71,8.71q-8.73,7.27-17.09,15.14c-2.59,2.36-5.18,4.8-7.74,7.36l-1,1c-2.6,2.47-5.19,5.07-7.63,7.7-2.74,2.74-5.33,5.52-7.85,8.33-5.18,5.56-10.14,11.27-15,17.13q-3.76,4.56-7.43,9.24c-2.15,2.67-4.21,5.37-6.24,8.11-1.2,1.58-2.37,3.2-3.53,4.81L551,455.91a5.64,5.64,0,1,0-5.63,9.77L558,472.92l-2.33,3.35-42.93-2.52a3.48,3.48,0,0,0-2.71,1,2.18,2.18,0,0,0-.48.48,3.43,3.43,0,0,0-.6,1.21,5.4,5.4,0,0,0-.16.78l-2.85,45.3c0,.23,0,.49,0,.72,0,.41,0,.82.08,1.24a10.51,10.51,0,0,0,.67,2.62c.15.42.38.79.57,1.21s.45.75.67,1.12a11,11,0,0,0,1.77,2c.37.3.71.56,1.09.82l40,26.26-.49,214.39c-2.85-2.59-5.59-5.26-8.26-8l-16.08-16.56-.11,46.09a14.81,14.81,0,0,1-5.6-11v-.75l.45-208-26.4-17.36a41.77,41.77,0,0,1-4.1-3.08c-.63-.56-1.27-1.12-1.87-1.72a40.8,40.8,0,0,1-10.45-16.87c-.15-.45-.3-.9-.41-1.35a26.38,26.38,0,0,1-.82-3.49c-.12-.61-.23-1.17-.31-1.77a7.47,7.47,0,0,1-.15-1.28,41.27,41.27,0,0,1-.18-7.13l2.85-45.3a33.88,33.88,0,0,1,4.4-14.65c.18-.3.33-.6.52-.86a12,12,0,0,1,.79-1.17,3.53,3.53,0,0,1,.41-.6,10.66,10.66,0,0,1,.79-1.09,13.22,13.22,0,0,1,.94-1.16c.34-.42.68-.79,1-1.17,0,0,0-.07.11-.11.34-.38.64-.68,1-1a25.35,25.35,0,0,1,3-2.71c1-.71,1.95-1.43,3-2.06l1.35-.79a14.55,14.55,0,0,1,1.66-.87c.45-.22.9-.41,1.35-.6s1-.45,1.54-.64l1.58-.56c.67-.23,1.39-.41,2.1-.6a19.67,19.67,0,0,1,2.1-.45,2.46,2.46,0,0,0,.3-.08c.72-.11,1.39-.18,2.11-.26a2,2,0,0,1,.49,0c.33,0,.63-.07,1-.07s.68,0,1,0a27,27,0,0,1,3.11,0l26.33,1.54v0a476.45,476.45,0,0,1,44.81-52.73c1.24-1.28,2.52-2.56,3.8-3.8q3-3.09,6.19-6.08c1.69-1.69,3.42-3.31,5.19-4.89.9-.86,1.8-1.69,2.7-2.51s2.07-1.88,3.12-2.82c.79-.79,1.62-1.5,2.44-2.18,1-.94,2.1-1.88,3.16-2.78,2.78-2.44,5.63-4.88,8.49-7.25s5.78-4.73,8.67-7c1.17-.9,2.37-1.8,3.49-2.71,1.43-1.12,2.86-2.21,4.29-3.3s2.89-2.14,4.35-3.23c1.21-.94,2.45-1.84,3.68-2.71s2.48-1.76,3.72-2.66c.64-.49,1.32-1,2-1.43,1.21-.86,2.45-1.69,3.68-2.55.53-.38,1.09-.75,1.66-1.09,1.09-.75,2.14-1.5,3.23-2.22,2.06-1.39,4.13-2.78,6.23-4.06.87-.6,1.77-1.16,2.67-1.72,3.3-2.11,6.65-4.17,10-6.2,2.44-1.47,4.88-2.89,7.32-4.32s4.93-2.82,7.4-4.21,5-2.7,7.48-4c5-2.66,10.07-5.22,15.17-7.7,10.18-4.95,20.59-9.5,31.14-13.71q7.61-3,15.36-5.82c6.09-2.18,12.25-4.2,18.45-6.12,3.3-1,6.61-2,9.95-3,4.32-1.27,8.64-2.44,13-3.56l4.36-1.13,128.65,44.28Z"></path>
                <path d="M964,332.49l.11-.79c-1.13,24.6-2.74,49.05-4.69,72.75-.79,9.35-1.06,18.67-1.32,28.59,0,.45,0,.9,0,1.35A107.65,107.65,0,0,0,928.46,421h0c.23-6.31.56-12.7,1.09-19.08.34-3.87.64-7.78.94-11.69a5.62,5.62,0,0,0,6.16-9.12,53.59,53.59,0,0,0-5.15-4.77c.83-11.72,1.54-23.59,2.14-35.54h0l27.72,9.54Z"></path>
                <path d="M961,437.54c1.35,3.46,12.65,34.52-5.71,62.43a2.9,2.9,0,0,1-.38.52,65.57,65.57,0,0,1,0-21.78c.49-3,.86-6.12,1.16-9.17,1.32-11.87,1.66-23.66,2-35.15.3.19.57.37.83.56l1.43,1Z"></path>
                <path d="M958,512.06c5.37,18.86,3.08,35.35,1.84,44.21-2.14,15.29-7,24.3-14.31,37.9-2.18,4-4.62,8.56-7.36,14-4.28,8.38-11.08,24.6-24.57,56.91-8.48,20.28-16.71,41.31-24.48,62.57-.12.3-.23.64-.38.94.15-.49.3-1,.45-1.5a15,15,0,0,0-27.64-11.46c7.73-21.11,15.92-42,24.3-62.08,13.82-33.06,20.73-49.62,25.54-59,2.89-5.67,5.44-10.41,7.7-14.61,6.61-12.25,9.61-17.81,11-27.76.94-6.76,2.48-17.88-.48-29.9a61.91,61.91,0,0,0,25.31-21.75c0,.42.15.87.23,1.32a62.07,62.07,0,0,0,1.76,6.72C957.27,509.66,957.64,510.82,958,512.06Z"></path>
                <path d="M958.09,434.39c-.33,11.49-.67,23.28-2,35.15l-1.87-.22a66.35,66.35,0,0,0-3.16-26.07,95,95,0,0,0-23-10.59h0v-.45c.12-3.68.23-7.44.34-11.19h0A107.65,107.65,0,0,1,958.09,434.39Z"></path>
                <path d="M954.23,469.32l1.87.22c-.3,3-.67,6.13-1.16,9.17a65.57,65.57,0,0,0,0,21.78,61.91,61.91,0,0,1-25.31,21.75c-.12-.64-.31-1.31-.49-2-.3-1-.57-1.88-.87-2.74-.56-1.81-1.16-3.8-1.8-6.35h0a51,51,0,0,0,19.42-17.43A52.46,52.46,0,0,0,954.23,469.32Z"></path>
                <path d="M953.17,839.25c40.83,42,24.87,135.26-48.83,284.86q-6.52-22.3-12.8-42.74s0,0,0-.08c67.65-145.66,59.83-200.8,40.11-221.12-4.62-4.73-11.68-9.57-19.19-14.68-19.38-13.19-43.49-29.56-53.64-61.86-5.22-16.57-5.71-34.52-1.5-53.57l4.32-.82a15,15,0,0,0,27-.49c-5.07,16.86-5.48,32.26-1.2,45.86,7,22.31,24.75,34.37,41.88,46C938.11,826.63,946.45,832.3,953.17,839.25Z"></path>
                <path d="M951.07,443.25a66.35,66.35,0,0,1,3.16,26.07,52.46,52.46,0,0,1-8.34,24.45,51,51,0,0,1-19.42,17.43h0c-.26-1.09-.53-2.25-.79-3.57a93.47,93.47,0,0,1-.45-33.2c.34-2.29.68-4.55.9-6.84,1.35-11.42,1.65-22.87,2-34.93h0A95,95,0,0,1,951.07,443.25Z"
                      class="cls-3"></path>
                <path d="M936.61,381.13a5.62,5.62,0,0,1-6.16,9.12c.34-4.62.68-9.24,1-13.89A53.59,53.59,0,0,1,936.61,381.13Z"></path>
                <path d="M916.78,206.21c19,14,25.8,49.76,19.87,103.85L808,265.74l-4.39,1.13c-7.7,2-15.36,4.17-22.91,6.57-6.2,1.92-12.36,3.94-18.45,6.12-5.18,1.84-10.29,3.8-15.36,5.82-10.55,4.21-21,8.76-31.14,13.71q-11.49,5.54-22.65,11.72c-5,2.75-9.87,5.56-14.72,8.49-4.28,2.59-8.49,5.22-12.66,8-2.1,1.28-4.17,2.67-6.23,4.06-1.09.72-2.14,1.43-3.23,2.22-.57.34-1.13.71-1.66,1.09s-1.08.75-1.65,1.12-1.35.94-2,1.43c-1.91,1.35-3.83,2.71-5.71,4.09-2.7,1.92-5.37,3.91-8,5.94-1.43,1.09-2.86,2.18-4.29,3.3q-1.74,1.31-3.49,2.71c-2.93,2.29-5.78,4.62-8.67,7-4,3.23-7.82,6.58-11.65,10-.82.68-1.65,1.39-2.44,2.18-1.95,1.73-3.91,3.49-5.82,5.33-1.77,1.58-3.5,3.2-5.19,4.89q-5.07,4.79-10,9.88a476.45,476.45,0,0,0-44.81,52.73l-26.33-1.54a35.18,35.18,0,0,0-7.7.41,2.46,2.46,0,0,1-.3.08,31.2,31.2,0,0,0-8.67,2.85,19.71,19.71,0,0,0-3,1.66,23.78,23.78,0,0,0-3,2.06,25.35,25.35,0,0,0-3,2.71,7.83,7.83,0,0,0-1,1c-.08,0-.11.08-.11.11a42.3,42.3,0,0,0-2,2.33,10.66,10.66,0,0,0-.79,1.09,17.74,17.74,0,0,0-1.2,1.77c-.19.3-.34.56-.52.86a33.88,33.88,0,0,0-4.4,14.65l-2.89,45.3a37.61,37.61,0,0,0,.22,7.13,7.47,7.47,0,0,0,.15,1.28,16,16,0,0,0,.31,1.77,26.38,26.38,0,0,0,.82,3.49c.11.45.26.9.41,1.35a40.8,40.8,0,0,0,10.45,16.87c.6.6,1.24,1.16,1.87,1.72a36.27,36.27,0,0,0,4.1,3.08l26.4,17.36-.48,208a6.35,6.35,0,0,0,0,.75l-.15,65.62-100.4,58.7q-11,6.48-21.37,13.82c-5.07,3.65-10,7.4-14.8,11.35L378.61,937c-4.73,4-9.28,8.23-13.71,12.59-1.76,1.72-3.53,3.49-5.22,5.29-.68.68-1.32,1.35-1.95,2-1.39,1.46-2.82,3-4.17,4.51-1.77,1.91-3.46,3.87-5.15,5.82-2,2.36-4,4.73-5.9,7.14-1.57,2-3.11,3.94-4.62,5.93a276.48,276.48,0,0,0-42.21,79.37l-32,94.53C223.9,1015.11,215.48,920.61,238.7,873q6.2-12.62,12.39-25.32c10-20.43,20.4-41.58,30.35-62.53,13-27.24,25.54-54.47,38.5-83.24,10.07-22.35,18.22-46.57,25-74.18,21.26-86.39,14.16-144.53,7.92-195.84-6.38-52.21-11.38-93.45,15.51-150.66C424.17,162.6,556.72,118.8,558,118.39a300.48,300.48,0,0,1,82.63-11.19c44.92,0,83.42,9.09,104.46,17.09a343.79,343.79,0,0,1,32.23,14.31c18.25,9.46,28.54,17.28,38.53,24.83a241.83,241.83,0,0,0,25.28,17.39c24.15,14,41.43,16.56,54,18.4C904.61,200.61,910.32,201.44,916.78,206.21Z"
                      class="cls-4"></path>
                <path d="M936.65,310.06,808,265.78l-4.36,1.13c-4.35,1.12-8.67,2.29-13,3.56-3.34.94-6.65,2-9.95,3,7.55-2.4,15.21-4.58,22.91-6.57l4.39-1.13Z"></path>
                <path d="M933.6,340.79v0c-.6,11.95-1.31,23.82-2.14,35.54a54.94,54.94,0,0,0-12.2-7.74c-41.7-19.42-91.16,21.07-93.27,22.8a5.61,5.61,0,0,0-.71,7.92,5.49,5.49,0,0,0,4.32,2,5.64,5.64,0,0,0,3.61-1.28c1.84-1.54,46-37.71,81.31-21.25a47.75,47.75,0,0,1,14,10.1,5.57,5.57,0,0,0,1.92,1.31c-.3,3.91-.6,7.82-.94,11.69-.53,6.38-.86,12.77-1.09,19.08a93.7,93.7,0,0,0-47.7-1,97.3,97.3,0,0,0-48.94,29.56c-15.36-3.72-27.95,2.55-33.47,6.12-15.66-6.68-66.82-24.79-117.86-.64-1.13.49-2.22,1.05-3.35,1.62a133,133,0,0,0-49,43.53l-63.51-36.51c1.16-1.61,2.33-3.23,3.53-4.81,2-2.74,4.13-5.44,6.24-8.11q3.66-4.68,7.43-9.24c4.85-5.86,9.81-11.57,15-17.13,2.59-2.81,5.18-5.59,7.85-8.33s5-5.19,7.63-7.7l1-1c2.56-2.48,5.11-4.92,7.74-7.36,5.56-5.19,11.27-10.26,17.09-15.14,2.93-2.44,5.86-4.85,8.83-7.21.6-.49,1.24-1,1.88-1.5,1.72-1.36,3.49-2.71,5.25-4.06.64-.49,1.28-.94,1.92-1.43s1.28-1,1.91-1.42c1.58-1.24,3.2-2.41,4.81-3.54.64-.48,1.28-.93,1.92-1.39.82-.6,1.61-1.16,2.44-1.72,1-.75,2.07-1.47,3.08-2.18l1.13-.79c.71-.49,1.42-1,2.14-1.43h0c.78-.56,1.54-1.09,2.32-1.58a10.28,10.28,0,0,1,1.21-.78c1-.68,2-1.36,3-2,1.58-1.05,3.19-2.11,4.81-3.12,3-1.92,6.08-3.83,9.16-5.67,1.39-.83,2.78-1.69,4.21-2.48s2.78-1.65,4.21-2.44c2.4-1.39,4.8-2.74,7.25-4.06,2-1.13,4.09-2.21,6.12-3.27a5.91,5.91,0,0,1,.86-.45c.72-.37,1.39-.75,2.11-1.12s1.39-.72,2.06-1.06c2.71-1.35,5.37-2.7,8.08-4,3-1.47,6.12-2.93,9.2-4.32s6.16-2.78,9.28-4.1c2.1-.9,4.17-1.76,6.27-2.63,1.24-.52,2.48-1.05,3.76-1.54,2.51-1,5-2,7.54-2.93,4.06-1.54,8.16-3,12.29-4.43.79-.3,1.61-.6,2.4-.83,1.43-.52,2.89-1,4.32-1.42,4.17-1.39,8.34-2.71,12.58-3.91q5.13-1.51,10.37-2.93Zm-165.52,63.4a5.62,5.62,0,0,0-3.42-7.18c-7.36-2.59-73-24.26-113.32,12.51a77.75,77.75,0,0,0-16.75,22.09,5.63,5.63,0,0,0,10,5.14,67.22,67.22,0,0,1,14.31-18.93c35.5-32.34,95.3-12.54,102-10.18A5.64,5.64,0,0,0,768.08,404.19Z"
                      class="cls-5"></path>
                <path d="M933.6,340.79,806.8,297.14q-5.24,1.41-10.37,2.93c3.42-1.05,6.91-2,10.37-3Z"></path>
                <path d="M931.61,860.17c19.72,20.32,27.54,75.46-40.11,221.12C857.09,968.35,830,898.22,824.3,883.72V852.36a66.51,66.51,0,0,0-49-64.08c-17.81-4.81-34-10.63-34.22-10.66a15,15,0,0,0-19.19,9c-.15.41-.27.82-.38,1.24l-9.16-2.63,8.26-29,136.68-26.26c-4.21,19.05-3.72,37,1.5,53.57,10.15,32.3,34.26,48.67,53.64,61.86C919.93,850.6,927,855.44,931.61,860.17Z"
                      class="cls-6"></path>
                <path d="M931.46,376.36c-.33,4.65-.67,9.27-1,13.89a5.57,5.57,0,0,1-1.92-1.31,47.75,47.75,0,0,0-14-10.1c-35.34-16.46-79.47,19.71-81.31,21.25a5.64,5.64,0,0,1-3.61,1.28,5.49,5.49,0,0,1-4.32-2,5.61,5.61,0,0,1,.71-7.92c2.11-1.73,51.57-42.22,93.27-22.8A54.94,54.94,0,0,1,931.46,376.36Z"></path>
                <path d="M929.59,522.24c3,12,1.42,23.14.48,29.9-1.39,10-4.39,15.51-11,27.76-2.26,4.2-4.81,8.94-7.7,14.61-4.81,9.39-11.72,26-25.54,59-8.38,20.09-16.57,41-24.3,62.08a0,0,0,0,0,0,0,14.47,14.47,0,0,0-.94,2.29L711.66,746.55l-28.25,98.94a55,55,0,0,0-41.76-30.09,173.13,173.13,0,0,1-63.44-22,169.19,169.19,0,0,1-27.91-20.51h0l.49-214.39-40-26.26c-.38-.26-.72-.52-1.09-.82s-.6-.6-.9-.94a7.58,7.58,0,0,1-.87-1c-.22-.37-.48-.75-.67-1.12a6.69,6.69,0,0,1-.57-1.21,10.51,10.51,0,0,1-.67-2.62c0-.42-.08-.83-.08-1.24,0-.23,0-.49,0-.72l2.85-45.3a5.4,5.4,0,0,1,.16-.78,3.43,3.43,0,0,1,.6-1.21c.18-.18.3-.33.48-.48a3.48,3.48,0,0,1,2.71-1l42.93,2.52h0l2.33-3.35,66.7,38.35c1.84,11.53,7.33,30.58,23.22,46.43,22.87,22.87,52.36,23.85,63.47,24.23,1.51,0,3.53.11,5.9.11,13.07,0,37.71-2,58.82-19.2,26.29-21.44,37.52-59.68,29.15-98.22,4.05-2.44,12.28-6.19,22.16-4.39a70.4,70.4,0,0,0,1,20.51,9.23,9.23,0,0,0,.23,1.46c5.63,41.32,53.41,72,55.43,73.32a6,6,0,0,0,3,.86,5.65,5.65,0,0,0,3-10.4,157.84,157.84,0,0,1-24.45-20.13A73.16,73.16,0,0,0,892,530.43a93.12,93.12,0,0,0,14.91-1.24A84.15,84.15,0,0,0,929.59,522.24Zm-59.88,90.45a5.65,5.65,0,0,0-.67-7.93c-11.16-9.39-20.55-12.66-28.66-10.1a18.22,18.22,0,0,0-6.27,3.57,13,13,0,0,1-4.51,2.59c-3.16,1.09-5.3.82-8.26.41A31.46,31.46,0,0,0,813,601c-9.32,1.24-14.65,7.51-19.38,13.07-1.28,1.5-2.56,3-3.91,4.43-7.81,8-19.3,13.41-34.18,16A6.83,6.83,0,0,0,749.9,640a6.64,6.64,0,0,0,3.26,7.07,99.71,99.71,0,0,0,50.18,13.52,105.6,105.6,0,0,0,31-4.7,5.59,5.59,0,0,0,3.72-7,5.64,5.64,0,0,0-7-3.76,92.28,92.28,0,0,1-48.91,1.62,81.93,81.93,0,0,1-12.39-4.06c11.53-3.53,20.92-9,28-16.34,1.54-1.58,3-3.27,4.39-4.92,4.51-5.33,7.51-8.6,12.28-9.2a19.38,19.38,0,0,1,5.45.22,26.57,26.57,0,0,0,13.37-.93,23.46,23.46,0,0,0,7.85-4.44,8.09,8.09,0,0,1,2.71-1.65c4-1.24,10.36,1.58,18,8A5.61,5.61,0,0,0,869.71,612.69Z"
                      class="cls-5"></path>
                <path d="M929.1,520.29c.18.64.37,1.31.49,2a84.15,84.15,0,0,1-22.69,7A93.12,93.12,0,0,1,892,530.43a73.16,73.16,0,0,1-26.22-4.58c-11.87-12-24-28.29-26.07-46.35h0a54.92,54.92,0,0,0,2.67,9,47.92,47.92,0,0,0,8.52,14c16.38,18.63,40.94,17.77,54.13,15.59a69.76,69.76,0,0,0,21.37-6.87c.64,2.55,1.24,4.54,1.8,6.35C928.53,518.41,928.8,519.31,929.1,520.29Z"></path>
                <path d="M928.42,421c-.11,3.75-.22,7.51-.34,11.19v.45A85,85,0,0,0,895.56,429c0-1-.08-2-.15-2.93a60.87,60.87,0,0,0-45.3,18.52,19.57,19.57,0,0,0-.34,3.38A91,91,0,0,0,839,458.46l-.23-.11a3.31,3.31,0,0,0,.23-.52,5.63,5.63,0,0,0-3.49-7.14c-1.24-.41-2.48-.79-3.72-1.09A97.3,97.3,0,0,1,880.72,420,93.7,93.7,0,0,1,928.42,421Z"></path>
                <path d="M928.08,432.66c-.34,12.06-.64,23.51-2,34.93l-4.66-.52a5.63,5.63,0,0,0-10.59-3.27c-8.37,15.89-21.74,19.94-33.13,19.94a58.25,58.25,0,0,1-21.14-4.2,5.66,5.66,0,0,0-7.4,2.92,5.53,5.53,0,0,0-.23,3.87l-6.53,2.14a54.92,54.92,0,0,1-2.67-9,64.87,64.87,0,0,1-.75-21A91,91,0,0,1,849.77,448c-.19,5,.53,14.46,7.85,21a23.43,23.43,0,0,0,14.54,5.93,24.94,24.94,0,0,0,9.87-1.95c9-3.95,14.65-21.49,13.53-43.91A85,85,0,0,1,928.08,432.66Z"
                      class="cls-3"></path>
                <path d="M921.43,467.07l4.66.52c-.22,2.29-.56,4.55-.9,6.84a93.47,93.47,0,0,0,.45,33.2c.26,1.32.53,2.48.79,3.57a69.76,69.76,0,0,1-21.37,6.87c-13.19,2.18-37.75,3-54.13-15.59a47.92,47.92,0,0,1-8.52-14l6.53-2.14a5.58,5.58,0,0,0,3.16,3.57A66.07,66.07,0,0,0,877.38,495c15.58,0,32.94-6,43.45-26A5.82,5.82,0,0,0,921.43,467.07Z"
                      class="cls-3"></path>
                <path d="M918.47,461.43a5.61,5.61,0,0,1,3,5.64,5.82,5.82,0,0,1-.6,1.95c-10.51,20-27.87,26-43.45,26a66.07,66.07,0,0,1-25.28-5.11,5.66,5.66,0,0,1-2.93-7.44,5.66,5.66,0,0,1,7.4-2.92,58.25,58.25,0,0,0,21.14,4.2c11.39,0,24.76-4.05,33.13-19.94A5.65,5.65,0,0,1,918.47,461.43Z"></path>
                <path d="M919.52,1177.45H888.34q-7.43-26.54-14.57-50.9l.15,0a14.85,14.85,0,0,0,7.78,9.42,15.29,15.29,0,0,0,6.68,1.58,15.08,15.08,0,0,0,13.49-8.38c.82-1.69,1.65-3.34,2.47-5Q911.78,1149.62,919.52,1177.45Z"></path>
                <path d="M904.34,1124.11v0c-.82,1.65-1.65,3.3-2.47,5a15.08,15.08,0,0,1-13.49,8.38,15.29,15.29,0,0,1-6.68-1.58,15.07,15.07,0,0,1-6.77-20.17q9-18,16.57-34.48s0,0,0,.08Q897.8,1101.82,904.34,1124.11Z"></path>
                <path d="M895.56,429c1.12,22.42-4.51,40-13.53,43.91a24.94,24.94,0,0,1-9.87,1.95,23.43,23.43,0,0,1-14.54-5.93c-7.32-6.5-8-15.93-7.85-21l0,0A84,84,0,0,1,883.35,431,81.59,81.59,0,0,1,895.56,429Zm-27.2,32.64A9.36,9.36,0,1,0,857.51,454,9.32,9.32,0,0,0,868.36,461.62Z"></path>
                <path d="M895.41,426.05c.07,1,.15,1.95.15,2.93a81.59,81.59,0,0,0-12.21,2,84,84,0,0,0-33.54,16.94l0,0a19.57,19.57,0,0,1,.34-3.38,60.87,60.87,0,0,1,45.3-18.52Z"></path>
                <path d="M890.22,546a5.65,5.65,0,0,1-3,10.4,6,6,0,0,1-3-.86c-2-1.31-49.8-32-55.43-73.32a60.33,60.33,0,0,0,13.74,27.72,58,58,0,0,0,23.29,15.93A157.84,157.84,0,0,0,890.22,546Z"></path>
                <path d="M879.44,708.17a15.06,15.06,0,0,1,9.73,18.89c-.15.49-.3,1-.45,1.5,0,0,0,.11-.08.19a15,15,0,0,1-27,.49l6.24-1.2A5.64,5.64,0,1,0,865.69,717l-5,1a4.19,4.19,0,0,1,.19-.64c.18-.56.41-1.09.6-1.65a0,0,0,0,1,0,0A15.08,15.08,0,0,1,879.44,708.17Zm-1.65,23.28-4.21-18.25a6.2,6.2,0,0,0-1.09.22,5.83,5.83,0,0,1-.6.15l-.49.16,2.11,6.72,2.18,7.77-.19-1.39,1.5,4.81a1,1,0,0,1-.34.08v0l.34-.11Z"></path>
                <path d="M888.34,1177.45H802c-33.13-187.32-65.17-307.81-65.77-310.06a5.64,5.64,0,1,0-10.89,2.92c.6,2.26,32.34,121.51,65.24,307.14H688.07L715.42,947a42.68,42.68,0,0,0-26.33-44.81V869.94c0-.94,0-1.92-.08-2.86v-.15l23.33-81.65,9.16,2.63a15.08,15.08,0,0,0,9.47,18c.67.26,17.46,6.23,36.47,11.38a36.42,36.42,0,0,1,26.81,35.08v37.19l1.09,2.7c.76,1.8,35.24,87.48,78.43,234.3Q880.87,1150.9,888.34,1177.45Z"
                      class="cls-7"></path>
                <path d="M891.5,1081.29q-7.61,16.45-16.57,34.48a15,15,0,0,0-1,10.75l-.15,0c-43.19-146.82-77.67-232.5-78.43-234.3l-1.09-2.7V852.36a36.42,36.42,0,0,0-26.81-35.08c-19-5.15-35.8-11.12-36.47-11.38a15.08,15.08,0,0,1-9.47-18c.11-.42.23-.83.38-1.24a15,15,0,0,1,19.19-9c.19,0,16.41,5.85,34.22,10.66a66.51,66.51,0,0,1,49,64.08v31.36C830,898.22,857.09,968.35,891.5,1081.29Z"></path>
                <path d="M873.58,713.2l4.21,18.25-.79.19-1.5-4.81.19,1.39-2.18-7.77-2.11-6.72.49-.16a5.83,5.83,0,0,0,.6-.15A6.2,6.2,0,0,1,873.58,713.2Z"></path>
                <path d="M877,731.64l-.34.11v0A1,1,0,0,0,877,731.64Z"></path>
                <path d="M876,450.8a9.38,9.38,0,1,1-10.82-7.62A9.32,9.32,0,0,1,876,450.8Z" class="cls-8"></path>
                <path d="M872.31,721.42a5.69,5.69,0,0,1-4.47,6.62l-6.24,1.2a14.87,14.87,0,0,1-.94-11.31h0l5-1A5.66,5.66,0,0,1,872.31,721.42Z"></path>
                <path d="M869,604.76a5.64,5.64,0,0,1-7.25,8.64c-7.63-6.42-14-9.24-18-8a8.09,8.09,0,0,0-2.71,1.65,23.46,23.46,0,0,1-7.85,4.44,26.57,26.57,0,0,1-13.37.93,19.38,19.38,0,0,0-5.45-.22c-4.77.6-7.77,3.87-12.28,9.2-1.39,1.65-2.85,3.34-4.39,4.92-7.1,7.36-16.49,12.81-28,16.34a81.93,81.93,0,0,0,12.39,4.06A92.28,92.28,0,0,0,831,645.1a5.64,5.64,0,0,1,7,3.76,5.59,5.59,0,0,1-3.72,7,105.6,105.6,0,0,1-31,4.7,99.71,99.71,0,0,1-50.18-13.52A6.64,6.64,0,0,1,749.9,640a6.83,6.83,0,0,1,5.59-5.52c14.88-2.55,26.37-7.92,34.18-16,1.35-1.43,2.63-2.93,3.91-4.43,4.73-5.56,10.06-11.83,19.38-13.07a31.46,31.46,0,0,1,8.38.22c3,.41,5.1.68,8.26-.41a13,13,0,0,0,4.51-2.59,18.22,18.22,0,0,1,6.27-3.57C848.49,592.1,857.88,595.37,869,604.76Z"></path>
                <path d="M861.6,729.24l-4.32.82c.87-4,2-8,3.27-12.13h.11A14.87,14.87,0,0,0,861.6,729.24Z"></path>
                <path d="M861.49,715.64c-.19.56-.42,1.09-.6,1.65a4.19,4.19,0,0,0-.19.64h-.15A14.47,14.47,0,0,1,861.49,715.64Z"></path>
                <path d="M711.66,746.55l148.89-28.62c-1.32,4.1-2.4,8.11-3.27,12.13L720.6,756.32l-8.26,29L689,866.93a54.68,54.68,0,0,0-5.6-21.44Z"></path>
                <path d="M865.77,525.85a58,58,0,0,1-23.29-15.93,60.33,60.33,0,0,1-13.74-27.72,9.23,9.23,0,0,1-.23-1.46,5.63,5.63,0,1,1,11.19-1.24C841.73,497.56,853.9,513.87,865.77,525.85Z"></path>
                <path d="M839.74,479.5h0a5.63,5.63,0,1,0-11.19,1.24,70.4,70.4,0,0,1-1-20.51,24.26,24.26,0,0,1,4.39,1.13,5.59,5.59,0,0,0,6.91-3l.23.11A64.87,64.87,0,0,0,839.74,479.5Z"></path>
                <path d="M835.5,450.69a5.63,5.63,0,0,1,3.49,7.14,3.31,3.31,0,0,1-.23.52,5.59,5.59,0,0,1-6.91,3,24.26,24.26,0,0,0-4.39-1.13c.19-2.14.45-3.91.67-5.15l.27-1.5.94-1.16c.71-.87,1.54-1.84,2.44-2.82C833,449.9,834.26,450.28,835.5,450.69Z"></path>
                <path d="M831.78,449.6c-.9,1-1.73,1.95-2.44,2.82l-.94,1.16-.27,1.5c-.22,1.24-.48,3-.67,5.15-9.88-1.8-18.11,1.95-22.16,4.39-.3-1.27-.6-2.51-.9-3.79l-.64-2.59-2.44-1.17c-.79-.37-1.77-.82-3-1.35C803.83,452.15,816.42,445.88,831.78,449.6Z"></path>
                <path d="M805.3,464.62c8.37,38.54-2.86,76.78-29.15,98.22C755,580.08,730.4,582,717.33,582c-2.37,0-4.39-.08-5.9-.11-11.11-.38-40.6-1.36-63.47-24.23-15.89-15.85-21.38-34.9-23.22-46.43l2.33,1.36a6.07,6.07,0,0,0,2.82.75,5.56,5.56,0,0,0,4.88-2.86,4.21,4.21,0,0,0,.6-1.57l.42.07c1.54,10,6.19,26.82,20.13,40.72,19.76,19.72,45.07,20.54,55.85,20.92,8.83.3,35.57,1.16,57.24-16.57,23.22-18.93,32.91-53.18,25.09-87.89l.49-.45a5.62,5.62,0,0,0,7.93.79A29.52,29.52,0,0,1,805.3,464.62Z"></path>
                <path d="M804.4,460.83c.3,1.28.6,2.52.9,3.79a29.52,29.52,0,0,0-2.78,1.92,5.64,5.64,0,0,1-7.21-8.68,24,24,0,0,1,3-2.14c1.24.53,2.22,1,3,1.35l2.44,1.17Z"></path>
                <path d="M802,1177.45H790.61C757.71,991.82,726,872.57,725.37,870.31a5.64,5.64,0,1,1,10.89-2.92C736.86,869.64,768.9,990.13,802,1177.45Z"></path>
                <path d="M798.31,455.72a24,24,0,0,0-3,2.14,5.6,5.6,0,0,0-.72,7.89l-.49.45a151.85,151.85,0,0,0-42.36-11.15c-10.71-3.31-43.69-11.61-70.66,1.31l-.63-1.28C731.49,430.93,782.65,449,798.31,455.72Z"></path>
                <path d="M794.1,466.2c7.82,34.71-1.87,69-25.09,87.89-21.67,17.73-48.41,16.87-57.24,16.57-10.78-.38-36.09-1.2-55.85-20.92C642,535.84,637.33,519,635.79,509a127.56,127.56,0,0,1,17.76-21.63,5.52,5.52,0,0,0,2.78,3.26,5.59,5.59,0,0,0,7.59-2.44,50.13,50.13,0,0,1,10.63-14,45.22,45.22,0,0,1,6.76-5.1,23.43,23.43,0,0,0,2.1,14.31,23.88,23.88,0,0,0,17.17,12.77l-1.2,8.19a67.82,67.82,0,0,1-24.08-9.24A5.62,5.62,0,0,0,669,504.4c.34.23,18.14,11.94,40.68,11.94,17.28,0,37.33-6.87,54.42-31.21a5.64,5.64,0,0,0-7.17-8.26l-4-9.88a5.64,5.64,0,0,0,1.84-11c-.56-.19-1.58-.56-3-1A151.85,151.85,0,0,1,794.1,466.2Z"
                      class="cls-3"></path>
                <path d="M783.85,304c-1.43.45-2.89.9-4.32,1.42C781,304.92,782.39,304.43,783.85,304Z"></path>
                <path d="M777.13,306.23c-4.13,1.43-8.23,2.89-12.29,4.43C768.9,309.09,773,307.62,777.13,306.23Z"></path>
                <path d="M764.66,397a5.64,5.64,0,0,1-3.76,10.63c-6.68-2.36-66.48-22.16-102,10.18a67.22,67.22,0,0,0-14.31,18.93,5.6,5.6,0,0,1-5,3.05,5.6,5.6,0,0,1-5-8.19,77.75,77.75,0,0,1,16.75-22.09C691.68,372.75,757.3,394.42,764.66,397Z"></path>
                <path d="M764.84,310.66c-2.51.94-5,1.92-7.54,2.93C759.81,312.58,762.33,311.6,764.84,310.66Z"></path>
                <path d="M762.7,477.28a5.62,5.62,0,0,1,1.39,7.85C747,509.47,727,516.34,709.67,516.34c-22.54,0-40.34-11.71-40.68-11.94a5.62,5.62,0,0,1,6.31-9.31,67.82,67.82,0,0,0,24.08,9.24,57.74,57.74,0,0,0,9.73.86c14.42,0,31.25-5.86,45.78-26.52a5.46,5.46,0,0,1,2-1.8A5.63,5.63,0,0,1,762.7,477.28Z"></path>
                <path d="M754.74,456a5.64,5.64,0,0,1-1.84,11,5.54,5.54,0,0,1-1.91-.34,119.61,119.61,0,0,0-20.4-4.88,33.31,33.31,0,0,0-1.92-7.4,136.1,136.1,0,0,1,23.07.68C753.16,455.46,754.18,455.83,754.74,456Z"></path>
                <path d="M757.3,313.59c-1.28.49-2.52,1-3.76,1.54-2.1.87-4.17,1.73-6.27,2.63-3.12,1.32-6.2,2.67-9.28,4.1C744.37,318.93,750.8,316.15,757.3,313.59Z"></path>
                <path d="M752.9,467l4,9.88a5.46,5.46,0,0,0-2,1.8c-14.53,20.66-31.36,26.52-45.78,26.52a57.74,57.74,0,0,1-9.73-.86l1.2-8.19c.45.07.94.11,1.39.15,14.35,1.2,27-13.71,28.66-27.68a29.91,29.91,0,0,0,0-6.84,119.61,119.61,0,0,1,20.4,4.88A5.54,5.54,0,0,0,752.9,467Z"
                      class="cls-3"></path>
                <path d="M762.25,279.56q-7.77,2.82-15.36,5.82C752,283.36,757.07,281.4,762.25,279.56Z"></path>
                <path d="M751.74,455.05a136.1,136.1,0,0,0-23.07-.68c-.3-.71-.6-1.39-.86-2l-43.68,8.22a24.8,24.8,0,0,0-2.44,6.47,116.54,116.54,0,0,0-28.14,20.32,5.63,5.63,0,0,1,.34-4.32A60.85,60.85,0,0,1,667,465.83a58.62,58.62,0,0,1,14.12-9.47C708.05,443.44,741,451.74,751.74,455.05Z"></path>
                <path d="M738,321.86c-3.08,1.39-6.16,2.85-9.2,4.32-2.71,1.31-5.37,2.66-8.08,4-.67.34-1.35.68-2.06,1.06C725,327.9,731.45,324.79,738,321.86Z"></path>
                <path d="M730.59,461.77a29.91,29.91,0,0,1,0,6.84c-1.66,14-14.31,28.88-28.66,27.68-.45,0-.94-.08-1.39-.15a23.88,23.88,0,0,1-17.17-12.77,23.43,23.43,0,0,1-2.1-14.31,48.42,48.42,0,0,1,9.77-4.7,9.05,9.05,0,0,0-3.31,8c.56,5.15,5.6,8.83,11.23,8.19s9.73-5.33,9.13-10.48A9.45,9.45,0,0,0,699.9,462C710.65,459.82,721.58,460.38,730.59,461.77Z"></path>
                <path d="M728.67,454.37a33.31,33.31,0,0,1,1.92,7.4c-9-1.39-19.94-1.95-30.69.19a11.55,11.55,0,0,0-3-.08,11,11,0,0,0-5.82,2.48,48.42,48.42,0,0,0-9.77,4.7,17.52,17.52,0,0,1,.38-2s0,0,.07,0a3,3,0,0,1,.49-.27,116.18,116.18,0,0,1,46.39-12.39Z"></path>
                <path d="M728.67,454.37h0a116.18,116.18,0,0,0-46.39,12.39,3,3,0,0,0-.49.27s0,0-.07,0a24.8,24.8,0,0,1,2.44-6.47l43.68-8.22C728.07,453,728.37,453.66,728.67,454.37Z"></path>
                <path d="M718.65,331.25c-.72.37-1.39.75-2.11,1.12a5.91,5.91,0,0,0-.86.45c-2,1.06-4.1,2.14-6.12,3.27C712.56,334.4,715.6,332.79,718.65,331.25Z"></path>
                <path d="M689.09,902.2A42.68,42.68,0,0,1,715.42,947l-27.35,230.44H669.18L696.79,944.8a24,24,0,0,0-19-26.48l-7.43-1.58v-37.6H674a5.71,5.71,0,0,0,5.64,5.64,5.59,5.59,0,0,0,5.41-4.1L689,866.93v.15c0,.94.08,1.92.08,2.86Z"></path>
                <path d="M709.56,336.09c-2.45,1.32-4.85,2.67-7.25,4.06C704.71,338.76,707.11,337.41,709.56,336.09Z"></path>
                <path d="M708.13,470c.6,5.15-3.49,9.84-9.13,10.48s-10.67-3-11.23-8.19a9.05,9.05,0,0,1,3.31-8,52.67,52.67,0,0,1,8.82-2.4A9.45,9.45,0,0,1,708.13,470Z"
                      class="cls-8"></path>
                <path d="M715.75,299.09c-5.1,2.48-10.18,5-15.17,7.7-2.48,1.32-5,2.67-7.48,4Q704.26,304.62,715.75,299.09Z"></path>
                <path d="M702.31,340.15c-1.43.79-2.82,1.61-4.21,2.44C699.49,341.73,700.88,340.94,702.31,340.15Z"></path>
                <path d="M696.9,461.88a11.55,11.55,0,0,1,3,.08,52.67,52.67,0,0,0-8.82,2.4A11,11,0,0,1,696.9,461.88Z"></path>
                <path d="M677.74,918.32a24,24,0,0,1,19,26.48l-27.61,232.65H579.11L578.28,1044a9.37,9.37,0,0,0-9.39-9.31h-.07a9.36,9.36,0,0,0-9.32,9.43l.83,133.34H372.49l49.43-148.25a9.4,9.4,0,1,0-17.84-5.94l-51.39,154.19H287.9l36.32-107.84a250.66,250.66,0,0,1,32.83-64.6c1.05-1.51,2.14-3,3.27-4.47s2.21-3,3.34-4.43,2.29-2.93,3.46-4.36,2.36-2.86,3.56-4.28,2.41-2.78,3.65-4.17c2.48-2.78,5-5.49,7.59-8.15,1.16-1.21,2.32-2.41,3.53-3.57,2.78-2.74,5.59-5.41,8.48-8,1.39-1.24,2.78-2.48,4.21-3.68q8.46-7.33,17.62-13.86c6.08-4.32,12.35-8.42,18.85-12.21l.23-.11,107.8-63.07,7.43-4.32.15-69.11a183,183,0,0,0,18.48,12.36A192.56,192.56,0,0,0,638.94,834a36.21,36.21,0,0,1,31.37,36v46.8Z"
                      class="cls-9"></path>
                <path d="M693.89,345.07c-3.08,1.84-6.16,3.75-9.16,5.67C687.73,348.82,690.81,347,693.89,345.07Z"></path>
                <path d="M693.1,310.81c-2.47,1.39-4.92,2.78-7.4,4.21s-4.88,2.85-7.32,4.32c-3.34,2-6.69,4.09-10,6.2-.9.56-1.8,1.12-2.67,1.72,4.17-2.74,8.38-5.37,12.66-8C683.23,316.37,688.15,313.56,693.1,310.81Z"></path>
                <path d="M689,866.93l-3.94,13.75a5.56,5.56,0,0,1-7,3.87,5.56,5.56,0,0,1-3.87-6.95l9.16-32.11A54.68,54.68,0,0,1,689,866.93Z"></path>
                <path d="M683.41,845.49l-9.16,32.11a5.7,5.7,0,0,0-.23,1.54h-3.71v-9.2a36.21,36.21,0,0,0-31.37-36,192.56,192.56,0,0,1-70.24-24.41,183,183,0,0,1-18.48-12.36l0-14.38v-10h0a169.19,169.19,0,0,0,27.91,20.51,173.13,173.13,0,0,0,63.44,22A55,55,0,0,1,683.41,845.49Z"></path>
                <path d="M681.69,467.07a17.52,17.52,0,0,0-.38,2,45.22,45.22,0,0,0-6.76,5.1,50.13,50.13,0,0,0-10.63,14,5.59,5.59,0,0,1-7.59,2.44,5.52,5.52,0,0,1-2.78-3.26A116.54,116.54,0,0,1,681.69,467.07Z"></path>
                <path d="M680.45,455.08l.63,1.28A58.62,58.62,0,0,0,667,465.83a60.85,60.85,0,0,0-13.07,17.24,5.63,5.63,0,0,0-.34,4.32A127.56,127.56,0,0,0,635.79,509l-.42-.07a5.53,5.53,0,0,0-2.66-6.09l-4.59-2.63a133,133,0,0,1,49-43.53C678.23,456.13,679.32,455.57,680.45,455.08Z"></path>
                <path d="M679.92,353.86c-1,.67-2,1.35-3,2a10.28,10.28,0,0,0-1.21.78c-.78.49-1.54,1-2.32,1.58h0C675.53,356.75,677.7,355.28,679.92,353.86Z"></path>
                <path d="M671.21,359.68l-1.13.79C670.49,360.17,670.83,359.94,671.21,359.68Z"></path>
                <path d="M667,362.65c-.83.56-1.62,1.12-2.44,1.72-.64.46-1.28.91-1.92,1.39C664.07,364.68,665.53,363.62,667,362.65Z"></path>
                <path d="M662.64,365.76c-1.61,1.13-3.23,2.3-4.81,3.54C659.41,368.09,661,366.89,662.64,365.76Z"></path>
                <path d="M659.49,331.32c-1.09.72-2.14,1.47-3.23,2.22C657.35,332.75,658.4,332,659.49,331.32Z"></path>
                <path d="M657.83,369.3c-.63.45-1.27.93-1.91,1.42s-1.28.94-1.92,1.43C655.24,371.17,656.52,370.23,657.83,369.3Z"></path>
                <path d="M654.6,334.63c-1.23.86-2.47,1.69-3.68,2.55.68-.49,1.36-.94,2-1.43S654.08,335,654.6,334.63Z"></path>
                <path d="M654,372.15c-1.76,1.35-3.53,2.7-5.25,4.06C650.47,374.85,652.24,373.5,654,372.15Z"></path>
                <path d="M650.92,337.18c-.67.45-1.35.94-2,1.43-1.24.9-2.48,1.76-3.72,2.66C647.09,339.89,649,338.53,650.92,337.18Z"></path>
                <path d="M648.75,376.21c-.64.48-1.28,1-1.88,1.5-3,2.36-5.9,4.77-8.83,7.21C641.57,382,645.14,379.06,648.75,376.21Z"></path>
                <path d="M645.21,341.27c-1.23.87-2.47,1.77-3.68,2.71-1.46,1.09-2.93,2.14-4.35,3.23C639.84,345.18,642.51,343.19,645.21,341.27Z"></path>
                <path d="M632.71,502.86a5.53,5.53,0,0,1,2.66,6.09,4.21,4.21,0,0,1-.6,1.57,5.56,5.56,0,0,1-4.88,2.86,6.07,6.07,0,0,1-2.82-.75l-2.33-1.36c-.18-1-.3-1.95-.41-2.81l-.26-2,1.09-1.73c.94-1.54,2-3,3-4.51Z"></path>
                <path d="M632.89,350.51c-1.12.91-2.32,1.81-3.49,2.71Q631.16,351.81,632.89,350.51Z"></path>
                <path d="M629.4,353.22c-2.89,2.29-5.82,4.66-8.67,7C623.62,357.84,626.47,355.51,629.4,353.22Z"></path>
                <path d="M638,384.92c-5.82,4.88-11.53,9.95-17.09,15.14Q629.29,392.17,638,384.92Z"></path>
                <path d="M564.61,463.72l63.51,36.51c-1,1.47-2,3-3,4.51l-1.09,1.73.26,2c.11.86.23,1.8.41,2.81L558,472.92l2.44-3.49C561.83,467.52,563.18,465.6,564.61,463.72Z"></path>
                <path d="M621,400.06c-2.63,2.44-5.18,4.88-7.74,7.36C615.77,404.86,618.36,402.42,621,400.06Z"></path>
                <path d="M620.73,360.24c-2.86,2.37-5.71,4.81-8.49,7.25-1.06.9-2.11,1.84-3.16,2.78C612.91,366.82,616.78,363.47,620.73,360.24Z"></path>
                <path d="M612.24,408.4c-2.6,2.51-5.11,5.1-7.63,7.7C607.05,413.47,609.64,410.87,612.24,408.4Z"></path>
                <path d="M606.64,372.45c-1,.94-2.1,1.88-3.12,2.82s-1.8,1.65-2.7,2.51C602.73,375.94,604.69,374.18,606.64,372.45Z"></path>
                <path d="M604.61,416.1c-2.67,2.74-5.26,5.52-7.85,8.33C599.28,421.62,601.87,418.84,604.61,416.1Z"></path>
                <path d="M595.63,382.67q-3.15,3-6.19,6.08c-1.28,1.24-2.56,2.52-3.8,3.8Q590.54,387.47,595.63,382.67Z"></path>
                <path d="M596.76,424.43c-5.14,5.56-10.1,11.27-15,17.13C586.62,435.7,591.58,430,596.76,424.43Z"></path>
                <path d="M578.28,1044l.83,133.46H560.33l-.83-133.34a9.36,9.36,0,0,1,9.32-9.43h.07A9.37,9.37,0,0,1,578.28,1044Z"></path>
                <path d="M574.38,450.8c-2.11,2.67-4.21,5.37-6.24,8.11C570.17,456.17,572.23,453.47,574.38,450.8Z"></path>
                <path d="M564.61,463.72c-1.43,1.88-2.78,3.8-4.13,5.71L558,472.92h0l-12.62-7.24a5.64,5.64,0,1,1,5.63-9.77Z"></path>
                <polygon points="558.04 472.93 555.71 476.27 555.67 476.27 558 472.93 558.04 472.93"></polygon>
                <path d="M550.26,782.76v.08l0,14.38c-1.54-1.16-3.11-2.36-4.62-3.64a14.92,14.92,0,0,0,4.62-10.82l0-9.88Z"></path>
                <path d="M550.26,772.88l0,9.88a14.92,14.92,0,0,1-4.62,10.82c-.33-.23-.67-.53-1-.79v1.69a15,15,0,0,1-9.39,3.27h0a15.05,15.05,0,0,1-9.35-3.31v0l.11-46.09L542,764.88C544.67,767.62,547.41,770.29,550.26,772.88Z"></path>
                <path d="M550.22,797.22l-.15,69.11-7.43,4.32a15,15,0,0,0,5.41-20.54,14.19,14.19,0,0,0-3.54-4.06l.08-51.57,1-.9C547.11,794.86,548.68,796.06,550.22,797.22Z"></path>
                <path d="M548.05,850.11a15,15,0,0,1-5.41,20.54l-107.8,63.07-.23.11c-6.5,3.79-12.77,7.89-18.85,12.21s-12,9-17.62,13.86c-1.43,1.16-2.82,2.4-4.21,3.68-2.89,2.59-5.7,5.26-8.48,8-1.21,1.12-2.41,2.33-3.53,3.57-2.6,2.66-5.15,5.37-7.59,8.15-1.28,1.35-2.48,2.78-3.65,4.17s-2.44,2.81-3.56,4.28-2.33,2.89-3.46,4.36-2.29,2.92-3.34,4.43-2.26,3-3.27,4.47a245.32,245.32,0,0,0-32.9,64.3l-36.62,108.14H256.2L295.75,1060a280.22,280.22,0,0,1,42.14-79.7c1.54-2,3.05-4,4.62-5.93,1.92-2.41,3.91-4.78,5.9-7.14,1.69-2,3.42-3.91,5.15-5.82,1.39-1.54,2.78-3.05,4.17-4.51.63-.68,1.27-1.35,1.95-2,1.69-1.8,3.46-3.57,5.22-5.29,4.43-4.32,9-8.53,13.71-12.59l4.88-4.09c4.81-3.95,9.73-7.7,14.8-11.35q10.32-7.32,21.37-13.82l100.4-58.7,5.67-3.27,0,11.87a9.34,9.34,0,0,0,9.35,9.42h0a9.44,9.44,0,0,0,9.39-9.39l0-11.64A14.19,14.19,0,0,1,548.05,850.11Z"></path>
                <path d="M544.59,792.79c.34.26.68.56,1,.79l-1,.9Z"></path>
                <path d="M544.59,794.48l-.08,51.57a14.93,14.93,0,0,0-17-1.31l-1.77,1,.08-51.35a15.05,15.05,0,0,0,9.35,3.31h0A15,15,0,0,0,544.59,794.48Z"></path>
                <path d="M544.51,846.05l0,11.64a9.44,9.44,0,0,1-9.39,9.39h0a9.34,9.34,0,0,1-9.35-9.42l0-11.87,1.77-1A14.93,14.93,0,0,1,544.51,846.05Z"></path>
                <path d="M540.83,445.28v0l-26.33-1.54a27,27,0,0,0-3.11,0c-.34,0-.68,0-1,0s-.64,0-1,.07a2,2,0,0,0-.49,0c-.72.08-1.39.15-2.11.26a35.18,35.18,0,0,1,7.7-.41Z"></path>
                <path d="M525.81,794.41v0l-.08,51.35-5.67,3.27.15-65.62A14.81,14.81,0,0,0,525.81,794.41Z"></path>
                <path d="M520.66,574.68l-.45,208v.75a6.35,6.35,0,0,1,0-.75Z"></path>
                <path d="M510,474.77a3.81,3.81,0,0,1,1.13-.76A3.81,3.81,0,0,0,510,474.77Z"></path>
                <path d="M510,474.77c-.18.15-.3.3-.48.48A2.18,2.18,0,0,1,510,474.77Z"></path>
                <path d="M508.76,530.47c.3.34.6.64.9.94a11,11,0,0,1-1.77-2A7.58,7.58,0,0,0,508.76,530.47Z"></path>
                <path d="M509,476.46a5.4,5.4,0,0,0-.16.78A5.4,5.4,0,0,1,509,476.46Z"></path>
                <path d="M506.65,527.12a6.69,6.69,0,0,0,.57,1.21C507,527.91,506.8,527.54,506.65,527.12Z"></path>
                <path d="M506.5,444.23a19.67,19.67,0,0,0-2.1.45c-.71.19-1.43.37-2.1.6l-1.58.56c-.53.19-1.05.42-1.54.64s-.9.38-1.35.6A31.2,31.2,0,0,1,506.5,444.23Z"></path>
                <path d="M505.9,523.26c0,.41,0,.82.08,1.24C505.94,524.08,505.9,523.67,505.9,523.26Z"></path>
                <path d="M497.83,447.08a14.55,14.55,0,0,0-1.66.87l-1.35.79A19.71,19.71,0,0,1,497.83,447.08Z"></path>
                <path d="M494.82,448.74c-1.05.63-2,1.35-3,2.06A23.78,23.78,0,0,1,494.82,448.74Z"></path>
                <path d="M490.16,554.24a41.77,41.77,0,0,0,4.1,3.08A36.27,36.27,0,0,1,490.16,554.24Z"></path>
                <path d="M488.29,552.52c.6.6,1.24,1.16,1.87,1.72C489.53,553.68,488.89,553.12,488.29,552.52Z"></path>
                <path d="M488.78,453.51c-.34.33-.64.63-1,1A7.83,7.83,0,0,1,488.78,453.51Z"></path>
                <path d="M487.69,454.63c-.34.38-.68.75-1,1.17A9.29,9.29,0,0,1,487.69,454.63Z"></path>
                <path d="M486.67,455.8a13.22,13.22,0,0,0-.94,1.16A9.35,9.35,0,0,1,486.67,455.8Z"></path>
                <path d="M484.94,458.05a3.53,3.53,0,0,0-.41.6,12,12,0,0,0-.79,1.17A17.74,17.74,0,0,1,484.94,458.05Z"></path>
                <path d="M483.74,459.82c-.19.26-.34.56-.52.86C483.4,460.38,483.55,460.12,483.74,459.82Z"></path>
                <path d="M478.82,475.33,476,520.63a41.27,41.27,0,0,0,.18,7.13,37.61,37.61,0,0,1-.22-7.13Z"></path>
                <path d="M477.43,534.3c.11.45.26.9.41,1.35C477.69,535.2,477.54,534.75,477.43,534.3Z"></path>
                <path d="M476.3,529c.08.6.19,1.16.31,1.77A16,16,0,0,1,476.3,529Z"></path>
                <path d="M416,1017.29a9.45,9.45,0,0,1,5.94,11.91l-49.43,148.25h-19.8l51.39-154.19A9.45,9.45,0,0,1,416,1017.29Z"></path>
                <path d="M415.76,946c6.08-4.32,12.35-8.42,18.85-12.21C428.11,937.62,421.84,941.72,415.76,946Z"></path>
                <path d="M398.14,959.9c-1.43,1.2-2.82,2.44-4.21,3.68C395.32,962.3,396.71,961.06,398.14,959.9Z"></path>
                <path d="M385.45,971.58c-1.21,1.16-2.37,2.36-3.53,3.57C383,973.91,384.24,972.7,385.45,971.58Z"></path>
                <path d="M381.92,975.15c-2.6,2.66-5.11,5.37-7.59,8.15C376.77,980.52,379.32,977.81,381.92,975.15Z"></path>
                <path d="M374.33,983.3c-1.24,1.39-2.44,2.78-3.65,4.17C371.85,986.08,373.05,984.65,374.33,983.3Z"></path>
                <path d="M364.9,949.61c4.43-4.36,9-8.57,13.71-12.59C373.88,941.08,369.33,945.29,364.9,949.61Z"></path>
                <path d="M370.68,987.47c-1.2,1.42-2.4,2.85-3.56,4.28C368.24,990.28,369.45,988.89,370.68,987.47Z"></path>
                <path d="M364.9,949.61c-1.76,1.72-3.53,3.49-5.22,5.29C361.37,953.1,363.14,951.33,364.9,949.61Z"></path>
                <path d="M363.66,996.11c-1.13,1.46-2.25,2.92-3.34,4.43C361.37,999,362.5,997.57,363.66,996.11Z"></path>
                <path d="M360.32,1000.54c-1.13,1.46-2.22,3-3.27,4.47C358.06,1003.5,359.15,1002,360.32,1000.54Z"></path>
                <path d="M357.73,956.93c-1.39,1.46-2.78,3-4.17,4.51C354.91,959.93,356.34,958.39,357.73,956.93Z"></path>
                <path d="M353.56,961.44c-1.73,1.91-3.46,3.87-5.15,5.82C350.1,965.31,351.79,963.35,353.56,961.44Z"></path>
                <path d="M342.51,974.4c-1.57,2-3.08,3.94-4.62,5.93C339.4,978.34,340.94,976.35,342.51,974.4Z"></path>
                <path d="M324.15,1069.31a245.32,245.32,0,0,1,32.9-64.3,250.66,250.66,0,0,0-32.83,64.6L287.9,1177.45h-.37Z"></path>
                <path d="M163.8,538.62A61.36,61.36,0,1,1,102.47,600,61.41,61.41,0,0,1,163.8,538.62ZM213.87,600a50.07,50.07,0,1,0-50.07,50.07A50.15,50.15,0,0,0,213.87,600Z"></path>
                <path d="M163.8,549.89A50.09,50.09,0,1,1,113.73,600,50.15,50.15,0,0,1,163.8,549.89Z"
                      class="cls-10"></path>
                <path d="M163.8,157.9a39.44,39.44,0,1,1-39.44,39.44A39.49,39.49,0,0,1,163.8,157.9ZM192,197.34a28.17,28.17,0,1,0-28.17,28.17A28.18,28.18,0,0,0,192,197.34Z"></path>
                <circle r="28.17" cy="197.34" cx="163.8" class="cls-11"></circle>
            </g>
            <path d="M550.74,558.49s2.68,178.76,160.94,188.06L683.4,845.48S670,818.75,641.63,815.39c0,0-53-5.15-91.38-42.52Z"
                  class="cls-12"></path>
            <path d="M765.55,531.68a1.55,1.55,0,0,1-.69-.16,1.5,1.5,0,0,1-.64-2l19.25-37.4a1.5,1.5,0,1,1,2.67,1.37l-19.26,37.4A1.48,1.48,0,0,1,765.55,531.68Z"
                  class="cls-8"></path>
            <path d="M745.43,528.74a1.4,1.4,0,0,1-.68-.17,1.5,1.5,0,0,1-.65-2l19.25-37.39a1.5,1.5,0,1,1,2.67,1.37l-19.25,37.4A1.53,1.53,0,0,1,745.43,528.74Z"
                  class="cls-8"></path>
            <path d="M553.44,323.2a5.13,5.13,0,0,1-2.08-.45,5,5,0,0,1-2.47-6.63,136.14,136.14,0,0,1,40.69-51.5A132.83,132.83,0,0,1,622.88,246a5,5,0,0,1,3.58,9.34,122.69,122.69,0,0,0-30.79,17.19A126,126,0,0,0,558,320.27,5,5,0,0,1,553.44,323.2Z"
                  class="cls-13"></path>
            <path d="M528.77,298.53a4.91,4.91,0,0,1-2.07-.46,5,5,0,0,1-2.48-6.62A136.16,136.16,0,0,1,564.91,240a132.83,132.83,0,0,1,33.3-18.59,5,5,0,1,1,3.58,9.33A122.73,122.73,0,0,0,571,247.89a126,126,0,0,0-37.68,47.71A5,5,0,0,1,528.77,298.53Z"
                  class="cls-13"></path>
            <path d="M507,273.08a4.93,4.93,0,0,1-2.07-.45,5,5,0,0,1-2.47-6.62,135.89,135.89,0,0,1,40.69-51.5,133,133,0,0,1,33.29-18.59,5,5,0,0,1,3.59,9.33,123,123,0,0,0-30.8,17.2,126,126,0,0,0-37.67,47.71A5,5,0,0,1,507,273.08Z"
                  class="cls-13"></path>
            <path d="M919.33,497.12a1.52,1.52,0,0,1-.68-.17,1.5,1.5,0,0,1-.65-2l20.72-40.24a1.5,1.5,0,0,1,2.67,1.37L920.67,496.3A1.51,1.51,0,0,1,919.33,497.12Z"
                  class="cls-8"></path>
            <path d="M725.36,870.3l-25.07-42.87L689,867.07l.07,35.12S719.33,913.88,715.4,947l-27.34,230.44H790.6S735.08,886.94,725.36,870.3Z"
                  class="cls-14"></path>
            <path d="M869.72,612.7s-6.46,32-34.11,42.59c0,0,3.29-1.69,2.45-6.44,0,0-2.35-5-7-3.74,0,0-30.55,11.32-61.32-2.43,0,0,17.38-4.87,28-16.35,8-8.57,10.11-11.88,13.09-13.26a14.11,14.11,0,0,1,3.57-.89c10-1.93,11.9,1.74,17.29-.21,4.54-1.64,5.33-5,12.08-6.56a13.9,13.9,0,0,1,2.05-.37c2.5-.2,7,.69,15.95,8.35C861.78,613.39,867.3,616.51,869.72,612.7Z"
                  class="cls-15"></path>
        </g>
    </g>
</svg>