<svg viewBox="0 0 1200 1200" xmlns="http://www.w3.org/2000/svg">
    <defs>
        <style>
            .cls-1{fill:#498e1c;}.cls-2{fill:#fff985;}.cls-3{fill:#2c3527;}.cls-4{fill:#c1c1c1;}.cls-5{fill:#ffc599;}.cls-6{fill:#ff4622;}.cls-7{fill:#eaae86;}.cls-8{fill:#192114;}.cls-9{fill:#232323;}.cls-10{fill:#ff8a8a;}.cls-11{fill:#213316;}.cls-12{fill:#333;}
        </style>
    </defs>
    <title>10 (4)</title>
    <g id="图层_2">
        <g id="_10">
            <g id="_编组_">
                <path d="M1200,0V1200H951.16v-.19a14.7,14.7,0,0,0,4.73-.75,15.05,15.05,0,0,0,9.58-19l-.87-2.63h212.86V22.54H22.54V1030.19c-3.8,1.65-7.44,3-10.82,4.13A15,15,0,0,0,1.43,1048.6H0V0Z"></path>
                <path d="M1177.46,22.54V1177.46H964.6L938.76,1099,749.19,980.31c-2.89-10.66-8.07-19.45-15.44-26.25a50.55,50.55,0,0,0-14.87-9.47L603,895.69l14.65-22.54,17.47,8.3,1.16.34A84.79,84.79,0,0,0,688,880.48c20.09-7,32.94-20.58,40.82-30.2,25.55-31.1,42.15-63.81,56.76-92.7,9.61-19,18.7-36.88,29-51.49a146.37,146.37,0,0,0,17.95-35.42c4.21-12.17,6.16-23.06,6-33.32a75.65,75.65,0,0,0-1.35-13.29c-.34-1.92-.64-3.57-.83-5.64-.9-9.27,1.17-16.34,4.29-27l1-3.61q4.05-13.92,7.66-29a100.57,100.57,0,0,1,15.17,18.06L884,606.29l7.7-34.44c12.58-56.19,15.29-112.76,8-168.16l-.15-1.2C893,352.61,886.22,301,847.49,252.18c-33.73-42.52-78.8-65.88-110.69-77.94-81.74-31-155.69-14.69-194.38-1.16a231.07,231.07,0,0,0-91.61,10C446.07,184.57,334,221.6,303.91,324c-12.66,43-5.64,79.1,4,129.17A458.31,458.31,0,0,0,342.67,560a48.33,48.33,0,0,0-7.81,8.6c-7,10-10.22,21-8.91,31l6.84,52.92A37,37,0,0,0,360,683.59l13.52,3.61c.07,0,5.18,1.38,10.29,2.74l4,1,14.72,26.63L359.2,854.11l-162.91,21.6a25.87,25.87,0,0,0-4.5.82,30.88,30.88,0,0,0-6.16,2.22l-42,20.7a31.13,31.13,0,0,0-17.47,28.09v6.72a1.23,1.23,0,0,1-.79,1.17L89.77,949.21a31.52,31.52,0,0,0-20,29.19v7.77a75.9,75.9,0,0,1-4.36,8.34c-11,18.22-27.91,29.18-42.89,35.68V22.54Zm-90,911.12c2.11-4.65,6-13.29,5.19-24.34a41.13,41.13,0,0,0-2.41-10.93,47.61,47.61,0,0,1-2-8,45.66,45.66,0,0,1-.23-12.65,9.29,9.29,0,0,0-4.84-9.39,9.17,9.17,0,0,0-10.3,1,47.1,47.1,0,0,0-8.49,9.21,50.29,50.29,0,0,0-5,9.57,25.87,25.87,0,0,1-3.68,6.88,23.66,23.66,0,0,1-5.64,5.1c1.92-9.91.68-18-3.68-24-4.24-5.82-9.76-7.62-14.61-9.24-3.23-1.05-6-2-8.41-4-8.08-6.83-7-24-4.7-37.26a9.31,9.31,0,0,0-15.1-8.79,84.45,84.45,0,0,0-29.14,83.39,26.66,26.66,0,0,1-4-2.37,26.29,26.29,0,0,1-9.16-12.24,9.15,9.15,0,0,0-8-5.86,9.39,9.39,0,0,0-8.9,4.95c-11.2,20.85-11,44.48.56,61.6,9.32,13.79,23.44,19.46,31,21.64a5.64,5.64,0,0,0,3-10.86c-6.09-1.72-17.43-6.23-24.72-17-8.56-12.73-9.16-30.24-1.76-46.46A38.17,38.17,0,0,0,963.85,907a38.84,38.84,0,0,0,10.56,5.33,9.2,9.2,0,0,0,9.2-2.1,9.32,9.32,0,0,0,2.63-9.09,73,73,0,0,1,20.51-72c-2.86,20.77.22,34.63,9.39,42.36,4,3.46,8.34,4.85,12.17,6.09,4.39,1.46,7,2.4,8.94,5.14,2.89,4,3.23,10.3,1,18.71a9.33,9.33,0,0,0,13,10.89A36.28,36.28,0,0,0,1064.55,902a36.89,36.89,0,0,0,5.3-9.54,31.42,31.42,0,0,1,6.61-11,59.52,59.52,0,0,0,.64,10.71,60.91,60.91,0,0,0,2.48,9.73,32.88,32.88,0,0,1,1.88,8.26c.56,8.19-2.33,14.61-4.25,18.89-9.16,20.36-34.63,28.89-39.66,30.39a5.64,5.64,0,0,0,1.61,11,4.82,4.82,0,0,0,1.62-.26C1046.64,968.48,1076.31,958.49,1087.5,933.66Zm-19.38-593.48c1.58-3.46,4.47-9.88,3.83-18.18a30.45,30.45,0,0,0-1.76-8.19,32,32,0,0,1-1.39-5.48,31.23,31.23,0,0,1-.15-8.6,8.28,8.28,0,0,0-13.45-7.44,34.89,34.89,0,0,0-6.35,6.91,36.81,36.81,0,0,0-3.75,7.14,17,17,0,0,1-2.41,4.54c-.22.27-.41.49-.63.72.45-5.64-.72-10.41-3.46-14.16-3.34-4.62-7.7-6.05-11.23-7.21a15.78,15.78,0,0,1-5.48-2.52c-4.1-3.49-5.08-12.17-2.82-25.13a8.25,8.25,0,0,0-13.41-7.81A63.31,63.31,0,0,0,985,286.84a62.49,62.49,0,0,0-1.31,25.51,17.66,17.66,0,0,1-5.67-7.78,8.15,8.15,0,0,0-7.14-5.22,8.33,8.33,0,0,0-7.85,4.4c-8.3,15.43-8.11,32.94.49,45.71,6.91,10.25,17.39,14.5,23,16.07a5.64,5.64,0,1,0,3.08-10.85c-4.13-1.17-11.83-4.25-16.75-11.53-5.33-7.89-6.08-18.48-2.37-28.66a28.46,28.46,0,0,0,6.88,7.21,28,28,0,0,0,8,4.06,8.25,8.25,0,0,0,10.52-9.92,51.46,51.46,0,0,1,0-26.07,50.33,50.33,0,0,1,11-20.43c-1,12.81,1.54,21.67,7.78,27a25.73,25.73,0,0,0,9.24,4.62c2.93,1,4.51,1.54,5.63,3.08,2.18,3,1.43,8.23.42,12.06a8.18,8.18,0,0,0,2.66,8.48,8.29,8.29,0,0,0,8.87,1.17,28.49,28.49,0,0,0,10.14-7.85,29.75,29.75,0,0,0,4-7.21,32.59,32.59,0,0,1,1.73-3.72c.11,1.05.22,2.1.37,3.15a41.38,41.38,0,0,0,1.84,7.22,20.28,20.28,0,0,1,1.24,5.52c.42,5.44-1.57,9.84-2.85,12.73-6.42,14.2-25.24,20.21-27.35,20.85a5.62,5.62,0,0,0,1.62,11,6.11,6.11,0,0,0,1.61-.22C1038,365.91,1059.86,358.55,1068.12,340.18ZM273.67,769.94c1.58-3.46,4.47-9.88,3.87-18.18a31.89,31.89,0,0,0-1.8-8.19,30.94,30.94,0,0,1-1.54-14.08,8.27,8.27,0,0,0-13.45-7.44,33.26,33.26,0,0,0-10.07,14.05,17.39,17.39,0,0,1-2.44,4.54c-.19.27-.41.49-.6.72.41-5.64-.75-10.41-3.49-14.2-3.35-4.58-7.7-6-11.23-7.18a16.49,16.49,0,0,1-5.49-2.51c-4.09-3.49-5.07-12.21-2.82-25.13a8.24,8.24,0,0,0-13.4-7.81,61.87,61.87,0,0,0-22,57.58,17.66,17.66,0,0,1-5.63-7.78,8.13,8.13,0,0,0-7.14-5.22,8.29,8.29,0,0,0-7.88,4.4c-8.3,15.43-8.12,32.94.48,45.71,6.92,10.25,17.43,14.46,23,16.07a5.64,5.64,0,1,0,3.08-10.85c-4.13-1.17-11.83-4.25-16.75-11.53-5.34-7.89-6.09-18.48-2.37-28.7a27.6,27.6,0,0,0,6.91,7.25,27.9,27.9,0,0,0,8,4.06,8.2,8.2,0,0,0,8.18-1.84,8.32,8.32,0,0,0,2.33-8.08,51.68,51.68,0,0,1,0-26.1,50.77,50.77,0,0,1,11-20.44c-1,12.85,1.5,21.71,7.77,27a25.39,25.39,0,0,0,9.21,4.62c2.93,1,4.5,1.54,5.63,3.08,2.18,3,1.43,8.23.41,12A8.27,8.27,0,0,0,247,755.44a27.41,27.41,0,0,0,10.15-7.85,28.88,28.88,0,0,0,4-7.17,29.62,29.62,0,0,1,1.72-3.72c.12,1,.23,2.1.38,3.15a45.4,45.4,0,0,0,1.84,7.22,20.28,20.28,0,0,1,1.24,5.52c.41,5.44-1.54,9.8-2.85,12.69-6.43,14.24-25.25,20.25-27.35,20.89a5.57,5.57,0,0,0-3.79,7,5.65,5.65,0,0,0,5.41,4,6.17,6.17,0,0,0,1.61-.22C243.58,795.67,265.41,788.31,273.67,769.94ZM221.76,221.45c1.54-3.45,4.43-9.88,3.83-18.18a31.71,31.71,0,0,0-1.8-8.18,32.15,32.15,0,0,1-1.39-5.49,31.23,31.23,0,0,1-.15-8.6,8.28,8.28,0,0,0-13.45-7.44,35.79,35.79,0,0,0-6.35,6.92,34.17,34.17,0,0,0-3.71,7.13,17.3,17.3,0,0,1-2.45,4.55c-.18.26-.41.48-.6.71.42-5.63-.75-10.4-3.49-14.16-3.31-4.62-7.7-6.05-11.23-7.21a15.71,15.71,0,0,1-5.45-2.52c-4.13-3.49-5.11-12.17-2.81-25.13a8.25,8.25,0,0,0-4.06-8.63,8.16,8.16,0,0,0-9.39.82,63.3,63.3,0,0,0-20.7,32.12,62.23,62.23,0,0,0-1.31,25.46,17.37,17.37,0,0,1-5.64-7.74,8.13,8.13,0,0,0-7.13-5.25,8.43,8.43,0,0,0-7.89,4.39c-8.3,15.44-8.11,32.94.49,45.71,7,10.25,17.43,14.5,23.06,16.08A5.64,5.64,0,0,0,143.22,236c-4.17-1.16-11.87-4.24-16.79-11.53-5.3-7.89-6.08-18.48-2.37-28.66A28.75,28.75,0,0,0,131,203a27.84,27.84,0,0,0,8,4,8.14,8.14,0,0,0,8.15-1.84,8.29,8.29,0,0,0,2.33-8.08,51.86,51.86,0,0,1,0-26.06,50.11,50.11,0,0,1,11-20.43c-1.05,12.8,1.54,21.67,7.78,27a25.92,25.92,0,0,0,9.24,4.66c2.89.94,4.47,1.5,5.59,3,2.22,3.08,1.43,8.23.42,12.06A8.28,8.28,0,0,0,195,207a27.79,27.79,0,0,0,10.14-7.85,29.57,29.57,0,0,0,4-7.21,27.27,27.27,0,0,1,1.77-3.72,27.53,27.53,0,0,0,.37,3.16,44.94,44.94,0,0,0,1.8,7.21,20.28,20.28,0,0,1,1.24,5.52c.42,5.45-1.54,9.8-2.85,12.73-6.42,14.2-25.24,20.21-27.35,20.85a5.64,5.64,0,0,0,1.62,11,6,6,0,0,0,1.61-.26C191.64,247.18,213.46,239.86,221.76,221.45Z"
                      class="cls-1"></path>
                <path d="M1092.69,909.32c.79,11-3.08,19.69-5.19,24.34-11.19,24.83-40.86,34.82-46.72,36.55a4.82,4.82,0,0,1-1.62.26,5.64,5.64,0,0,1-1.61-11c5-1.5,30.5-10,39.66-30.39,1.92-4.28,4.81-10.7,4.25-18.89a32.88,32.88,0,0,0-1.88-8.26,60.91,60.91,0,0,1-2.48-9.73,59.52,59.52,0,0,1-.64-10.71,31.42,31.42,0,0,0-6.61,11,36.89,36.89,0,0,1-5.3,9.54,36.28,36.28,0,0,1-13.33,10.33,9.33,9.33,0,0,1-13-10.89c2.26-8.41,1.92-14.72-1-18.71-2-2.74-4.55-3.68-8.94-5.14-3.83-1.24-8.15-2.63-12.17-6.09-9.17-7.73-12.25-21.59-9.39-42.36a73,73,0,0,0-20.51,72,9.32,9.32,0,0,1-2.63,9.09,9.2,9.2,0,0,1-9.2,2.1A38.84,38.84,0,0,1,963.85,907a38.17,38.17,0,0,1-11.3-13.41c-7.4,16.22-6.8,33.73,1.76,46.46,7.29,10.82,18.63,15.33,24.72,17a5.64,5.64,0,0,1-3,10.86c-7.59-2.18-21.71-7.85-31-21.64-11.53-17.12-11.76-40.75-.56-61.6a9.39,9.39,0,0,1,8.9-4.95,9.15,9.15,0,0,1,8,5.86,26.29,26.29,0,0,0,9.16,12.24,26.66,26.66,0,0,0,4,2.37,84.45,84.45,0,0,1,29.14-83.39,9.31,9.31,0,0,1,15.1,8.79c-2.33,13.22-3.38,30.43,4.7,37.26,2.36,2,5.18,2.93,8.41,4,4.85,1.62,10.37,3.42,14.61,9.24,4.36,6,5.6,14.09,3.68,24a23.66,23.66,0,0,0,5.64-5.1,25.87,25.87,0,0,0,3.68-6.88,50.29,50.29,0,0,1,5-9.57,47.1,47.1,0,0,1,8.49-9.21,9.17,9.17,0,0,1,10.3-1,9.29,9.29,0,0,1,4.84,9.39,45.66,45.66,0,0,0,.23,12.65,47.61,47.61,0,0,0,2,8A41.13,41.13,0,0,1,1092.69,909.32Z"
                      class="cls-2"></path>
                <path d="M1072,322c.64,8.3-2.25,14.72-3.83,18.18-8.26,18.37-30.08,25.73-34.37,27a6.11,6.11,0,0,1-1.61.22,5.62,5.62,0,0,1-1.62-11c2.11-.64,20.93-6.65,27.35-20.85,1.28-2.89,3.27-7.29,2.85-12.73a20.28,20.28,0,0,0-1.24-5.52,41.38,41.38,0,0,1-1.84-7.22c-.15-1-.26-2.1-.37-3.15a32.59,32.59,0,0,0-1.73,3.72,29.75,29.75,0,0,1-4,7.21,28.49,28.49,0,0,1-10.14,7.85,8.29,8.29,0,0,1-8.87-1.17,8.18,8.18,0,0,1-2.66-8.48c1-3.83,1.76-9-.42-12.06-1.12-1.54-2.7-2.1-5.63-3.08a25.73,25.73,0,0,1-9.24-4.62c-6.24-5.3-8.79-14.16-7.78-27a50.33,50.33,0,0,0-11,20.43,51.46,51.46,0,0,0,0,26.07,8.25,8.25,0,0,1-10.52,9.92,28,28,0,0,1-8-4.06,28.46,28.46,0,0,1-6.88-7.21c-3.71,10.18-3,20.77,2.37,28.66,4.92,7.28,12.62,10.36,16.75,11.53a5.64,5.64,0,1,1-3.08,10.85c-5.63-1.57-16.11-5.82-23-16.07-8.6-12.77-8.79-30.28-.49-45.71a8.33,8.33,0,0,1,7.85-4.4,8.15,8.15,0,0,1,7.14,5.22,17.66,17.66,0,0,0,5.67,7.78A62.49,62.49,0,0,1,985,286.84a63.31,63.31,0,0,1,20.7-32.07,8.25,8.25,0,0,1,13.41,7.81c-2.26,13-1.28,21.64,2.82,25.13a15.78,15.78,0,0,0,5.48,2.52c3.53,1.16,7.89,2.59,11.23,7.21,2.74,3.75,3.91,8.52,3.46,14.16.22-.23.41-.45.63-.72a17,17,0,0,0,2.41-4.54,36.81,36.81,0,0,1,3.75-7.14,34.89,34.89,0,0,1,6.35-6.91,8.28,8.28,0,0,1,13.45,7.44,31.23,31.23,0,0,0,.15,8.6,32,32,0,0,0,1.39,5.48A30.45,30.45,0,0,1,1072,322Z"
                      class="cls-2"></path>
                <path d="M965.47,1180.09a15.05,15.05,0,0,1-9.58,19,14.7,14.7,0,0,1-4.73.75,15,15,0,0,1-14.24-10.33l-3.94-12H964.6Z"></path>
                <path d="M938.76,1099l25.84,78.5H933l-19.38-58.81-171.77-107.5a45.56,45.56,0,0,0,2.63-8.49,2.5,2.5,0,0,0,.11-.71,15,15,0,0,0,6.12-14.76c-.41-2.37-.9-4.66-1.5-6.88Z"></path>
                <path d="M951.16,1199.81v.19H0v-91.2H1.88a9.37,9.37,0,0,0,6.05,8.79c4.73,1.81,9.57,3.61,14.61,5.41v54.46H933l3.94,12A15,15,0,0,0,951.16,1199.81Z"></path>
                <path d="M933,1177.46H22.54V1123c61.33,21.86,144.57,42.29,241.44,42.29a680.14,680.14,0,0,0,121.73-10.93,688.12,688.12,0,0,0,208.43-74.14l121.06-32,4.28.49,19-31a50.07,50.07,0,0,0,3.34-6.57l171.77,107.5Z"
                      class="cls-3"></path>
                <path d="M899.7,403.69c7.29,55.4,4.58,112-8,168.16L884,606.29l-19.5-29.41a100.57,100.57,0,0,0-15.17-18.06q2.7-11.22,5.18-23c3.8,3.34,8,6.83,12.44,10.36a5.64,5.64,0,0,0,7.92-.94,5.57,5.57,0,0,0-.9-7.88c-1.92-1.54-3.76-3-5.52-4.47a446.5,446.5,0,0,0,1.46-125.3l-.18-1.24c-6.28-47.93-12.21-93.23-45.79-135.56-23-29-57.73-53.33-97.77-68.51-70.43-26.7-134.58-14-170.15-2.17-4.85-4.62-9.88-9-15.07-13.15a5.64,5.64,0,0,0-7.06,8.79c3,2.4,5.94,4.88,8.83,7.47A201.75,201.75,0,0,0,460,211.65c-4.13,1.35-101.6,33.54-127.29,120.79-10.56,35.95-4.47,67.38,4.73,115a433.73,433.73,0,0,0,31.47,97.88c-.33,1-.63,2-1,2.93A49.61,49.61,0,0,0,342.67,560a458.31,458.31,0,0,1-34.74-106.9c-9.66-50.07-16.68-86.2-4-129.17C334,221.6,446.07,184.57,450.81,183.07a231.07,231.07,0,0,1,91.61-10c38.69-13.53,112.64-29.83,194.38,1.16,31.89,12.06,77,35.42,110.69,77.94C886.22,301,893,352.61,899.55,402.49Z"></path>
                <path d="M874,537.41a5.57,5.57,0,0,1,.9,7.88,5.64,5.64,0,0,1-7.92.94c-4.47-3.53-8.64-7-12.44-10.36v-.08a15.1,15.1,0,0,0-5.67-15.14,134.51,134.51,0,0,1,19.27,14.58l.34-2.29C870.21,534.4,872.05,535.87,874,537.41Z"></path>
                <path d="M869.91,407.64a446.5,446.5,0,0,1-1.46,125.3c-13.64-11.27-22.39-20.4-24.9-23.85a111.59,111.59,0,0,1-7.82-12.44,14.76,14.76,0,0,0-14.08-7.81,15,15,0,0,0-13.19,9.65c-.52,1.36-1.09,2.75-1.69,4.14-1.35,3-2.81,6.08-4.43,9C784,407.11,734,353.7,696,356.37c-24.64,1.76-43.76,26.44-56.31,49.16A263.25,263.25,0,0,0,556,200.16c35.57-11.8,99.72-24.53,170.15,2.17,40,15.18,74.78,39.52,97.77,68.51,33.58,42.33,39.51,87.63,45.79,135.56Z"
                      class="cls-4"></path>
                <path d="M868.45,532.94l-.34,2.29a134.51,134.51,0,0,0-19.27-14.58s0,0,0,0a10,10,0,0,0-1.16-.75,12,12,0,0,0-1.88-1,1.44,1.44,0,0,0-.37-.15,17,17,0,0,0-2.67-.79c-.45-.07-.9-.15-1.35-.19a7.35,7.35,0,0,0-1.54-.07,14.63,14.63,0,0,0-1.77.11.36.36,0,0,0-.22,0,10.34,10.34,0,0,0-1.51.26c-.75-.9-1.35-1.69-1.87-2.4A113.58,113.58,0,0,1,825.82,502a3.63,3.63,0,0,0-3.46-2,3.84,3.84,0,0,0-3.38,2.52c-.6,1.5-1.24,3-1.88,4.54a124,124,0,0,1-6.65,13A10.09,10.09,0,0,1,792.12,518c.15.26.31.52.49.78a5.59,5.59,0,0,0,7.78,1.69,5.6,5.6,0,0,0,1.69-7.77l-.41-.64.67-.45c1.62-2.93,3.08-6,4.43-9,.6-1.39,1.17-2.78,1.69-4.14a15,15,0,0,1,13.19-9.65,14.76,14.76,0,0,1,14.08,7.81,111.59,111.59,0,0,0,7.82,12.44C846.06,512.54,854.81,521.67,868.45,532.94Z"></path>
                <path d="M848.84,520.65a15.1,15.1,0,0,1,5.67,15.14v.08a190.52,190.52,0,0,1-18.14-17.73,7,7,0,0,1,1.47-.3.36.36,0,0,1,.22,0,14.63,14.63,0,0,1,1.77-.11,7.35,7.35,0,0,1,1.54.07c.45,0,.9.12,1.35.19a17,17,0,0,1,2.67.79l.37.15a12,12,0,0,1,1.88,1,10,10,0,0,1,1.16.75S848.84,520.65,848.84,520.65Z"></path>
                <path d="M854.51,535.87q-2.47,11.71-5.18,23a4,4,0,0,0-.41-.42A105.81,105.81,0,0,0,832,545.52a15,15,0,0,1-6.69-16.6c0-.19.11-.42.15-.6.19-.53.38-1.05.6-1.58a12.93,12.93,0,0,1,1-1.88s0,0,0-.07a11.23,11.23,0,0,1,1.12-1.58,15.16,15.16,0,0,1,1.28-1.39.31.31,0,0,0,.15-.15c.45-.38.9-.75,1.39-1.09a7.06,7.06,0,0,1,1.47-.94,8.8,8.8,0,0,1,2-.94,13.73,13.73,0,0,1,1.57-.52h.08a.31.31,0,0,1,.26,0A190.52,190.52,0,0,0,854.51,535.87Z"></path>
                <path d="M848.92,558.4a4,4,0,0,1,.41.42q-3.6,15.09-7.66,29l-1,3.61c-3.12,10.62-5.19,17.69-4.29,27,.19,2.07.49,3.72.83,5.64a75.65,75.65,0,0,1,1.35,13.29c.19,10.26-1.76,21.15-6,33.32a146.37,146.37,0,0,1-17.95,35.42c-10.3,14.61-19.39,32.52-29,51.49-14.61,28.89-31.21,61.6-56.76,92.7C721,859.9,708.1,873.49,688,880.48a84.79,84.79,0,0,1-51.73,1.31l-1.16-.34-17.47-8.3L603,895.69l115.88,48.9a50.55,50.55,0,0,1,14.87,9.47c7.37,6.8,12.55,15.59,15.44,26.25L743.86,977a15,15,0,0,0-22.54,16.41c-.11-.37-.19-.79-.26-1.16-1.17-7.06-3.76-12.47-7.63-16a21,21,0,0,0-6.23-3.91L568.75,913.83l9.5-14.35a5.63,5.63,0,0,0-9.39-6.23l-3,4.47,34.56-53.26,11.64,5.71a5.93,5.93,0,0,0,2.48.56,5.62,5.62,0,0,0,2.48-10.67L606.61,835l.19-.3,39,18.59a54.8,54.8,0,0,0,32.41-1.17c14.43-5,23.89-16.52,27.46-20.88,23.44-28.55,38.58-58.37,53.19-87.18,10.1-20,19.68-38.8,31.1-55.13a113.42,113.42,0,0,0,14.23-28c3-8.68,4.44-16.42,4.36-23a51.68,51.68,0,0,0-.94-8.64c-.37-2.18-.82-4.69-1.12-7.88C805,606.25,808.28,595,811.81,583l1-3.53c4.47-15.4,8.6-32.19,12.28-49.84a6.22,6.22,0,0,1,.19-.71,15,15,0,0,0,6.69,16.6A105.81,105.81,0,0,1,848.92,558.4Z"></path>
                <path d="M848.8,520.62a10,10,0,0,0-1.16-.75A10,10,0,0,1,848.8,520.62Z"></path>
                <path d="M845.76,518.89l-.37-.15A1.44,1.44,0,0,1,845.76,518.89Z"></path>
                <path d="M842.72,518c-.45-.07-.9-.15-1.35-.19C841.82,517.8,842.27,517.88,842.72,518Z"></path>
                <path d="M839.83,517.69a14.63,14.63,0,0,0-1.77.11A14.63,14.63,0,0,1,839.83,517.69Z"></path>
                <path d="M837.84,517.84a7,7,0,0,0-1.47.3s0,0,0,0A10.34,10.34,0,0,1,837.84,517.84Z"></path>
                <path d="M836.33,518.1s0,0,0,0a.31.31,0,0,0-.26,0C836.18,518.14,836.26,518.14,836.33,518.1Z"></path>
                <path d="M836.33,518.1c-.07,0-.15,0-.22.08H836a11.55,11.55,0,0,0-1.57.52,8.8,8.8,0,0,0-2,.94,10,10,0,0,0-1.47.94c-.49.34-.94.71-1.39,1.09a.31.31,0,0,1-.15.15c-.45.45-.86.9-1.28,1.39a11.23,11.23,0,0,0-1.12,1.58s0,0,0,.07a11.16,11.16,0,0,0-1,1.88,14.56,14.56,0,0,0-.6,1.58c0,.18-.11.41-.15.6a6.22,6.22,0,0,0-.19.71c-3.68,17.65-7.81,34.44-12.28,49.84l-1,3.53c-3.53,12-6.84,23.25-5.37,38.32.3,3.19.75,5.7,1.12,7.88a51.68,51.68,0,0,1,.94,8.64c.08,6.61-1.39,14.35-4.36,23a113.42,113.42,0,0,1-14.23,28c-11.42,16.33-21,35.15-31.1,55.13-14.61,28.81-29.75,58.63-53.19,87.18-3.57,4.36-13,15.89-27.46,20.88a54.8,54.8,0,0,1-32.41,1.17l-39-18.59-.19.3L556,810.24a5.63,5.63,0,1,0-5,10.1l49.39,24.12-34.56,53.26L539.6,937.49l42.75,77L443.41,999.05a326,326,0,0,1-137-48l-5.89-3.72,74.63-44.47,9.5-29.63a.12.12,0,0,1,0-.11c.15-.42.3-.87.41-1.28a.33.33,0,0,0,0-.19l.45-1.39,0-.19,49.43-155.68L407.88,665.3l-6.13-1.65s-5.14-1.39-10.25-2.75L368,654.63l-.27-.07a7.08,7.08,0,0,1-5.1-5.9l-6.84-52.89c-.22-1.87.6-5.44,3.72-9.87a18.84,18.84,0,0,1,5.3-5,24.18,24.18,0,0,1,4.28-2.1,20.91,20.91,0,0,1,9.27-.94,15,15,0,0,0,11.91-26.14,113.45,113.45,0,0,1,16.27-.53,122.08,122.08,0,0,1,16.07,1.77,3.76,3.76,0,1,0,1.35-7.4,126.25,126.25,0,0,0-17.12-1.88,120.76,120.76,0,0,0-26,1.8c.94-2.85,2-5.89,3.2-9.12a98.5,98.5,0,0,1,31.77-5.26h.08A100.22,100.22,0,0,1,437,533.31a3.76,3.76,0,0,0,4.47-2.89,3.8,3.8,0,0,0-2.89-4.47,109.43,109.43,0,0,0-22.69-2.4h-.08a106.21,106.21,0,0,0-28.51,3.9c1.84-4.73,3.8-9.69,5.94-14.68a117.89,117.89,0,0,1,59.27,1.65,5.11,5.11,0,0,0,1.05.15,3.8,3.8,0,0,0,3.61-2.74,3.73,3.73,0,0,0-2.56-4.62,124.77,124.77,0,0,0-57.69-2.89c1.77-3.91,3.61-7.78,5.56-11.57a189.72,189.72,0,0,1,71.7,1.95,3.07,3.07,0,0,0,.83.08,3.6,3.6,0,0,0,2.7-1.21c.23,6.84.79,12.92,3.95,17.62l-2,.83a5.63,5.63,0,0,0,2.14,10.85,5.2,5.2,0,0,0,2.1-.41l11.91-4.85c6.57-.49,15.44-3.6,27.68-9.31a5.73,5.73,0,0,0,3.38,1.12,6,6,0,0,0,2.37-.52c7.62-3.57,17.8-4.21,30.35-2a5.59,5.59,0,0,0,6.53-4.54,5.65,5.65,0,0,0-4.58-6.54,87.77,87.77,0,0,0-10.89-1.31c10.25-5.45,22-11.87,35.49-19.24l-.07-.15c8.15-3.68,30.8-18.81,44.66-33.46,3.91-4.13,7.47-8.41,7.62-8.56l.34-.42a7.4,7.4,0,0,0,.68-.82c10.37,1.12,20.28-7.89,29.15-16,5.44-5,11.11-10.06,15.47-11.6,10-3.53,35.65,5.14,97.43,97.43a37.83,37.83,0,0,0-14.31.22,5.55,5.55,0,0,0-4,6.76,5.65,5.65,0,0,0,6.76,4.17c.37-.07,9.24-2.06,20.47,3.19a5.88,5.88,0,0,0,.79.31l1.12,1.69a10.09,10.09,0,0,0,18.33,2.14,124,124,0,0,0,6.65-13c.64-1.54,1.28-3,1.88-4.54a3.84,3.84,0,0,1,3.38-2.52,3.63,3.63,0,0,1,3.46,2,113.58,113.58,0,0,0,8.64,13.67C835,516.41,835.58,517.2,836.33,518.1Zm-32.45,40.79a5.63,5.63,0,0,0-2.67-7.51c-21.63-10.29-51.9-8.56-73.43-5.3a236.49,236.49,0,0,0-26.29,5.41l-1.84.53-1.13,1.5a77.44,77.44,0,0,0-8.71,16.11c-6.76,16.45-13.22,44.62-1.62,80.79a5.61,5.61,0,0,0,5.34,4,5.27,5.27,0,0,0,1.72-.3A5.59,5.59,0,0,0,698.9,647c-8-25-6.57-45.6-2.82-60.48a26.23,26.23,0,0,0,4.1,6.54c6.94,8.23,18.44,12.24,32.86,12.24,19,0,43.12-7,68.44-20.77a5.64,5.64,0,0,0,2.25-7.66,5.58,5.58,0,0,0-7.62-2.25c-19.91,10.82-37.68,16.67-52.1,18.63l-.64-4.36c8.45-.75,13.41-7.21,15.36-9.69,6.73-8.68,6.31-19.08,5.56-24.3,11.5.41,22.84,2.25,32.08,6.65A5.65,5.65,0,0,0,803.88,558.89Zm-56.11-53.82a5.66,5.66,0,0,0-5.3-6,48.5,48.5,0,0,0-13.67,1.08A5.62,5.62,0,0,0,730,511.3a6.51,6.51,0,0,0,1.16-.11,36.88,36.88,0,0,1,10.6-.83A5.68,5.68,0,0,0,747.77,505.07Zm-24.19,242.3a5.71,5.71,0,0,0-3.12-7.37,169.06,169.06,0,0,0-22.24-7.17c-19.49-4.88-34.07-4.73-48.15-4.58-7.59.07-14.76.15-22.8-.53a160.66,160.66,0,0,1-53.11-14.05,5.64,5.64,0,0,0-4.62,10.3A174.33,174.33,0,0,0,625,738.84l-.68,7.14a5.63,5.63,0,0,0-3,10.7c1.21.56,23.29,10.78,47.22,10.78a65.22,65.22,0,0,0,24.38-4.36,5.66,5.66,0,0,0,.3-10.33l2.21-9s0,0,.08,0a151.88,151.88,0,0,1,20.69,6.72,6,6,0,0,0,2.11.38A5.69,5.69,0,0,0,723.58,747.37Zm-4.66-231.9A5.63,5.63,0,0,0,716,504.58a28.7,28.7,0,0,0-6.76,2.74,28.35,28.35,0,0,0-7.67,6.2,5.63,5.63,0,1,0,8.45,7.44,17.69,17.69,0,0,1,4.7-3.8A16.82,16.82,0,0,1,718.92,515.47ZM605.63,561.22a5.66,5.66,0,0,0-1.84-7.78c-65.8-40.56-120.42-2.62-120.94-2.21a5.63,5.63,0,0,0,3.26,10.21l5.26,7.48a5.21,5.21,0,0,0-1.46,2,5.63,5.63,0,0,0,2.89,7.44C498.77,581,543,600,573.29,600c7,0,13.34-1,18.18-3.53a19.63,19.63,0,0,0,10.63-13.86,5.62,5.62,0,1,0-11-2.29,8.34,8.34,0,0,1-4.77,6.12c-9.51,4.88-28.89,1.65-47.7-3.64v0l.48-1.61a18.24,18.24,0,0,0,3.65.82c8.86,1,15.47-5.78,17.35-7.73,7.74-8,8.23-18.75,7.81-24.57a118.3,118.3,0,0,1,30,13.37,5.22,5.22,0,0,0,2.93.87A5.62,5.62,0,0,0,605.63,561.22Zm-.93-43.87a5.63,5.63,0,0,0-2.41-7.59,163.89,163.89,0,0,0-24.64-9.95,5.62,5.62,0,1,0-3.34,10.74,160.6,160.6,0,0,1,22.76,9.17,5.46,5.46,0,0,0,2.59.67A5.69,5.69,0,0,0,604.7,517.35Zm-114,164.81a5.62,5.62,0,0,0-1.31-7.85A32.16,32.16,0,0,1,480.14,664c-8.45-14.8-5.82-33.2-4.81-38.5a5.64,5.64,0,1,0-11.08-2.1c-1.16,6.24-4.24,28.06,6.13,46.2a43.13,43.13,0,0,0,12.43,13.93,5.84,5.84,0,0,0,3.27,1A5.6,5.6,0,0,0,490.66,682.16Z"
                      class="cls-5"></path>
                <path d="M836,518.18a13.73,13.73,0,0,0-1.57.52A11.55,11.55,0,0,1,836,518.18Z"></path>
                <path d="M832.47,519.64a7.06,7.06,0,0,0-1.47.94A10,10,0,0,1,832.47,519.64Z"></path>
                <path d="M831,520.58c-.49.34-.94.71-1.39,1.09C830.06,521.29,830.51,520.92,831,520.58Z"></path>
                <path d="M829.46,521.82a15.16,15.16,0,0,0-1.28,1.39C828.6,522.72,829,522.27,829.46,521.82Z"></path>
                <path d="M828.18,523.21a11.23,11.23,0,0,0-1.12,1.58A11.23,11.23,0,0,1,828.18,523.21Z"></path>
                <path d="M827,524.86a12.93,12.93,0,0,0-1,1.88A11.16,11.16,0,0,1,827,524.86Z"></path>
                <path d="M826,526.74c-.22.53-.41,1-.6,1.58A14.56,14.56,0,0,1,826,526.74Z"></path>
                <path d="M801.21,551.38a5.64,5.64,0,1,1-4.84,10.18c-9.24-4.4-20.58-6.24-32.08-6.65-.19-1.39-.41-2.4-.52-2.93l-35.31-1.35-.68-4.55C749.31,542.82,779.58,541.09,801.21,551.38Z"></path>
                <path d="M803.73,576.88a5.64,5.64,0,0,1-2.25,7.66c-25.32,13.75-49.4,20.77-68.44,20.77-14.42,0-25.92-4-32.86-12.24a26.23,26.23,0,0,1-4.1-6.54,87.71,87.71,0,0,1,6.42-17.61,5.41,5.41,0,0,1,1.62,3.49c.37,5.67,2,10.18,4.66,13.41,5.67,6.72,18.1,9.8,35.23,7.44,14.42-2,32.19-7.81,52.1-18.63A5.58,5.58,0,0,1,803.73,576.88Z"></path>
                <path d="M802.08,512.73a5.65,5.65,0,0,1-4.73,8.68,5.53,5.53,0,0,1-4.74-2.6c-.18-.26-.34-.52-.49-.78a7.29,7.29,0,0,1-.33-1.32c0-.07,0-.15,0-.22a3.41,3.41,0,0,0,.86.07,5.63,5.63,0,0,0,2.41-10.7,51,51,0,0,0-5.67-2.26c-1.09-5.26-2.26-10.36-3.5-15.36,5,7.4,10.29,15.33,15.82,23.85Z"></path>
                <path d="M802.34,511.64l-.67.45c-5.53-8.52-10.78-16.45-15.82-23.85-19.45-77.82-59.27-122.74-89-120.64-23,1.69-41.62,31.51-51.68,52-2.26,1.05-4.32,1.39-6,.71-.15,0-.26-.11-.41-.15.45-4.58.82-9.46,1-14.61,12.55-22.72,31.67-47.4,56.31-49.16C734,353.7,784,407.11,802.34,511.64Z"></path>
                <path d="M795,505.86a5.63,5.63,0,0,1-2.41,10.7,3.41,3.41,0,0,1-.86-.07c-.75-4.36-1.54-8.68-2.4-12.89A51,51,0,0,1,795,505.86Z"></path>
                <path d="M792.12,518,791,516.34a6.63,6.63,0,0,0,.75.15c0,.07,0,.15,0,.22A7.29,7.29,0,0,0,792.12,518Z"></path>
                <path d="M791.75,516.49a6.63,6.63,0,0,1-.75-.15c-3.31-5.11-6.5-10-9.66-14.65a43.08,43.08,0,0,1,8,1.91C790.21,507.81,791,512.13,791.75,516.49Z"></path>
                <path d="M791,516.34a5.88,5.88,0,0,1-.79-.31c-11.23-5.25-20.1-3.26-20.47-3.19a5.65,5.65,0,0,1-6.76-4.17,5.55,5.55,0,0,1,4-6.76,37.83,37.83,0,0,1,14.31-.22C784.5,506.34,787.69,511.23,791,516.34Z"></path>
                <path d="M785.85,488.24c1.24,5,2.41,10.1,3.5,15.36a43.08,43.08,0,0,0-8-1.91c-61.78-92.29-87.47-101-97.43-97.43-4.36,1.54-10,6.64-15.47,11.6-8.87,8.08-18.78,17.09-29.15,16a5,5,0,0,0,.83-1.36c1.31-3,3-6.76,5-10.89,4.81-2.14,10.52-7.32,15.74-12.06,6.53-6,12.77-11.6,19.27-13.89C694.73,388.48,721.36,393.51,785.85,488.24Z"></path>
                <path d="M764.29,554.91c.75,5.22,1.17,15.62-5.56,24.3-2,2.48-6.91,8.94-15.36,9.69-.3,0-7.74.64-13.15-3.75-6.27-5.11-8.37-15.82-4.77-27.24,3-.48,6.24-1,9.66-1.42a14.9,14.9,0,0,0-2.93,9.16c-.08,6.91,3.83,12.55,8.71,12.58s8.83-5.55,8.87-12.47c0-4.35-1.47-8.15-3.84-10.4A174.83,174.83,0,0,1,764.29,554.91Z"></path>
                <path d="M763.77,552c.11.53.33,1.54.52,2.93a174.83,174.83,0,0,0-18.37.45,7,7,0,0,0-4.88-2.14,7.43,7.43,0,0,0-5.93,3.27c-3.42.41-6.65.94-9.66,1.42a41.26,41.26,0,0,1,3-7.28Z"></path>
                <path d="M750.69,987.19a15,15,0,0,1-6.12,14.76,9.38,9.38,0,0,0-18.48-3.12,14.8,14.8,0,0,1-.45,1.8c-.11-.07-.22-.19-.34-.26-.22-.23-.41-.45-.6-.68a8.15,8.15,0,0,1-1-1.24c-.3-.41-.6-.86-.87-1.31l-.45-.9a1.68,1.68,0,0,1-.15-.34,7.2,7.2,0,0,1-.41-1c-.19-.49-.34-1-.49-1.54A15,15,0,0,1,743.86,977l5.33,3.34C749.79,982.53,750.28,984.82,750.69,987.19Z"></path>
                <path d="M745.92,555.36c2.37,2.25,3.87,6,3.84,10.4,0,6.92-4,12.51-8.87,12.47s-8.79-5.67-8.71-12.58a14.9,14.9,0,0,1,2.93-9.16C738.56,556,742.21,555.66,745.92,555.36Z"
                      class="cls-6"></path>
                <path d="M742.47,499.1a5.64,5.64,0,1,1-.71,11.26,36.88,36.88,0,0,0-10.6.83,6.51,6.51,0,0,1-1.16.11,5.62,5.62,0,0,1-1.2-11.12A48.5,48.5,0,0,1,742.47,499.1Z"></path>
                <path d="M737.17,991.54a9.38,9.38,0,0,1,7.4,10.41,15.34,15.34,0,0,1-8.71,2.78,15,15,0,0,1-7.48-2l-.45-.3a13.52,13.52,0,0,1-1.61-1.17c-.23-.19-.45-.37-.68-.6v0a14.8,14.8,0,0,0,.45-1.8A9.41,9.41,0,0,1,737.17,991.54Z"></path>
                <path d="M744.57,1002a2.5,2.5,0,0,1-.11.71,45.56,45.56,0,0,1-2.63,8.49l-13.45-8.41a15,15,0,0,0,7.48,2,15.34,15.34,0,0,0,8.71-2.78Z"></path>
                <path d="M743.37,588.9l.64,4.36c-17.13,2.36-29.56-.72-35.23-7.44-2.71-3.23-4.29-7.74-4.66-13.41a5.41,5.41,0,0,0-1.62-3.49,62.22,62.22,0,0,1,4-7.06c3.19-.83,10.1-2.44,19-4-3.6,11.42-1.5,22.13,4.77,27.24C735.63,589.54,743.07,588.94,743.37,588.9Z"
                      class="cls-7"></path>
                <path d="M741,553.22a7,7,0,0,1,4.88,2.14c-3.71.3-7.36.68-10.81,1.13A7.43,7.43,0,0,1,741,553.22Z"
                      class="cls-6"></path>
                <path d="M728.38,1002.74l13.45,8.41a50.07,50.07,0,0,1-3.34,6.57l-19,31-4.28-.49,1.77-.45a9.38,9.38,0,0,0-4.78-18.14l-2.14.56-.37-1.46,12.81-20.85a28.36,28.36,0,0,0,3.15-7.21c.23.23.45.41.68.6a11.76,11.76,0,0,0,1.61,1.17Z"
                      class="cls-2"></path>
                <path d="M727.78,546.08l.68,4.55a41.26,41.26,0,0,0-3,7.28c-8.9,1.51-15.81,3.12-19,4a62.22,62.22,0,0,0-4,7.06,5.53,5.53,0,0,0-9.24,1.8l-3.45-1.09a77.44,77.44,0,0,1,8.71-16.11l1.13-1.5,1.84-.53A236.49,236.49,0,0,1,727.78,546.08Z"></path>
                <path d="M726.32,1001.27a13.52,13.52,0,0,0,1.61,1.17A11.76,11.76,0,0,1,726.32,1001.27Z"></path>
                <path d="M725.64,1000.63v0a4.31,4.31,0,0,1-.34-.3C725.42,1000.44,725.53,1000.56,725.64,1000.63Z"></path>
                <path d="M725.3,1000.37a4.31,4.31,0,0,0,.34.3,28.36,28.36,0,0,1-3.15,7.21l-12.81,20.85-113.62-12.66L552.79,938l16-24.19L707.2,972.27a21,21,0,0,1,6.23,3.91c3.87,3.57,6.46,9,7.63,16,.07.37.15.79.26,1.16.15.53.3,1,.49,1.54a10.2,10.2,0,0,0,.41,1,1.68,1.68,0,0,0,.15.34l.45.9c.27.45.57.9.87,1.31a10,10,0,0,0,1,1.24C724.89,999.92,725.08,1000.14,725.3,1000.37Z"
                      class="cls-8"></path>
                <path d="M723.69,998.45a8.15,8.15,0,0,0,1,1.24A10,10,0,0,1,723.69,998.45Z"></path>
                <path d="M720.46,740a5.63,5.63,0,0,1-2.14,10.86,6,6,0,0,1-2.11-.38,151.88,151.88,0,0,0-20.69-6.72s0,0-.08,0c-18.06-4.47-31.29-4.35-45.26-4.2-7.51.07-15.25.15-23.81-.57l-1.35-.11A174.33,174.33,0,0,1,569.54,724a5.64,5.64,0,0,1,4.62-10.3,160.66,160.66,0,0,0,53.11,14.05c8,.68,15.21.6,22.8.53,14.08-.15,28.66-.3,48.15,4.58A169.06,169.06,0,0,1,720.46,740Z"></path>
                <path d="M723.65,1036.31a9.36,9.36,0,0,1-6.68,11.46l-1.77.45-51.61-5.75,46.46-12.28,2.14-.56A9.36,9.36,0,0,1,723.65,1036.31Z"
                      class="cls-2"></path>
                <path d="M722.9,508.6a5.61,5.61,0,0,1-4,6.87,16.82,16.82,0,0,0-4.17,1.69,17.69,17.69,0,0,0-4.7,3.8,5.63,5.63,0,1,1-8.45-7.44,28.35,28.35,0,0,1,7.67-6.2,28.7,28.7,0,0,1,6.76-2.74A5.63,5.63,0,0,1,722.9,508.6Z"></path>
                <path d="M722.37,996.24l.45.9Z"></path>
                <path d="M721.81,994.92a7.2,7.2,0,0,0,.41,1A10.2,10.2,0,0,1,721.81,994.92Z"></path>
                <path d="M715.2,1048.22l-121.06,32a688.12,688.12,0,0,1-208.43,74.14A680.14,680.14,0,0,1,264,1165.29c-96.87,0-180.11-20.43-241.44-42.29v-20c83.49,30.69,211.39,59.83,359.83,32.87a671.84,671.84,0,0,0,203.73-72.65l1-.56,76.47-20.21Z"
                      class="cls-2"></path>
                <path d="M709.68,1028.73l.37,1.46-46.46,12.28-70.69-7.88.53-4.77a5.31,5.31,0,0,0,.71,0,5.49,5.49,0,0,0,2.74-.71,5.61,5.61,0,0,0,2.18-7.66l-3-5.41Z"></path>
                <path d="M696.83,367.6c29.75-2.1,69.57,42.82,89,120.64-64.49-94.73-91.12-99.76-105.69-94.61-6.5,2.29-12.74,7.92-19.27,13.89-5.22,4.74-10.93,9.92-15.74,12.06C655.21,399.11,673.81,369.29,696.83,367.6Z"
                      class="cls-9"></path>
                <path d="M698.11,567.15a5.58,5.58,0,0,1,4.39,1.77,87.71,87.71,0,0,0-6.42,17.61,37.85,37.85,0,0,1-3.23-13.37,5.4,5.4,0,0,1,.41-2.44A5.62,5.62,0,0,1,698.11,567.15Z"></path>
                <path d="M698.9,647a5.59,5.59,0,0,1-3.65,7.06,5.27,5.27,0,0,1-1.72.3,5.61,5.61,0,0,1-5.34-4c-11.6-36.17-5.14-64.34,1.62-80.79l3.45,1.09a5.4,5.4,0,0,0-.41,2.44,37.85,37.85,0,0,0,3.23,13.37C692.33,601.41,690.9,622,698.9,647Z"></path>
                <path d="M696,755.74a5.62,5.62,0,0,1-3.08,7.36,65.22,65.22,0,0,1-24.38,4.36c-23.93,0-46-10.22-47.22-10.78a5.63,5.63,0,0,1,3-10.7,4.14,4.14,0,0,1,1.76.48c.38.19,36.44,16.79,62.58,6.2a5.83,5.83,0,0,1,4.55.11A5.59,5.59,0,0,1,696,755.74Z"></path>
                <path d="M695.44,743.72l-2.21,9a5.83,5.83,0,0,0-4.55-.11c-26.14,10.59-62.2-6-62.58-6.2a4.14,4.14,0,0,0-1.76-.48l.68-7.14,1.35.11c8.56.72,16.3.64,23.81.57C664.15,739.37,677.38,739.25,695.44,743.72Z"
                      class="cls-10"></path>
                <path d="M663.59,1042.47l-76.47,20.21-1,.56a671.84,671.84,0,0,1-203.73,72.65c-148.44,27-276.34-2.18-359.83-32.87v-40.64c21.59-7.32,50.52-22.31,68.62-52.36a105.67,105.67,0,0,0,7.55-15.13l1.13-2.71V978.4a1.23,1.23,0,0,1,.79-1.17l35.57-13.78a31.48,31.48,0,0,0,20-29.19v-6.72a1.28,1.28,0,0,1,.67-1.13l42.07-20.69a.54.54,0,0,1,.27-.08l82.56,52.06,14.64,9.24a344.32,344.32,0,0,0,144.91,50.74l151.6,16.91Z"
                      class="cls-11"></path>
                <path d="M639.1,420.29c1.73.68,3.79.34,6-.71-2,4.13-3.72,7.85-5,10.89a5,5,0,0,1-.83,1.36,14.94,14.94,0,0,1-4.25-1c-1.69-.67-4.58-1.76-6.34-3.87a11.83,11.83,0,0,0,.94-1.12l.41-.49c2.55-5.94,5.82-12.77,9.65-19.8-.19,5.15-.56,10-1,14.61C638.84,420.18,639,420.26,639.1,420.29Z"></path>
                <path d="M615.78,282.64A265.7,265.7,0,0,1,639.7,405.53c-3.83,7-7.1,13.86-9.65,19.8l-.41.49a11.83,11.83,0,0,1-.94,1.12,6.27,6.27,0,0,1-1.51-4.92c3.53-32.34,2.67-81.95-21.63-134.65a254.4,254.4,0,0,0-62.84-84.1h.07l3.39.34,3.23-1.16c2.06-.75,4.28-1.54,6.61-2.29A265.58,265.58,0,0,1,615.78,282.64Z"></path>
                <path d="M639.29,431.83a7.4,7.4,0,0,1-.68.82l-.34.42c-.15.15-3.71,4.43-7.62,8.56-13.86,14.65-36.51,29.78-44.66,33.46l.07.15c-13.48,7.37-25.24,13.79-35.49,19.24-10.14-.57-18.89.82-26.18,4.2a5.61,5.61,0,0,0-2.7,7.48,5.78,5.78,0,0,0,1.72,2.14c-12.24,5.71-21.11,8.82-27.68,9.31l5-2a5.62,5.62,0,0,0,.37-10.25c15-4.77,45.56-21.41,79.56-40l0,0c.72-.38,25.21-13.9,41.81-31.48,2.48-2.63,4.92-5.44,6.2-6.91,1.76,2.11,4.65,3.2,6.34,3.87A14.94,14.94,0,0,0,639.29,431.83Z"></path>
                <path d="M628.7,426.94c-1.28,1.47-3.72,4.28-6.2,6.91-16.6,17.58-41.09,31.1-41.81,31.48l0,0c-34,18.55-64.53,35.19-79.56,40a5.51,5.51,0,0,0-4.62-.19L493,506.53A2.67,2.67,0,0,1,492,506c-2.66-2.21-2.89-7.28-3.11-16-.3-11.38-.68-27-9.54-45.48-1.73-3.57-5.71-11.91-14.39-15.44-13.93-5.63-29.15,4.92-35.64,9.47-14.2,9.91-26.75,28.8-37,49.2h0c-3.27,6.57-6.38,13.3-9.2,19.94-3.46,8.12-6.57,16.15-9.2,23.55-1.84,5-3.46,9.73-4.89,14a433.73,433.73,0,0,1-31.47-97.88c-9.2-47.59-15.29-79-4.73-115C358.41,245.19,455.88,213,460,211.65a201.75,201.75,0,0,1,82.71-8.38,254.4,254.4,0,0,1,62.84,84.1c24.3,52.7,25.16,102.31,21.63,134.65A6.27,6.27,0,0,0,628.7,426.94Z"
                      class="cls-12"></path>
                <path d="M617.05,840.06a5.62,5.62,0,0,1-2.48,10.67,5.93,5.93,0,0,1-2.48-.56l-11.64-5.71,6.16-9.5Z"></path>
                <path d="M606.61,835l-6.16,9.5-49.39-24.12a5.63,5.63,0,1,1,5-10.1Z"></path>
                <path d="M603.79,553.44a5.64,5.64,0,0,1-3,10.45,5.22,5.22,0,0,1-2.93-.87,118.3,118.3,0,0,0-30-13.37,29.57,29.57,0,0,0-.45-3.87l-41.58-1.5c-.11.38-.41,1.31-.71,2.7-21.22,3.35-34.78,12.66-35.8,13.41a5.62,5.62,0,1,1-6.53-9.16C483.37,550.82,538,512.88,603.79,553.44Z"></path>
                <path d="M602.29,509.76a5.63,5.63,0,0,1,2.41,7.59,5.69,5.69,0,0,1-5,3,5.46,5.46,0,0,1-2.59-.67,160.6,160.6,0,0,0-22.76-9.17,5.62,5.62,0,1,1,3.34-10.74A163.89,163.89,0,0,1,602.29,509.76Z"></path>
                <path d="M597.75,575.94a5.61,5.61,0,0,1,4.35,6.65,19.63,19.63,0,0,1-10.63,13.86C586.63,599,580.32,600,573.29,600c-30.27,0-74.52-19-80.49-21.63a5.63,5.63,0,0,1-2.89-7.44,5.21,5.21,0,0,1,1.46-2,5.6,5.6,0,0,1,5.94-.9,340.65,340.65,0,0,0,41.32,14.72v0c18.81,5.29,38.19,8.52,47.7,3.64a8.34,8.34,0,0,0,4.77-6.12A5.62,5.62,0,0,1,597.75,575.94Z"></path>
                <path d="M599.06,1021.48a5.61,5.61,0,0,1-2.18,7.66,5.49,5.49,0,0,1-2.74.71,5.31,5.31,0,0,1-.71,0,5.72,5.72,0,0,1-4.21-2.86l-6.87-12.43,13.71,1.54Z"></path>
                <polygon
                        points="552.79 938.02 596.06 1016.07 582.35 1014.53 539.6 937.49 565.89 897.72 558.31 909.44 568.75 913.83 552.79 938.02"></polygon>
                <path d="M593.43,1029.82l-.53,4.77-151.6-16.91a344.32,344.32,0,0,1-144.91-50.74l-14.64-9.24,3.19-5.07a5.62,5.62,0,0,0,6.2.3l9.39-5.6,5.89,3.72a326,326,0,0,0,137,48l138.94,15.48,6.87,12.43A5.72,5.72,0,0,0,593.43,1029.82Z"></path>
                <path d="M576.67,891.67a5.62,5.62,0,0,1,1.58,7.81l-9.5,14.35-10.44-4.39,7.58-11.72,3-4.47A5.63,5.63,0,0,1,576.67,891.67Z"></path>
                <path d="M567.92,549.65c.42,5.82-.07,16.6-7.81,24.57-1.88,1.95-8.49,8.71-17.35,7.73a18.24,18.24,0,0,1-3.65-.82,21.48,21.48,0,0,1-9.05-6.69c-7.85-9.2-6.2-21.86-4.88-27.46A97.59,97.59,0,0,1,567.92,549.65Zm-15.81,11.79c1-6.68-1.92-12.69-6.61-13.44s-9.39,4-10.44,10.74,1.88,12.73,6.61,13.48S551,568.13,552.11,561.44Z"></path>
                <path d="M567.47,545.78a29.57,29.57,0,0,1,.45,3.87A97.59,97.59,0,0,0,525.18,547c.3-1.39.6-2.32.71-2.7Z"></path>
                <path d="M561.46,495.79a5.65,5.65,0,0,1,4.58,6.54,5.59,5.59,0,0,1-6.53,4.54c-12.55-2.18-22.73-1.54-30.35,2a6,6,0,0,1-2.37.52,5.73,5.73,0,0,1-3.38-1.12c7.67-3.61,16.61-8.23,27.16-13.82A87.77,87.77,0,0,1,561.46,495.79Z"></path>
                <path d="M556,200.16c-2.33.75-4.55,1.54-6.61,2.29l-3.23,1.16-3.39-.34h-.07c-2.89-2.59-5.82-5.07-8.83-7.47A5.64,5.64,0,0,1,541,187C546.14,191.18,551.17,195.54,556,200.16Z"></path>
                <path d="M545.5,548c4.69.75,7.66,6.76,6.61,13.44s-5.75,11.5-10.44,10.78-7.66-6.79-6.61-13.48S540.8,547.25,545.5,548Z"
                      class="cls-6"></path>
                <path d="M524.39,498.68c7.29-3.38,16-4.77,26.18-4.2-10.55,5.59-19.49,10.21-27.16,13.82a5.78,5.78,0,0,1-1.72-2.14A5.61,5.61,0,0,1,524.39,498.68Z"></path>
                <path d="M539.11,581.13l-.48,1.61A340.65,340.65,0,0,1,497.31,568a5.6,5.6,0,0,0-5.94.9l-5.26-7.48a5.58,5.58,0,0,0,3.27-1.05c1-.75,14.58-10.06,35.8-13.41-1.32,5.6-3,18.26,4.88,27.46A21.48,21.48,0,0,0,539.11,581.13Z"
                      class="cls-7"></path>
                <path d="M503.81,508.22a5.61,5.61,0,0,1-3.08,7.36l-5,2c-4.66.34-8.19-.64-11-2.93a17.14,17.14,0,0,1-3.15-3.49L493,506.53c1.65.42,4.39,0,8.07-1.2A5.56,5.56,0,0,1,503.81,508.22Z"></path>
                <path d="M496.48,505.14a5.51,5.51,0,0,1,4.62.19c-3.68,1.16-6.42,1.62-8.07,1.2Z"></path>
                <path d="M495.73,517.61l-11.91,4.85a5.2,5.2,0,0,1-2.1.41A5.63,5.63,0,0,1,479.58,512l2-.83a17.14,17.14,0,0,0,3.15,3.49C487.54,517,491.07,518,495.73,517.61Z"></path>
                <path d="M493,506.53l-11.42,4.66c-3.16-4.7-3.72-10.78-3.95-17.62a3.31,3.31,0,0,0,1-1.72,3.88,3.88,0,0,0-1.13-3.57A119.27,119.27,0,0,0,476.2,472a3.45,3.45,0,0,0,1.28-2,3.72,3.72,0,0,0-2.6-4.51,78.92,78.92,0,0,0-5.74-16.08c-2-4.13-4.36-8.18-8.45-9.84-8.27-3.38-19.95,4.77-24.94,8.27a69.83,69.83,0,0,0-14.09,13.74c-2.67.23-5.3.53-7.93.9a3.77,3.77,0,0,0-3.19,4.25,3.73,3.73,0,0,0,4.25,3.19l.82-.11c-3.08,4.58-6,9.54-8.86,14.72-3.76.49-7.48,1.09-11.19,1.81a3.71,3.71,0,0,0-2.6,1.84l-.71-.38c10.29-20.4,22.84-39.29,37-49.2,6.49-4.55,21.71-15.1,35.64-9.47,8.68,3.53,12.66,11.87,14.39,15.44,8.86,18.48,9.24,34.1,9.54,45.48.22,8.72.45,13.79,3.11,16A2.67,2.67,0,0,0,493,506.53Z"></path>
                <path d="M489.35,674.31a5.64,5.64,0,0,1-3.27,10.22,5.84,5.84,0,0,1-3.27-1,43.13,43.13,0,0,1-12.43-13.93c-10.37-18.14-7.29-40-6.13-46.2a5.64,5.64,0,1,1,11.08,2.1c-1,5.3-3.64,23.7,4.81,38.5A32.16,32.16,0,0,0,489.35,674.31Z"></path>
                <path d="M477.51,488.28a3.88,3.88,0,0,1,1.13,3.57,3.31,3.31,0,0,1-1,1.72c0-1.05,0-2.14-.07-3.23C477.59,489.67,477.55,489,477.51,488.28Z"></path>
                <path d="M477.59,490.34c0,1.09.07,2.18.07,3.23a3.6,3.6,0,0,1-2.7,1.21,3.07,3.07,0,0,1-.83-.08,189.72,189.72,0,0,0-71.7-1.95c1.39-2.78,2.82-5.56,4.32-8.23a198.36,198.36,0,0,1,41.09-1.24,195,195,0,0,1,27.91,4.1,3.75,3.75,0,0,1,1.76.9C477.55,489,477.59,489.67,477.59,490.34Z"
                      class="cls-5"></path>
                <path d="M474.88,465.48a3.72,3.72,0,0,1,2.6,4.51,3.45,3.45,0,0,1-1.28,2A60.44,60.44,0,0,0,474.88,465.48Z"></path>
                <path d="M476.2,472a119.27,119.27,0,0,1,1.31,16.3,3.75,3.75,0,0,0-1.76-.9,195,195,0,0,0-27.91-4.1,198.36,198.36,0,0,0-41.09,1.24c2.82-5.18,5.78-10.14,8.86-14.72a153.84,153.84,0,0,1,57.32,2.93,4,4,0,0,0,.9.11A3.62,3.62,0,0,0,476.2,472Z"
                      class="cls-5"></path>
                <path d="M474.88,465.48a60.44,60.44,0,0,1,1.32,6.5,3.62,3.62,0,0,1-2.37.86,4,4,0,0,1-.9-.11,153.84,153.84,0,0,0-57.32-2.93c2-2.89,4-5.67,6.05-8.23a159.67,159.67,0,0,1,30.84.08,165.16,165.16,0,0,1,22.23,3.79S474.85,465.48,474.88,465.48Z"
                      class="cls-5"></path>
                <path d="M474.88,465.48s-.11,0-.15,0a165.16,165.16,0,0,0-22.23-3.79,159.67,159.67,0,0,0-30.84-.08,69.83,69.83,0,0,1,14.09-13.74c5-3.5,16.67-11.65,24.94-8.27,4.09,1.66,6.49,5.71,8.45,9.84A78.92,78.92,0,0,1,474.88,465.48Z"
                      class="cls-5"></path>
                <path d="M454.56,507.21a3.73,3.73,0,0,1,2.56,4.62,3.8,3.8,0,0,1-3.61,2.74,5.11,5.11,0,0,1-1.05-.15,117.89,117.89,0,0,0-59.27-1.65c1.2-2.82,2.44-5.64,3.68-8.45a124.77,124.77,0,0,1,57.69,2.89Z"
                      class="cls-5"></path>
                <path d="M438.53,526a3.8,3.8,0,0,1,2.89,4.47,3.76,3.76,0,0,1-4.47,2.89,100.22,100.22,0,0,0-21.11-2.25h-.08A98.5,98.5,0,0,0,384,536.32q1.51-4.29,3.26-8.87a106.21,106.21,0,0,1,28.51-3.9h.08A109.43,109.43,0,0,1,438.53,526Z"
                      class="cls-5"></path>
                <path d="M407.88,665.3l27.19,49.09L385.64,870.07a5.49,5.49,0,0,0,0-3.11c0-.38-.08-.79-.11-1.17a15.06,15.06,0,0,0-16.87-12.92l-9.46,1.24,43.3-136.49L387.78,691l-4-1c-5.11-1.36-10.22-2.74-10.29-2.74L360,683.59a37,37,0,0,1-27.16-31.06L326,599.61c-1.31-10,1.88-21,8.91-31a48.33,48.33,0,0,1,7.81-8.6q1.8,3.94,3.72,7.89a15.06,15.06,0,0,0,17,8l1.39,5a18.84,18.84,0,0,0-5.3,5c-3.12,4.43-3.94,8-3.72,9.87l6.84,52.89a7.08,7.08,0,0,0,5.1,5.9l.27.07,23.55,6.27c5.11,1.36,10.22,2.71,10.25,2.75Z"></path>
                <path d="M423.91,545.52a3.76,3.76,0,1,1-1.35,7.4,122.08,122.08,0,0,0-16.07-1.77,113.45,113.45,0,0,0-16.27.53,14.8,14.8,0,0,0-8-3.64,22.2,22.2,0,0,0-2.29-.23c.26-.75.52-1.54.82-2.37a120.76,120.76,0,0,1,26-1.8A126.25,126.25,0,0,1,423.91,545.52Z"
                      class="cls-5"></path>
                <path d="M413.73,462.47c2.63-.37,5.26-.67,7.93-.9-2.07,2.56-4.06,5.34-6.05,8.23l-.82.11a3.73,3.73,0,0,1-4.25-3.19A3.77,3.77,0,0,1,413.73,462.47Z"></path>
                <path d="M406.75,484.52c-1.5,2.67-2.93,5.45-4.32,8.23-1.84.26-3.64.6-5.48.94a3.77,3.77,0,0,1-4.4-3,4,4,0,0,1,.41-2.55,3.71,3.71,0,0,1,2.6-1.84C399.27,485.61,403,485,406.75,484.52Z"></path>
                <path d="M397,493.69c1.84-.34,3.64-.68,5.48-.94-1.95,3.79-3.79,7.66-5.56,11.57-3.31.63-6.61,1.39-9.88,2.25a3.58,3.58,0,0,0-2.33,1.88l-1.65-.72c2.82-6.64,5.93-13.37,9.2-19.94h0l.71.38a4,4,0,0,0-.41,2.55A3.77,3.77,0,0,0,397,493.69Z"></path>
                <path d="M390.22,551.68a15,15,0,0,1-11.91,26.14,20.91,20.91,0,0,0-9.27.94,24.18,24.18,0,0,0-4.28,2.1l-1.39-5a14.57,14.57,0,0,0,3.11-1.09,14.82,14.82,0,0,0,8.34-12.14,5.37,5.37,0,0,0,1-1.87c.6-2,1.35-4.44,2.29-7.25A119,119,0,0,1,390.22,551.68Z"></path>
                <path d="M396.87,504.32c-1.24,2.81-2.48,5.63-3.68,8.45-1.43.3-2.82.67-4.25,1.05a3.74,3.74,0,0,1-4.62-2.63,3.62,3.62,0,0,1,.34-2.74,3.58,3.58,0,0,1,2.33-1.88C390.26,505.71,393.56,505,396.87,504.32Z"></path>
                <path d="M388.94,513.82c1.43-.38,2.82-.75,4.25-1.05-2.14,5-4.1,10-5.94,14.68-3,.83-6,1.77-8.9,2.86a3.74,3.74,0,0,0-2.06,1.88l-2.48-.91c2.63-7.4,5.74-15.43,9.2-23.55l1.65.72a3.62,3.62,0,0,0-.34,2.74A3.74,3.74,0,0,0,388.94,513.82Z"></path>
                <path d="M385.64,867a5.49,5.49,0,0,1,0,3.11l0,.19-.41,1.2A15.38,15.38,0,0,0,385.64,867Z"></path>
                <path d="M385.64,867a15.38,15.38,0,0,1-.45,4.5.31.31,0,0,1,0,.19l-.22.68a12.13,12.13,0,0,1-.42,1.16c-.15.38-.34.75-.52,1.13a17.1,17.1,0,0,1-2,3,4.47,4.47,0,0,1-.83.86c-.26.26-.56.53-.86.79a8.89,8.89,0,0,1-.91.71,8.13,8.13,0,0,1-1,.64,10,10,0,0,1-2.41,1.2,5.17,5.17,0,0,1-.75.27,12,12,0,0,1-2.29.56,17.21,17.21,0,0,1-2.37.19,6.78,6.78,0,0,1-.9,0l5.15-16a5.65,5.65,0,0,1,7.1-3.65A5.56,5.56,0,0,1,385.64,867Z"></path>
                <path d="M385.53,865.79c0,.38.07.79.11,1.17a5.56,5.56,0,0,0-3.68-3.8,5.65,5.65,0,0,0-7.1,3.65l-5.15,16a15.55,15.55,0,0,1-3.64-.68,15,15,0,0,1-9.77-18.85l2.9-9.13,9.46-1.24A15.06,15.06,0,0,1,385.53,865.79Z"></path>
                <path d="M385.6,870.26l-.45,1.39a.31.31,0,0,0,0-.19Z"></path>
                <path d="M385.15,871.65a.33.33,0,0,1,0,.19l-.18.49Z"></path>
                <path d="M385.11,871.84c-.11.41-.26.86-.41,1.28l.23-.79Z"></path>
                <path d="M387.25,527.45q-1.74,4.57-3.26,8.87c-1,.34-2,.67-3,1a4.18,4.18,0,0,1-1.31.22,3.75,3.75,0,0,1-3.53-2.44,3.66,3.66,0,0,1,.15-3,3.74,3.74,0,0,1,2.06-1.88C381.28,529.22,384.25,528.28,387.25,527.45Z"></path>
                <path d="M384.93,872.33l-.23.79a.12.12,0,0,0,0,.11.7.7,0,0,1-.15.26A12.13,12.13,0,0,0,384.93,872.33Z"></path>
                <path d="M384.66,873.23l-9.5,29.63-74.63,44.47-10.71-6.76,75.87-45.22,3.95-12.28,3-.38a1.21,1.21,0,0,0,.37-.07,12,12,0,0,0,2.29-.56,2.71,2.71,0,0,0,.75-.27,10,10,0,0,0,2.41-1.2,3.71,3.71,0,0,0,1-.64,5.13,5.13,0,0,0,.91-.71,5.8,5.8,0,0,0,.86-.79,4.47,4.47,0,0,0,.83-.86,13.42,13.42,0,0,0,2-3,5.18,5.18,0,0,0,.52-1.13A.7.7,0,0,0,384.66,873.23Z"></path>
                <path d="M384,874.62c.18-.38.37-.75.52-1.13A5.18,5.18,0,0,1,384,874.62Z"></path>
                <path d="M381,537.37c1-.38,2-.71,3-1-1.17,3.23-2.26,6.27-3.2,9.12-2,.3-4,.72-6,1.17a3.49,3.49,0,0,0-1.91,1.09l-2.71.22c-.41-.86-.82-1.76-1.24-2.63,1.43-4.28,3.05-9,4.89-14l2.48.91a3.66,3.66,0,0,0-.15,3,3.75,3.75,0,0,0,3.53,2.44A4.18,4.18,0,0,0,381,537.37Z"></path>
                <path d="M382.26,548a14.8,14.8,0,0,1,8,3.64,119,119,0,0,0-12.09,1.88c.52-1.77,1.16-3.68,1.84-5.75A22.2,22.2,0,0,1,382.26,548Z"></path>
                <path d="M384,874.62a13.42,13.42,0,0,1-2,3A17.1,17.1,0,0,0,384,874.62Z"></path>
                <path d="M380.31,879.24c.3-.26.6-.53.86-.79A5.8,5.8,0,0,1,380.31,879.24Z"></path>
                <path d="M379.4,880a8.89,8.89,0,0,0,.91-.71A5.13,5.13,0,0,1,379.4,880Z"></path>
                <path d="M380.79,545.44c-.3.83-.56,1.62-.82,2.37a45.52,45.52,0,0,0-7.1-.11,3.49,3.49,0,0,1,1.91-1.09C376.77,546.16,378.8,545.74,380.79,545.44Z"></path>
                <path d="M378.43,880.59a8.13,8.13,0,0,0,1-.64A3.71,3.71,0,0,1,378.43,880.59Z"></path>
                <path d="M380,547.81c-.68,2.07-1.32,4-1.84,5.75-.57.11-1.17.26-1.73.37a2.79,2.79,0,0,1-.83.08,3.74,3.74,0,0,1-2.7-6.31A45.52,45.52,0,0,1,380,547.81Z"></path>
                <path d="M376.4,553.93c.56-.11,1.16-.26,1.73-.37-.94,2.81-1.69,5.26-2.29,7.25a5.37,5.37,0,0,1-1,1.87,14.56,14.56,0,0,0-1.43-8c-1.09-2.25-2.17-4.54-3.23-6.8l2.71-.22a3.74,3.74,0,0,0,2.7,6.31A2.79,2.79,0,0,0,376.4,553.93Z"></path>
                <path d="M375.27,882.06a5.17,5.17,0,0,0,.75-.27A2.71,2.71,0,0,1,375.27,882.06Z"></path>
                <path d="M373.39,554.72a14.56,14.56,0,0,1,1.43,8,5.54,5.54,0,0,1-4.39,2.15,5.23,5.23,0,0,1-1.66-.27,5.59,5.59,0,0,1-3.71-7c.82-2.74,1.8-5.86,2.89-9.32.75-.11,1.46-.22,2.21-.3C371.22,550.18,372.3,552.47,373.39,554.72Z"></path>
                <path d="M373,882.62a1.21,1.21,0,0,1-.37.07l-3,.38.07-.3a6.78,6.78,0,0,0,.9,0A17.21,17.21,0,0,0,373,882.62Z"></path>
                <path d="M370.43,564.83a5.54,5.54,0,0,0,4.39-2.15,14.82,14.82,0,0,1-8.34,12.14,14.57,14.57,0,0,1-3.11,1.09,15.06,15.06,0,0,1-17-8q-1.92-3.95-3.72-7.89A49.61,49.61,0,0,1,368,548.22c-1.09,3.46-2.07,6.58-2.89,9.32a5.59,5.59,0,0,0,3.71,7A5.23,5.23,0,0,0,370.43,564.83Z"></path>
                <path d="M368.92,545.29c.42.87.83,1.77,1.24,2.63-.75.08-1.46.19-2.21.3C368.29,547.28,368.59,546.31,368.92,545.29Z"></path>
                <path d="M369.71,882.77l-.07.3L228.3,901.77l-29-18.29a9.35,9.35,0,0,0-6.16-1.35l-1.31-5.6a25.87,25.87,0,0,1,4.5-.82l162.91-21.6-2.9,9.13a15,15,0,0,0,9.77,18.85A15.55,15.55,0,0,0,369.71,882.77Z"></path>
                <polygon points="228.3 901.77 369.64 883.07 365.69 895.35 289.82 940.57 228.3 901.77"
                         class="cls-8"></polygon>
                <path d="M300.53,947.33l-9.39,5.6a5.62,5.62,0,0,1-6.2-.3,5.8,5.8,0,0,1-1.5-1.65,5.64,5.64,0,0,1,1.95-7.74l4.43-2.67Z"></path>
                <path d="M289.82,940.57l-4.43,2.67a5.64,5.64,0,0,0-1.95,7.74,5.8,5.8,0,0,0,1.5,1.65l-3.19,5.07-82.56-52.06s.11,0,.15,0l29-3.84Z"></path>
                <path d="M277.54,751.76c.6,8.3-2.29,14.72-3.87,18.18-8.26,18.37-30.09,25.73-34.37,27a6.17,6.17,0,0,1-1.61.22,5.65,5.65,0,0,1-5.41-4,5.57,5.57,0,0,1,3.79-7c2.1-.64,20.92-6.65,27.35-20.89,1.31-2.89,3.26-7.25,2.85-12.69a20.28,20.28,0,0,0-1.24-5.52,45.4,45.4,0,0,1-1.84-7.22c-.15-1.05-.26-2.1-.38-3.15a29.62,29.62,0,0,0-1.72,3.72,28.88,28.88,0,0,1-4,7.17A27.41,27.41,0,0,1,247,755.44a8.27,8.27,0,0,1-11.53-9.65c1-3.79,1.77-9-.41-12-1.13-1.54-2.7-2.1-5.63-3.08a25.39,25.39,0,0,1-9.21-4.62c-6.27-5.3-8.82-14.16-7.77-27a50.77,50.77,0,0,0-11,20.44,51.68,51.68,0,0,0,0,26.1,8.32,8.32,0,0,1-2.33,8.08,8.2,8.2,0,0,1-8.18,1.84,27.9,27.9,0,0,1-8-4.06,27.6,27.6,0,0,1-6.91-7.25c-3.72,10.22-3,20.81,2.37,28.7,4.92,7.28,12.62,10.36,16.75,11.53a5.64,5.64,0,1,1-3.08,10.85c-5.6-1.61-16.11-5.82-23-16.07-8.6-12.77-8.78-30.28-.48-45.71a8.29,8.29,0,0,1,7.88-4.4,8.13,8.13,0,0,1,7.14,5.22,17.66,17.66,0,0,0,5.63,7.78,61.87,61.87,0,0,1,22-57.58,8.24,8.24,0,0,1,13.4,7.81c-2.25,12.92-1.27,21.64,2.82,25.13a16.49,16.49,0,0,0,5.49,2.51c3.53,1.17,7.88,2.6,11.23,7.18,2.74,3.79,3.9,8.56,3.49,14.2.19-.23.41-.45.6-.72a17.39,17.39,0,0,0,2.44-4.54,33.26,33.26,0,0,1,10.07-14.05,8.27,8.27,0,0,1,13.45,7.44,30.94,30.94,0,0,0,1.54,14.08A31.89,31.89,0,0,1,277.54,751.76Z"
                      class="cls-2"></path>
                <path d="M228.3,901.77l-29,3.84s-.12,0-.15,0l-10-6.27a9.37,9.37,0,0,1,3.87-17.24,9.35,9.35,0,0,1,6.16,1.35Z"></path>
                <path d="M225.59,203.27c.6,8.3-2.29,14.73-3.83,18.18-8.3,18.41-30.12,25.73-34.41,27a6,6,0,0,1-1.61.26,5.64,5.64,0,0,1-1.62-11c2.11-.64,20.93-6.65,27.35-20.85,1.31-2.93,3.27-7.28,2.85-12.73a20.28,20.28,0,0,0-1.24-5.52,44.94,44.94,0,0,1-1.8-7.21,27.53,27.53,0,0,1-.37-3.16,27.27,27.27,0,0,0-1.77,3.72,29.57,29.57,0,0,1-4,7.21A27.79,27.79,0,0,1,195,207a8.28,8.28,0,0,1-11.53-9.65c1-3.83,1.8-9-.42-12.06-1.12-1.54-2.7-2.1-5.59-3a25.92,25.92,0,0,1-9.24-4.66c-6.24-5.29-8.83-14.16-7.78-27a50.11,50.11,0,0,0-11,20.43,51.86,51.86,0,0,0,0,26.06,8.29,8.29,0,0,1-2.33,8.08A8.14,8.14,0,0,1,139,207a27.84,27.84,0,0,1-8-4,28.75,28.75,0,0,1-6.92-7.25c-3.71,10.18-2.93,20.77,2.37,28.66,4.92,7.29,12.62,10.37,16.79,11.53a5.64,5.64,0,0,1-3.08,10.86c-5.63-1.58-16.11-5.83-23.06-16.08-8.6-12.77-8.79-30.27-.49-45.71a8.43,8.43,0,0,1,7.89-4.39,8.13,8.13,0,0,1,7.13,5.25,17.37,17.37,0,0,0,5.64,7.74,62.23,62.23,0,0,1,1.31-25.46A63.3,63.3,0,0,1,159.26,136a8.16,8.16,0,0,1,9.39-.82,8.25,8.25,0,0,1,4.06,8.63c-2.3,13-1.32,21.64,2.81,25.13A15.71,15.71,0,0,0,181,171.5c3.53,1.16,7.92,2.59,11.23,7.21,2.74,3.76,3.91,8.53,3.49,14.16.19-.23.42-.45.6-.71a17.3,17.3,0,0,0,2.45-4.55,34.17,34.17,0,0,1,3.71-7.13,35.79,35.79,0,0,1,6.35-6.92A8.28,8.28,0,0,1,222.25,181a31.23,31.23,0,0,0,.15,8.6,32.15,32.15,0,0,0,1.39,5.49A31.71,31.71,0,0,1,225.59,203.27Z"
                      class="cls-2"></path>
                <path d="M199.19,905.64a.54.54,0,0,0-.27.08l-42.07,20.69a1.28,1.28,0,0,0-.67,1.13v6.72a31.48,31.48,0,0,1-20,29.19l-35.57,13.78a1.23,1.23,0,0,0-.79,1.17v13.78l-1.13,2.71A105.67,105.67,0,0,1,91.16,1010c-18.1,30-47,45-68.62,52.36v-32.19c15-6.5,31.89-17.46,42.89-35.68a75.9,75.9,0,0,0,4.36-8.34V978.4a31.52,31.52,0,0,1,20-29.19l35.57-13.78a1.23,1.23,0,0,0,.79-1.17v-6.72a31.13,31.13,0,0,1,17.47-28.09l42-20.7a30.88,30.88,0,0,1,6.16-2.22l1.31,5.6a9.37,9.37,0,0,0-3.87,17.24Z"></path>
                <path d="M22.54,1103v20c-5-1.8-9.88-3.6-14.61-5.41a9.37,9.37,0,0,1-6-8.79,9.34,9.34,0,0,1,12.73-8.75C17.2,1101,19.83,1102,22.54,1103Z"></path>
                <path d="M22.54,1062.38V1103c-2.71-1-5.34-2-7.93-3a9.34,9.34,0,0,0-12.73,8.75H0v-60.2H1.43a14.34,14.34,0,0,0,.75,4.69,15,15,0,0,0,14.27,10.33,15.69,15.69,0,0,0,4.7-.75C21.6,1062.72,22.05,1062.57,22.54,1062.38Z"></path>
                <path d="M22.54,1030.19v32.19c-.49.19-.94.34-1.39.49a15.69,15.69,0,0,1-4.7.75,15,15,0,0,1-14.27-10.33,14.34,14.34,0,0,1-.75-4.69,15,15,0,0,1,10.29-14.28C15.1,1033.2,18.74,1031.84,22.54,1030.19Z"></path>
            </g>
            <path d="M600.42,844.47l-50.49-24.84s-3.66-3.49-1.15-7.34l-55.24-49.55s42.57,56.34,42.89,77.62,3.17,97.14,3.17,97.14Z"
                  class="cls-7"></path>
            <path d="M481.61,511.19a29.15,29.15,0,0,1-3.44-10.41c-.42-5.16.7-58.08-20.91-62.78,0,0-44.83-.88-77.28,109.81Z"
                  class="cls-7"></path>
        </g>
    </g>
</svg>