<svg viewBox="0 0 1199.8 1199.98" xmlns="http://www.w3.org/2000/svg">
    <defs>
        <style>
            .cls-1{fill:#78f4ce;}.cls-2{fill:url(#未命名的渐变_42);}.cls-3{fill:#ff61b8;}.cls-4{fill:#262626;}.cls-5{fill:#ffd9c0;}.cls-6{fill:#d0dedd;}.cls-7{fill:#ff8a8a;}.cls-8{fill:#fff;}.cls-9{fill:#3f3f3f;}.cls-10{fill:#dbb39e;}
        </style>
        <linearGradient gradientUnits="userSpaceOnUse" y2="1056.56" x2="1086.5" y1="1056.56" x1="139.37"
                        id="未命名的渐变_42">
            <stop stop-color="#f0bdff" offset="0"></stop>
            <stop stop-color="#feff96" offset="0.22"></stop>
            <stop stop-color="#6ebdff" offset="0.5"></stop>
            <stop stop-color="#ffd7e2" offset="0.81"></stop>
            <stop stop-color="#3fe1ff" offset="1"></stop>
        </linearGradient>
    </defs>
    <title>3 (3)</title>
    <g id="图层_2">
        <g id="_3">
            <g id="_编组_">
                <polygon
                        points="1199.8 1188.71 1199.8 1199.98 0 1199.98 0 0 1199.8 0 1199.8 11.27 22.72 11.27 22.72 22.54 22.53 22.54 22.53 1177.45 22.72 1177.45 22.72 1188.71 1199.8 1188.71"></polygon>
                <polygon
                        points="1199.8 11.27 1199.8 1188.71 22.72 1188.71 22.72 1177.45 106.84 1177.45 139.37 1177.45 278.84 1177.45 298.67 1177.45 908.3 1177.45 933.31 1177.45 1086.5 1177.45 1120.3 1177.45 1177.27 1177.45 1177.27 22.54 22.72 22.54 22.72 11.27 1199.8 11.27"></polygon>
                <path d="M1177.27,22.54V1177.45h-57L1001.44,947.09,872.17,908.93c7.89-11.95,16.34-22.8,25.09-34.07,20.77-26.71,44.35-56.94,64.52-108.21,6.57-16.6,14.72-37.3,20.09-66.37,20-108.4-22.57-201.44-48-257-7.18-15.74-11.5-23.36-16.45-32.19-5.49-9.76-12.32-21.9-26.07-50.33C870,316.64,860,291.21,852.72,272.61c-5.33-13.52-9.5-24.18-15.62-35.72-57.88-109.33-214.44-160.12-332.48-146C470,95,412,101.9,380.69,149.27c-19.45,29.44-21.1,62.35-18.4,86.84-24-4.1-44.24-1-60.42,9.24-30.42,19.19-32.11,52.47-34.44,98.52-1.28,25.5-2.78,54.35-8.94,88.86-10.67,59.39-28.17,94.58-42.25,122.9-16.49,33.17-29.52,59.39-17.09,100,9.2,30.12,26.22,47.81,41.2,63.4,17,17.65,30.34,31.59,33.39,61,1.8,17.69-1.51,29-5.75,43.23-4.06,13.71-8.67,29.3-9.73,52.85A219.8,219.8,0,0,0,266,944.31l-79.17,39.14-80,194H22.72V22.54Zm-93.21,446.85c7.21-30.91,4.31-54.65-8.64-70.57-7.81-9.66-16.68-13.11-24.49-16.15-7.51-2.93-14-5.49-19.34-13.15-6.95-9.92-5.59-19-3.9-30.61,1.76-12.06,3.75-25.69-4.25-41.77-6.87-13.86-16.71-20.09-25.38-25.61-8.3-5.26-15.48-9.81-20.55-20.33-7.43-15.4-6.64-35.08,2.37-58.51a5.63,5.63,0,1,0-10.52-4c-10.17,26.44-10.85,49.13-2,67.42,6.46,13.44,16.15,19.57,24.68,25,8.15,5.14,15.84,10,21.33,21.07,6.42,12.92,4.84,23.7,3.15,35.15-1.8,12.32-3.68,25.09,5.82,38.65,7.33,10.52,16.45,14.05,24.49,17.21,7.13,2.78,13.89,5.44,19.87,12.77,10.62,13.11,12.76,33.58,6.38,60.88a5.65,5.65,0,0,0,4.21,6.8,6.88,6.88,0,0,0,1.27.15A5.65,5.65,0,0,0,1084.06,469.39Zm-942,183.79a5.63,5.63,0,1,0-6.84-8.94c-16.52,12.54-25.68,26.52-27.22,41.46-1.17,11.09,2.51,18.67,5.78,25.4,3,6.27,5.67,11.68,4.92,20-.94,9.8-5.78,15.62-11,21.74-5.67,6.76-12.09,14.43-11.37,26.9.52,9.65,4.88,15.43,8.75,20.58,3.3,4.39,6.19,8.23,7,14.5,1.5,11.49-4.77,24.34-18.59,38.23a5.64,5.64,0,0,0,0,8,5.58,5.58,0,0,0,3.94,1.65,5.75,5.75,0,0,0,4-1.65c16.41-16.49,23.74-32.53,21.78-47.63-1.2-9.28-5.44-14.87-9.16-19.83-3.46-4.62-6.16-8.23-6.54-14.46-.45-8,3.65-12.85,8.79-19,5.75-6.83,12.28-14.61,13.52-27.94,1.09-11.5-2.66-19.2-6-26-3-6.13-5.56-11.42-4.73-19.31C120.44,675.11,128.14,663.81,142.07,653.18Z"
                      class="cls-1"></path>
                <path d="M1001.44,947.09l118.86,230.36h-33.8L980.59,972.25,856.66,935.67c.45-1,1-2,1.47-3a249.48,249.48,0,0,1,14-23.77h0Z"></path>
                <path d="M980.59,972.25l105.91,205.2H933.31l-37.59-42.75a9.38,9.38,0,1,0-14.08,12.4l26.66,30.35H298.67l14.95-44.85a9.4,9.4,0,0,0-17.84-5.93l-16.94,50.78H139.37l71-172.07L275.76,973h0A288.84,288.84,0,0,0,295,1011.66l28.5,48.34-.56-56.12c-.19-18.25,1.62-34.1,5.41-47.44q20.79-6.87,41.5-13.93c8.52,29.59,54.11,170.18,161.93,200.83a152.18,152.18,0,0,0,42.1,5.82c59.45,0,125.32-32.94,196.45-98.37a279.39,279.39,0,0,0,34,39.22l27.18,26.21-1.72-37.71c-2.52-54.08,6.49-102.12,26.81-142.84Z"
                      class="cls-2"></path>
                <path d="M1075.42,398.82c12.95,15.92,15.85,39.66,8.64,70.57a5.65,5.65,0,0,1-5.49,4.36,6.88,6.88,0,0,1-1.27-.15,5.65,5.65,0,0,1-4.21-6.8c6.38-27.3,4.24-47.77-6.38-60.88-6-7.33-12.74-10-19.87-12.77-8-3.16-17.16-6.69-24.49-17.21-9.5-13.56-7.62-26.33-5.82-38.65,1.69-11.45,3.27-22.23-3.15-35.15-5.49-11.05-13.18-15.93-21.33-21.07-8.53-5.41-18.22-11.54-24.68-25-8.86-18.29-8.18-41,2-67.42a5.63,5.63,0,1,1,10.52,4c-9,23.43-9.8,43.11-2.37,58.51,5.07,10.52,12.25,15.07,20.55,20.33,8.67,5.52,18.51,11.75,25.38,25.61,8,16.08,6,29.71,4.25,41.77-1.69,11.57-3,20.69,3.9,30.61,5.37,7.66,11.83,10.22,19.34,13.15C1058.74,385.71,1067.61,389.16,1075.42,398.82Z"
                      class="cls-3"></path>
                <path d="M933.84,443.25c25.46,55.59,68,148.63,48,257-5.37,29.07-13.52,49.77-20.09,66.37-20.17,51.27-43.75,81.5-64.52,108.21-8.75,11.27-17.2,22.12-25.09,34.07h0l-18.74-5.56a15,15,0,0,0-17,6.46c11.64-20.58,24.6-37.22,37.18-53.41,20.47-26.33,41.65-53.56,60.28-100.78,6.38-16.22,13.63-34.59,18.47-60.85,18.29-99-21.82-186.67-45.78-239-6.68-14.57-10.51-21.37-15.32-30-5.71-10.11-12.8-22.69-27-52-21.78-45.11-32-71.17-39.51-90.22-5.15-13.11-8.86-22.61-14.2-32.64C758.72,153,616.12,107.8,508.23,120.68c-33.31,4-78.83,9.39-102.49,45.15-17,25.8-15.81,56.34-12.28,76.17-1.5.49-3,1-4.43,1.43A16,16,0,0,0,385.8,242a161.24,161.24,0,0,0-23.51-5.85c-2.7-24.49-1.05-57.4,18.4-86.84C412,101.9,470,95,504.62,90.86c118-14.09,274.6,36.7,332.48,146,6.12,11.54,10.29,22.2,15.62,35.72,7.28,18.6,17.27,44,38.6,88.12,13.75,28.43,20.58,40.57,26.07,50.33C922.34,419.89,926.66,427.51,933.84,443.25Z"></path>
                <path d="M906.53,455.76c24,52.36,64.07,140,45.78,239-4.84,26.26-12.09,44.63-18.47,60.85-18.63,47.22-39.81,74.45-60.28,100.78C861,872.61,848,889.25,836.38,909.83a12.22,12.22,0,0,0-.75,1.35s0,0,0,.08c-1.39,2.47-2.78,5-4.13,7.66C813,954.71,802.39,995.39,800,1040.24c-4.2-5.45-8.11-11-11.64-16.64A183.11,183.11,0,0,1,763.94,966a156.08,156.08,0,0,1-1.62-62.39,7.07,7.07,0,0,0,.23-1.27c3-17,8.15-33.09,13.44-49.66,11.76-36.58,23.89-74.41,10.93-122.41a144.32,144.32,0,0,0-6.31-18.63,16.65,16.65,0,0,0-1-2.21,4.82,4.82,0,0,0-.57-1,4.47,4.47,0,0,0-.64-.94,4.53,4.53,0,0,0-.67-.86s0-.08-.08-.12c-.18-.22-.37-.45-.56-.64A180.21,180.21,0,0,0,763.26,674c-18.17-32.71-39.84-47.17-57.27-58.74-10.48-7-19.53-13-26-21.67-20.43-27.23-4.21-66.56,14.53-112.12,8.86-21.49,18.21-44.21,24-67.23a5.64,5.64,0,0,0,2.06-6.5c-.11-.27-.22-.53-.33-.75,6.08-28.1,6.23-56.53-6.8-83.65-19.83-41.21-59.56-58.45-98-75.08-87.2-37.79-171.63-22.62-222-6.28-3.53-19.83-4.73-50.37,12.28-76.17,23.66-35.76,69.18-41.17,102.49-45.15C616.12,107.8,758.72,153,810.54,250.94c5.34,10,9.05,19.53,14.2,32.64,7.47,19.05,17.73,45.11,39.51,90.22,14.16,29.3,21.25,41.88,27,52C896,434.39,899.85,441.19,906.53,455.76Z"
                      class="cls-4"></path>
                <path d="M895.72,1134.7l37.59,42.75h-25l-26.66-30.35a9.38,9.38,0,1,1,14.08-12.4Z"></path>
                <path d="M853.39,903.37l18.74,5.56a249.48,249.48,0,0,0-14,23.77c-.49,1-1,2-1.47,3l-11.79-3.49a15.08,15.08,0,0,1-10.14-18.67,17.88,17.88,0,0,1,.86-2.25s0,0,0-.08a12.22,12.22,0,0,1,.75-1.35A15,15,0,0,1,853.39,903.37Z"></path>
                <path d="M844.87,932.18l11.79,3.49c-20.32,40.72-29.33,88.76-26.81,142.84l1.72,37.71L804.39,1090a279.39,279.39,0,0,1-34-39.22c4.09-3.75,8.19-7.58,12.28-11.57a9.4,9.4,0,0,0,.86-12.54l4.81-3.08c3.53,5.63,7.44,11.19,11.64,16.64,2.44-44.85,13-85.53,31.51-121.32,1.35-2.63,2.74-5.19,4.13-7.66a17.88,17.88,0,0,0-.86,2.25A15.08,15.08,0,0,0,844.87,932.18Z"></path>
                <path d="M786.92,730.25c13,48,.83,85.83-10.93,122.41-5.29,16.57-10.47,32.68-13.44,49.66a15.08,15.08,0,0,0-7-14.54l-18-11.19c3-11.57,6.5-22.54,9.88-33.09,8.82-27.5,16.71-52.06,14.79-80.12l17.92-41a15.2,15.2,0,0,0,.52-10.74A144.32,144.32,0,0,1,786.92,730.25Z"></path>
                <path d="M788.31,1023.6l-4.81,3.08c-.22-.26-.41-.49-.63-.71a9.35,9.35,0,0,0-13.26-.27c-3.23,3.12-6.46,6.2-9.69,9.13a211.08,211.08,0,0,1-25.27-62.16,185.91,185.91,0,0,1-3.27-64.53l8.34,5.18a14.72,14.72,0,0,0,7.88,2.26,15.08,15.08,0,0,0,12.81-7.1,14.87,14.87,0,0,0,1.91-4.89A156.08,156.08,0,0,0,763.94,966,183.11,183.11,0,0,0,788.31,1023.6Z"></path>
                <path d="M783.5,1026.68a9.4,9.4,0,0,1-.86,12.54c-4.09,4-8.19,7.82-12.28,11.57-3.75-5.26-7.21-10.55-10.44-16,3.23-2.93,6.46-6,9.69-9.13a9.35,9.35,0,0,1,13.26.27C783.09,1026.19,783.28,1026.42,783.5,1026.68Z"></path>
                <path d="M780.61,711.62a15.2,15.2,0,0,1-.52,10.74l-17.92,41a126.82,126.82,0,0,0-4.24-25.32,121.41,121.41,0,0,0-5.41-15.81,14.9,14.9,0,0,1,0-11.91,14.4,14.4,0,0,1,2.48-3.9c.22-.26.49-.53.75-.79s.68-.64,1-.94h0c1.8,4.85,3.42,9.8,4.81,14.84a9.37,9.37,0,0,0,9.05,7,9.86,9.86,0,0,0,2.48-.34,9.44,9.44,0,0,0,6.57-11.57c-.79-2.89-1.65-5.79-2.63-8.64l.56.56s.08.08.08.12c.22.26.45.56.67.86a4.47,4.47,0,0,1,.64.94c.19.3.38.64.57,1s.33.71.48,1.05S780.46,711.25,780.61,711.62Z"></path>
                <path d="M780.61,711.62c-.15-.37-.33-.79-.49-1.16s-.3-.72-.48-1.05A16.65,16.65,0,0,1,780.61,711.62Z"></path>
                <path d="M779.75,714.59a9.44,9.44,0,0,1-6.57,11.57,9.86,9.86,0,0,1-2.48.34,9.37,9.37,0,0,1-9.05-7c-1.39-5-3-10-4.81-14.84a14,14,0,0,1,3.68-2.22,10.39,10.39,0,0,1,1.35-.48,7.41,7.41,0,0,1,1.24-.34c.08,0,.15,0,.23,0a8,8,0,0,1,1.27-.19,13.18,13.18,0,0,1,5.11.3,14.61,14.61,0,0,1,1.88.57,15,15,0,0,1,2.74,1.31.73.73,0,0,1,.15.11c.57.38,1.13.83,1.65,1.24l.08.08c.26.26.53.49.79.75,0,.07.11.11.11.15C778.1,708.8,779,711.7,779.75,714.59Z"></path>
                <path d="M779.64,709.41c-.19-.34-.38-.68-.57-1A4.82,4.82,0,0,1,779.64,709.41Z"></path>
                <path d="M778.43,707.49c-.22-.3-.45-.6-.67-.86A4.53,4.53,0,0,1,778.43,707.49Z"></path>
                <path d="M777.12,705.87c.19.19.38.42.56.64l-.56-.56S777.12,705.91,777.12,705.87Z"></path>
                <path d="M777.12,706s-.07-.08-.11-.15l.11.07S777.16,705.91,777.12,706Z"></path>
                <path d="M777.12,705.87l-.11-.07a5.14,5.14,0,0,0-.79-.75l-.08-.08a13.67,13.67,0,0,0-1.65-1.24.73.73,0,0,0-.15-.11,14.92,14.92,0,0,0-2-1,2.79,2.79,0,0,0-.75-.26,9,9,0,0,0-1.88-.57,13.18,13.18,0,0,0-5.11-.3c-.41,0-.86.12-1.27.19-.08,0-.15,0-.23,0-.41.11-.82.19-1.24.34s-.9.3-1.35.48a14,14,0,0,0-3.68,2.22h0a156.22,156.22,0,0,0-9.95-21.56c-16-28.73-34.74-41.24-51.26-52.25-11.42-7.62-22.23-14.79-30.65-26-26.85-35.79-7.88-81.8,12.21-130.56,7.1-17.2,14.27-34.59,19.6-51.87L717.18,415a5.05,5.05,0,0,0,1.32-.71c-5.79,23-15.14,45.74-24,67.23-18.74,45.56-35,84.89-14.53,112.12,6.49,8.64,15.54,14.68,26,21.67,17.43,11.57,39.1,26,57.27,58.74A180.21,180.21,0,0,1,777.12,705.87Z"></path>
                <path d="M777,705.8c-.26-.26-.53-.49-.79-.75A5.14,5.14,0,0,1,777,705.8Z"></path>
                <path d="M776.14,705c-.52-.41-1.08-.86-1.65-1.24A13.67,13.67,0,0,1,776.14,705Z"></path>
                <path d="M772.35,702.57a14.92,14.92,0,0,1,2,1,15,15,0,0,0-2.74-1.31A2.79,2.79,0,0,1,772.35,702.57Z"></path>
                <path d="M769.72,701.74a9,9,0,0,1,1.88.57A14.61,14.61,0,0,0,769.72,701.74Z"></path>
                <path d="M764.61,701.44a8,8,0,0,0-1.27.19C763.75,701.56,764.2,701.48,764.61,701.44Z"></path>
                <path d="M763.11,701.67a7.41,7.41,0,0,0-1.24.34C762.29,701.86,762.7,701.78,763.11,701.67Z"></path>
                <path d="M755.53,887.78a15.08,15.08,0,0,1,7,14.54,9,9,0,0,0-.23,1.27,14.87,14.87,0,0,1-1.91,4.89,15.08,15.08,0,0,1-12.81,7.1,14.72,14.72,0,0,1-7.88-2.26l-8.34-5.18a244.42,244.42,0,0,1,6.12-31.55Z"></path>
                <path d="M762.32,903.59a9,9,0,0,1,.23-1.27A7.07,7.07,0,0,1,762.32,903.59Z"></path>
                <path d="M762.17,763.38c1.92,28.06-6,52.62-14.79,80.12-3.38,10.55-6.91,21.52-9.88,33.09L718,864.53Z"
                      class="cls-1"></path>
                <path d="M762.17,763.38,718,864.53l19.49,12.06a244.42,244.42,0,0,0-6.12,31.55L680,876.36l72.52-166a14.9,14.9,0,0,0,0,11.91,121.41,121.41,0,0,1,5.41,15.81A126.82,126.82,0,0,1,762.17,763.38Z"></path>
                <path d="M761.87,702a10.39,10.39,0,0,0-1.35.48C761,702.31,761.42,702.16,761.87,702Z"></path>
                <path d="M759.92,1034.83c3.23,5.41,6.69,10.7,10.44,16-71.13,65.43-137,98.37-196.45,98.37a152.18,152.18,0,0,1-42.1-5.82C424,1112.69,378.4,972.1,369.88,942.51c6-2,11.9-4,17.8-6,7.17,24.6,51,160.91,149.32,188.85C600.8,1143.45,675.76,1113,759.92,1034.83Z"></path>
                <path d="M734.65,972.67a211.08,211.08,0,0,0,25.27,62.16C675.76,1113,600.8,1143.45,537,1125.31c-98.36-27.94-142.15-164.25-149.32-188.85q18-6.15,35.56-12.17c33.2-11.34,67.49-23.1,101.66-34.41l2.33-.78L541,1076.37l7.13-2.89a267,267,0,0,0,94-63.93,263.65,263.65,0,0,0,50.81-77.71,5.62,5.62,0,1,0-10.32-4.43A252.82,252.82,0,0,1,551.08,1060l-18.14-247,58.81-11.23a9.39,9.39,0,0,0-3.53-18.44l-75.11,14.35-18,3.45A39.67,39.67,0,0,1,473,796.81l-.22-.11a6.28,6.28,0,0,0-1.32-.72A39.32,39.32,0,0,1,461,787.12l-72.71-86.88a119.67,119.67,0,0,1-15.43-23.47,120.88,120.88,0,0,1-8.38-21.49.63.63,0,0,0-.07-.22,5.65,5.65,0,0,0-.49-1.28s0-.08,0-.11a10.8,10.8,0,0,0-.6-1.06,8.82,8.82,0,0,0-.9-1.16c0-.08-.11-.11-.19-.19-9.76-10.7-26.14-33.13-27.15-64.11a94.44,94.44,0,0,1,5.82-35.84l.94-2.51-.57-2.63c-.26-1.24-.48-2.44-.71-3.68A74.75,74.75,0,0,0,356,557.89C371.94,569.61,386.29,573,397.44,573a53.46,53.46,0,0,0,10.74-1.05c14.42-2.93,23.93-11,28.47-14.88a77.22,77.22,0,0,0,6.53-6.27,0,0,0,0,0,0,0s.08-.07.08-.11a58.54,58.54,0,0,1-8.38,11.34c-1.5,1.58-3,3-4.5,4.4-5.11,4.81-10.45,9.8-11.76,18.55-1.28,8.34,1.47,17.09,8.11,26a5.64,5.64,0,1,0,9.05-6.72c-4.8-6.42-6.83-12.36-6-17.62.68-4.69,3.46-7.47,8.34-12.05,1.62-1.51,3.27-3.08,5-4.85,19.34-20.47,21.63-48.64,22.72-62.2a115.24,115.24,0,0,0-.34-22.2,1.71,1.71,0,0,0,0-.45,81.41,81.41,0,0,0-1.35-9.54c-.52-2.59-1.05-5.14-1.73-7.62,6.09-3.95,22.87-11.84,51.83-4.36a65.49,65.49,0,0,0,.79,10.25c1.35,11.46,7.28,39.89,33,58.48,16.19,11.72,30.72,15.1,42.1,15.1A55.9,55.9,0,0,0,601.33,546c14.68-3,24.37-11.27,29-15.21,22.94-19.61,34.1-53.08,27.75-83.28-.71-3.41-1.43-6.79-2.44-10.06l41.12-15c-5.33,17.28-12.5,34.67-19.6,51.87-20.09,48.76-39.06,94.77-12.21,130.56,8.42,11.24,19.23,18.41,30.65,26,16.52,11,35.3,23.52,51.26,52.25a156.22,156.22,0,0,1,9.95,21.56c-.33.3-.67.6-1,.94a4.72,4.72,0,0,0-.75.79,14.4,14.4,0,0,0-2.48,3.9L680,876.36l51.34,31.78A185.91,185.91,0,0,0,734.65,972.67ZM622,669.37l3.16-7.48-8.12-.3a95,95,0,0,1-33.68-7.29A92.71,92.71,0,0,1,573,649c-4.58-2.59-8.52-4.85-15.32-6.09-9-1.65-14.42.19-20.13,2.14a55.54,55.54,0,0,1-14.42,3.35c-9.5.9-17.65-1.32-25.5-3.46-10.06-2.74-20.47-5.56-30.76.34-8.45,4.85-13.52,15.1-15.13,30.46l-.45,4.21,3.94,1.58a149.66,149.66,0,0,0,87.2,8.07l2.11,10.29a5.62,5.62,0,0,0,.26,11.12,82.81,82.81,0,0,0,9.84.56c13.11,0,34.29-2.85,51.22-18.74A67.37,67.37,0,0,0,622,669.37Z"
                      class="cls-5"></path>
                <path d="M755.79,705.65c-.26.26-.53.53-.75.79A4.72,4.72,0,0,1,755.79,705.65Z"></path>
                <path d="M713.43,323.36c13,27.12,12.88,55.55,6.8,83.65a5.64,5.64,0,0,0-6.91-2.63l-12.81,4.69c6.72-26.82,7.77-53.11-4-77.56-16.83-34.93-51.68-50-88.56-66-83.93-36.4-165.54-20.25-212.56-4.4,0-.07,0-.15.08-.22a15.24,15.24,0,0,0-.15-9.77,8.56,8.56,0,0,0-.19-1c-.56-2.45-1.16-5.15-1.69-8.12,50.36-16.34,134.79-31.51,222,6.28C653.87,264.91,693.6,282.15,713.43,323.36Z"></path>
                <path d="M720.56,407.76a5.64,5.64,0,0,1-2.06,6.5c.6-2.41,1.16-4.81,1.73-7.25C720.34,407.23,720.45,407.49,720.56,407.76Z"></path>
                <path d="M720.23,407c-.57,2.44-1.13,4.84-1.73,7.25a5.05,5.05,0,0,1-1.32.71l-20.43,7.47c1.43-4.47,2.67-8.94,3.76-13.37l12.81-4.69A5.64,5.64,0,0,1,720.23,407Z"></path>
                <path d="M696.53,331.51c11.75,24.45,10.7,50.74,4,77.56l-49.65,18.18a31.16,31.16,0,0,0-3.83-4.69c-13.86-14.13-34.44-11.8-65.57-8.23-29.71,3.38-47.62,5.45-58.43,19.76A43.12,43.12,0,0,0,515.25,452c-29.29-7.1-48.07-.08-57,5.07a34,34,0,0,0-4.85-6.39c-13.56-14-33.65-11.76-64.14-8.41-22.8,2.51-38.53,4.24-49.39,11.68.75-4.32,1.66-8.64,2.67-12.92l9.16-38.76c24.15-11.31,75.07,1.35,94.23,7.77a5.9,5.9,0,0,0,1.8.26,5.62,5.62,0,0,0,1.77-11c-2.82-.94-59.57-19.72-94.72-10l27.91-118.06a15,15,0,0,0,12.76-10.1c47-15.85,128.63-32,212.56,4.4C644.85,281.48,679.7,296.58,696.53,331.51Zm-7.66,64.3a5.64,5.64,0,0,0-.3-8c-50.33-46.27-150.3-2.85-154.5-1a5.64,5.64,0,0,0,2.25,10.81,5.43,5.43,0,0,0,2.29-.49c1-.41,97.42-42.29,142.3-1A5.64,5.64,0,0,0,688.87,395.81Z"
                      class="cls-5"></path>
                <path d="M650.86,427.25l49.65-18.18c-1.09,4.43-2.33,8.9-3.76,13.37l-41.12,15A37.6,37.6,0,0,0,650.86,427.25Z"></path>
                <path d="M690,924.44a5.58,5.58,0,0,1,3,7.4,263.65,263.65,0,0,1-50.81,77.71,267,267,0,0,1-94,63.93l-7.13,2.89L527.23,889.1l8.75-2.9-5.18-72.71,2.14-.42,18.14,247A252.82,252.82,0,0,0,682.6,927.41,5.58,5.58,0,0,1,690,924.44Z"></path>
                <path d="M688.57,387.85a5.65,5.65,0,0,1-7.66,8.3c-44.88-41.28-141.32.6-142.3,1a5.43,5.43,0,0,1-2.29.49,5.64,5.64,0,0,1-2.25-10.81C538.27,385,638.24,341.58,688.57,387.85Z"></path>
                <path d="M658.07,447.53c6.35,30.2-4.81,63.67-27.75,83.28-4.62,3.94-14.31,12.2-29,15.21a55.9,55.9,0,0,1-11.23,1.12c-11.38,0-25.91-3.38-42.1-15.1-25.73-18.59-31.66-47-33-58.48a65.49,65.49,0,0,1-.79-10.25c1.35.34,2.74.71,4.17,1.13a5.65,5.65,0,0,0,7-3.8c.08-.26.11-.52.19-.79a51.87,51.87,0,0,0,.3,10.07c.07.71.15,1.39.26,2.07l0,.18c.9,7.74,5.63,34.26,28.43,50.75,15.13,11,30.08,15,44.46,12.05,11.83-2.4,19.72-9.12,23.93-12.73,19.26-16.45,28.91-44.21,24.52-69.79a5.65,5.65,0,0,0,3.12-10.85c-1.84-.56-3.87-1.13-6.09-1.65a29.66,29.66,0,0,0-1.16-3l0,0a5.54,5.54,0,0,0,4.92,2.86,5,5,0,0,0,1.91-.34l5.37-1.95C656.64,440.74,657.36,444.12,658.07,447.53Z"></path>
                <path d="M655.63,437.47l-5.37,1.95a5,5,0,0,1-1.91.34,5.54,5.54,0,0,1-4.92-2.86,5.14,5.14,0,0,1-.38-.82,5.57,5.57,0,0,1,3.34-7.21l4.47-1.62A37.6,37.6,0,0,1,655.63,437.47Z"></path>
                <path d="M650.64,441.6a5.65,5.65,0,0,1-3.12,10.85c-.11-.86-.26-1.72-.45-2.59a76,76,0,0,0-2.52-9.91C646.77,440.47,648.8,441,650.64,441.6Z"></path>
                <path d="M650.86,427.25l-4.47,1.62a5.57,5.57,0,0,0-3.34,7.21,5.14,5.14,0,0,0,.38.82l0,0a21.25,21.25,0,0,0-4.4-6.46c-5.48-5.6-13.14-7.55-24.37-7.55-8.41,0-18.85,1.09-31.85,2.59-29.74,3.38-43.18,5.3-50.73,15.33-4.32,5.74-6,12.54-6.46,18.93a5.65,5.65,0,0,0-4-6.12c-2.18-.64-4.28-1.21-6.35-1.69A43.12,43.12,0,0,1,523,434.09c10.81-14.31,28.72-16.38,58.43-19.76,31.13-3.57,51.71-5.9,65.57,8.23A31.16,31.16,0,0,1,650.86,427.25Z"></path>
                <path d="M647.52,452.45c4.39,25.58-5.26,53.34-24.52,69.79-4.21,3.61-12.1,10.33-23.93,12.73-14.38,3-29.33-1.08-44.46-12.05-22.8-16.49-27.53-43-28.43-50.75l0-.18c-.11-.68-.19-1.36-.26-2.07l8.11-.64a8.41,8.41,0,0,0,9.2,7.44,286.73,286.73,0,0,1,41.31-1.43,290.24,290.24,0,0,1,32.75,3.23,3.14,3.14,0,0,0,.86.08,5.64,5.64,0,0,0,.91-11.2c-4.51-.71-9.06-1.31-13.6-1.8,5.48-5.78,7.32-13.93,7.92-18.55a128.62,128.62,0,0,1,34.07,5.37S647.48,452.45,647.52,452.45Z"
                      class="cls-6"></path>
                <path d="M647.07,449.86c.19.87.34,1.73.45,2.59,0,0-.08,0-.11,0a128.62,128.62,0,0,0-34.07-5.37,30.55,30.55,0,0,0,.3-3.46,42.8,42.8,0,0,0-22.9-3.87c-.72.08-1.43.19-2.14.3l-.42-2.14c22.24-4.24,42.55-1.39,56.37,2.07A76,76,0,0,1,647.07,449.86Z"></path>
                <path d="M643.39,436.94a29.66,29.66,0,0,1,1.16,3c-13.82-3.46-34.13-6.31-56.37-2.07A112.62,112.62,0,0,0,537,462a8.51,8.51,0,0,0-3,7.29l-8.11.64a51.87,51.87,0,0,1-.3-10.07v-.07c.41-6.39,2.14-13.19,6.46-18.93,7.55-10,21-12,50.73-15.33,13-1.5,23.44-2.59,31.85-2.59,11.23,0,18.89,1.95,24.37,7.55A21.25,21.25,0,0,1,643.39,436.94Z"
                      class="cls-6"></path>
                <path d="M625.14,661.89,622,669.37a67.37,67.37,0,0,1-16.15,23.47c-16.93,15.89-38.11,18.74-51.22,18.74a82.81,82.81,0,0,1-9.84-.56,5.62,5.62,0,0,1-.26-11.12,5.74,5.74,0,0,1,1.61-.07c7.44.94,33.12,2.51,52-15.21A53.9,53.9,0,0,0,608,672.18a103.33,103.33,0,0,1-29.07-7.51c-2.51-1-4.69-2.1-6.61-3.12s-3.49-1.91-5-2.74c-4.13-2.36-6.84-3.9-11.76-4.81-6.12-1.12-9.42,0-14.46,1.73a67.68,67.68,0,0,1-17,3.91c-11.53,1.05-21.06-1.54-29.44-3.8-10.21-2.78-16.26-4.2-22.23-.78-4.47,2.59-7.47,8.48-9,17.61a137.4,137.4,0,0,0,35.34,8.15,143.1,143.1,0,0,0,67.68-10.18,5.45,5.45,0,0,1,2.14-.45,5.64,5.64,0,0,1,2.14,10.86,155,155,0,0,1-28.36,8.56,149.66,149.66,0,0,1-87.2-8.07L451.26,680l.45-4.21c1.61-15.36,6.68-25.61,15.13-30.46,10.29-5.9,20.7-3.08,30.76-.34,7.85,2.14,16,4.36,25.5,3.46a55.54,55.54,0,0,0,14.42-3.35c5.71-1.95,11.12-3.79,20.13-2.14,6.8,1.24,10.74,3.5,15.32,6.09a92.71,92.71,0,0,0,10.37,5.29A95,95,0,0,0,617,661.59Z"></path>
                <path d="M619,467.4a5.64,5.64,0,0,1-.91,11.2,3.14,3.14,0,0,1-.86-.08,290.24,290.24,0,0,0-32.75-3.23l0-2.44a33.54,33.54,0,0,0,8.26-.68,25.76,25.76,0,0,0,8-2.85,19.94,19.94,0,0,0,4.62-3.72C610,466.09,614.51,466.69,619,467.4Z"></path>
                <path d="M613.64,443.59a30.55,30.55,0,0,1-.3,3.46,103.69,103.69,0,0,0-15.54.75,7.78,7.78,0,0,0-3.5-.79,8.45,8.45,0,0,0-5.74,2.25,0,0,0,0,1,0,0A99.1,99.1,0,0,0,567.68,456a29.83,29.83,0,0,1,.71-7,43.4,43.4,0,0,1,20.21-9c.71-.11,1.42-.22,2.14-.3A42.8,42.8,0,0,1,613.64,443.59Z"></path>
                <path d="M597.8,447.8a103.69,103.69,0,0,1,15.54-.75c-.6,4.62-2.44,12.77-7.92,18.55-4-.45-8-.79-12-1.09l0-.64a6.19,6.19,0,0,0,.86,0,8.46,8.46,0,0,0,8.45-8.45A8.36,8.36,0,0,0,597.8,447.8Z"></path>
                <path d="M605.42,465.6a19.94,19.94,0,0,1-4.62,3.72,25.76,25.76,0,0,1-8,2.85,33.54,33.54,0,0,1-8.26.68c-4.17-.19-8.94-1.35-12.58-5.07a13.81,13.81,0,0,1-2.67-3.91q7.83-.17,15.66.19,4.23.17,8.45.45C597.42,464.81,601.44,465.15,605.42,465.6Z"></path>
                <path d="M608,672.18a53.9,53.9,0,0,1-9.88,12.44c-18.89,17.72-44.57,16.15-52,15.21a5.74,5.74,0,0,0-1.61.07l-2.11-10.29a155,155,0,0,0,28.36-8.56,5.64,5.64,0,0,0-2.14-10.86l3.71-8.64c1.92,1,4.1,2.07,6.61,3.12A103.33,103.33,0,0,0,608,672.18Z"
                      class="cls-7"></path>
                <path d="M597.8,447.8a8.36,8.36,0,0,1,5,7.66,8.46,8.46,0,0,1-8.45,8.45,6.19,6.19,0,0,1-.86,0,8.45,8.45,0,0,1-4.92-14.57,0,0,0,0,0,0,0Q593.29,448.3,597.8,447.8Z"
                      class="cls-8"></path>
                <path d="M599.19,790.87a9.39,9.39,0,0,1-7.44,11l-58.81,11.23-.64-8.71a5.63,5.63,0,0,0-6-5.22,5.35,5.35,0,0,0-2.55.86h0a15,15,0,0,0-9.09-2.29,10.42,10.42,0,0,0-1.46.19l0-.15,75.11-14.35A9.39,9.39,0,0,1,599.19,790.87Z"></path>
                <path d="M594.3,447a7.78,7.78,0,0,1,3.5.79q-4.51.49-9.24,1.46A8.45,8.45,0,0,1,594.3,447Z"
                      class="cls-8"></path>
                <path d="M593.44,463.87l0,.64q-4.21-.28-8.45-.45-7.83-.35-15.66-.19a20.09,20.09,0,0,1-1.61-7.85,99.1,99.1,0,0,1,20.84-6.72,8.45,8.45,0,0,0,4.92,14.57Z"></path>
                <path d="M588.18,437.88l.42,2.14a43.4,43.4,0,0,0-20.21,9,29.83,29.83,0,0,0-.71,7c-.94.42-1.88.87-2.82,1.32a98.7,98.7,0,0,0-12.58,7.25c5.67-.42,11.38-.64,17-.72a13.81,13.81,0,0,0,2.67,3.91c3.64,3.72,8.41,4.88,12.58,5.07l0,2.44a286.73,286.73,0,0,0-41.31,1.43,8.41,8.41,0,0,1-9.2-7.44,8.51,8.51,0,0,1,3-7.29,112.62,112.62,0,0,1,51.18-24.11Z"></path>
                <path d="M572.33,661.55l-3.71,8.64a5.45,5.45,0,0,0-2.14.45,143.1,143.1,0,0,1-67.68,10.18,137.4,137.4,0,0,1-35.34-8.15c1.51-9.13,4.51-15,9-17.61,6-3.42,12-2,22.23.78,8.38,2.26,17.91,4.85,29.44,3.8a67.68,67.68,0,0,0,17-3.91c5-1.73,8.34-2.85,14.46-1.73,4.92.91,7.63,2.45,11.76,4.81C568.84,659.64,570.46,660.58,572.33,661.55Z"
                      class="cls-7"></path>
                <polygon points="530.8 813.49 535.98 886.2 527.23 889.1 521.82 815.18 530.8 813.49"></polygon>
                <path d="M532.3,804.36l.64,8.71-2.14.42-.15-1.88A14.93,14.93,0,0,0,523.74,800a5.35,5.35,0,0,1,2.55-.86A5.63,5.63,0,0,1,532.3,804.36Z"></path>
                <path d="M530.65,811.61l.15,1.88-9,1.69-.75-10A5.59,5.59,0,0,1,523.7,800h0A14.93,14.93,0,0,1,530.65,811.61Z"></path>
                <path d="M521.82,815.18l5.41,73.92-2.33.78c-34.17,11.31-68.46,23.07-101.66,34.41q-17.57,6-35.56,12.17c-.68-2.37-1-3.68-1.05-3.83a9.38,9.38,0,1,0-18.18,4.62c.15.6.64,2.4,1.43,5.26q-20.69,7-41.5,13.93c4.32-15.21,11.15-27.19,20.54-35.79a52.64,52.64,0,0,1,6.31-4.92c19.64-6.65,39.17-13.34,58.29-19.87,29.66-10.15,60.23-20.62,90.84-30.8l-3.27-45.94Z"></path>
                <path d="M521.6,453.66a5.65,5.65,0,0,1,4,6.12v.07c-.08.27-.11.53-.19.79a5.65,5.65,0,0,1-7,3.8c-1.43-.42-2.82-.79-4.17-1.13a53.94,53.94,0,0,1,1-11.34C517.32,452.45,519.42,453,521.6,453.66Z"></path>
                <path d="M521.82,815.18l-20.73,3.94-.37-5.37a15,15,0,0,1,12.43-15.85,10.42,10.42,0,0,1,1.46-.19A15,15,0,0,1,523.7,800a5.59,5.59,0,0,0-2.63,5.18Z"></path>
                <path d="M515.25,452a53.94,53.94,0,0,0-1,11.34c-29-7.48-45.74.41-51.83,4.36a30.21,30.21,0,0,0-1.12-3.72,34,34,0,0,0-3-6.91C467.18,451.89,486,444.87,515.25,452Z"></path>
                <path d="M513.11,797.75l0,.15a15,15,0,0,0-12.43,15.85l.37,5.37-3.64.71c-2,.19-4.06.3-6.08.3a58.34,58.34,0,0,1-14-1.72c.48-1,.93-2,1.35-3A15,15,0,0,0,473,796.81a39.67,39.67,0,0,0,22.16,4.39Z"></path>
                <path d="M501.09,819.12l3.27,45.94c-30.61,10.18-61.18,20.65-90.84,30.8-19.12,6.53-38.65,13.22-58.29,19.87,7.25-4.81,15.17-7.33,24.6-10.33,13.67-4.4,29.14-9.32,46.83-22.24,21.48-15.74,38.57-37.48,50.74-64.75a58.34,58.34,0,0,0,14,1.72c2,0,4.05-.11,6.08-.3Z"
                      class="cls-1"></path>
                <path d="M473,796.81a15,15,0,0,1,5.79,18.59c-.42,1-.87,2-1.35,3A58.21,58.21,0,0,1,451,803.91a1.4,1.4,0,0,0,.15-.3,15,15,0,0,1,19.71-7.93,4.8,4.8,0,0,1,.6.3c.42.27.87.49,1.32.72Z"></path>
                <path d="M472.74,796.7c-.45-.23-.9-.45-1.32-.72A6.28,6.28,0,0,1,472.74,796.7Z"></path>
                <path d="M471.42,796a4.8,4.8,0,0,0-.6-.3,15,15,0,0,0-19.71,7.93,1.4,1.4,0,0,1-.15.3,53.92,53.92,0,0,1-4.43-4.73L373.82,712.3A139,139,0,0,1,356,685.22a140.42,140.42,0,0,1-9-22.77c.52.61,1,1.17,1.54,1.7a9.37,9.37,0,0,0,15.92-8.87,120.88,120.88,0,0,0,8.38,21.49,119.67,119.67,0,0,0,15.43,23.47L461,787.12A39.32,39.32,0,0,0,471.42,796Z"></path>
                <path d="M451,803.91a58.21,58.21,0,0,0,26.44,14.5c-12.17,27.27-29.26,49-50.74,64.75C409,896.08,393.5,901,379.83,905.4c-9.43,3-17.35,5.52-24.6,10.33q-21.75,7.38-43.56,14.61a14.88,14.88,0,0,0-9.05,8.3q8.89-24.4,26-40.15c13.86-12.7,28.17-17.28,42-21.71,12.61-4.06,24.52-7.85,38.26-17.88C426.73,845.86,440.89,827.38,451,803.91Z"></path>
                <path d="M465.49,485.28a115.24,115.24,0,0,1,.34,22.2c-1.09,13.56-3.38,41.73-22.72,62.2-1.69,1.77-3.34,3.34-5,4.85-4.88,4.58-7.66,7.36-8.34,12.05-.82,5.26,1.21,11.2,6,17.62a5.64,5.64,0,1,1-9.05,6.72c-6.64-8.94-9.39-17.69-8.11-26,1.31-8.75,6.65-13.74,11.76-18.55,1.46-1.39,3-2.82,4.5-4.4a58.54,58.54,0,0,0,8.38-11.34C459,533.47,467.33,509,465.49,485.28Z"></path>
                <path d="M465.49,485.28c1.84,23.7-6.46,48.19-22.19,65.32,9-15.7,10.44-33.5,11.3-44a105.61,105.61,0,0,0-.11-18.22v-.15s0,0,0-.11V488c0-.41-.08-.83-.11-1.24s-.08-.79-.15-1.2a58.14,58.14,0,0,0-1.13-8,87.61,87.61,0,0,0-2.44-10,5.64,5.64,0,0,0,5.22,3.61,5.73,5.73,0,0,0,3.91-1.54,16.82,16.82,0,0,1,2.55-1.92,122.14,122.14,0,0,1,3.15,17.13A1.71,1.71,0,0,1,465.49,485.28Z"></path>
                <path d="M464.1,475.29a81.41,81.41,0,0,1,1.35,9.54,122.14,122.14,0,0,0-3.15-17.13s0,0,.07,0C463.05,470.15,463.58,472.7,464.1,475.29Z"></path>
                <path d="M462.37,467.67s0,0-.07,0c-.34-1.24-.68-2.51-1.05-3.75A30.21,30.21,0,0,1,462.37,467.67Z"></path>
                <path d="M461.25,464c.37,1.24.71,2.51,1.05,3.75a16.82,16.82,0,0,0-2.55,1.92,5.73,5.73,0,0,1-3.91,1.54,5.64,5.64,0,0,1-5.22-3.61,7.45,7.45,0,0,1-.3-1,5.92,5.92,0,0,1,0-2.14,2.82,2.82,0,0,1,.22-.83,2.16,2.16,0,0,1,.19-.45,5,5,0,0,1,1.16-1.61.28.28,0,0,1,.15-.15,5.31,5.31,0,0,1,.42-.38s.07,0,.11-.07a6.09,6.09,0,0,1,1.69-.79A5.59,5.59,0,0,1,461.25,464Z"></path>
                <path d="M458.21,457a34,34,0,0,1,3,6.91,5.59,5.59,0,0,0-6.95-3.83,6.09,6.09,0,0,0-1.69.79A38.21,38.21,0,0,1,458.21,457Z"></path>
                <path d="M454.49,488.36a105.61,105.61,0,0,1,.11,18.22c-.86,10.52-2.29,28.32-11.3,44,0,0,0,.07-.08.11a0,0,0,0,1,0,0,77.22,77.22,0,0,1-6.53,6.27c-4.54,3.87-14,12-28.47,14.88A53.46,53.46,0,0,1,397.44,573c-11.15,0-25.5-3.34-41.42-15.06a74.75,74.75,0,0,1-15.55-15.4,238.43,238.43,0,0,1-4.2-36.85c2.32,11.08,8.75,30.2,26.4,43.16,14.72,10.81,29.29,14.87,43.3,12.05,11.56-2.33,19.26-8.9,23.39-12.39,16.75-14.31,26.18-37.45,25.09-60.1Z"></path>
                <path d="M453.36,450.65a34,34,0,0,1,4.85,6.39,38.21,38.21,0,0,0-5.6,3.87s-.08.07-.11.07a2,2,0,0,0-.42.38s-.07,0-.11.07,0,0,0,.08a5,5,0,0,0-1.16,1.61,2.16,2.16,0,0,0-.19.45,2.82,2.82,0,0,0-.22.83,4.55,4.55,0,0,0,0,2.14,2,2,0,0,0,.07.41,23.36,23.36,0,0,0-5.1-8.45c-5.37-5.56-13-7.47-24.11-7.47-8.15,0-18.22,1.05-30.72,2.4-29,3.19-42.14,5-49.5,14.8a29.22,29.22,0,0,0-3.94,7.1q.9-10.77,2.81-21.41c10.86-7.44,26.59-9.17,49.39-11.68C419.71,438.89,439.8,436.68,453.36,450.65Z"></path>
                <path d="M454.45,488.1c0,.07,0,.07,0,.11A.13.13,0,0,0,454.45,488.1Z"></path>
                <path d="M454.45,488.36c1.09,22.65-8.34,45.79-25.09,60.1-4.13,3.49-11.83,10.06-23.39,12.39-14,2.82-28.58-1.24-43.3-12.05-17.65-13-24.08-32.08-26.4-43.16v-.15a.12.12,0,0,0,0-.11,242.56,242.56,0,0,1,.75-30l0,0a29.22,29.22,0,0,1,3.94-7.1c7.36-9.77,20.5-11.61,49.5-14.8C403,452.08,413,451,421.18,451c11.15,0,18.74,1.91,24.11,7.47a23.36,23.36,0,0,1,5.1,8.45s0,.12,0,.15a111.41,111.41,0,0,1,3.76,18.41c.07.41.11.82.15,1.2l.11,1.24v.15a.13.13,0,0,1,0,.11s0,0,0,.08l0,0v0Zm-3.49-7.1a9.24,9.24,0,0,0-3.31-10.55,73.6,73.6,0,0,0-11.71-7.14A72,72,0,0,0,423.5,459c-31.28-8.49-61.47,5.82-70.79,11a5.6,5.6,0,0,0-2.25,7.62,5.67,5.67,0,0,0,7.66,2.26,104.55,104.55,0,0,1,26.33-10c-1.43,6.53,0,12.84,3.9,16.75a144.87,144.87,0,0,0-25.76,13,5.64,5.64,0,0,0-1.69,7.78,5.55,5.55,0,0,0,4.73,2.59,5.62,5.62,0,0,0,3.05-.86,134.41,134.41,0,0,1,39.88-17.21c2.06-.52,4.17-1,6.27-1.42a134.89,134.89,0,0,1,26.4-2.6,4,4,0,0,1,.6,0A9.65,9.65,0,0,0,451,481.26Z"
                      class="cls-6"></path>
                <path d="M454.45,488l-.11-1.24C454.37,487.12,454.45,487.54,454.45,488Z"></path>
                <path d="M453.06,477.54a58.14,58.14,0,0,1,1.13,8,111.41,111.41,0,0,0-3.76-18.41c.08.15.11.3.19.45A87.61,87.61,0,0,1,453.06,477.54Z"></path>
                <path d="M449.46,399.31a5.62,5.62,0,0,1-1.77,11,5.9,5.9,0,0,1-1.8-.26c-19.16-6.42-70.08-19.08-94.23-7.77l3.08-13C389.89,379.59,446.64,398.37,449.46,399.31Z"></path>
                <path d="M452.5,461a5.31,5.31,0,0,0-.42.38A2,2,0,0,1,452.5,461Z"></path>
                <path d="M452.08,461.36a.28.28,0,0,0-.15.15s0,0,0-.08S452.05,461.39,452.08,461.36Z"></path>
                <path d="M447.65,470.71A9.24,9.24,0,0,1,451,481.26a9.65,9.65,0,0,1-9.13,6.61,4,4,0,0,0-.6,0,134.89,134.89,0,0,0-26.4,2.6c-2.1.41-4.21.9-6.27,1.42l-.64-2.36c6.72-1.81,14-6.35,16.79-12,3.86-.42,7.77-.72,11.68-.83a49,49,0,0,0-5.37-2.93,48.26,48.26,0,0,0-5.11-2.14,12.77,12.77,0,0,0-3.38-7.14l1-5.52a72,72,0,0,1,12.44,4.62A73.6,73.6,0,0,1,447.65,470.71Z"></path>
                <path d="M450.77,463.12a2.16,2.16,0,0,0-.19.45A2.16,2.16,0,0,1,450.77,463.12Z"></path>
                <path d="M450.32,466.54a7.45,7.45,0,0,0,.3,1c-.08-.15-.11-.3-.19-.45s0-.11,0-.15A2,2,0,0,1,450.32,466.54Z"></path>
                <path d="M450.58,463.57a2.82,2.82,0,0,0-.22.83A2.82,2.82,0,0,1,450.58,463.57Z"></path>
                <path d="M450.36,464.4a5.92,5.92,0,0,0,0,2.14A4.55,4.55,0,0,1,450.36,464.4Z"></path>
                <path d="M446.53,799.18a53.92,53.92,0,0,0,4.43,4.73c-10.07,23.47-24.23,42-42,55-13.74,10-25.65,13.82-38.26,17.88-13.86,4.43-28.17,9-42,21.71q-17.07,15.71-26,40.15a11.9,11.9,0,0,0-.79,2.21q-1.47,4.29-2.71,8.79c-.3-.86-.56-1.69-.86-2.55a192.9,192.9,0,0,1-10-69.6c.9-20,4.77-33,8.53-45.71,4.54-15.36,9.23-31.22,6.83-54.84-4.09-39.66-24-60.4-41.61-78.69-13.9-14.46-27-28.13-34.14-51.38-8.94-29.19-.34-46.47,15.25-77.87,14.16-28.43,33.5-67.34,44.91-131,6.54-36.36,8.12-67.57,9.39-92.62,2.18-43.09,4-64.23,20.47-74.67,11.12-7,26.7-8.23,46.42-3.61L333,399.57l-8.79,37.11a263.82,263.82,0,0,0-1.92,110.76,112.44,112.44,0,0,0-6.08,40.31c1.2,35.64,19.12,61.6,30.76,74.7a140.42,140.42,0,0,0,9,22.77,139,139,0,0,0,17.8,27.08Z"
                      class="cls-9"></path>
                <path d="M426,472.06a10.74,10.74,0,0,1-1.27,5.45c-1,.15-2.11.26-3.16.45a7.6,7.6,0,0,0,1.54-4.66,8.19,8.19,0,0,0-.52-2.85c1.12.33,2.21.71,3.34,1.16A1.76,1.76,0,0,1,426,472.06Z"></path>
                <path d="M421.55,478c1.05-.19,2.11-.3,3.16-.45-2.82,5.67-10.07,10.21-16.79,12-.6.15-1.16.3-1.73.41-3.38.68-11.56,2.37-17.31-2.86a3.26,3.26,0,0,1-.53-.52,136.6,136.6,0,0,1,22.8-6.8,7.94,7.94,0,0,0,4.28,1.28A7.62,7.62,0,0,0,421.55,478Z"></path>
                <path d="M425.91,471.61c-1.13-.45-2.22-.83-3.34-1.16a7.64,7.64,0,0,0-12.7-2.52,78.92,78.92,0,0,0-25.42,1.88,27.47,27.47,0,0,1,1.91-5.6q18.09.12,36.17.26A12.77,12.77,0,0,1,425.91,471.61Z"></path>
                <path d="M423.5,459l-1,5.52q-18.09-.17-36.17-.26a27.47,27.47,0,0,0-1.91,5.6,104.55,104.55,0,0,0-26.33,10,5.67,5.67,0,0,1-7.66-2.26,5.6,5.6,0,0,1,2.25-7.62C362,464.77,392.22,450.46,423.5,459Z"></path>
                <path d="M422.57,470.45a8.19,8.19,0,0,1,.52,2.85,7.6,7.6,0,0,1-1.54,4.66c-3,.37-6,.86-8.94,1.46-.48.12-1,.19-1.46.34a7.81,7.81,0,0,1-1.28-11.83A60.64,60.64,0,0,1,422.57,470.45Z"
                      class="cls-8"></path>
                <path d="M415.43,465.53a7.67,7.67,0,0,1,7.14,4.92,60.64,60.64,0,0,0-12.7-2.52A7.66,7.66,0,0,1,415.43,465.53Z"
                      class="cls-8"></path>
                <path d="M421.55,478a7.62,7.62,0,0,1-6.12,3.08,7.94,7.94,0,0,1-4.28-1.28c.49-.15,1-.22,1.46-.34C415.58,478.82,418.55,478.33,421.55,478Z"
                      class="cls-8"></path>
                <path d="M407.73,473.3a7.75,7.75,0,0,0,3.42,6.46,136.6,136.6,0,0,0-22.8,6.8c-3.86-3.91-5.33-10.22-3.9-16.75a78.92,78.92,0,0,1,25.42-1.88A7.68,7.68,0,0,0,407.73,473.3Z"></path>
                <path d="M407.92,489.53l.64,2.36a134.41,134.41,0,0,0-39.88,17.21,5.62,5.62,0,0,1-3.05.86,5.55,5.55,0,0,1-4.73-2.59,5.64,5.64,0,0,1,1.69-7.78,144.87,144.87,0,0,1,25.76-13,3.26,3.26,0,0,0,.53.52c5.75,5.23,13.93,3.54,17.31,2.86C406.76,489.83,407.32,489.68,407.92,489.53Z"></path>
                <path d="M395.34,251.13a15.24,15.24,0,0,1,.15,9.77c0,.07,0,.15-.08.22-.82.3-1.65.56-2.44.86A14.75,14.75,0,0,0,395.34,251.13Z"></path>
                <path d="M395.34,251.13A14.75,14.75,0,0,1,393,262c-3,1-5.82,2-8.48,3a2.17,2.17,0,0,1-.42.11l0-.11a9.38,9.38,0,0,0-7-11.31,9.5,9.5,0,0,0-5,.19,9.4,9.4,0,0,1,5.79-6.46c3.45-1.32,7.21-2.67,11.15-4A15.08,15.08,0,0,1,395.34,251.13Z"></path>
                <path d="M395.15,250.12a8.56,8.56,0,0,1,.19,1,15.08,15.08,0,0,0-6.31-7.7c1.46-.45,2.93-.94,4.43-1.43C394,245,394.59,247.67,395.15,250.12Z"></path>
                <path d="M393,262c.79-.3,1.62-.56,2.44-.86a15,15,0,0,1-12.76,10.1l.67-2.89a4,4,0,0,0,.68-.11A14.74,14.74,0,0,0,393,262Z"></path>
                <path d="M385.8,242a16,16,0,0,1,3.23,1.47c-3.94,1.35-7.7,2.7-11.15,4a9.4,9.4,0,0,0-5.79,6.46,9.25,9.25,0,0,0-5.59,5,13.75,13.75,0,0,1-.6-1.91,172.19,172.19,0,0,1-3.61-20.92A161.24,161.24,0,0,1,385.8,242Z"></path>
                <path d="M384.49,265c2.66-1,5.52-2,8.48-3a14.74,14.74,0,0,1-9,6.24,4,4,0,0,1-.68.11l.75-3.19A2.17,2.17,0,0,0,384.49,265Z"></path>
                <path d="M386.63,932.63c0,.15.37,1.46,1.05,3.83-5.9,2-11.83,4-17.8,6-.79-2.86-1.28-4.66-1.43-5.26a9.38,9.38,0,1,1,18.18-4.62Z"></path>
                <path d="M377.12,253.72a9.38,9.38,0,0,1,7,11.31l0,.11a9.36,9.36,0,0,1-12-11.23A9.5,9.5,0,0,1,377.12,253.72Z"></path>
                <path d="M384.07,265.14l-.75,3.19a15,15,0,0,1-16.82-9.39,9.25,9.25,0,0,1,5.59-5,9.36,9.36,0,0,0,12,11.23Z"></path>
                <path d="M383.32,268.33l-.67,2.89a15.4,15.4,0,0,1-6.09-.67c-4.24-1.39-8.34-2.52-12.24-3.42l1.54-6.42a6.65,6.65,0,0,1,.64-1.77A15,15,0,0,0,383.32,268.33Z"></path>
                <path d="M382.65,271.22,354.74,389.28a41.63,41.63,0,0,0-16.22,8,5.57,5.57,0,0,0-1.88,3.11l-3.64-.86,31.32-132.44c3.9.9,8,2,12.24,3.42A15.4,15.4,0,0,0,382.65,271.22Z"></path>
                <path d="M366.5,258.94a6.65,6.65,0,0,0-.64,1.77l-1.54,6.42c-19.72-4.62-35.3-3.42-46.42,3.61-16.49,10.44-18.29,31.58-20.47,74.67-1.27,25-2.85,56.26-9.39,92.62-11.41,63.63-30.75,102.54-44.91,131-15.59,31.4-24.19,48.68-15.25,77.87,7.1,23.25,20.24,36.92,34.14,51.38,17.58,18.29,37.52,39,41.61,78.69,2.4,23.62-2.29,39.48-6.83,54.84-3.76,12.66-7.63,25.76-8.53,45.71a192.9,192.9,0,0,0,10,69.6h0a15.85,15.85,0,0,0-.67-1.62,15,15,0,0,0-20.13-6.79l-11.34,5.63h0a219.8,219.8,0,0,1-7.78-68.21c1.06-23.55,5.67-39.14,9.73-52.85,4.24-14.27,7.55-25.54,5.75-43.23-3.05-29.37-16.41-43.31-33.39-61-15-15.59-32-33.28-41.2-63.4-12.43-40.64.6-66.86,17.09-100,14.08-28.32,31.58-63.51,42.25-122.9,6.16-34.51,7.66-63.36,8.94-88.86,2.33-46.05,4-79.33,34.44-98.52,16.18-10.26,36.42-13.34,60.42-9.24A172.19,172.19,0,0,0,365.9,257,13.75,13.75,0,0,0,366.5,258.94Z"></path>
                <path d="M364.43,655.28a9.35,9.35,0,0,1-2.67,9.43,9.36,9.36,0,0,1-13.25-.56c-.49-.53-1-1.09-1.54-1.7-.19-.67-.41-1.38-.6-2.1a9.39,9.39,0,0,1,15.77-9.09c.08.08.15.11.19.19a8.82,8.82,0,0,1,.9,1.16,10.8,10.8,0,0,1,.6,1.06s0,.07,0,.11a7.54,7.54,0,0,1,.49,1.28A.63.63,0,0,1,364.43,655.28Z"></path>
                <path d="M364.36,655.06a7.54,7.54,0,0,0-.49-1.28A5.65,5.65,0,0,1,364.36,655.06Z"></path>
                <path d="M363.83,653.67a10.8,10.8,0,0,0-.6-1.06A10.8,10.8,0,0,1,363.83,653.67Z"></path>
                <path d="M362.14,651.26a9.39,9.39,0,0,0-15.77,9.09c.19.72.41,1.43.6,2.1-11.64-13.1-29.56-39.06-30.76-74.7a112.44,112.44,0,0,1,6.08-40.31,258.2,258.2,0,0,1-4.88-57.35l5.79.07a69.76,69.76,0,0,0,.75,10.11c.94,8.41,4.39,26.1,16.52,42.22.23,1.24.45,2.44.71,3.68l.57,2.63-.94,2.51A94.44,94.44,0,0,0,335,587.15C336,618.13,352.38,640.56,362.14,651.26Z"></path>
                <path d="M354.74,389.28l-3.08,13a26,26,0,0,0-5.86,3.68,5.64,5.64,0,0,1-9.16-5.49,5.57,5.57,0,0,1,1.88-3.11A41.63,41.63,0,0,1,354.74,389.28Z"></path>
                <path d="M351.66,402.24,342.5,441c-1,4.28-1.92,8.6-2.67,12.92a31.83,31.83,0,0,0-7.88,7.51c-6.76,9-8.75,19.53-8.75,28.73l-5.79-.07a258,258,0,0,1,6.8-53.41L333,399.57l3.64.86a5.64,5.64,0,0,0,9.16,5.49A26,26,0,0,1,351.66,402.24Z"></path>
                <path d="M355.23,915.73a52.64,52.64,0,0,0-6.31,4.92c-9.39,8.6-16.22,20.58-20.54,35.79-2.4.83-4.85,1.65-7.29,2.44a14.66,14.66,0,0,1-4.73.75,15,15,0,0,1-14.27-10.29,14.84,14.84,0,0,1-.26-8.49c.26-.75.49-1.46.79-2.21a14.88,14.88,0,0,1,9.05-8.3Q333.47,923.13,355.23,915.73Z"></path>
                <path d="M339.83,453.92q-1.9,10.65-2.81,21.41l0,0c-3.08,8-2.86,16.71-1.88,23.36l0,.19c.19,1.5.52,3.71,1.09,6.46a.12.12,0,0,1,0,.11v.15a238.43,238.43,0,0,0,4.2,36.85c-12.13-16.12-15.58-33.81-16.52-42.22a69.76,69.76,0,0,1-.75-10.11c0-9.2,2-19.71,8.75-28.73A31.83,31.83,0,0,1,339.83,453.92Z"></path>
                <path d="M337,475.37a242.56,242.56,0,0,0-.75,30c-.57-2.75-.9-5-1.09-6.46l0-.19C334.12,492.08,333.9,483.37,337,475.37Z"></path>
                <path d="M321.09,958.88c2.44-.79,4.89-1.61,7.29-2.44-3.79,13.34-5.6,29.19-5.41,47.44l.56,56.12L295,1011.66A288.84,288.84,0,0,1,275.8,973l14.91-7.4a15,15,0,0,0,7.51-18.52h0c.3.86.56,1.69.86,2.55q1.25-4.5,2.71-8.79a14.84,14.84,0,0,0,.26,8.49,15,15,0,0,0,14.27,10.29A14.66,14.66,0,0,0,321.09,958.88Z"></path>
                <path d="M307.69,1120.73a9.39,9.39,0,0,1,5.93,11.87l-14.95,44.85H278.84l16.94-50.78A9.41,9.41,0,0,1,307.69,1120.73Z"></path>
                <path d="M302.62,938.64c-.3.75-.53,1.46-.79,2.21A11.9,11.9,0,0,1,302.62,938.64Z"></path>
                <path d="M298.22,947.09a15,15,0,0,1-7.51,18.52L275.8,973a245,245,0,0,1-9.72-28.7l11.34-5.63a15,15,0,0,1,20.13,6.79A15.85,15.85,0,0,1,298.22,947.09Z"></path>
                <path d="M275.8,973h0l-65.42,32.37-71,172.07H106.84l80-194L266,944.31h0A245,245,0,0,0,275.8,973Z"></path>
                <path d="M143.16,645.29a5.63,5.63,0,0,1-1.09,7.89c-13.93,10.63-21.63,21.93-22.87,33.69-.83,7.89,1.76,13.18,4.73,19.31,3.31,6.79,7.06,14.49,6,26-1.24,13.33-7.77,21.11-13.52,27.94-5.14,6.16-9.24,11-8.79,19,.38,6.23,3.08,9.84,6.54,14.46,3.72,5,8,10.55,9.16,19.83,2,15.1-5.37,31.14-21.78,47.63a5.75,5.75,0,0,1-4,1.65A5.58,5.58,0,0,1,93.55,861a5.64,5.64,0,0,1,0-8c13.82-13.89,20.09-26.74,18.59-38.23-.79-6.27-3.68-10.11-7-14.5-3.87-5.15-8.23-10.93-8.75-20.58-.72-12.47,5.7-20.14,11.37-26.9,5.19-6.12,10-11.94,11-21.74.75-8.34-1.88-13.75-4.92-20-3.27-6.73-7-14.31-5.78-25.4,1.54-14.94,10.7-28.92,27.22-41.46A5.64,5.64,0,0,1,143.16,645.29Z"
                      class="cls-3"></path>
            </g>
            <path d="M796.91,596.84a5,5,0,0,1-2.22-.52c-28.8-14.32-44.57-30.78-46.86-48.92-1.43-11.26,2.54-19.6,7.14-29.25,3.46-7.28,7.39-15.53,9.83-26.89,3.72-17.31,2.68-35.77-3.08-54.87a5,5,0,0,1,9.57-2.89c6.26,20.74,7.36,40.88,3.28,59.86-2.68,12.5-7.06,21.7-10.58,29.08-4.24,8.91-7.3,15.35-6.24,23.7,1.85,14.62,15.77,28.49,41.39,41.22a5,5,0,0,1-2.23,9.48Z"
                  class="cls-9"></path>
            <path d="M860.29,579a5.08,5.08,0,0,1-1.66-.28c-24.36-8.55-38.85-20.42-43-35.28-3.27-11.55.55-21,5-32,2.8-7,6-14.85,8.07-24.82,3.85-18.47,2.66-38.15-3.53-58.49a5,5,0,0,1,9.56-2.92c6.69,22,8,43.32,3.75,63.45-2.26,10.84-5.62,19.17-8.58,26.52-4.05,10.05-7,17.31-4.64,25.56,3.27,11.55,15.63,21.16,36.74,28.57a5,5,0,0,1-1.65,9.72Z"
                  class="cls-9"></path>
            <path d="M588.22,783.4s137.6-25.74,167-77.19c-11.38,24.79-33.68,63.93-75.39,97.22a258.17,258.17,0,0,1-50.07,31.3,83.19,83.19,0,0,1-33.18,40.07c-25.87,16.07-52,12.09-58.34,10.94L533,813.06l58.79-11.21S602,789,588.22,783.4Z"
                  class="cls-10"></path>
            <path d="M572.25,661.54s18.94,9.31,35.78,10.65l-37.28,8.87s5.09-2.08,3.08-7.34a5.94,5.94,0,0,0-5.37-3.5Z"
                  class="cls-7"></path>
            <path d="M539.86,704.75s2.23-8.32,4.65-15.54c0,0,20.94-5.32,26.24-8.15S608,672.19,608,672.19s-15.75,32.95-61.89,27.65C546.14,699.84,541.35,698.87,539.86,704.75Z"
                  class="cls-7"></path>
        </g>
    </g>
</svg>