<svg viewBox="0 0 1200 1200" xmlns="http://www.w3.org/2000/svg">
    <defs>
        <style>
            .cls-1{fill:#c69b75;}.cls-2{fill:#fff985;}.cls-3{fill:#c9724b;}.cls-4{fill:#33770c;}.cls-5{fill:#44331c;}.cls-6{fill:#73dd85;}.cls-7{fill:#b28766;}
        </style>
    </defs>
    <title>9 (6)</title>
    <g id="图层_2">
        <g id="_9">
            <g id="_编组_">
                <path d="M1200,952.29V1200H1086.83v-1.88a9.43,9.43,0,0,0,9.16-7.4l2.9-13.26h78.57V975.88a21.16,21.16,0,0,0,2.71-.75A27.33,27.33,0,0,0,1198,954a8.47,8.47,0,0,0,.15-1.66Z"></path>
                <path d="M1200,826.62V952.29h-1.88a9.39,9.39,0,0,0-18.63-1.61,9,9,0,0,1-2,4.32V888.89l12-48.23s0-.11,0-.15a15,15,0,0,0,9.39-13.89Z"></path>
                <path d="M1200,754.69v71.93h-1.09a11.43,11.43,0,0,0,0-1.17,15,15,0,0,0-16.11-13.86l-5.3.42V770q3.94-.1,7.89-.33a15,15,0,0,0,14.12-15Z"></path>
                <path d="M1200,505.78V754.69h-.53c0-.3,0-.6,0-.9a15,15,0,0,0-15.85-14.12c-2,.11-4.06.22-6.13.26V511.6c3.76-.11,7.52-.18,11.27-.18a5.63,5.63,0,0,0,5.64-5.64Z"></path>
                <path d="M1200,375.52V505.78h-5.63a5.62,5.62,0,0,0-5.64-5.63c-3.75,0-7.51.07-11.27.18V381c3.76.11,7.52.19,11.27.19a5.63,5.63,0,0,0,5.64-5.64Z"></path>
                <path d="M1200,124.14V375.52h-5.63a5.63,5.63,0,0,0-5.64-5.63c-3.75,0-7.51-.08-11.27-.19V139.42c2.14-.11,4.32-.22,6.46-.26a15,15,0,0,0,14.62-15Z"></path>
                <path d="M1200,0V124.14h-1.46v-.42a15,15,0,0,0-15.4-14.61c-1.88,0-3.8.11-5.68.19V22.54H22.54V1108.92c-3.65,1.65-7.44,3.11-11.35,4.43A15,15,0,0,0,1,1127.58H0V0Z"></path>
                <path d="M1199.44,753.79c0,.3,0,.6,0,.9a15,15,0,0,1-14.12,15q-3.94.23-7.89.33V739.93c2.07,0,4.1-.15,6.13-.26A15,15,0,0,1,1199.44,753.79Z"></path>
                <path d="M1198.87,825.45a11.43,11.43,0,0,1,0,1.17,15,15,0,0,1-9.39,13.89,9.37,9.37,0,0,0-6.87-11.23,9,9,0,0,0-5.19.19V812l5.3-.42A15,15,0,0,1,1198.87,825.45Z"></path>
                <path d="M1198.54,123.72v.42a15,15,0,0,1-14.62,15c-2.14,0-4.32.15-6.46.26V130.6c3.72-.15,7.52-.23,11.27-.23a5.64,5.64,0,1,0,0-11.27c-3.75,0-7.51.08-11.27.19v-10c1.88-.08,3.8-.15,5.68-.19A15,15,0,0,1,1198.54,123.72Z"></path>
                <path d="M1198.12,952.29A8.47,8.47,0,0,1,1198,954a27.33,27.33,0,0,1-17.8,21.18,21.16,21.16,0,0,1-2.71.75V955a9,9,0,0,0,2-4.32,9.39,9.39,0,0,1,18.63,1.61Z"></path>
                <path d="M1188.73,119.1a5.64,5.64,0,1,1,0,11.27c-3.75,0-7.55.08-11.27.23V119.29C1181.22,119.18,1185,119.1,1188.73,119.1Z"></path>
                <path d="M1188.73,369.89a5.64,5.64,0,1,1,0,11.27c-3.75,0-7.51-.08-11.27-.19V369.7C1181.22,369.81,1185,369.89,1188.73,369.89Z"></path>
                <path d="M1188.73,500.15a5.64,5.64,0,1,1,0,11.27c-3.75,0-7.51.07-11.27.18V500.33C1181.22,500.22,1185,500.15,1188.73,500.15Z"></path>
                <path d="M1182.65,829.28a9.37,9.37,0,0,1,6.87,11.23,14.69,14.69,0,0,1-4.47,1.06l-7.59.56V829.47A9,9,0,0,1,1182.65,829.28Z"></path>
                <path d="M1189.52,840.51s0,.12,0,.15l-12,48.23V842.13l7.59-.56A14.69,14.69,0,0,0,1189.52,840.51Z"></path>
                <path d="M1177.46,975.88v201.58h-78.57l9.69-44.43a45.49,45.49,0,0,0-12.77-42.52l-19-18.48-9.62-61.44a9.71,9.71,0,0,0-.33-1.47.49.49,0,0,1-.08-.22s0,0,0,0a.21.21,0,0,0,0-.15v-.12l-19.23-77.86,37.56-60.81,24.61-126.69.11-.48c0-.08,0-.15,0-.23l.11-.9,6.57-34.93,9.69.49-3.64,43.27c0,.07,0,.18,0,.26a4.18,4.18,0,0,0-.11.79v.22l-6.46,77.6v.08L1100.46,914c-5.33,18-.67,35.83,11.61,44.47a33.69,33.69,0,0,0,23,5.56,32.29,32.29,0,0,0,13.67-5.11,21.85,21.85,0,0,0,7.44,12.74,23.17,23.17,0,0,0,14.8,5A25.91,25.91,0,0,0,1177.46,975.88Z"
                      class="cls-1"></path>
                <path d="M1177.46,955v20.88a25.91,25.91,0,0,1-6.53.79,23.17,23.17,0,0,1-14.8-5,21.85,21.85,0,0,1-7.44-12.74l1.69-6.87a7.79,7.79,0,0,0,1.54.53,10.29,10.29,0,0,0,2.29.3,9.37,9.37,0,0,0,9.09-7.14L1164,943a23.71,23.71,0,0,1,2.55,8.82c.3,2.26.64,4.59,1.51,5.3,1.08.9,3.79,1,6,.26A7.69,7.69,0,0,0,1177.46,955Z"></path>
                <path d="M1177.46,888.89V955a7.69,7.69,0,0,1-3.41,2.36c-2.22.75-4.93.64-6-.26-.87-.71-1.21-3-1.51-5.3A23.71,23.71,0,0,0,1164,943Z"
                      class="cls-1"></path>
                <path d="M1177.46,842.13v46.76L1164,943a12.61,12.61,0,0,0-6.16-5.52c-4.66-2-8.75-.9-12,.82l23.81-95.55Z"></path>
                <path d="M1177.46,829.47v12.66l-7.85.6,1.66-6.61A9.46,9.46,0,0,1,1177.46,829.47Z"></path>
                <path d="M1177.46,812v17.46a9.46,9.46,0,0,0-6.19,6.65l-1.66,6.61-37.52,2.82,2.37-12.81a9.4,9.4,0,0,0-18.48-3.42l6.46-77.6a15,15,0,0,0,13.26,16.6c5.1.61,10.21,1,15.36,1.32l-3.68,44.62Z"></path>
                <path d="M1177.46,770v42l-30.08,2.25,3.68-44.62c5.78.37,11.53.52,17.31.52h2C1172.69,770.16,1175.1,770.09,1177.46,770Z"
                      class="cls-2"></path>
                <path d="M1177.46,739.93V770c-2.36.08-4.77.15-7.13.15h-2c-5.78,0-11.53-.15-17.31-.52l1.31-15.63a15,15,0,0,0-9.2-15.13c8.94.86,18,1.27,26.93,1.24C1172.54,740.08,1175,740,1177.46,739.93Z"></path>
                <path d="M1177.46,511.6V739.93c-2.44.11-4.92.15-7.36.19-8.94,0-18-.38-26.93-1.24-.26-.12-.53-.19-.79-.3l4.17-49.21-45.45-2.25-6.91,36.7a297,297,0,0,1-81.39-41.88,321.54,321.54,0,0,0,100.73-161.29A308.9,308.9,0,0,1,1177.46,511.6Z"
                      class="cls-3"></path>
                <path d="M1177.46,500.33V511.6a308.9,308.9,0,0,0-63.93,9c.3-1.08.61-2.21.87-3.3.75-3,1.43-6,2.1-9A318.17,318.17,0,0,1,1177.46,500.33Z"></path>
                <path d="M1177.46,381V500.33a318.17,318.17,0,0,0-61,8,321.57,321.57,0,0,0,.57-135.26A322.22,322.22,0,0,0,1177.46,381Z"
                      class="cls-3"></path>
                <path d="M1177.46,369.7V381a322.22,322.22,0,0,1-60.39-7.89c-.61-3-1.28-5.93-2-8.9-.26-1.09-.52-2.22-.82-3.3A311.36,311.36,0,0,0,1177.46,369.7Z"></path>
                <path d="M1177.46,139.42V369.7a311.36,311.36,0,0,1-63.21-8.82,320.53,320.53,0,0,0-101.45-164,304.55,304.55,0,0,1,164.66-57.47Z"
                      class="cls-3"></path>
                <path d="M1177.46,130.6v8.82a304.55,304.55,0,0,0-164.66,57.47c-.76-.68-1.51-1.32-2.26-1.95a15.09,15.09,0,0,0,.19-8.19A305,305,0,0,1,1177.46,130.6Z"></path>
                <path d="M1177.46,119.29V130.6a305,305,0,0,0-166.73,56.15,15.46,15.46,0,0,0-2.67-5.41,14.43,14.43,0,0,0-4-3.61A316.36,316.36,0,0,1,1177.46,119.29Z"></path>
                <path d="M1177.46,109.3v10A316.36,316.36,0,0,0,1004,177.73a15,15,0,0,0-17,.94,334.92,334.92,0,0,1,190.47-69.37Z"></path>
                <path d="M1177.46,22.54V109.3A334.92,334.92,0,0,0,987,178.67a330.77,330.77,0,0,0-54.88,53.75c-2.29,2.82-4.54,5.71-6.76,8.64a3.18,3.18,0,0,0-.41.6,3.91,3.91,0,0,0-.3.45A330,330,0,0,0,1077.74,750l-21.11,108.85-41.32,66.89,12.59,51-22.84-16.12L943.12,940,832.05,903l-104.68-34.9.38-191.36,8.48-2.37A34.69,34.69,0,0,0,761.59,641v-54.8a50.87,50.87,0,0,0-18.18-39l-4.28-3.57,5.33-37.41,34.93,37.9,6.24-28c11.57-51.8,30.16-184-46.65-293.38-34-48.34-102.92-127.56-183.6-114.94a119.26,119.26,0,0,0-45.6,17.58,171.84,171.84,0,0,0-29.56-14.72C375.31,70.76,244,137.47,177.63,225,125,294.47,91.16,406.29,128.2,485.72c3.75,8.08,7.28,13.6,11.71,20.66,4.93,7.78,11.05,17.47,20.55,35.42A730.75,730.75,0,0,1,212,665.11l9.54,30.39,17.4-26.71a155.23,155.23,0,0,0,8.22-14.23l11.61,34.1c-1.69,21.11,2,39.4,11,54.35,7.1,11.72,15.4,18.22,24.15,25a166.34,166.34,0,0,1,21.56,19.23,156.16,156.16,0,0,1,21.68,29.56l14.42,26a149.48,149.48,0,0,0,89.47,71.07L300.79,947.64l-77.11,18.51a169.29,169.29,0,0,0-72.91,19.2c-28.51,15.06-45.79,35-55.06,45.71a189.66,189.66,0,0,0-22.77,32.45c-4.77,8.26-8.56,14.8-17,23.06a111.72,111.72,0,0,1-33.39,22.35V22.54ZM878.93,167.59a5.65,5.65,0,0,0,.79-7.92l-19.08-23.29a5.59,5.59,0,0,0-7.93-.79,5.66,5.66,0,0,0-.79,7.93L871,166.8a5.66,5.66,0,0,0,4.36,2.07A5.83,5.83,0,0,0,878.93,167.59Zm-32.68,50.56V121.84A8.67,8.67,0,0,0,830.44,117l-30.8,45a5.65,5.65,0,0,0,9.31,6.39l26-38v87.85a5.64,5.64,0,0,0,11.27,0ZM211.43,866.84a5.61,5.61,0,0,0,.79-7.92l-19.08-23.29a5.64,5.64,0,0,0-8.72,7.14l19.09,23.29a5.67,5.67,0,0,0,4.35,2.06A5.51,5.51,0,0,0,211.43,866.84Zm-32.68,50.6V821.13a8.66,8.66,0,0,0-15.81-4.88l-30.76,45a5.62,5.62,0,1,0,9.27,6.35l26-38v87.89a5.64,5.64,0,0,0,11.27,0Z"
                      class="cls-2"></path>
                <path d="M1169.61,842.73l-23.81,95.55a33.18,33.18,0,0,0-4.47,2.86c-2.67,2-5.18,3.79-8.64,4.24a14.56,14.56,0,0,1-9.8-2.33c-5.6-3.9-7.4-14-4.32-24.15l13.52-73.35Z"
                      class="cls-1"></path>
                <path d="M1164,943l-.68,2.74a9.37,9.37,0,0,1-9.09,7.14,10.29,10.29,0,0,1-2.29-.3,7.79,7.79,0,0,1-1.54-.53,9.42,9.42,0,0,1-5.29-10.86l.71-2.89c3.27-1.72,7.36-2.85,12-.82A12.61,12.61,0,0,1,1164,943Z"></path>
                <path d="M1143.17,738.88a15,15,0,0,1,9.2,15.13l-1.31,15.63c-5.15-.3-10.26-.71-15.36-1.32a15,15,0,0,1-13.26-16.6,1.76,1.76,0,0,1,.07-.45,9.4,9.4,0,0,0,8.6,9.32c.27,0,.53,0,.79,0a9.38,9.38,0,0,0,9.35-8.6l1.13-13.22A5.29,5.29,0,0,0,1143.17,738.88Z"></path>
                <path d="M1150.38,952l-1.69,6.87A32.29,32.29,0,0,1,1135,964a33.69,33.69,0,0,1-23-5.56c-12.28-8.64-16.94-26.48-11.61-44.47L1116,829.4l-1.47,17.46,17.58-1.31-13.52,73.35c-3.08,10.11-1.28,20.25,4.32,24.15a14.56,14.56,0,0,0,9.8,2.33c3.46-.45,6-2.29,8.64-4.24a33.18,33.18,0,0,1,4.47-2.86l-.71,2.89A9.42,9.42,0,0,0,1150.38,952Z"></path>
                <path d="M1146.55,689.37l-4.17,49.21a14.39,14.39,0,0,0-3.72-.79,15,15,0,0,0-16.11,12.92c0-.08,0-.19,0-.26l3.64-43.27-9.69-.49-6.57,34.93a14.75,14.75,0,0,0,.11-1.73,15.24,15.24,0,0,0-.19-2.36,1,1,0,0,0-.07-.34,6.58,6.58,0,0,0-.26-1.13,6.22,6.22,0,0,0-.34-1.16,5.79,5.79,0,0,0-.53-1.24,4.49,4.49,0,0,0-.49-1,5.94,5.94,0,0,0-.75-1.24,5.8,5.8,0,0,0-.71-.94,11.71,11.71,0,0,0-1-1.2,11.85,11.85,0,0,0-1.77-1.54,15,15,0,0,0-4.69-2.29c-1.69-.53-3.35-1.09-5-1.65l6.91-36.7Z"></path>
                <path d="M1143.17,738.88a5.29,5.29,0,0,1-.79-.08v-.22C1142.64,738.69,1142.91,738.76,1143.17,738.88Z"></path>
                <path d="M1142.38,738.58v.22c-1.13-.07-2.21-.22-3.34-.34a15,15,0,0,0-16.53,12.77,2.46,2.46,0,0,1,0-.52,15,15,0,0,1,16.11-12.92A14.39,14.39,0,0,1,1142.38,738.58Z"></path>
                <path d="M1142.38,738.8,1141.25,752a9.38,9.38,0,0,1-9.35,8.6c-.26,0-.52,0-.79,0a9.4,9.4,0,0,1-8.6-9.32v0A15,15,0,0,1,1139,738.46C1140.17,738.58,1141.25,738.73,1142.38,738.8Z"></path>
                <path d="M1126.91,821.81a9.39,9.39,0,0,1,7.55,10.93l-2.37,12.81-17.58,1.31L1116,829.4v-.08A9.35,9.35,0,0,1,1126.91,821.81Z"></path>
                <path d="M1122.44,751.5a4.18,4.18,0,0,1,.11-.79,2.46,2.46,0,0,0,0,.52v0a1.76,1.76,0,0,0-.07.45Z"></path>
                <path d="M1124,439.41a321.21,321.21,0,0,1-7.48,68.93c-3,.67-6,1.42-9,2.21-1.08.3-2.21.56-3.3.9a309.65,309.65,0,0,0,8.49-72,305.24,305.24,0,0,0-7.89-69.37l3.34.9c3,.75,5.94,1.47,8.91,2.14A320.06,320.06,0,0,1,1124,439.41Z"></path>
                <path d="M1115.07,364.18c.72,3,1.39,5.93,2,8.9-3-.67-5.94-1.39-8.91-2.14l-3.34-.9c-.19-1.09-.45-2.14-.71-3.23-.75-3.12-1.54-6.24-2.41-9.35,3.08.94,6.2,1.76,9.32,2.59,1.09.26,2.14.56,3.23.83C1114.55,362,1114.81,363.09,1115.07,364.18Z"></path>
                <path d="M1116.5,508.34c-.67,3-1.35,6-2.1,9-.26,1.09-.57,2.22-.87,3.3-1,.23-2.1.53-3.15.79-3.16.83-6.31,1.73-9.43,2.67.87-3.12,1.73-6.27,2.52-9.46.26-1.06.52-2.11.75-3.2,1.09-.34,2.22-.6,3.3-.9C1110.49,509.76,1113.5,509,1116.5,508.34Z"></path>
                <path d="M1114.25,360.88c-1.09-.27-2.14-.57-3.23-.83-3.12-.83-6.24-1.65-9.32-2.59a310.1,310.1,0,0,0-98.07-153.62c.56-.49,1.17-1,1.77-1.43,2.44-1.88,4.88-3.72,7.4-5.52A320.53,320.53,0,0,1,1114.25,360.88Z"></path>
                <path d="M1110.38,521.44c1-.26,2.1-.56,3.15-.79A321.54,321.54,0,0,1,1012.8,681.94c-2.48-1.77-5-3.65-7.4-5.52-.6-.46-1.21-.94-1.77-1.43A311.17,311.17,0,0,0,1101,524.11C1104.07,523.17,1107.22,522.27,1110.38,521.44Z"></path>
                <path d="M1110,739.89a14.75,14.75,0,0,1-.11,1.73.68.68,0,0,1,0,.26l-.34,1.69v.12a2.09,2.09,0,0,1-.18.67,10.81,10.81,0,0,1-.76,1.92,1.2,1.2,0,0,1-.22.49,9.39,9.39,0,0,1-17.28-6.58l2.89-15.25a13.66,13.66,0,0,1,3.87.19,8.24,8.24,0,0,1,1.32.34,15,15,0,0,1,4.69,2.29,17.94,17.94,0,0,1,1.77,1.54,11.71,11.71,0,0,1,1,1.2,8.27,8.27,0,0,1,.71.94,5.94,5.94,0,0,1,.75,1.24c.19.34.34.64.49,1a5.79,5.79,0,0,1,.53,1.24,6.22,6.22,0,0,1,.34,1.16c.11.38.18.75.26,1.13a1,1,0,0,1,.07.34A15.54,15.54,0,0,1,1110,739.89Z"></path>
                <path d="M1109.85,737.53a15.24,15.24,0,0,1,.19,2.36A15.54,15.54,0,0,0,1109.85,737.53Z"></path>
                <path d="M1109.89,741.88a.68.68,0,0,0,0-.26l-.11.9A5.2,5.2,0,0,0,1109.89,741.88Z"></path>
                <path d="M1109.89,741.88a5.2,5.2,0,0,1-.07.64c0,.08,0,.15,0,.23l-.11.48-.12.34Z"></path>
                <path d="M1109.78,737.19c-.08-.38-.15-.75-.26-1.13A6.58,6.58,0,0,1,1109.78,737.19Z"></path>
                <path d="M1109.67,743.23l-24.61,126.69-37.56,60.81,19.23,77.86v.12a14.78,14.78,0,0,0-5.93-8.79l-32.9-23.21-12.59-51,41.32-66.89L1077.74,750c4.24,1.5,8.49,2.93,12.81,4.28a15.55,15.55,0,0,0,4.47.68,15.05,15.05,0,0,0,13.37-8.15,1.2,1.2,0,0,0,.22-.49,6.12,6.12,0,0,0,.76-1.92,2.09,2.09,0,0,0,.18-.67v-.12Z"></path>
                <path d="M1109.52,736.06a6.22,6.22,0,0,0-.34-1.16A6.22,6.22,0,0,1,1109.52,736.06Z"></path>
                <path d="M1109.37,744.36a6.12,6.12,0,0,1-.76,1.92A10.81,10.81,0,0,0,1109.37,744.36Z"></path>
                <path d="M1095.81,1090.51a45.49,45.49,0,0,1,12.77,42.52l-9.69,44.43h-19.24l10.6-48.41a26.75,26.75,0,0,0-7.55-25l-23.48-22.88-8.45-53.93a.06.06,0,0,1,.08,0c.45,0,.86,0,1.27,0a14.87,14.87,0,0,0,3.61-.45c.41-.11.86-.22,1.28-.37a7.52,7.52,0,0,0,1-.38,2.37,2.37,0,0,0,.41-.19,4.75,4.75,0,0,0,.94-.45,16.17,16.17,0,0,0,3.91-3,13.46,13.46,0,0,0,1.13-1.39,9.93,9.93,0,0,0,.67-1.09,6.44,6.44,0,0,0,.57-1,10.86,10.86,0,0,0,.48-1.09,4.54,4.54,0,0,0,.38-1.09,14.68,14.68,0,0,0,.38-7.55,9.71,9.71,0,0,1,.33,1.47l9.62,61.44Z"></path>
                <path d="M1108.65,733.66c-.15-.34-.3-.64-.49-1A4.49,4.49,0,0,1,1108.65,733.66Z"></path>
                <path d="M1107.41,731.44a8.27,8.27,0,0,0-.71-.94A5.8,5.8,0,0,1,1107.41,731.44Z"></path>
                <path d="M1104.82,370a305.24,305.24,0,0,1,7.89,69.37,309.65,309.65,0,0,1-8.49,72,320,320,0,0,0-159.6,101.71,299.71,299.71,0,0,1-1-346.15,320.13,320.13,0,0,0,49.09,47.14A317.4,317.4,0,0,0,1104.82,370Z"
                      class="cls-3"></path>
                <path d="M1105.65,729.3a17.94,17.94,0,0,0-1.77-1.54A11.85,11.85,0,0,1,1105.65,729.3Z"></path>
                <path d="M1104.11,366.81c.26,1.09.52,2.14.71,3.23a317.4,317.4,0,0,1-112.08-55.89A320.13,320.13,0,0,1,943.65,267c1.84-2.63,3.75-5.26,5.71-7.85.37-.49.75-1,1.16-1.46a312.63,312.63,0,0,0,49.13,47.55,306.45,306.45,0,0,0,102.05,52.21C1102.57,360.57,1103.36,363.69,1104.11,366.81Z"></path>
                <path d="M1108.39,746.77a15.05,15.05,0,0,1-13.37,8.15,15.55,15.55,0,0,1-4.47-.68c-4.32-1.35-8.57-2.78-12.81-4.28l2.52-12.92a15,15,0,0,1,13.74-12.1l-2.89,15.25a9.39,9.39,0,0,0,17.28,6.58Z"></path>
                <path d="M1104.22,511.45c-.23,1.09-.49,2.14-.75,3.2-.79,3.19-1.65,6.34-2.52,9.46A305.36,305.36,0,0,0,999.65,576a309.49,309.49,0,0,0-48.12,46.42c-.45-.52-.86-1.05-1.27-1.61q-2.88-3.78-5.64-7.67a320,320,0,0,1,159.6-101.71Z"></path>
                <path d="M1094.19,723.82c1.65.56,3.31,1.12,5,1.65a8.24,8.24,0,0,0-1.32-.34,13.66,13.66,0,0,0-3.87-.19Z"></path>
                <path d="M1098.89,1177.46l-2.9,13.26a9.39,9.39,0,0,1-18.36-4l2-9.28Z"></path>
                <path d="M1094.19,723.82l-.19,1.12a15,15,0,0,0-13.74,12.1L1077.74,750A327.72,327.72,0,0,1,987,700.15a15,15,0,0,0,21.07-2.66,15,15,0,0,0,2.48-13.64c.75-.6,1.5-1.24,2.26-1.91A297,297,0,0,0,1094.19,723.82Z"></path>
                <path d="M1082.7,1104a26.75,26.75,0,0,1,7.55,25l-10.6,48.41H948.53c14.16-98.82,8.11-169.17,3.08-203l39.74,13.22,51.57,36.36a15.26,15.26,0,0,0,3.15,1.88,7,7,0,0,0,1.17.45,6.22,6.22,0,0,0,1.16.34,5.11,5.11,0,0,0,1.06.22,1.83,1.83,0,0,0,.41.08c.3.07.6.11.9.15l8.45,53.93Z"
                      class="cls-1"></path>
                <path d="M1086.83,1198.12V1200H937.37v-1.88a9.42,9.42,0,0,0,9.28-7.92c.68-4.28,1.32-8.53,1.88-12.74h131.12l-2,9.28a9.4,9.4,0,0,0,9.2,11.38Z"></path>
                <path d="M1003.63,203.84a310.1,310.1,0,0,1,98.07,153.62,306.45,306.45,0,0,1-102.05-52.21,312.63,312.63,0,0,1-49.13-47.55A296.58,296.58,0,0,1,1003.63,203.84Z"
                      class="cls-3"></path>
                <path d="M1101,524.11A311.17,311.17,0,0,1,1003.63,675a297.56,297.56,0,0,1-52.1-52.55A309.49,309.49,0,0,1,999.65,576,305.36,305.36,0,0,1,1101,524.11Z"
                      class="cls-3"></path>
                <path d="M1066.85,1009.12a14.68,14.68,0,0,1-.38,7.55,15.19,15.19,0,0,0,.3-7.77A.49.49,0,0,0,1066.85,1009.12Z"></path>
                <path d="M1066.77,1008.9a15.19,15.19,0,0,1-.3,7.77c-.11.38-.26.75-.38,1.09s-.3.71-.48,1.09a6.44,6.44,0,0,1-.57,1,9.93,9.93,0,0,1-.67,1.09c-.38.49-.75.94-1.13,1.39a16.17,16.17,0,0,1-3.91,3,9,9,0,0,1-.94.45,2.37,2.37,0,0,1-.41.19c-.34.15-.67.27-1,.38s-.87.26-1.28.37a14.87,14.87,0,0,1-3.61.45c-.41,0-.82,0-1.27,0,0,0,0,0-.08,0l-2.14-13.67a9.4,9.4,0,0,1,18.1-4.7.14.14,0,0,0,0,.08S1066.73,1008.9,1066.77,1008.9Z"></path>
                <path d="M1066.73,1008.71a.21.21,0,0,1,0,.15.14.14,0,0,1,0-.08Z"></path>
                <path d="M1066.73,1008.71v.07a9.4,9.4,0,0,0-18.1,4.7l2.14,13.67a4,4,0,0,1-.9-.11,1.83,1.83,0,0,1-.41-.08,5.71,5.71,0,0,1-1.06-.22c-.41-.08-.79-.23-1.16-.34l-1.17-.45a15.26,15.26,0,0,1-3.15-1.88,14.75,14.75,0,0,1-5.37-8.26l-9.65-39.1,32.9,23.21A14.78,14.78,0,0,1,1066.73,1008.71Z"></path>
                <path d="M1066.09,1017.76c.12-.34.27-.71.38-1.09A4.54,4.54,0,0,1,1066.09,1017.76Z"></path>
                <path d="M1065.61,1018.85c.18-.38.33-.71.48-1.09A10.86,10.86,0,0,1,1065.61,1018.85Z"></path>
                <path d="M1065,1019.86a6.44,6.44,0,0,0,.57-1A6.44,6.44,0,0,1,1065,1019.86Z"></path>
                <path d="M1063.24,1022.34c.38-.45.75-.9,1.13-1.39A13.46,13.46,0,0,1,1063.24,1022.34Z"></path>
                <path d="M1058.39,1025.83a9,9,0,0,0,.94-.45A4.75,4.75,0,0,1,1058.39,1025.83Z"></path>
                <path d="M1057,1026.4c.3-.11.63-.23,1-.38A7.52,7.52,0,0,1,1057,1026.4Z"></path>
                <path d="M1050.77,1027.15s0,0,.08,0a.06.06,0,0,0-.08,0Z"></path>
                <path d="M1050.77,1027.15v0c-.3,0-.6-.08-.9-.15A4,4,0,0,0,1050.77,1027.15Z"></path>
                <path d="M1048.4,1026.74a5.71,5.71,0,0,0,1.06.22A5.11,5.11,0,0,1,1048.4,1026.74Z"></path>
                <path d="M1047.24,1026.4c.37.11.75.26,1.16.34A6.22,6.22,0,0,1,1047.24,1026.4Z"></path>
                <path d="M1046.07,1026l1.17.45A7,7,0,0,1,1046.07,1026Z"></path>
                <path d="M1042.92,1024.07l-51.57-36.36-39.74-13.22c-2.07-13.86-4-21.56-4.21-22.57a9.33,9.33,0,0,0-6-6.61l1.77-5.34,61.94,20.62,22.84,16.12,9.65,39.1A14.75,14.75,0,0,0,1042.92,1024.07Z"></path>
                <path d="M1010.54,194.94c.75.63,1.5,1.27,2.26,1.95-2.52,1.8-5,3.64-7.4,5.52A15.18,15.18,0,0,0,1010.54,194.94Z"></path>
                <path d="M1012.8,681.94c-.76.67-1.51,1.31-2.26,1.91a15.16,15.16,0,0,0-5.14-7.43C1007.84,678.29,1010.32,680.17,1012.8,681.94Z"></path>
                <path d="M1010.73,186.75a15.09,15.09,0,0,1-.19,8.19c-1.69-1.43-3.42-2.9-5.18-4.29C1007.12,189.34,1008.93,188,1010.73,186.75Z"></path>
                <path d="M1010.54,683.85a15,15,0,0,1-14.35,19.46,14.85,14.85,0,0,1-9.2-3.16A329.7,329.7,0,0,1,926.37,639a15,15,0,0,1-.79-17q3.66,5.29,7.59,10.48l.67.9a323.1,323.1,0,0,0,58.9,59.38,5.62,5.62,0,0,0,3.45,1.17,5.56,5.56,0,0,0,4.44-2.18,5.89,5.89,0,0,0,.78-1.43,5.28,5.28,0,0,0,2.75-1.16C1006.3,687.42,1008.44,685.66,1010.54,683.85Z"></path>
                <path d="M1010.73,186.75c-1.8,1.27-3.61,2.59-5.37,3.9-.6-.52-1.24-1-1.84-1.5a5.55,5.55,0,0,0-7,0l-2.85-3.75c3.42-2.63,6.87-5.19,10.36-7.63a14.43,14.43,0,0,1,4,3.61A15.46,15.46,0,0,1,1010.73,186.75Z"></path>
                <path d="M1010.54,683.85c-2.1,1.81-4.24,3.57-6.38,5.3a5.28,5.28,0,0,1-2.75,1.16,5.64,5.64,0,0,0-1.76-6.5c-1.09-.86-2.22-1.72-3.31-2.62a5.6,5.6,0,0,1,.79-.83c2.18-1.77,4.36-3.53,6.5-5.37.56.49,1.17,1,1.77,1.43A15.16,15.16,0,0,1,1010.54,683.85Z"></path>
                <path d="M1005.36,190.65c1.76,1.39,3.49,2.86,5.18,4.29a15.18,15.18,0,0,1-5.14,7.47c-.6.45-1.21.94-1.77,1.43-2.33-2-4.73-4-7.14-5.9a2.12,2.12,0,0,1-.26-.26c1.13-.94,2.26-1.81,3.42-2.71C1001.53,193.51,1003.44,192.08,1005.36,190.65Z"></path>
                <path d="M1003.52,189.15c.6.49,1.24,1,1.84,1.5-1.92,1.43-3.83,2.86-5.71,4.32-1.16.9-2.29,1.77-3.42,2.71a5.56,5.56,0,0,1-.64-7.66,5.78,5.78,0,0,1,.94-.91A5.55,5.55,0,0,1,1003.52,189.15Z"></path>
                <path d="M1003.63,675c-2.14,1.84-4.32,3.6-6.5,5.37a5.6,5.6,0,0,0-.79.83,303.19,303.19,0,0,1-50.89-51.31l.11-.11c2-2.48,3.91-4.92,6-7.33A297.56,297.56,0,0,0,1003.63,675Z"></path>
                <path d="M999.65,683.81a5.64,5.64,0,0,1,1.76,6.5,2.37,2.37,0,0,1-.75.08,5.61,5.61,0,0,1-4.32-9.2C997.43,682.09,998.56,683,999.65,683.81Z"></path>
                <path d="M996.49,197.94c2.41,1.92,4.81,3.91,7.14,5.9a296.58,296.58,0,0,0-53.11,53.86c-2-2.48-4.06-5-6-7.55a308.45,308.45,0,0,1,51.76-52.47A2.12,2.12,0,0,0,996.49,197.94Z"></path>
                <path d="M1000.66,690.39a2.37,2.37,0,0,0,.75-.08,5.89,5.89,0,0,1-.78,1.43,5.56,5.56,0,0,1-4.44,2.18,5.62,5.62,0,0,1-3.45-1.17,323.1,323.1,0,0,1-58.9-59.38l-.67-.9,3.53-2.63a4,4,0,0,0,.94.9,5.76,5.76,0,0,0,3.49,1.2,5.62,5.62,0,0,0,4.32-2.06,303.19,303.19,0,0,0,50.89,51.31,5.61,5.61,0,0,0,4.32,9.2Z"></path>
                <path d="M1004,177.73c-3.49,2.44-6.94,5-10.36,7.63l-.94.71a322.29,322.29,0,0,0-59.87,60.66c-.19.23-.38.49-.53.71-2.63,3.5-5.22,7.07-7.66,10.67a14.92,14.92,0,0,1,0-16,3.91,3.91,0,0,1,.3-.45l.45-.6c2.18-2.93,4.43-5.82,6.72-8.64A330.77,330.77,0,0,1,987,178.67,15,15,0,0,1,1004,177.73Z"></path>
                <path d="M993.68,185.36l2.85,3.75a5.78,5.78,0,0,0-.94.91,5.56,5.56,0,0,0,.64,7.66,308.45,308.45,0,0,0-51.76,52.47,2.67,2.67,0,0,0-.3-.41,5.65,5.65,0,0,0-7.89-1,6,6,0,0,0-.94.94l-3-2.22c.15-.22.34-.48.53-.71a322.29,322.29,0,0,1,59.87-60.66Z"></path>
                <path d="M951.61,974.49c5,33.8,11.08,104.15-3.08,203h-19c15.78-108.06,6.57-182.65,1.88-209.69Z"></path>
                <path d="M951.61,974.49l-20.17-6.72c-1.28-7.25-2.22-11.08-2.26-11.27a9.4,9.4,0,0,1,12.17-11.19,9.33,9.33,0,0,1,6,6.61C947.66,952.93,949.54,960.63,951.61,974.49Z"></path>
                <path d="M951.53,622.44c-2.06,2.41-4,4.85-6,7.33l-.11.11c-.94-1.13-1.8-2.22-2.67-3.34-1.46-2-2.93-3.91-4.36-5.86,1.36-1.73,2.71-3.42,4.14-5.11a14.73,14.73,0,0,1,7.7,5.26C950.67,621.39,951.08,621.92,951.53,622.44Z"></path>
                <path d="M950.52,257.7c-.41.49-.79,1-1.16,1.46a14.81,14.81,0,0,1-7.82,5.37c-1.39-1.69-2.74-3.38-4-5.1,1.46-2,2.93-4,4.39-5.94.83-1.13,1.69-2.21,2.59-3.34C946.46,252.7,948.49,255.22,950.52,257.7Z"></path>
                <path d="M929.56,1177.46h19c-.56,4.21-1.2,8.46-1.88,12.74a9.42,9.42,0,0,1-9.28,7.92,10.25,10.25,0,0,1-1.46-.11,9.39,9.39,0,0,1-7.81-10.74Q928.88,1182.31,929.56,1177.46Z"></path>
                <path d="M944.62,613.16q2.76,3.9,5.64,7.67a14.73,14.73,0,0,0-7.7-5.26C943.23,614.74,943.91,614,944.62,613.16Z"></path>
                <path d="M949.36,259.16c-2,2.59-3.87,5.22-5.71,7.85-.72-.82-1.39-1.65-2.11-2.48A14.81,14.81,0,0,0,949.36,259.16Z"></path>
                <path d="M942.78,626.54c.87,1.12,1.73,2.21,2.67,3.34a5.62,5.62,0,0,1-4.32,2.06,5.76,5.76,0,0,1-3.49-1.2,4,4,0,0,1-.94-.9,5.68,5.68,0,0,1,0-7c.56-.72,1.12-1.43,1.72-2.14C939.85,622.63,941.32,624.58,942.78,626.54Z"></path>
                <path d="M944.17,249.74a2.67,2.67,0,0,1,.3.41c-.9,1.13-1.76,2.21-2.59,3.34-1.46,1.95-2.93,3.95-4.39,5.94-.79-.94-1.51-1.84-2.22-2.78a5.61,5.61,0,0,1,.07-7,6,6,0,0,1,.94-.94A5.65,5.65,0,0,1,944.17,249.74Z"></path>
                <path d="M943.12,940l-1.77,5.34a9.4,9.4,0,0,0-12.17,11.19c0,.19,1,4,2.26,11.27l-95.78-31.93c.67-5.86,1.24-11.79,1.58-17.88a9.37,9.37,0,0,0-7-9.61l1.8-5.37Z"></path>
                <path d="M944.62,613.16c-.71.79-1.39,1.58-2.06,2.41a14.78,14.78,0,0,0-7.89-.19,309.21,309.21,0,0,1-.87-350.66,16.51,16.51,0,0,0,3.57.42,14.13,14.13,0,0,0,4.17-.61c.72.83,1.39,1.66,2.11,2.48a299.71,299.71,0,0,0,1,346.15Z"></path>
                <path d="M942.56,615.57c-1.43,1.69-2.78,3.38-4.14,5.11-1.27-1.73-2.51-3.5-3.75-5.3A14.78,14.78,0,0,1,942.56,615.57Z"></path>
                <path d="M937.49,259.43c1.31,1.72,2.66,3.41,4,5.1a14.13,14.13,0,0,1-4.17.61,16.51,16.51,0,0,1-3.57-.42C935,263,936.25,261.19,937.49,259.43Z"></path>
                <path d="M938.42,620.68c-.6.71-1.16,1.42-1.72,2.14a5.68,5.68,0,0,0,0,7l-3.53,2.63q-3.95-5.19-7.59-10.48a15.26,15.26,0,0,1,3.6-4,15.44,15.44,0,0,1,5.49-2.63C935.91,617.18,937.15,619,938.42,620.68Z"></path>
                <path d="M935.27,256.65c.71.94,1.43,1.84,2.22,2.78-1.24,1.76-2.48,3.53-3.69,5.29a15.09,15.09,0,0,1-5.48-2.63,14.6,14.6,0,0,1-3.64-4c2.44-3.6,5-7.17,7.66-10.67l3,2.22A5.61,5.61,0,0,0,935.27,256.65Z"></path>
                <path d="M937.37,1198.12V1200H298.84v-1.88a9,9,0,0,0,3.08-.52,9.42,9.42,0,0,0,5.82-11.95c-.94-2.7-1.81-5.44-2.63-8.19H929.56q-.67,4.85-1.46,9.81a9.39,9.39,0,0,0,7.81,10.74A10.25,10.25,0,0,0,937.37,1198.12Z"></path>
                <path d="M932.11,232.42c-2.29,2.82-4.54,5.71-6.72,8.64l-.45.6a3.18,3.18,0,0,1,.41-.6C927.57,238.13,929.82,235.24,932.11,232.42Z"></path>
                <path d="M931.44,967.77c4.69,27,13.9,101.63-1.88,209.69H305.11c-24.34-80.22-4.1-169.24,4.81-201.13L461.63,939.9c-5.86,32.49-10,90.59,19.53,141.19,18.1,30.94,72.41,50,131.16,50a261.19,261.19,0,0,0,60.62-7c92.59-22.2,151.11-90.33,162.72-188.25Z"
                      class="cls-4"></path>
                <path d="M934.67,615.38a15.44,15.44,0,0,0-5.49,2.63,15.26,15.26,0,0,0-3.6,4,320.35,320.35,0,0,1-.9-363.88,14.6,14.6,0,0,0,3.64,4,15.09,15.09,0,0,0,5.48,2.63,309.21,309.21,0,0,0,.87,350.66Z"></path>
                <path d="M925.58,622a15,15,0,0,0,.79,17,329.64,329.64,0,0,1-1.73-396.93,14.92,14.92,0,0,0,0,16,320.35,320.35,0,0,0,.9,363.88Z"></path>
                <path d="M879.72,159.67a5.65,5.65,0,0,1-.79,7.92,5.83,5.83,0,0,1-3.57,1.28A5.66,5.66,0,0,1,871,166.8l-19.08-23.28a5.66,5.66,0,0,1,.79-7.93,5.59,5.59,0,0,1,7.93.79Z"
                      class="cls-3"></path>
                <path d="M846.25,121.84v96.31a5.64,5.64,0,0,1-11.27,0V130.3l-26,38a5.65,5.65,0,0,1-9.31-6.39l30.8-45a8.67,8.67,0,0,1,15.81,4.88Z"
                      class="cls-3"></path>
                <path d="M830.25,908.35a9.37,9.37,0,0,1,7,9.61c-.34,6.09-.91,12-1.58,17.88l-18.22-6.05c.45-4.2.79-8.52,1-12.92a9.38,9.38,0,0,1,10-8.82A8.57,8.57,0,0,1,830.25,908.35Z"></path>
                <path d="M817.44,929.79l18.22,6.05c-11.61,97.92-70.13,166.05-162.72,188.25a261.19,261.19,0,0,1-60.62,7c-58.75,0-113.06-19-131.16-50-29.56-50.6-25.39-108.7-19.53-141.19l20.2-4.85c-5.78,27.2-13.41,87,15.55,136.57,18.22,31.14,95.3,52.4,171.21,34.22C719.44,1093.63,804.75,1054.61,817.44,929.79Z"></path>
                <path d="M832.05,903l-1.8,5.37a8.57,8.57,0,0,0-1.8-.3,9.38,9.38,0,0,0-10,8.82c-.26,4.4-.6,8.72-1,12.92l-108.06-36s0-.07,0-.11a14.61,14.61,0,0,0,2.89.3h0a15.07,15.07,0,0,0,15-15l0-10.86Z"></path>
                <path d="M709.38,893.77l108.06,36c-12.69,124.82-98,163.84-148.85,176-75.91,18.18-153-3.08-171.21-34.22-29-49.54-21.33-109.37-15.55-136.57l55.41-13.33-35.69,50.52a5.7,5.7,0,0,0,1.35,7.85,6,6,0,0,0,3.27,1,5.58,5.58,0,0,0,4.58-2.37l45.57-64.49,3.08-4.35,85.37-51.5a5.63,5.63,0,1,0-5.82-9.65l-82.67,49.88a7.11,7.11,0,0,0-.38-.79,14,14,0,0,0-1.61-2.37,8.94,8.94,0,0,0-1-1.05,6.33,6.33,0,0,0-1-1,12.23,12.23,0,0,0-1.13-.87,11.22,11.22,0,0,0-1.16-.71.2.2,0,0,0-.15-.08,10,10,0,0,0-1.24-.6,9,9,0,0,0-1.32-.49,14.71,14.71,0,0,0-4.62-.75l-61.15-.3A119.33,119.33,0,0,1,377.9,828.27l-14.5-26.14a187.92,187.92,0,0,0-25.91-35.35,196.88,196.88,0,0,0-25-22.38c-7.66-6-12.7-9.92-16.94-16.9-6-10-8.26-23.18-6.57-39.07l.34-3.26-28.06-82.6a1.92,1.92,0,0,0-.15-.37,3.37,3.37,0,0,0-.34-.83c-.15-.34-.3-.68-.45-1s-.26-.48-.42-.71-.37-.6-.56-.86a2.09,2.09,0,0,0-.41-.57,7.27,7.27,0,0,0-.68-.79,11.42,11.42,0,0,0-1.65-1.61,12.38,12.38,0,0,0-2.89-1.88c-.34-.19-.72-.34-1.05-.49a6.1,6.1,0,0,0-1.09-.37,9.16,9.16,0,0,0-1.09-.3,4.68,4.68,0,0,0-1-.23h-.11c-.38-.07-.71-.11-1.09-.15a86.74,86.74,0,0,1,6.84-13.07c5-7.89,14.31-22.5,24-22.05a12.86,12.86,0,0,1,6.31,2.37c8.11,5.15,14.65,18.4,19,28.17l-18.89.75a5.64,5.64,0,0,0,.22,11.27H286l23.51-.94a11.78,11.78,0,0,0,1.24,1.88,11.48,11.48,0,0,0,11.27,4l97.17-20.17a11.66,11.66,0,0,0,9.09-12.92,190.16,190.16,0,0,1,4.92-76.62l.37,0c15.55,41.47,66.6,65,87.82,73.21a11.43,11.43,0,0,0,10.37-1.05A11.66,11.66,0,0,0,537,559a139.15,139.15,0,0,1,55.55-26.85,136.29,136.29,0,0,1,41.51-3,5.35,5.35,0,0,0,4.66-2c18.14,5.79,33.16,11.72,40.79,14.84,4.62,1.91,8.56-1,11.42-3.19.6-.45,1.2-.91,1.84-1.36,10.78-7.4,14-17.72,17.5-28.69A143.24,143.24,0,0,1,716,493l-8.94,63,17.05,14.31a20.82,20.82,0,0,1,7.44,16V641a4.62,4.62,0,0,1-3.34,4.4l-30.47,8.45-.45,223.82v0a18.34,18.34,0,0,0,.08,2.78,3.91,3.91,0,0,0,.07.63s0,0,0,.08a163.12,163.12,0,0,0,1.92,23.44c4.62,29,17.46,57.24,37.18,81.58a5.72,5.72,0,0,0,4.4,2.06,5.63,5.63,0,0,0,4.36-9.2c-18.75-23.1-30.47-48.71-34.79-76.17C710,899.9,709.64,896.85,709.38,893.77ZM668.51,675.18a73.59,73.59,0,0,0,6.57-35.61l-.82-12.25a5.63,5.63,0,1,0-11.23.76l.82,12.24a62.42,62.42,0,0,1-5.56,30.12l-4,8.83a5.61,5.61,0,0,0,2.74,7.47,6,6,0,0,0,2.37.53,5.6,5.6,0,0,0,5.1-3.3Zm-21.37-74.64a5.63,5.63,0,0,0-10.56-3.9c-4.47,12.13-15.62,17.76-29.14,19.6,3.38-7.7,3.53-19.19.41-31.92,12.32-1.73,23-3.79,29.22-6.09a5.62,5.62,0,1,0-3.9-10.55c-8.15,3-25.73,5.63-44.14,7.7-28.69,3.19-59.53,5.07-60,5.11a5.64,5.64,0,0,0,.3,11.27,1,1,0,0,0,.34,0c1.58-.08,19.53-1.17,40.68-3.12-1.36,10.37-.3,19.79,3,26.63a250.23,250.23,0,0,1-42.51-10.67,5.64,5.64,0,0,0-3.84,10.6c2.3.86,33.77,12.13,64.35,13,1.2.08,2.4.08,3.6.08C617.65,628.19,639.29,621.88,647.14,600.54ZM599.21,791.76c3.23-11,7.25-30.16-2.1-35.34-7.14-3.95-16.3,1.5-31.59,18.78-38.31,43.3-118.17,27.79-119,27.6a5.71,5.71,0,0,0-6.65,4.44,5.62,5.62,0,0,0,4.4,6.61,197.2,197.2,0,0,0,36.43,3.23c28.78,0,68.1-6,93.23-34.45,10.37-11.71,15.48-14.91,17.5-15.77.72,3.64-.56,13.18-3.08,21.75a5.66,5.66,0,0,0,3.83,7A5.61,5.61,0,0,0,599.21,791.76Zm-37-119.7a5.8,5.8,0,1,0-5.78,5.82A5.79,5.79,0,0,0,562.21,672.06Zm-98.33,12.51c3.83-45-8.11-73-8.6-74.11A5.64,5.64,0,0,0,445,615c.11.26,11.3,26.4,7.7,68.62a5.61,5.61,0,0,0,5.14,6.08,2,2,0,0,0,.49,0A5.61,5.61,0,0,0,463.88,684.57Zm-37.45-57.43a5.64,5.64,0,1,0-8.23-7.7A132.71,132.71,0,0,1,396.57,637c1.5-9.35-.64-19.35-2.33-25.39,13.45-3.27,23.29-5.82,24.45-6.13a5.63,5.63,0,1,0-2.85-10.89c-28.66,7.44-87.29,21.49-103.78,21h-.19a5.64,5.64,0,0,0-.15,11.27h1c8.9,0,25.69-2.89,43.35-6.57-.45,7.47.45,18.21,7.1,27.64.56.79,1.2,1.73,2,2.7-13.71,2.9-28.66,1.62-43-8.18a5.63,5.63,0,0,0-6.35,9.31,63.44,63.44,0,0,0,36.51,11.53,80.2,80.2,0,0,0,29.49-6.05C407.54,647,426.09,627.48,426.43,627.14Z"
                      class="cls-1"></path>
                <path d="M739,222.77c76.81,109.37,58.22,241.58,46.65,293.38l-6.24,28-34.93-37.9,4.47-31.36A14.92,14.92,0,0,0,745.44,463l16.22,17.62c8.68-58.18,11.23-157.27-47.21-240.54-51-72.56-107.28-109.94-154.41-102.54-14.2,2.22-28.06,8.27-41.13,18l-8.76,6.54-8.94-6.31a142.14,142.14,0,0,0-31.7-17c-80.79-30.76-201,16.08-267.92,104.42-46,60.7-77.83,161.88-46.16,229.83a144.15,144.15,0,0,0,9.88,17.28c4.92,7.81,11.68,18.44,21.71,37.44a766.62,766.62,0,0,1,41.54,92.85,122.09,122.09,0,0,0,3.6-15.55c-.07.49-.11.94-.15,1.39l-.22.94a5.64,5.64,0,0,0,.79,4.21,4.19,4.19,0,0,0,.19.64l14.38,42.33a155.23,155.23,0,0,1-8.22,14.23l-17.4,26.71L212,665.11A730.75,730.75,0,0,0,160.46,541.8c-9.5-17.95-15.62-27.64-20.55-35.42-4.43-7.06-8-12.58-11.71-20.66-37-79.43-3.16-191.25,49.43-260.7C244,137.47,375.31,70.76,480.22,110.69a171.84,171.84,0,0,1,29.56,14.72,119.26,119.26,0,0,1,45.6-17.58C636.06,95.21,705,174.43,739,222.77Z"></path>
                <path d="M714.45,240.08c58.44,83.27,55.89,182.36,47.21,240.54L745.44,463c-.15-.15-.27-.3-.42-.45a12,12,0,0,0-1.09-1.05,1.76,1.76,0,0,0-.41-.34,7.79,7.79,0,0,0-1-.79,14.68,14.68,0,0,0-3.61-1.8,15.64,15.64,0,0,0-2.7-.64,15.09,15.09,0,0,0-10.74,2.55c-.53.42-1.06.83-1.54,1.28h0a4.73,4.73,0,0,0-.38.41c-.37.38-.75.79-1.09,1.21a5.61,5.61,0,0,0-.75,1,3.49,3.49,0,0,0-.41.64,0,0,0,0,0,0,0,90.26,90.26,0,0,0-8.56,10.85c-7.18,10.86-10.33,20.73-13.07,29.45-3.23,10.21-5.56,17.58-13.15,22.8-.75.52-1.5,1.05-2.22,1.61-.48.38-1.16.87-1.72,1.24-10.48-4.28-26.75-10.52-45.38-16.26-28.28-8.68-62-16.23-89.24-14.09a11.49,11.49,0,0,0-9.47,6.69A147.19,147.19,0,0,0,526,556.11c0,.45-.08.94-.12,1.43l.31,0a1.87,1.87,0,0,0,.07.22h-.71c-19.84-7.66-67.39-29.45-81.36-66.63a11.5,11.5,0,0,0-21.82,1,201,201,0,0,0-5.22,81.09.28.28,0,0,1-.19.34l-97.36,20.2a25.84,25.84,0,0,1-1.69-3.38c-.49-1.09-1-2.25-1.47-3.3-4.8-11-12.84-29.3-25-37a23.88,23.88,0,0,0-11.76-4.09c-16.3-.76-27.42,16.75-34.11,27.26a100.6,100.6,0,0,0-12.2,27.76.14.14,0,0,0,0,.11c-.11.27-.23.49-.34.75s-.22.61-.3.91a11.86,11.86,0,0,0-.53,2.21,122.09,122.09,0,0,1-3.6,15.55A766.62,766.62,0,0,0,187,527.75c-10-19-16.79-29.63-21.71-37.44A144.15,144.15,0,0,1,155.43,473c-31.67-67.95.15-169.13,46.16-229.83C268.52,154.86,388.72,108,469.51,138.78a142.14,142.14,0,0,1,31.7,17l8.94,6.31,8.76-6.54c13.07-9.76,26.93-15.81,41.13-18C607.17,130.14,663.44,167.52,714.45,240.08Z"
                      class="cls-5"></path>
                <path d="M761.59,586.23V641a34.69,34.69,0,0,1-25.36,33.32l-8.48,2.37-.38,191.36L717,864.67a15,15,0,0,0-17.69,6.61,5.35,5.35,0,0,0-1.92,4.05v1.2s0,0,0,.08c-.07.38-.11.71-.15,1.09l.45-223.82,30.47-8.45a4.62,4.62,0,0,0,3.34-4.4v-54.8a20.82,20.82,0,0,0-7.44-16L707.05,556,716,493a82.79,82.79,0,0,1,6-10.85.53.53,0,0,1,.15-.19,9.09,9.09,0,0,0,.82,1l21.49,23.29-5.33,37.41,4.28,3.57A50.87,50.87,0,0,1,761.59,586.23Z"></path>
                <path d="M745.44,463a14.92,14.92,0,0,1,3.49,11.91l-4.47,31.36L723,483a9.09,9.09,0,0,1-.82-1,81.07,81.07,0,0,1,10.7-12.73,5.63,5.63,0,0,0-7.81-8.12c-1.31,1.28-2.59,2.56-3.83,3.91a3.49,3.49,0,0,1,.41-.64,6.15,6.15,0,0,1,.75-1c.34-.42.72-.83,1.09-1.21a4,4,0,0,1,.42-.41c.48-.45,1-.86,1.54-1.28a16.31,16.31,0,0,1,4.54-2.14,14.94,14.94,0,0,1,6.2-.41,15.64,15.64,0,0,1,2.7.64,16.23,16.23,0,0,1,3.61,1.8,7.79,7.79,0,0,1,1,.79c.15.11.26.23.41.34a12,12,0,0,1,1.09,1.05C745.17,462.7,745.29,462.85,745.44,463Z"></path>
                <path d="M745.29,979.11a5.63,5.63,0,0,1-4.36,9.2,5.72,5.72,0,0,1-4.4-2.06c-19.72-24.34-32.56-52.55-37.18-81.58a163.12,163.12,0,0,1-1.92-23.44,6.63,6.63,0,0,0,.15.75,9.38,9.38,0,0,0,.38,1.43,10.27,10.27,0,0,0,.37,1c0,.08,0,.11,0,.15a7.81,7.81,0,0,0,.49,1,7.36,7.36,0,0,0,.56,1,14.52,14.52,0,0,0,4.47,4.73A10.73,10.73,0,0,0,705,892a12.09,12.09,0,0,0,2.56,1.16,3.47,3.47,0,0,0,.6.19l1.24.41c.26,3.08.64,6.13,1.12,9.17C714.82,930.4,726.54,956,745.29,979.11Z"></path>
                <path d="M745,462.55a12,12,0,0,0-1.09-1.05A12,12,0,0,1,745,462.55Z"></path>
                <path d="M743.93,461.5c-.15-.11-.26-.23-.41-.34A1.76,1.76,0,0,1,743.93,461.5Z"></path>
                <path d="M738.86,458.57a14.68,14.68,0,0,1,3.61,1.8A16.23,16.23,0,0,0,738.86,458.57Z"></path>
                <path d="M733,461.27a5.6,5.6,0,0,1-.15,8A81.07,81.07,0,0,0,722.15,482a14.8,14.8,0,0,1-3-10.67l.07-.6a14.83,14.83,0,0,1,2-5.63,0,0,0,0,1,0,0c1.24-1.35,2.52-2.63,3.83-3.91A5.6,5.6,0,0,1,733,461.27Z"></path>
                <path d="M727.37,868.08l0,10.86a15.07,15.07,0,0,1-15,15h0a14.61,14.61,0,0,1-2.89-.3,153,153,0,0,1-.72-18.06,5.58,5.58,0,0,0-9.31-4.32A15,15,0,0,1,717,864.67Z"></path>
                <path d="M730,458.34a16.31,16.31,0,0,0-4.54,2.14A15,15,0,0,1,730,458.34Z"></path>
                <path d="M723.88,461.76a4,4,0,0,0-.42.41,4.73,4.73,0,0,1,.38-.41Z"></path>
                <path d="M722.37,463.38a6.15,6.15,0,0,0-.75,1A5.61,5.61,0,0,1,722.37,463.38Z"></path>
                <path d="M722.15,482a.53.53,0,0,0-.15.19A82.79,82.79,0,0,0,716,493l3.12-21.71A14.8,14.8,0,0,0,722.15,482Z"></path>
                <path d="M721.17,465.07a14.83,14.83,0,0,0-2,5.63l-.07.6L716,493a143.24,143.24,0,0,0-5.71,15.74c-3.46,11-6.72,21.29-17.5,28.69-.64.45-1.24.91-1.84,1.36-2.86,2.14-6.8,5.1-11.42,3.19-7.63-3.12-22.65-9-40.79-14.84a5.47,5.47,0,0,0,1.39-3.19,5.58,5.58,0,0,0-4.1-5.86l1.05-3.34c18.63,5.74,34.9,12,45.38,16.26.56-.37,1.24-.86,1.72-1.24.72-.56,1.47-1.09,2.22-1.61,7.59-5.22,9.92-12.59,13.15-22.8,2.74-8.72,5.89-18.59,13.07-29.45A90.26,90.26,0,0,1,721.17,465.07Z"></path>
                <path d="M709.38,893.66s0,.08,0,.11l-1.24-.41C708.55,893.47,709,893.59,709.38,893.66Z"></path>
                <path d="M709.38,893.66c-.42-.07-.83-.19-1.24-.3l-.6-.19A12.09,12.09,0,0,1,705,892a4.86,4.86,0,0,1-1.09-.64,14.52,14.52,0,0,1-4.47-4.73,7.36,7.36,0,0,1-.56-1,7.81,7.81,0,0,1-.49-1s0-.07,0-.15a8.06,8.06,0,0,1-.37-1c-.15-.45-.26-.94-.38-1.43s-.11-.68-.15-1.05c-.07-1.43,0-2.89,0-4.32,0,0,0,0,0-.08a19,19,0,0,1,.6-2.36,15.15,15.15,0,0,1,1.32-2.89,5.58,5.58,0,0,1,9.31,4.32A153,153,0,0,0,709.38,893.66Z"></path>
                <path d="M707.54,893.17l.6.19A3.47,3.47,0,0,1,707.54,893.17Z"></path>
                <path d="M703.89,891.37A4.86,4.86,0,0,0,705,892,10.73,10.73,0,0,1,703.89,891.37Z"></path>
                <path d="M698.86,885.62a7.36,7.36,0,0,0,.56,1A7.36,7.36,0,0,1,698.86,885.62Z"></path>
                <path d="M698.37,884.57a7.81,7.81,0,0,0,.49,1A7.81,7.81,0,0,1,698.37,884.57Z"></path>
                <path d="M699.35,871.28a15.15,15.15,0,0,0-1.32,2.89,19,19,0,0,0-.6,2.36v-1.2A5.35,5.35,0,0,1,699.35,871.28Z"></path>
                <path d="M698,883.41a8.06,8.06,0,0,0,.37,1A10.27,10.27,0,0,1,698,883.41Z"></path>
                <path d="M697.58,882c.12.49.23,1,.38,1.43A9.38,9.38,0,0,1,697.58,882Z"></path>
                <path d="M697.43,880.93c0,.37.08.71.15,1.05a6.63,6.63,0,0,1-.15-.75s0,0,0-.08A.28.28,0,0,1,697.43,880.93Z"></path>
                <path d="M697.28,877.7c0-.38.08-.71.15-1.09,0,1.43-.07,2.89,0,4.32a2,2,0,0,1-.07-.41c0-.53-.08-1.09-.08-1.62v-1.2Z"></path>
                <path d="M697.36,880.52a2,2,0,0,0,.07.41.28.28,0,0,0,0,.22A3.91,3.91,0,0,1,697.36,880.52Z"></path>
                <path d="M697.28,878.9c0,.53,0,1.09.08,1.62a18.34,18.34,0,0,1-.08-2.78Z"></path>
                <path d="M675.08,639.57a73.59,73.59,0,0,1-6.57,35.61L664.45,684a5.6,5.6,0,0,1-5.1,3.3,6,6,0,0,1-2.37-.53,5.61,5.61,0,0,1-2.74-7.47l4-8.83a62.42,62.42,0,0,0,5.56-30.12L663,628.08a5.63,5.63,0,1,1,11.23-.76Z"></path>
                <path d="M643.8,593.33a5.57,5.57,0,0,1,3.34,7.21c-7.85,21.34-29.49,27.65-52.25,27.65-1.2,0-2.4,0-3.6-.08v-.41a11.79,11.79,0,0,0,1.57-.07,20.13,20.13,0,0,0,10.33-5.23,17.37,17.37,0,0,0,4.25-6.16c13.52-1.84,24.67-7.47,29.14-19.6A5.62,5.62,0,0,1,643.8,593.33Z"></path>
                <path d="M646.69,850.66a5.62,5.62,0,0,1-1.92,7.73l-85.37,51.5-3.08,4.35-1.21-.82a15,15,0,0,0,2.52-7c0-.41.08-.86.08-1.27V905a12.47,12.47,0,0,0-.12-1.73,10.84,10.84,0,0,0-.26-1.58c0-.07,0-.11,0-.19a12.07,12.07,0,0,0-1-2.85L639,848.74A5.64,5.64,0,0,1,646.69,850.66Z"></path>
                <path d="M640.42,571a5.62,5.62,0,0,1-3.35,7.24c-6.19,2.3-16.9,4.36-29.22,6.09-.41-1.84-.94-3.72-1.5-5.6-5.56.68-11.12,1.32-16.68,2l-.64-5.3c18.41-2.07,36-4.7,44.14-7.7A5.66,5.66,0,0,1,640.42,571Z"></path>
                <path d="M636,518.1a5.58,5.58,0,0,1,4.1,5.86,5.47,5.47,0,0,1-1.39,3.19c-9.88-3.11-20.7-6.23-31.74-8.86a150.65,150.65,0,0,1,27.94-.38A5.79,5.79,0,0,1,636,518.1Z"></path>
                <path d="M637.07,514.76,636,518.1a5.79,5.79,0,0,0-1.09-.19,150.65,150.65,0,0,0-27.94.38c-20-4.7-40.79-7.78-58.26-6.39a132,132,0,0,0-9.84,31.7c-3.72,2.56-7.36,5.26-10.86,8.15a5.58,5.58,0,0,0-2.06,4.36,147.19,147.19,0,0,1,12.39-48.75,11.49,11.49,0,0,1,9.47-6.69C575.06,498.53,608.79,506.08,637.07,514.76Z"></path>
                <path d="M638.73,527.15a5.35,5.35,0,0,1-4.66,2,136.29,136.29,0,0,0-41.51,3A139.15,139.15,0,0,0,537,559a4.21,4.21,0,0,0,.08-.75,114.81,114.81,0,0,1,1.8-14.65,150.39,150.39,0,0,1,51.16-22.46A144.65,144.65,0,0,1,607,518.29C618,520.92,628.85,524,638.73,527.15Z"></path>
                <path d="M607.85,584.32c3.12,12.73,3,24.22-.41,31.92-10.67,1.54-22.76.72-34.15-1-3.26-6.84-4.32-16.26-3-26.63,4.58-.41,9.31-.9,14.08-1.39a14.79,14.79,0,0,0-2,10.4c1,6.84,5.75,11.8,10.56,11s7.88-6.84,6.87-13.67a15,15,0,0,0-4.55-9C599.59,585.45,603.83,584.92,607.85,584.32Z"></path>
                <path d="M606.35,578.72c.56,1.88,1.09,3.76,1.5,5.6-4,.6-8.26,1.13-12.55,1.65a6.9,6.9,0,0,0-10.89,1.24c-4.77.49-9.5,1-14.08,1.39.22-1.88.52-3.79.94-5.75,6.12-.71,12.28-1.46,18.4-2.17C595.23,580,600.79,579.4,606.35,578.72Z"></path>
                <path d="M607.44,616.24a17.37,17.37,0,0,1-4.25,6.16,20.13,20.13,0,0,1-10.33,5.23,11.79,11.79,0,0,1-1.57.07c-5.6,0-9.85-3.12-11.57-4.36a20.87,20.87,0,0,1-6.43-8.11C584.68,617,596.77,617.78,607.44,616.24Z"></path>
                <path d="M599.85,595c1,6.83-2.07,13-6.87,13.67s-9.54-4.21-10.56-11a14.79,14.79,0,0,1,2-10.4c3.65-.41,7.29-.79,10.89-1.24A15,15,0,0,1,599.85,595Z"
                      class="cls-6"></path>
                <path d="M597.11,756.42c9.35,5.18,5.33,24.37,2.1,35.34a5.61,5.61,0,0,1-7,3.83,5.66,5.66,0,0,1-3.83-7c2.52-8.57,3.8-18.11,3.08-21.75-2,.86-7.13,4.06-17.5,15.77-25.13,28.44-64.45,34.45-93.23,34.45a197.2,197.2,0,0,1-36.43-3.23,5.62,5.62,0,0,1-4.4-6.61,5.71,5.71,0,0,1,6.65-4.44c.79.19,80.65,15.7,119-27.6C580.81,757.92,590,752.47,597.11,756.42Z"></path>
                <path d="M607,518.29a144.65,144.65,0,0,0-16.94,2.85,150.39,150.39,0,0,0-51.16,22.46,132,132,0,0,1,9.84-31.7C566.2,510.51,587,513.59,607,518.29Z"
                      class="cls-1"></path>
                <path d="M591.29,627.7v.41c-30.58-.82-62-12.09-64.35-13a5.64,5.64,0,0,1,3.84-10.6,250.23,250.23,0,0,0,42.51,10.67,20.87,20.87,0,0,0,6.43,8.11C581.44,624.58,585.69,627.7,591.29,627.7Z"></path>
                <path d="M589.26,583.94a7.41,7.41,0,0,1,6,2c-3.6.45-7.24.83-10.89,1.24A7.37,7.37,0,0,1,589.26,583.94Z"
                      class="cls-6"></path>
                <path d="M589,575.38l.64,5.3c-6.12.71-12.28,1.46-18.4,2.17-.42,2-.72,3.87-.94,5.75-21.15,1.95-39.1,3-40.68,3.12a1,1,0,0,1-.34,0,5.64,5.64,0,0,1-.3-11.27C529.5,580.45,560.34,578.57,589,575.38Z"></path>
                <path d="M557.71,905v.19c0,.41,0,.86-.08,1.27a15,15,0,0,1-2.52,7,9.71,9.71,0,0,1-.6.79,5.33,5.33,0,0,1-.79.94,14.84,14.84,0,0,1-7.54,4.43l-.49.11a15.84,15.84,0,0,1-3,.3h-.07l-4.13,0,13.07-18.48,4.73-2.85a12.07,12.07,0,0,1,1,2.85c0,.08,0,.12,0,.19.11.53.19,1.05.26,1.58A12.15,12.15,0,0,1,557.71,905Z"></path>
                <path d="M557.71,905a12.15,12.15,0,0,0-.12-1.73A12.47,12.47,0,0,1,557.71,905Z"></path>
                <path d="M557.63,906.43c0-.41.08-.86.08-1.27C557.71,905.57,557.67,906,557.63,906.43Z"></path>
                <path d="M557.59,903.24c-.07-.53-.15-1-.26-1.58A10.84,10.84,0,0,1,557.59,903.24Z"></path>
                <path d="M556.43,666.27a5.81,5.81,0,1,1-5.82,5.79A5.79,5.79,0,0,1,556.43,666.27Z"></path>
                <path d="M556.32,914.24l-45.57,64.49a5.58,5.58,0,0,1-4.58,2.37,6,6,0,0,1-3.27-1,5.7,5.7,0,0,1-1.35-7.85l35.69-50.52,8.45-2,.49-.11a14.84,14.84,0,0,0,7.54-4.43,5.33,5.33,0,0,0,.79-.94,9.71,9.71,0,0,0,.6-.79Z"></path>
                <path d="M555.9,897.83a7.11,7.11,0,0,1,.38.79l-4.73,2.85L538.48,920l-52.82-.22a9.39,9.39,0,0,0-18-5.22c-.15.41-.6,1.91-1.27,4.35a150.29,150.29,0,0,1-25.28-5l98.07-23.55a15.48,15.48,0,0,1,3.49-.42,14.71,14.71,0,0,1,4.62.75,9,9,0,0,1,1.32.49,10,10,0,0,1,1.24.6.2.2,0,0,1,.15.08c.37.22.79.45,1.16.71s.75.57,1.13.87a8.15,8.15,0,0,1,1,1,8.72,8.72,0,0,1,1,1.05A15.41,15.41,0,0,1,555.9,897.83Z"></path>
                <path d="M555.9,897.83a15.41,15.41,0,0,0-1.61-2.37A14,14,0,0,1,555.9,897.83Z"></path>
                <path d="M553.72,915.15a5.33,5.33,0,0,0,.79-.94A5.33,5.33,0,0,1,553.72,915.15Z"></path>
                <path d="M554.29,895.46a8.72,8.72,0,0,0-1-1.05A8.94,8.94,0,0,1,554.29,895.46Z"></path>
                <path d="M553.31,894.41a8.15,8.15,0,0,0-1-1A6.33,6.33,0,0,1,553.31,894.41Z"></path>
                <path d="M552.26,893.44c-.38-.3-.75-.6-1.13-.87A12.23,12.23,0,0,1,552.26,893.44Z"></path>
                <path d="M551.13,892.57c-.37-.26-.79-.49-1.16-.71A11.22,11.22,0,0,1,551.13,892.57Z"></path>
                <path d="M549.82,891.78a10,10,0,0,0-1.24-.6A10,10,0,0,1,549.82,891.78Z"></path>
                <path d="M548.58,891.18a9,9,0,0,0-1.32-.49A9,9,0,0,1,548.58,891.18Z"></path>
                <path d="M545.69,919.69l-8.45,2,1.24-1.77,4.13,0h.07A15.84,15.84,0,0,0,545.69,919.69Z"></path>
                <path d="M481.49,889.64l61.15.3a15.48,15.48,0,0,0-3.49.42l-98.07,23.55a149.48,149.48,0,0,1-89.47-71.07l-14.42-26a156.16,156.16,0,0,0-21.68-29.56A166.34,166.34,0,0,0,294,768.06c-8.75-6.83-17.05-13.33-24.15-25-9-15-12.73-33.24-11-54.35l-11.61-34.1a156.3,156.3,0,0,0,9.35-22.69,151.73,151.73,0,0,0,5.34-22,14.91,14.91,0,0,0-.75-7.62,1.92,1.92,0,0,1,.15.37l28.06,82.6-.34,3.26c-1.69,15.89.52,29,6.57,39.07,4.24,7,9.28,10.93,16.94,16.9a196.88,196.88,0,0,1,25,22.38,187.92,187.92,0,0,1,25.91,35.35l14.5,26.14A119.33,119.33,0,0,0,481.49,889.64Z"></path>
                <path d="M538.48,920l-1.24,1.77-55.41,13.33c1.88-9,3.57-14.42,3.68-14.72a2.64,2.64,0,0,0,.15-.6Z"></path>
                <path d="M538.89,543.6a114.81,114.81,0,0,0-1.8,14.65,4.21,4.21,0,0,1-.08.75c-.64.45-1.24.94-1.84,1.43a5.53,5.53,0,0,1-3.57,1.32,5.71,5.71,0,0,1-4.36-2.07,6.11,6.11,0,0,1-1-1.88l5.22.11-5.29-.33a6.18,6.18,0,0,1-.19-1.47,5.58,5.58,0,0,1,2.06-4.36C531.53,548.86,535.17,546.16,538.89,543.6Z"></path>
                <path d="M535.17,560.43c.6-.49,1.2-1,1.84-1.43a11.66,11.66,0,0,1-5.22,8.27,11.43,11.43,0,0,1-10.37,1.05c-21.22-8.19-72.27-31.74-87.82-73.21l-.37,0a190.16,190.16,0,0,0-4.92,76.62,11.66,11.66,0,0,1-9.09,12.92l-97.17,20.17a11.48,11.48,0,0,1-11.27-4,11.78,11.78,0,0,1-1.24-1.88l2.55-.11A5.67,5.67,0,0,0,317.5,593a5.46,5.46,0,0,0-.48-2.14l.86-.42a25.84,25.84,0,0,0,1.69,3.38l97.36-20.2a.28.28,0,0,0,.19-.34,201,201,0,0,1,5.22-81.09,11.5,11.5,0,0,1,21.82-1c14,37.18,61.52,59,81.36,66.63h.71a6.11,6.11,0,0,0,1,1.88,5.71,5.71,0,0,0,4.36,2.07A5.53,5.53,0,0,0,535.17,560.43Z"></path>
                <path d="M531.45,557.91l-5.22-.11a1.87,1.87,0,0,1-.07-.22Z"></path>
                <path d="M526.16,557.58l-.31,0c0-.49.08-1,.12-1.43A6.18,6.18,0,0,0,526.16,557.58Z"></path>
                <path d="M479.47,908.5a9.35,9.35,0,0,1,6.19,11.23l-4.32,0c-5,0-10-.3-15-.83.67-2.44,1.12-3.94,1.27-4.35A9.4,9.4,0,0,1,479.47,908.5Z"></path>
                <path d="M485.66,919.73a2.64,2.64,0,0,1-.15.6c-.11.3-1.8,5.71-3.68,14.72l-20.2,4.85c1.69-9.43,3.53-16.72,4.73-21,5,.53,9.95.79,15,.83Z"></path>
                <path d="M455.28,610.46c.49,1.16,12.43,29.07,8.6,74.11a5.61,5.61,0,0,1-5.6,5.14,2,2,0,0,1-.49,0,5.61,5.61,0,0,1-5.14-6.08c3.6-42.22-7.59-68.36-7.7-68.62a5.64,5.64,0,0,1,10.33-4.51Z"></path>
                <path d="M466.36,918.86c-1.2,4.32-3,11.61-4.73,21L309.92,976.33c2.14-7.62,3.6-12,3.68-12.21a9.33,9.33,0,0,0-5.79-11.94,9.2,9.2,0,0,0-5.93-.08l-1.09-4.46,140.29-33.73A150.29,150.29,0,0,0,466.36,918.86Z"></path>
                <path d="M426.17,619.17a5.65,5.65,0,0,1,.26,8c-.34.34-18.89,19.83-44.58,30l-.08-.15c4.17-1.54,7.21-4.84,8.38-6.08a26.7,26.7,0,0,0,6.42-14,132.71,132.71,0,0,0,21.63-17.54A5.61,5.61,0,0,1,426.17,619.17Z"></path>
                <path d="M422.71,598.59a5.62,5.62,0,0,1-4,6.87c-1.16.31-11,2.86-24.45,6.13-.83-2.74-1.5-4.62-1.76-5.3-4.89,1.09-9.81,2.14-14.69,3.23l-21.07,4.62a60.34,60.34,0,0,0-.6,6.09c-17.66,3.68-34.45,6.57-43.35,6.57h-1a5.64,5.64,0,0,1,.15-11.27h.19c16.49.53,75.12-13.52,103.78-21A5.59,5.59,0,0,1,422.71,598.59Z"></path>
                <path d="M394.24,611.59c1.69,6,3.83,16,2.33,25.39-8.79,5.67-19.61,11.15-31.36,13.59-.79-1-1.43-1.91-2-2.7-6.65-9.43-7.55-20.17-7.1-27.64,5.14-1.09,10.4-2.22,15.51-3.38a16,16,0,0,0-.75,6c.41,6.76,4.58,12,9.35,11.72s8.26-6,7.89-12.74a15.62,15.62,0,0,0-2.74-8.11C388.46,613,391.42,612.26,394.24,611.59Z"></path>
                <path d="M392.48,606.29c.26.68.93,2.56,1.76,5.3-2.82.67-5.78,1.39-8.86,2.1-1.73-2.37-4.1-3.79-6.61-3.64a5.21,5.21,0,0,0-.83.11l-.15-.64C382.67,608.43,387.59,607.38,392.48,606.29Z"></path>
                <path d="M396.57,637a26.7,26.7,0,0,1-6.42,14c-1.17,1.24-4.21,4.54-8.38,6.08a12.06,12.06,0,0,1-5.37.83c-5.07-.41-8.72-4-11.19-7.29C377,648.13,387.78,642.65,396.57,637Z"></path>
                <path d="M388.12,621.8c.37,6.73-3.12,12.47-7.89,12.74s-8.94-5-9.35-11.72a16,16,0,0,1,.75-6c4.69-1.06,9.35-2.15,13.75-3.16A15.62,15.62,0,0,1,388.12,621.8Z"
                      class="cls-6"></path>
                <path d="M381.77,657l.08.15a80.2,80.2,0,0,1-29.49,6.05,63.44,63.44,0,0,1-36.51-11.53,5.63,5.63,0,0,1,6.35-9.31c14.35,9.8,29.3,11.08,43,8.18,2.47,3.27,6.12,6.88,11.19,7.29A12.06,12.06,0,0,0,381.77,657Z"></path>
                <path d="M378.77,610.05c2.51-.15,4.88,1.27,6.61,3.64-4.4,1-9.06,2.1-13.75,3.16,1.09-3.54,3.42-6.09,6.31-6.69A5.21,5.21,0,0,1,378.77,610.05Z"
                      class="cls-6"></path>
                <path d="M377.79,609.52l.15.64c-2.89.6-5.22,3.15-6.31,6.69-5.11,1.16-10.37,2.29-15.51,3.38a60.34,60.34,0,0,1,.6-6.09Z"></path>
                <path d="M317.88,590.4l-.86.42a5.69,5.69,0,0,0-5.38-3.27l-7.17.3c-4.39-9.77-10.93-23-19-28.17a12.86,12.86,0,0,0-6.31-2.37c-9.73-.45-19,14.16-24,22.05a86.74,86.74,0,0,0-6.84,13.07c-.45,0-.9,0-1.31,0s-.87,0-1.32.08a13.19,13.19,0,0,0-3,.56c-.15,0-.33.12-.48.15a1.77,1.77,0,0,0-.38.15,3.54,3.54,0,0,0-.83.34c-.33.15-.67.3-1,.49a5.28,5.28,0,0,0-1,.56,12.08,12.08,0,0,0-2,1.54,6.47,6.47,0,0,0-.76.72,13.51,13.51,0,0,0-1.5,1.8,12.59,12.59,0,0,0-1.05,1.8c-.11.19-.19.34-.26.49a100.6,100.6,0,0,1,12.2-27.76c6.69-10.51,17.81-28,34.11-27.26a23.88,23.88,0,0,1,11.76,4.09c12.13,7.66,20.17,26,25,37C316.9,588.15,317.39,589.31,317.88,590.4Z"></path>
                <path d="M317.5,593a5.67,5.67,0,0,1-5.41,5.86l-2.55.11c-.9-1.58-1.92-3.87-3.42-7.32-.52-1.17-1.05-2.41-1.65-3.76l7.17-.3a5.69,5.69,0,0,1,5.38,3.27A5.46,5.46,0,0,1,317.5,593Z"></path>
                <path d="M307.81,952.18a9.33,9.33,0,0,1,5.79,11.94c-.08.23-1.54,4.59-3.68,12.21l-20.93,5c3.54-13.67,6.43-22.12,6.88-23.4a9.41,9.41,0,0,1,6-5.86A9.2,9.2,0,0,1,307.81,952.18Z"></path>
                <path d="M289,981.36l20.93-5c-8.91,31.89-29.15,120.91-4.81,201.13H285.54C264,1100.8,279,1020.16,289,981.36Z"></path>
                <path d="M309.54,598.93l-23.51.94h-.23a5.64,5.64,0,0,1-.22-11.27l18.89-.75c.6,1.35,1.13,2.59,1.65,3.76C307.62,595.06,308.64,597.35,309.54,598.93Z"></path>
                <path d="M307.74,1185.65a9.42,9.42,0,0,1-5.82,11.95,9,9,0,0,1-3.08.52,9.37,9.37,0,0,1-8.87-6.35c-1.61-4.73-3.12-9.5-4.43-14.31h19.57C305.93,1180.21,306.8,1183,307.74,1185.65Z"></path>
                <path d="M300.79,947.64l1.09,4.46a9.41,9.41,0,0,0-6,5.86c-.45,1.28-3.34,9.73-6.88,23.4l-61.26,14.73-1.54,0c-22.23.71-42.89,6-61.37,15.81-23.55,12.39-37.83,28.92-46.39,38.8a160.75,160.75,0,0,0-19.49,27.87c-5.23,9-10.63,18.29-22,29.41-14.91,14.61-33.24,25.8-54.42,33.2v-32.3a111.72,111.72,0,0,0,33.39-22.35c8.45-8.26,12.24-14.8,17-23.06a189.66,189.66,0,0,1,22.77-32.45c9.27-10.71,26.55-30.65,55.06-45.71a169.29,169.29,0,0,1,72.91-19.2Z"></path>
                <path d="M298.84,1198.12V1200H0v-72.42H1a15.38,15.38,0,0,0,.79,4.81A15,15,0,0,0,16,1142.61a14.6,14.6,0,0,0,4.81-.79c.56-.19,1.16-.38,1.73-.6v36.24h263c1.31,4.81,2.82,9.58,4.43,14.31A9.37,9.37,0,0,0,298.84,1198.12Z"></path>
                <path d="M227.73,996.09,289,981.36c-9.95,38.8-25,119.44-3.45,196.1h-263v-36.24c21.18-7.4,39.51-18.59,54.42-33.2,11.35-11.12,16.75-20.4,22-29.41a160.75,160.75,0,0,1,19.49-27.87c8.56-9.88,22.84-26.41,46.39-38.8,18.48-9.77,39.14-15.1,61.37-15.81Z"
                      class="cls-1"></path>
                <path d="M261.09,602.2a14.91,14.91,0,0,1,.75,7.62,151.73,151.73,0,0,1-5.34,22,156.3,156.3,0,0,1-9.35,22.69l-14.38-42.33a4.19,4.19,0,0,1-.19-.64,5.61,5.61,0,0,0,3.57,2.48,6.51,6.51,0,0,0,1.16.11,5.64,5.64,0,0,0,5.52-4.47,94.64,94.64,0,0,1,5.41-17.28c.38,0,.71.08,1.09.15a5.67,5.67,0,0,1,1.13.23,9.16,9.16,0,0,1,1.09.3c.37.11.75.26,1.09.37s.71.3,1.05.49a16.26,16.26,0,0,1,2.89,1.88,11.42,11.42,0,0,1,1.65,1.61,7.93,7.93,0,0,1,.68.79,2.09,2.09,0,0,1,.41.57c.19.26.38.56.56.86s.27.45.42.71.3.64.45,1A3.37,3.37,0,0,1,261.09,602.2Z"></path>
                <path d="M260.75,601.37c-.15-.34-.3-.68-.45-1C260.45,600.69,260.6,601,260.75,601.37Z"></path>
                <path d="M259.88,599.68c-.18-.3-.37-.6-.56-.86C259.51,599.08,259.7,599.38,259.88,599.68Z"></path>
                <path d="M258.91,598.25a7.93,7.93,0,0,0-.68-.79A7.27,7.27,0,0,1,258.91,598.25Z"></path>
                <path d="M256.58,595.85a16.26,16.26,0,0,0-2.89-1.88A12.38,12.38,0,0,1,256.58,595.85Z"></path>
                <path d="M253.69,594c-.34-.19-.72-.34-1.05-.49C253,593.63,253.35,593.78,253.69,594Z"></path>
                <path d="M252.64,593.48c-.34-.11-.72-.26-1.09-.37A6.1,6.1,0,0,1,252.64,593.48Z"></path>
                <path d="M250.46,592.81a5.67,5.67,0,0,0-1.13-.23h.11A4.68,4.68,0,0,1,250.46,592.81Z"></path>
                <path d="M246.93,592.39c.41,0,.86,0,1.31,0a94.64,94.64,0,0,0-5.41,17.28,5.64,5.64,0,0,1-5.52,4.47,6.51,6.51,0,0,1-1.16-.11,5.61,5.61,0,0,1-3.57-2.48,14.28,14.28,0,0,1-.57-5.15c.38-1.76.79-3.53,1.32-5.26a.14.14,0,0,1,0-.11c.07-.15.15-.3.26-.49a18,18,0,0,1,1.05-1.8,13.51,13.51,0,0,1,1.5-1.8c.27-.27.49-.49.76-.72a12.08,12.08,0,0,1,2-1.54,7,7,0,0,1,1-.56,6.32,6.32,0,0,1,1-.49,3.54,3.54,0,0,1,.83-.34,6.67,6.67,0,0,1,.86-.3,13.19,13.19,0,0,1,3-.56C246.06,592.43,246.48,592.39,246.93,592.39Z"></path>
                <path d="M246.93,592.39c-.45,0-.87,0-1.32.08C246.06,592.43,246.48,592.39,246.93,592.39Z"></path>
                <path d="M242.64,593a6.67,6.67,0,0,0-.86.3,1.77,1.77,0,0,1,.38-.15C242.31,593.15,242.49,593.07,242.64,593Z"></path>
                <path d="M241,593.67a6.32,6.32,0,0,0-1,.49C240.28,594,240.62,593.82,241,593.67Z"></path>
                <path d="M239.94,594.16a7,7,0,0,0-1,.56A5.28,5.28,0,0,1,239.94,594.16Z"></path>
                <path d="M236.94,596.26c-.27.23-.49.45-.76.72A6.47,6.47,0,0,1,236.94,596.26Z"></path>
                <path d="M234.68,598.78a18,18,0,0,0-1.05,1.8A12.59,12.59,0,0,1,234.68,598.78Z"></path>
                <path d="M233,601.93c.11-.26.23-.48.34-.75-.53,1.73-.94,3.5-1.32,5.26,0-.45.08-.9.15-1.39a11.86,11.86,0,0,1,.53-2.21C232.8,602.54,232.88,602.23,233,601.93Z"></path>
                <path d="M233,601.93c-.11.3-.19.61-.3.91C232.77,602.54,232.88,602.23,233,601.93Z"></path>
                <path d="M231.79,607.38l.22-.94a14.28,14.28,0,0,0,.57,5.15A5.64,5.64,0,0,1,231.79,607.38Z"></path>
                <path d="M212.22,858.92a5.61,5.61,0,0,1-.79,7.92,5.51,5.51,0,0,1-3.57,1.28,5.67,5.67,0,0,1-4.35-2.06l-19.09-23.29a5.64,5.64,0,0,1,8.72-7.14Z"
                      class="cls-3"></path>
                <path d="M178.75,821.13v96.31a5.64,5.64,0,0,1-11.27,0V829.55l-26,38a5.62,5.62,0,1,1-9.27-6.35l30.76-45a8.66,8.66,0,0,1,15.81,4.88Z"
                      class="cls-3"></path>
                <path d="M22.54,1108.92v32.3c-.57.22-1.17.41-1.73.6a14.6,14.6,0,0,1-4.81.79,15,15,0,0,1-14.23-10.22,15.38,15.38,0,0,1-.79-4.81,15,15,0,0,1,10.21-14.23C15.1,1112,18.89,1110.57,22.54,1108.92Z"></path>
            </g>
            <polygon points="647.34 854.79 620.03 931.29 629.89 956.65 510.77 978.73 559.39 909.9 647.34 854.79"
                     class="cls-7"></polygon>
        </g>
    </g>
</svg>