<svg viewBox="0 0 1199.98 1199.98" xmlns="http://www.w3.org/2000/svg">
    <defs>
        <style>
            .cls-1{fill:#ffe000;}.cls-2{fill:#3aba6e;}.cls-3{fill:#422b1b;}.cls-4{fill:#ffe2d2;}.cls-5{fill:#937f76;}.cls-6{fill:#7a543b;}.cls-7{fill:#1e140d;}.cls-8{fill:#fff;}.cls-9{fill:#ff704a;}.cls-10{fill:#efcbbd;}.cls-11{opacity:0.1;}
        </style>
    </defs>
    <title>1 (3)</title>
    <g id="图层_2">
        <g id="_1">
            <g id="_编组_">
                <path d="M1200,0V1200H0V0Zm-22.53,1177.45V22.54H22.54V1177.45H1177.45Z"></path>
                <path d="M1177.45,22.54V1177.45h-19c-16.57-29-32.68-59.16-31.36-92.4,1.5-37.07-8-62.62-41.85-80.64-37.11-19.84-75.34-37.15-112-57.85q-57.91-32.73-113-70.2c-16.87-11.49-36.47-22.68-47.82-40.19-7.51-11.6-12.2-24.94-25.16-31.89-13.26-7.06-28.17-4-41,2.29l0,0-2.93-182.28a23.89,23.89,0,0,1,9.43-19.42l12.77-9.73a48.88,48.88,0,0,0,19.19-38.72v-45a48.66,48.66,0,0,0-25.39-42.78L735,455.5a17.41,17.41,0,0,1-9.09-15.25V426.42a146.12,146.12,0,0,0,27.84-39.28c34.14-8.27,58.37-37.86,52.92-75.12-5.82-39.89-39.14-64.12-76.25-64.23,3.83-34.3-5.41-70.39-37.26-89.13-26.89-15.82-60.7-16.16-90.11-6.88-25.91-56.3-89-84.77-146.82-58.44-25.09-29-65.09-44.21-103.25-33.73-26,7.1-46.69,26.22-57.7,50.14-25.58-16.37-58.37-19-85.18-1.65-26.56,17.2-37.94,48.9-32.61,78.8-21.07,5.6-38.83,21.71-44.24,43.8-5.52,22.42,4.05,46.05,21.37,60.32-20.25,27.91-31.14,61.71-28.85,96.68,2.26,34.37,24.6,55.29,54.16,53.75-7.88,54,29,103.89,86.13,111.93a107.21,107.21,0,0,0,24.9.64c12.47,36.32,24.23,73,37.71,109,11.46,30.54,29.87,52.66,55.67,72.11,30.87,23.33,63.81,43.69,96.49,64.38,14,8.87,29.11,22.43,45.07,27.54,10.82,3.45,22.2,1.46,33.21-1.36,4.13,13.26,8.22,26.52,12.36,39.74-4.59.64-9.17,1.24-13.71,1.88-14.31,2-30.54,3.57-33.73,20.58-1.81,9.43,1.24,19.84,2.51,29.23,1.81,13.52,3.57,27,5.37,40.56a16.11,16.11,0,0,0,1.24,4.36c-7,27.45-40.75,45.86-61.56,61.22-29,21.41-58,42.71-86.95,64.19-20.06,15-41.65,31.37-50.11,56a76.27,76.27,0,0,0-3.19,34H22.54V22.54ZM1074,556.87c4.13-4.92,23.85-30.23,7.44-48.26-12-13.22-35.72-12.85-60.81-12.47-.38,0-.75,0-1.13,0l-19.38-64.56a102.18,102.18,0,0,1,31.78-.11,5.64,5.64,0,0,0,1.69-11.16,111.21,111.21,0,0,0-36.74.49l-10.78-35.95a5.63,5.63,0,0,0-10.78,3.27L986,423.49c-12.5,3.8-23.17,10-30.42,18.15-12.62,14.23-17.39,37.48-1.43,52.51,13.11,12.32,34.86,13.56,57.09,13.37l18.9,63a121.57,121.57,0,0,1-43.61,3.94,5.63,5.63,0,0,0-.9,11.23c3.9.34,7.81.49,11.68.49a129.94,129.94,0,0,0,36.06-5L1048.61,632a5.62,5.62,0,0,0,5.38,4,6.25,6.25,0,0,0,1.65-.23,5.63,5.63,0,0,0,3.75-7L1044,577.53C1056.35,572.54,1066.76,565.51,1074,556.87ZM260,1021.08c14.35-5.44,28.21-16.79,24.19-32.19-3.76-14.27-21-23.25-39.25-32.75a.14.14,0,0,0-.11,0l10.33-50a83,83,0,0,1,20.88,11.5,5.64,5.64,0,0,0,6.72-9.06,96,96,0,0,0-25.31-13.63l5.74-27.83a5.63,5.63,0,0,0-11-2.26l-5.6,27.08c-10.25-2-20.13-1.72-28.47,1.21-15,5.22-27.57,20.17-21.52,37.56,4.77,13.74,19.68,23,35.53,31.47L222,1011.05a102.66,102.66,0,0,1-30.8-13.63,5.63,5.63,0,0,0-6.12,9.46,114.61,114.61,0,0,0,34.63,15.25l-8.19,39.74a5.65,5.65,0,0,0,4.4,6.65,3.92,3.92,0,0,0,1.12.15,5.62,5.62,0,0,0,5.52-4.51l8.27-40a75.13,75.13,0,0,0,8.52.48A58.08,58.08,0,0,0,260,1021.08Z"
                      class="cls-1"></path>
                <path d="M1158.48,1177.45H1125.8c-9.84-17.84-18.82-36.17-23.92-54.92-4.85-17.61-2.11-34.81-2.41-52.73-.41-22.09-12.36-32.75-30.91-42.41-69.94-36.32-139.2-71.4-205.08-115-28-18.48-60.51-36.54-77.83-66.25-5.71-9.81-8.6-19.2-22.76-16-7.51,1.72-14.95,8.07-21.45,12.47l-.48-.76a13,13,0,0,0,5.67-11l-.38-24.19,0,0c12.81-6.27,27.72-9.35,41-2.29,13,7,17.65,20.29,25.16,31.89,11.35,17.51,31,28.7,47.82,40.19q55,37.41,113,70.2c36.7,20.7,74.93,38,112,57.85,33.81,18,43.35,43.57,41.85,80.64C1125.8,1118.29,1141.91,1148.45,1158.48,1177.45Z"></path>
                <path d="M1125.8,1177.45H997.16c2.78-15.78,8.75-30.5,19.68-43.2,7.85-9.12-5.37-22.46-13.26-13.29-14.5,16.82-21.79,36.13-24.75,56.49H948.55c-3.3-6-6.76-11.87-10.33-17.73-3.11-5.18-11.23-.45-8.11,4.73,2.59,4.32,5.15,8.64,7.66,13H359.9a53.18,53.18,0,0,1-1-8.45c-1.39-35.12,38.88-56.38,63.18-74.34,31.18-23,62.73-45.56,93.49-69.15,23.81-18.21,44-38.83,47-69.93.45-4.74-1.17-8.23-3.83-10.48-1.58-15.06-2.82-30.46-6.2-44.89-.68-2.89-1.69-3.3-2.14-3.3.11-.08.3-.19.53-.38,2.51-1.84,8-1.16,11.23-1.61,9.46-1.32,18.93-2.59,28.39-4l1.84-.27c34.82-5.14,69.79-11.49,102.69-24.41a251.5,251.5,0,0,0,45.07-22.73l1.39-.93c6.5-4.4,13.94-10.75,21.45-12.47,14.16-3.2,17.05,6.19,22.76,16,17.32,29.71,49.88,47.77,77.83,66.25,65.88,43.61,135.14,78.69,205.08,115,18.55,9.66,30.5,20.32,30.91,42.41.3,17.92-2.44,35.12,2.41,52.73C1107,1141.28,1116,1159.61,1125.8,1177.45Zm-276.14-61.71a9.4,9.4,0,0,0-8.08-17l-18.07,8.6-26.63-84.1-34.74,40.27a9.39,9.39,0,1,0,14.2,12.28l12.81-14.8,17.24,54.5-17.39,8.3a9.39,9.39,0,0,0,4,17.88,9.23,9.23,0,0,0,4.05-.94l25.43-12.09Zm-52.7-214c10-6.65.64-22.91-9.47-16.19C729.61,924,668.43,963.69,596.16,961.29c-12.09-.42-12.09,18.36,0,18.78C671.77,982.55,736.3,942.09,797,901.79Zm-66-1c4.55,7.85,16.72.75,12.17-7.1q-8.67-14.94-17.31-29.83c-4.55-7.85-16.72-.78-12.13,7.1C719.47,880.91,725.22,890.82,731,900.78Zm-63.7,30c2.22,8.79,15.81,5.07,13.56-3.76a73.49,73.49,0,0,0-25.62-39.81c-7.06-5.56-17.09,4.35-10,9.95A61.54,61.54,0,0,1,667.3,930.79Zm-69.94,11.42c1.69,8.86,15.29,5.1,13.56-3.76a97.8,97.8,0,0,0-16.67-38.76c-5.23-7.29-17.43-.27-12.14,7.13A88.33,88.33,0,0,1,597.36,942.21Z"
                      class="cls-2"></path>
                <path d="M1081.48,508.61c16.41,18-3.31,43.34-7.44,48.26-7.28,8.64-17.69,15.67-30,20.66l-3.23-10.74c10.18-4.25,18.71-10.07,24.68-17.17,1.88-2.25,18-22.12,7.7-33.43-8.34-9.2-29.37-9.12-50.22-8.82l-3.38-11.2c.38,0,.75,0,1.13,0C1045.76,495.76,1069.46,495.39,1081.48,508.61Z"></path>
                <path d="M1073.14,516.19c10.29,11.31-5.82,31.18-7.7,33.43-6,7.1-14.5,12.92-24.68,17.17l-17.84-59.42C1043.77,507.07,1064.8,507,1073.14,516.19Z"
                      class="cls-2"></path>
                <path d="M1059.39,628.8a5.63,5.63,0,0,1-3.75,7,6.25,6.25,0,0,1-1.65.23,5.62,5.62,0,0,1-5.38-4l-15.28-50.86a94.73,94.73,0,0,0,10.66-3.64Z"></path>
                <path d="M1040.76,566.79l3.23,10.74a94.73,94.73,0,0,1-10.66,3.64l-3.23-10.7A83.54,83.54,0,0,0,1040.76,566.79Z"></path>
                <path d="M1022.92,507.37l17.84,59.42a83.54,83.54,0,0,1-10.66,3.68l-18.9-63c3.23,0,6.46-.08,9.66-.11C1021.53,507.41,1022.25,507.37,1022.92,507.37Z"></path>
                <path d="M1033.63,420.34a5.64,5.64,0,0,1-1.69,11.16,102.18,102.18,0,0,0-31.78.11l-3.27-10.78A111.21,111.21,0,0,1,1033.63,420.34Z"></path>
                <path d="M1030.1,570.47l3.23,10.7a129.94,129.94,0,0,1-36.06,5c-3.87,0-7.78-.15-11.68-.49a5.63,5.63,0,0,1,.9-11.23A121.57,121.57,0,0,0,1030.1,570.47Z"></path>
                <path d="M1019.54,496.17l3.38,11.2c-.67,0-1.39,0-2.06,0-3.2,0-6.43.11-9.66.11l-3.38-11.23C1011.69,496.29,1015.64,496.21,1019.54,496.17Z"></path>
                <path d="M1000.16,431.61l19.38,64.56c-3.9,0-7.85.12-11.72.12l-18.66-62.13A76.79,76.79,0,0,1,1000.16,431.61Z"></path>
                <path d="M1003.58,1121c7.89-9.17,21.11,4.17,13.26,13.29-10.93,12.7-16.9,27.42-19.68,43.2H978.83C981.79,1157.09,989.08,1137.78,1003.58,1121Z"></path>
                <path d="M1007.82,496.29l3.38,11.23c-22.23.19-44-1-57.09-13.37-16-15-11.19-38.28,1.43-52.51,7.25-8.15,17.92-14.35,30.42-18.15l3.2,10.67c-10.45,3.19-19.27,8.3-25.17,14.95-9.13,10.29-13,26.67-2.14,36.85C971.32,494.86,989,496.29,1007.82,496.29Z"></path>
                <path d="M989.16,434.16l18.66,62.13c-18.81,0-36.5-1.43-46-10.33-10.82-10.18-7-26.56,2.14-36.85C969.89,442.46,978.71,437.35,989.16,434.16Z"
                      class="cls-2"></path>
                <path d="M996.89,420.83l3.27,10.78a76.79,76.79,0,0,0-11,2.55L986,423.49A92.28,92.28,0,0,1,996.89,420.83Z"></path>
                <path d="M986.11,384.88l10.78,35.95A92.28,92.28,0,0,0,986,423.49l-10.63-35.34a5.63,5.63,0,0,1,10.78-3.27Z"></path>
                <path d="M948.55,1177.45H937.77c-2.51-4.36-5.07-8.68-7.66-13-3.12-5.18,5-9.91,8.11-4.73C941.79,1165.58,945.25,1171.48,948.55,1177.45Z"></path>
                <path d="M854.09,1103.19a9.47,9.47,0,0,1-4.43,12.55l-27.16,12.92-1.43-3.05a9.3,9.3,0,0,0,4.7-11.19l-2.26-7.06,18.07-8.6A9.42,9.42,0,0,1,854.09,1103.19Z"></path>
                <path d="M825.77,1114.42a9.3,9.3,0,0,1-4.7,11.19,6.5,6.5,0,0,1-1.42.6,9.19,9.19,0,0,1-2.86.46,9.4,9.4,0,0,1-8.94-6.58l-1.46-4.58,17.12-8.15Z"></path>
                <path d="M796.88,1023.26l26.63,84.1-17.12,8.15L789.15,1061l-12.81,14.8a9.39,9.39,0,1,1-14.2-12.28Z"></path>
                <path d="M821.07,1125.61l1.43,3.05-25.43,12.09a9.23,9.23,0,0,1-4.05.94,9.39,9.39,0,0,1-4-17.88l17.39-8.3,1.46,4.58a9.4,9.4,0,0,0,8.94,6.58,9.19,9.19,0,0,0,2.86-.46A6.5,6.5,0,0,0,821.07,1125.61Z"></path>
                <path d="M806.65,312c5.45,37.26-18.78,66.85-52.92,75.12q1.18-2.37,2.25-4.85a11.17,11.17,0,0,0,1.62-3.76,14.4,14.4,0,0,0-9.85-17.35c-.71-.22-1.42-.45-2.14-.71a39.45,39.45,0,0,0,33-46.46c-4.62-25.85-27.42-39.52-51.38-38.09l-.49-8.3a139.65,139.65,0,0,0,3.64-19.83C767.51,247.9,800.83,272.13,806.65,312Z"></path>
                <path d="M787.49,885.6c10.11-6.72,19.5,9.54,9.47,16.19-60.66,40.3-125.19,80.76-200.8,78.28-12.09-.42-12.09-19.2,0-18.78C668.43,963.69,729.61,924,787.49,885.6Z"></path>
                <path d="M784.71,511.5v45a48.88,48.88,0,0,1-19.19,38.72l-12.77,9.73a23.89,23.89,0,0,0-9.43,19.42l2.93,182.28a17.3,17.3,0,0,0-1.58.75c-8.48,4.36-16.45,9.32-24.45,14.28L717,624.78A50.52,50.52,0,0,1,736.82,584l12.78-9.69a22.49,22.49,0,0,0,8.82-17.8v-45a22.38,22.38,0,0,0-11.68-19.68L722.4,478.6a43.58,43.58,0,0,1-22.31-32,130.54,130.54,0,0,0,25.8-20.21v13.83A17.41,17.41,0,0,0,735,455.5l24.34,13.22A48.66,48.66,0,0,1,784.71,511.5Z"></path>
                <path d="M778.63,314a39.45,39.45,0,0,1-33,46.46h-.07a.12.12,0,0,0-.08,0,9.08,9.08,0,0,0-.94-.49A26.7,26.7,0,0,1,738.7,356c-.94-.87-1.76-1.8-2.63-2.74-.22-.27-.41-.45-.52-.57.07.08.15.08-.08-.26-1-1.58-1.91-3.12-2.74-4.81-3.38-6.8-13-8.67-19.27-5-7,4.06-8.45,12.43-5.07,19.27a50.52,50.52,0,0,0,17.17,19.42,108.09,108.09,0,0,1-22.2,28.28c-21,19.08-49.28,29.37-78.54,23.48-24.11-4.85-46.61-21-60.47-41.36a61.75,61.75,0,0,1-1.43-21.07c.83-7.59-7.06-14.09-14.09-14.09-8.3,0-13.25,6.5-14.08,14.09A70.55,70.55,0,0,0,536,393.18c-32.15,45.75-92.78,63.56-144.31,42.11.11-4.4.19-8.75.23-13.15.18-18.14-28-18.14-28.17,0-.08,7.78-.27,15.59-.49,23.37-3.12,38.31-29.3,71.17-65.13,79.1a78.13,78.13,0,0,1-28.32,1c-49.51-7.13-74.37-53.44-56.76-99.46,0-.07,0-.11.08-.18a33.32,33.32,0,0,1,3.49-5.15,50.27,50.27,0,0,1,5.18-5,2.46,2.46,0,0,0,.31-.27v0a2.92,2.92,0,0,0,.6-.34c.9-.6,1.8-1.24,2.74-1.8a14.36,14.36,0,0,0,5.07-19.27c-3.79-6.5-12.77-9-19.27-5a64.16,64.16,0,0,0-21.9,22.17c-10.18,3.38-22.05,4.95-29.56-3.76-7.74-9-6.46-25.73-5.71-36.62a120.15,120.15,0,0,1,26.26-67.31,80.19,80.19,0,0,0,20,2.55c18.1.08,18.14-28.09,0-28.17a54.25,54.25,0,0,1-19.46-3.42c-32.19-16-23.51-62.46,14.54-61.56,8.41.19,16.94-9.27,13.59-17.84a59.22,59.22,0,0,1-3.11-10.63c-8.79-45.63,42.44-80.75,81.28-45.71-.27,16.26,24.94,22.65,27.3,5.45,3.31-24,16.83-46.88,40.42-55.67,31.17-11.64,67.27,3,85.22,29.86,4.25,6.31,12.4,9.09,19.27,5,46.35-27.16,98.82-5.07,118.77,41.58a80.75,80.75,0,0,0-16.41,18.81c-4.1,6.43-1.36,15.55,5,19.27a14.31,14.31,0,0,0,19.27-5A50.13,50.13,0,0,1,606,180.18c21.11-8.34,47.1-9.35,67.87.15,27.46,12.58,32.38,42.93,27.87,69.86-.56,3.38-1.27,6.72-2.14,9.95A14.25,14.25,0,0,0,717,277.46a57,57,0,0,1,10.29-1.54C751.21,274.49,774,288.16,778.63,314ZM591.09,260.26c6-.49,6-9.92,0-9.39a42.43,42.43,0,0,0-18.25,5.63,4.71,4.71,0,0,0-.87-1.65c-20.17-25.73-48.11-44.4-82-38.35-5.93,1.05-3.41,10.1,2.48,9.05,30.54-5.45,55,13.22,72.83,35.91a4.26,4.26,0,0,0,.34.37c-13.9,12.89-19.08,34.86-20.09,54.5-.3,6.05,9.09,6.05,9.39,0C556.16,293.42,563.18,262.66,591.09,260.26ZM363.17,342.21c2.37,5.53,10.44.76,8.12-4.77-15.14-35.75-64.57-56.94-98-33.5-4.92,3.46-.22,11.61,4.74,8.11C307.58,291.32,350,311,363.17,342.21ZM346.83,176.42c6,.53,6-8.86,0-9.39-39.25-3.34-71.4,24.83-74.67,63.78-.48,6,8.91,6,9.39,0C284.41,196.74,313.07,173.57,346.83,176.42Z"
                      class="cls-3"></path>
                <path d="M758.42,511.5v45a22.49,22.49,0,0,1-8.82,17.8L736.82,584A50.52,50.52,0,0,0,717,624.78l3.19,196.86c-10.44,6.46-21,12.8-32.71,17.46-28.17,11.2-57.88,17.43-87.82,22.2h0q-8.79-28.17-17.54-56.38a15.47,15.47,0,0,0-2-4.13l54.88-21a5.63,5.63,0,1,0-4-10.52l-70.24,26.93c-5.6,1.58-11.49,3.46-17.09,3.91-11,.94-14.35-2.71-22.61-8.15-14.35-9.43-28.92-18.56-43.46-27.76-26.89-17-53.75-34.11-79.06-53.37-23.67-18-37.38-39.82-47.07-67.73q-16.44-47.6-32.9-95.32c35.19-13.41,61.3-45.3,70.05-83.76a149.57,149.57,0,0,0,162.19-44.14c20.66,23.36,49.58,39.63,80.72,42.48a113.36,113.36,0,0,0,68.58-15.7,43.58,43.58,0,0,0,22.31,32l24.34,13.22A22.38,22.38,0,0,1,758.42,511.5ZM610.47,499.37a5.61,5.61,0,0,0-1.43-7.82c-56.49-38.91-115.16-.45-115.72,0a5.62,5.62,0,0,0,3.12,10.29,5.68,5.68,0,0,0,3.15-.94c.53-.38,52.81-34.63,103.07,0A5.58,5.58,0,0,0,610.47,499.37Zm-1.84,31.74A17.87,17.87,0,0,0,603.56,517a22.74,22.74,0,0,0-17.92-6.42c-33.12,1.88-75.42,29.07-77.22,30.24a5.63,5.63,0,0,0,6.12,9.46c.23-.11,9.47-6.08,22.39-12.51-7.78,10.75-8.6,22.54-2.26,30.32a25.91,25.91,0,0,0,23.74,8.67,20.13,20.13,0,0,0,2.78-.64l2.48,8.45-31.4,9.17a5.63,5.63,0,0,0,1.58,11,5.79,5.79,0,0,0,1.58-.22l42.63-12.44c8.45-2.44,15.55-7.77,19.45-14.61,8.38-14.57,9.81-31.36,11-44.84Zm-13.93,73.8a5.63,5.63,0,0,0-8-7.89,42.51,42.51,0,0,1-36.32,12.36,5.65,5.65,0,0,0-1.54,11.19,58.12,58.12,0,0,0,7.4.49,53.83,53.83,0,0,0,38.5-16.15Zm-1.54,71.18a77.94,77.94,0,0,0,1.05-15.93l-.49-13.37-9.2,9.69c-12.89,13.49-26.26,21.37-39.82,23.37a64.43,64.43,0,0,1-8.34.56c-2.93.07-6.27.15-11,.64a134.78,134.78,0,0,0-41.24,11,5.63,5.63,0,1,0,4.58,10.29,124.52,124.52,0,0,1,37.78-10c4.29-.45,7.4-.53,10.11-.6a77.7,77.7,0,0,0,9.69-.68c12.28-1.8,24.22-7.47,35.72-16.83-1.17,7-3.65,21.49-15.21,31.74-7.78,6.91-16.19,8.9-22.92,10.48a66.86,66.86,0,0,1-27.72.6,5.63,5.63,0,1,0-2,11.08,79.29,79.29,0,0,0,14.49,1.36,77.51,77.51,0,0,0,17.85-2.07c7.09-1.69,17.87-4.21,27.79-13C588.84,701.44,591.88,683.68,593.16,676.09Zm-133.27-67.2c3.72-23.36-.94-42.63-13.56-50.21a24.3,24.3,0,0,0-10.48-3.35,6.52,6.52,0,0,0-2.55-.34c-.64.08-1.24.12-1.84.23h-.3a41.94,41.94,0,0,0-7.74,1.13.74.74,0,0,0-.26,0c-36.06,6.24-53.19,24.91-53.94,25.77a5.61,5.61,0,0,0,.41,7.93,5.54,5.54,0,0,0,3.76,1.46,5.65,5.65,0,0,0,4.17-1.84c.11-.11,5.41-5.82,16.26-11.64a5.78,5.78,0,0,0-.41,1.09S385,604.27,410.57,614c5,1.92,9.47,1.92,13.23.53l2.1,4.13c-10.63,5.45-21,9.65-28.06,10.37-3,.3-6.35.45-9.24-1.5-3.75-2.52-4.54-7.4-4.54-7.63a5.67,5.67,0,0,0-6.28-4.84,5.61,5.61,0,0,0-4.92,6.27c.12,1,1.43,10.14,9.47,15.55a22.22,22.22,0,0,0,12.62,3.6c1.65,0,3-.15,4-.22,13.56-1.35,33.43-11.79,46.72-19.65A126.83,126.83,0,0,1,441,633.83a5.62,5.62,0,0,0,3,7.37,5.42,5.42,0,0,0,2.14.41,5.61,5.61,0,0,0,5.22-3.46,131.6,131.6,0,0,0,8.27-27.9A9.17,9.17,0,0,0,459.89,608.89Zm-24.56,39.25a5.61,5.61,0,0,0,.75-7.92,5.68,5.68,0,0,0-7.93-.75c-9.95,8.26-27.23,9.91-27.42,9.95a5.63,5.63,0,0,0,.49,11.23h.53C402.57,660.54,422.63,658.66,435.33,648.14ZM405,523.48a5.64,5.64,0,0,0-1.43-11.19c-45.34,5.71-64.23,46.87-65,48.64a5.63,5.63,0,0,0,2.82,7.44,5.71,5.71,0,0,0,2.29.48,5.56,5.56,0,0,0,5.14-3.34C349,565.14,365.84,528.36,405,523.48Z"
                      class="cls-4"></path>
                <path d="M745.58,360.47h0c.72.26,1.43.49,2.14.71a14.4,14.4,0,0,1,9.85,17.35c-4.51,3.42-9.06,6.88-13.56,10.33,1.12-.11,2.21-.3,3.34-.45a12.7,12.7,0,0,1-7.1,0,56.23,56.23,0,0,1-14.72-7.1A113.41,113.41,0,0,0,730.44,371c2.63-6.38,6.65-9.5,13.6-10.33.48-.07,1-.11,1.46-.22h.08Z"></path>
                <path d="M757.6,378.53c-.53,1.28-1.06,2.52-1.62,3.76a14.69,14.69,0,0,1-8.53,6.12h-.07c-1.13.15-2.22.34-3.34.45C748.54,385.41,753.09,382,757.6,378.53Z"></path>
                <path d="M756,382.29c.56-1.24,1.09-2.48,1.62-3.76A11.17,11.17,0,0,1,756,382.29Z"></path>
                <path d="M756,382.29q-1.07,2.47-2.25,4.85c-2.07.48-4.17.94-6.28,1.27A14.69,14.69,0,0,0,756,382.29Z"></path>
                <path d="M747.45,388.41c2.11-.33,4.21-.79,6.28-1.27a146.12,146.12,0,0,1-27.84,39.28v-3.75a13.13,13.13,0,0,0-13.14-13.15,12.83,12.83,0,0,0-7.33,2.26l-2.06-2.22a108.09,108.09,0,0,0,22.2-28.28,56.23,56.23,0,0,0,14.72,7.1,12.7,12.7,0,0,0,7.1,0Z"></path>
                <path d="M746.63,830.8a13,13,0,0,1-5.67,11,13.33,13.33,0,0,1-7.25,2.3h-.23a13.14,13.14,0,0,1-13.11-12.93l-.15-9.57c8-5,16-9.92,24.45-14.28a17.3,17.3,0,0,1,1.58-.75Z"></path>
                <path d="M745.46,360.43a.12.12,0,0,1,.08,0h0Z"></path>
                <path d="M735.55,352.69c.11.12.3.3.52.57.87.94,1.69,1.87,2.63,2.74a26.7,26.7,0,0,0,5.82,3.94,9.08,9.08,0,0,1,.94.49l0,0c-.49.11-1,.15-1.46.22-6.95.83-11,3.95-13.6,10.33a113.41,113.41,0,0,1-4.88,10.26,50.52,50.52,0,0,1-17.17-19.42c-3.38-6.84-1.91-15.21,5.07-19.27,6.24-3.64,15.89-1.77,19.27,5,.83,1.69,1.77,3.23,2.74,4.81C735.7,352.77,735.62,352.77,735.55,352.69Z"></path>
                <path d="M743.17,893.68c4.55,7.85-7.62,15-12.17,7.1-5.78-10-11.53-19.87-17.27-29.83-4.59-7.88,7.58-15,12.13-7.1Q734.53,878.73,743.17,893.68Z"></path>
                <path d="M741,841.84l.48.76-1.39.93A251.5,251.5,0,0,1,695,866.26c-32.9,12.92-67.87,19.27-102.69,24.41l-.07-.41c7.51-1.28,14.08-7.74,11.15-17.09-1.24-3.94-2.48-7.93-3.68-11.87,29.94-4.77,59.65-11,87.82-22.2,11.75-4.66,22.27-11,32.71-17.46l.15,9.57a13.14,13.14,0,0,0,13.11,12.93h.23A13.33,13.33,0,0,0,741,841.84Z"></path>
                <path d="M693.14,158.66c31.85,18.74,41.09,54.83,37.26,89.13a89.58,89.58,0,0,0-21,2.51l-7.7-.11c4.51-26.93-.41-57.28-27.87-69.86-20.77-9.5-46.76-8.49-67.87-.15.23-.11.45-.27.72-.38,6.79-3.42,8.71-13,5.07-19.27a13.25,13.25,0,0,0-7.59-6.08c-.38-.9-.75-1.8-1.17-2.67C632.44,142.5,666.25,142.84,693.14,158.66Z"></path>
                <path d="M709.44,250.3a89.58,89.58,0,0,1,21-2.51,139.65,139.65,0,0,1-3.64,19.83Z"></path>
                <path d="M726.76,267.62l.49,8.3A57,57,0,0,0,717,277.46a14.25,14.25,0,0,1-17.36-17.32c.87-3.23,1.58-6.57,2.14-9.95l7.7.11Z"></path>
                <path d="M725.89,422.67v3.75a130.54,130.54,0,0,1-25.8,20.21,40,40,0,0,1-.49-6.38V422.67a13,13,0,0,1,5.82-10.89,12.83,12.83,0,0,1,7.33-2.26A13.13,13.13,0,0,1,725.89,422.67Z"></path>
                <path d="M703.36,409.56l2.06,2.22a13,13,0,0,0-5.82,10.89v17.58a40,40,0,0,0,.49,6.38,113.36,113.36,0,0,1-68.58,15.7c-31.14-2.85-60.06-19.12-80.72-42.48.56-.67,1.16-1.35,1.73-2.06a14.52,14.52,0,0,0,8.52-1.73c7.18-4.21,8.11-12.28,5-19.27a36.4,36.4,0,0,1-1.72-5.11C578.21,412,600.71,428.19,624.82,433,654.08,438.93,682.36,428.64,703.36,409.56Z"></path>
                <path d="M680.86,927c2.25,8.83-11.34,12.55-13.56,3.76a61.54,61.54,0,0,0-22-33.62c-7.14-5.6,2.89-15.51,10-9.95A73.49,73.49,0,0,1,680.86,927Z"></path>
                <path d="M638.27,772.47a5.67,5.67,0,0,1-3.27,7.29l-54.88,21a14.34,14.34,0,0,0-15.32-5.71c-1.32.34-2.67.71-4.06,1.09L631,769.24A5.65,5.65,0,0,1,638.27,772.47Z"></path>
                <path d="M611.79,160.53c3.64,6.28,1.72,15.85-5.07,19.27-.27.11-.49.27-.72.38-1.35.52-2.67,1-3.94,1.65-8.45,3.83-17.66.94-20.7-8.41a86.69,86.69,0,0,0-3.19-8.45,71.35,71.35,0,0,1,10.18-7.25c6.72,2.74,13.44,5.48,20.21,8.22-1.28-3.94-2.75-7.77-4.36-11.49A13.25,13.25,0,0,1,611.79,160.53Z"></path>
                <path d="M610.92,938.45c1.73,8.86-11.87,12.62-13.56,3.76a88.33,88.33,0,0,0-15.25-35.39c-5.29-7.4,6.91-14.42,12.14-7.13A97.8,97.8,0,0,1,610.92,938.45Z"></path>
                <path d="M609,491.55a5.63,5.63,0,0,1-6.38,9.28c-50.26-34.59-102.54-.34-103.07,0a5.68,5.68,0,0,1-3.15.94,5.62,5.62,0,0,1-3.12-10.29C493.88,491.1,552.55,452.64,609,491.55Z"></path>
                <path d="M603.56,517a17.87,17.87,0,0,1,5.07,14.13l-.15,1.54c-1.16,13.48-2.59,30.27-11,44.84-3.9,6.84-11,12.17-19.45,14.61l-42.63,12.44a5.79,5.79,0,0,1-1.58.22,5.63,5.63,0,0,1-1.58-11l31.4-9.17,11.23-3.26c5.6-1.62,10.41-5.15,12.85-9.39,7.13-12.44,8.41-27.2,9.54-40.23l.11-1.54a6.63,6.63,0,0,0-1.92-5.3,11.77,11.77,0,0,0-9.16-3,74.83,74.83,0,0,0-9.65,1.28,35.93,35.93,0,0,0-2.82-3L542.3,531.59a44.41,44.41,0,0,0-5.37,6.16c-12.92,6.43-22.16,12.4-22.39,12.51a5.63,5.63,0,0,1-6.12-9.46c1.8-1.17,44.1-28.36,77.22-30.24A22.74,22.74,0,0,1,603.56,517Z"></path>
                <path d="M608.56,165.94c-6.77-2.74-13.49-5.48-20.21-8.22,1.16-.68,2.36-1.32,3.57-2s2.74-1.09,4.13-1.61h0a14.77,14.77,0,0,1,8.11.3C605.81,158.17,607.28,162,608.56,165.94Z"></path>
                <path d="M602.06,181.83c1.27-.6,2.59-1.13,3.94-1.65A50.13,50.13,0,0,0,586.06,198a14.31,14.31,0,0,1-19.27,5c-6.39-3.72-9.13-12.84-5-19.27A80.75,80.75,0,0,1,578.17,165a86.69,86.69,0,0,1,3.19,8.45C584.4,182.77,593.61,185.66,602.06,181.83Z"></path>
                <path d="M603.37,873.17c2.93,9.35-3.64,15.81-11.15,17.09-6.43,1.09-13.56-1.65-16-9.62l-4.73-15.21c9.39-1.31,18.78-2.63,28.2-4.13h0C600.89,865.24,602.13,869.23,603.37,873.17Z"></path>
                <path d="M603,151.78c.42.87.79,1.77,1.17,2.67a14.77,14.77,0,0,0-8.11-.3C598.38,153.28,600.67,152.5,603,151.78Z"></path>
                <path d="M582.11,804.92q8.73,28.23,17.54,56.38c-9.42,1.5-18.81,2.82-28.2,4.13-4.14-13.22-8.23-26.48-12.36-39.74,4.47-1.12,8.9-2.4,13.18-3.45C566.49,819,560.7,815.7,555,812.4l3.68-5.94a5.61,5.61,0,0,0,3.19,1,6.1,6.1,0,0,0,2-.38l16.3-6.27A15.47,15.47,0,0,1,582.11,804.92Z"></path>
                <path d="M595.48,524.83a6.63,6.63,0,0,1,1.92,5.3l-.11,1.54c-1.13,13-2.41,27.79-9.54,40.23-2.44,4.24-7.25,7.77-12.85,9.39l-11.23,3.26-2.48-8.45c13.6-4.05,21.22-19.27,22.69-29.37,1.61-11-3.53-19.23-7.21-23.66a74.83,74.83,0,0,1,9.65-1.28A11.77,11.77,0,0,1,595.48,524.83Z"
                      class="cls-4"></path>
                <path d="M603,151.78c-2.36.72-4.65,1.5-6.94,2.37h0a15.35,15.35,0,0,0-3.53,1.31c-.19.12-.42.19-.6.3-1.36.57-2.71,1.17-4.06,1.77.15.07.34.11.49.19A71.35,71.35,0,0,0,578.17,165c-19.95-46.65-72.42-68.74-118.77-41.58-6.87,4-15,1.27-19.27-5-17.95-26.85-54.05-41.5-85.22-29.86-23.59,8.79-37.11,31.7-40.42,55.67-2.36,17.2-27.57,10.81-27.3-5.45l.07.08c13.41,12.13,33.39-7.74,19.91-19.95a92.17,92.17,0,0,0-11.91-9.09c11-23.92,31.67-43,57.7-50.14,38.16-10.48,78.16,4.77,103.25,33.73a114.32,114.32,0,0,0-11,5.71l19.27,5.07a103.31,103.31,0,0,0-8.26-10.78C514.05,67,577.12,95.48,603,151.78Z"></path>
                <path d="M594.62,597a5.63,5.63,0,0,1,.08,8,53.83,53.83,0,0,1-38.5,16.15,58.12,58.12,0,0,1-7.4-.49,5.65,5.65,0,0,1,1.54-11.19A42.51,42.51,0,0,0,586.66,597,5.63,5.63,0,0,1,594.62,597Z"
                      class="cls-5"></path>
                <path d="M592.52,155.46a15.35,15.35,0,0,1,3.53-1.31c-1.39.52-2.78,1-4.13,1.61C592.1,155.65,592.33,155.58,592.52,155.46Z"></path>
                <path d="M582,674.17c-11.5,9.36-23.44,15-35.72,16.83a77.7,77.7,0,0,1-9.69.68c-2.71.07-5.82.15-10.11.6a124.52,124.52,0,0,0-37.78,10A5.63,5.63,0,1,1,484.16,692a134.78,134.78,0,0,1,41.24-11c4.69-.49,8-.57,11-.64a64.43,64.43,0,0,0,8.34-.56c13.56-2,26.93-9.88,39.82-23.37l9.2-9.69.49,13.37a77.94,77.94,0,0,1-1.05,15.93c-1.28,7.59-4.32,25.35-18.86,38.27-9.92,8.79-20.7,11.31-27.79,13a77.51,77.51,0,0,1-17.85,2.07,79.29,79.29,0,0,1-14.49-1.36,5.63,5.63,0,1,1,2-11.08,66.86,66.86,0,0,0,27.72-.6c6.73-1.58,15.14-3.57,22.92-10.48C578.39,695.66,580.87,681.16,582,674.17Z"></path>
                <path d="M591.09,250.87c6-.53,6,8.9,0,9.39-27.91,2.4-34.93,33.16-36.13,56.07-.3,6.05-9.69,6.05-9.39,0,1-19.64,6.19-41.61,20.09-54.5,3.34,3.57,8.49-1.05,7.18-5.33A42.43,42.43,0,0,1,591.09,250.87Z"
                      class="cls-6"></path>
                <path d="M592.22,890.26l.07.41-1.84.27c-9.46,1.39-18.93,2.66-28.39,4-3.23.45-8.72-.23-11.23,1.61-.23.19-.42.3-.53.38.45,0,1.46.41,2.14,3.3,3.38,14.43,4.62,29.83,6.2,44.89-7.44-6.27-23.06-2.71-24.34,10.48a40.84,40.84,0,0,1-1.17,6.46,16.11,16.11,0,0,1-1.24-4.36c-1.8-13.52-3.56-27-5.37-40.56-1.27-9.39-4.32-19.8-2.51-29.23,3.19-17,19.42-18.63,33.73-20.58,4.54-.64,9.12-1.24,13.71-1.88l4.73,15.21C578.66,888.61,585.79,891.35,592.22,890.26Z"></path>
                <path d="M587.86,157.53c1.35-.6,2.7-1.2,4.06-1.77-1.21.64-2.41,1.28-3.57,2C588.2,157.64,588,157.6,587.86,157.53Z"></path>
                <path d="M576.67,523.07c3.68,4.43,8.82,12.69,7.21,23.66-1.47,10.1-9.09,25.32-22.69,29.37a20.13,20.13,0,0,1-2.78.64,25.91,25.91,0,0,1-23.74-8.67c-6.34-7.78-5.52-19.57,2.26-30.32,4.28-2.14,8.94-4.35,13.82-6.38a11.74,11.74,0,0,0-2.18,9c.9,5.86,5.75,9.72,10.82,8.71s8.41-6.61,7.51-12.43c-.71-4.51-3.79-7.85-7.44-8.68A124.69,124.69,0,0,1,576.67,523.07Z"
                      class="cls-7"></path>
                <path d="M580.12,800.79l-16.3,6.27a6.1,6.1,0,0,1-2,.38,5.61,5.61,0,0,1-3.19-1,5.68,5.68,0,0,1-2.07-2.66,5.6,5.6,0,0,1,3.23-7.25l.94-.38c1.39-.38,2.74-.75,4.06-1.09A14.34,14.34,0,0,1,580.12,800.79Z"></path>
                <path d="M573.85,520.06a35.93,35.93,0,0,1,2.82,3A124.69,124.69,0,0,0,559.46,528a8.15,8.15,0,0,0-3.41,0,9,9,0,0,0-5.3,3.46c-4.88,2-9.54,4.24-13.82,6.38a44.41,44.41,0,0,1,5.37-6.16Z"></path>
                <path d="M572.84,256.5c1.31,4.28-3.84,8.9-7.18,5.33A39,39,0,0,1,572.84,256.5Z" class="cls-6"></path>
                <path d="M572,254.85a4.71,4.71,0,0,1,.87,1.65,39,39,0,0,0-7.18,5.33,4.26,4.26,0,0,1-.34-.37c-17.8-22.69-42.29-41.36-72.83-35.91-5.89,1-8.41-8-2.48-9.05C523.86,210.45,551.8,229.12,572,254.85Z"
                      class="cls-6"></path>
                <path d="M555,812.4c5.74,3.3,11.53,6.57,17.31,9.84-4.28,1-8.71,2.33-13.18,3.45C557.7,821.26,556.35,816.83,555,812.4Z"></path>
                <path d="M566.9,536.63c.9,5.82-2.44,11.38-7.51,12.43s-9.92-2.85-10.82-8.71a11.74,11.74,0,0,1,2.18-9c2.85-1.2,5.75-2.33,8.71-3.42C563.11,528.78,566.19,532.12,566.9,536.63Z"
                      class="cls-8"></path>
                <path d="M566.07,396.79c3.08,7,2.15,15.06-5,19.27a14.52,14.52,0,0,1-8.52,1.73,144.85,144.85,0,0,0,10.32-14.09H538.92A85.94,85.94,0,0,1,536,393.18c.86-1.2,1.69-2.44,2.52-3.68a14.27,14.27,0,0,1,24.33,0c.49.75,1,1.47,1.51,2.18A36.4,36.4,0,0,0,566.07,396.79Z"></path>
                <path d="M564.35,391.68c-.53-.71-1-1.43-1.51-2.18a14.27,14.27,0,0,0-24.33,0c-.83,1.24-1.66,2.48-2.52,3.68a70.55,70.55,0,0,1-1.24-22.57c.83-7.59,5.78-14.09,14.08-14.09,7,0,14.92,6.5,14.09,14.09A61.75,61.75,0,0,0,564.35,391.68Z"></path>
                <path d="M538.92,403.7h23.92a144.85,144.85,0,0,1-10.32,14.09,16.06,16.06,0,0,1-4.36-1,130.21,130.21,0,0,1-8.75-11.72C539.26,404.6,539.07,404.15,538.92,403.7Z"></path>
                <path d="M558.64,945.1c2.66,2.25,4.28,5.74,3.83,10.48-2.93,31.1-23.14,51.72-47,69.93-30.76,23.59-62.31,46.13-93.49,69.15-24.3,18-64.57,39.22-63.18,74.34a53.18,53.18,0,0,0,1,8.45H331.32a76.27,76.27,0,0,1,3.19-34c8.46-24.63,30.05-41,50.11-56,28.92-21.48,58-42.78,86.95-64.19,20.81-15.36,54.54-33.77,61.56-61.22,6,13.22,29.11,12,26.93-4.36C559.5,953.55,559.05,949.34,558.64,945.1Z"></path>
                <path d="M560.74,796.17l-.94.38a5.6,5.6,0,0,0-3.23,7.25,5.68,5.68,0,0,0,2.07,2.66L555,812.4c1.39,4.43,2.74,8.86,4.13,13.29-11,2.82-22.39,4.81-33.21,1.36-16-5.11-31.1-18.67-45.07-27.54-32.68-20.69-65.62-41-96.49-64.38-25.8-19.45-44.21-41.57-55.67-72.11-13.48-36-25.24-72.68-37.71-109a103.51,103.51,0,0,0,27.61-6.27q16.51,47.65,32.9,95.32c9.69,27.91,23.4,49.73,47.07,67.73,25.31,19.26,52.17,36.39,79.06,53.37,14.54,9.2,29.11,18.33,43.46,27.76,8.26,5.44,11.64,9.09,22.61,8.15C549.25,799.63,555.14,797.75,560.74,796.17Z"></path>
                <path d="M560.06,957.68c2.18,16.34-20.95,17.58-26.93,4.36a40.84,40.84,0,0,0,1.17-6.46c1.28-13.19,16.9-16.75,24.34-10.48C559.05,949.34,559.5,953.55,560.06,957.68Z"></path>
                <path d="M556.05,527.91a8.15,8.15,0,0,1,3.41,0c-3,1.09-5.86,2.22-8.71,3.42A9,9,0,0,1,556.05,527.91Z"
                      class="cls-8"></path>
                <path d="M552.52,417.79c-.57.71-1.17,1.39-1.73,2.06-.9-1-1.81-2-2.63-3A16.06,16.06,0,0,0,552.52,417.79Z"></path>
                <path d="M548.16,416.81c.82,1.05,1.73,2.06,2.63,3A149.57,149.57,0,0,1,388.6,464c.38-1.58.71-3.16,1-4.74a13.93,13.93,0,0,0,1.61-6.23l.23-7.44c0-.45.07-.94.11-1.39,0,0,0,0-.07,0,.07-3,.15-6,.22-8.94,51.53,21.45,112.16,3.64,144.31-42.11a85.94,85.94,0,0,0,2.93,10.52h-.41c.3.45.6.94.9,1.39.71,2,1.5,3.94,2.36,5.9A11.1,11.1,0,0,0,548.16,416.81Z"></path>
                <path d="M548.16,416.81a11.1,11.1,0,0,1-6.39-5.82c-.86-2-1.65-3.91-2.36-5.9A130.21,130.21,0,0,0,548.16,416.81Z"></path>
                <path d="M539.41,405.09c-.3-.45-.6-.94-.9-1.39h.41C539.07,404.15,539.26,404.6,539.41,405.09Z"></path>
                <path d="M464.47,104.12,445.2,99.05a114.32,114.32,0,0,1,11-5.71A103.31,103.31,0,0,1,464.47,104.12Z"></path>
                <path d="M446.33,558.68c12.62,7.58,17.28,26.85,13.56,50.21a5.52,5.52,0,0,0-.9-3.3,5.68,5.68,0,0,0-7.81-1.65c-.68.45-1.36.86-2.07,1.31,2.67-18.7-1.13-32.45-8.56-36.92a15.36,15.36,0,0,0-8.12-1.84h0s0,0,0,0l2-.23a5.67,5.67,0,0,0,5.07-6.16,5.77,5.77,0,0,0-3.61-4.73A24.3,24.3,0,0,1,446.33,558.68Z"></path>
                <path d="M459,605.59a5.52,5.52,0,0,1,.9,3.3l-.22,1.36a5.65,5.65,0,0,1-2.33,3.11c-2.44,1.58-6.58,4.21-11.65,7.21a102,102,0,0,0,3.42-15.32c.71-.45,1.39-.86,2.07-1.31A5.68,5.68,0,0,1,459,605.59Z"></path>
                <path d="M459.67,610.25l.22-1.36A9.17,9.17,0,0,1,459.67,610.25Z"></path>
                <path d="M457.34,613.36a5.65,5.65,0,0,0,2.33-3.11,131.6,131.6,0,0,1-8.27,27.9,5.61,5.61,0,0,1-5.22,3.46,5.42,5.42,0,0,1-2.14-.41,5.62,5.62,0,0,1-3-7.37,126.83,126.83,0,0,0,4.69-13.26C450.76,617.57,454.9,614.94,457.34,613.36Z"></path>
                <path d="M440.55,568.33c7.43,4.47,11.23,18.22,8.56,36.92-7.06,4.51-15.21,9.28-23.21,13.37l-2.1-4.13c14.94-5.52,19-32.9,8.63-48A15.36,15.36,0,0,1,440.55,568.33Z"
                      class="cls-4"></path>
                <path d="M449.11,605.25a102,102,0,0,1-3.42,15.32c-13.29,7.86-33.16,18.3-46.72,19.65-1,.07-2.37.22-4,.22a22.22,22.22,0,0,1-12.62-3.6c-8-5.41-9.35-14.54-9.47-15.55a5.61,5.61,0,0,1,4.92-6.27,5.67,5.67,0,0,1,6.28,4.84c0,.23.79,5.11,4.54,7.63,2.89,2,6.27,1.8,9.24,1.5,7.06-.72,17.43-4.92,28.06-10.37C433.9,614.53,442.05,609.76,449.11,605.25Z"></path>
                <path d="M439.46,560.06a5.67,5.67,0,0,1-5.07,6.16l-2,.23a7.73,7.73,0,0,0-.6-.86s-4.74,0-10.9.67a5.64,5.64,0,0,1,2.26-9.88.74.74,0,0,1,.26,0c2.48-.45,5.07-.83,7.74-1.13h.3a42.32,42.32,0,0,1,4.39.11A5.77,5.77,0,0,1,439.46,560.06Z"></path>
                <path d="M436.08,640.22a5.61,5.61,0,0,1-.75,7.92c-12.7,10.52-32.76,12.4-33.58,12.51h-.53a5.63,5.63,0,0,1-.49-11.23c.19,0,17.47-1.69,27.42-9.95A5.68,5.68,0,0,1,436.08,640.22Z"
                      class="cls-5"></path>
                <path d="M433.3,555a6.52,6.52,0,0,1,2.55.34,42.32,42.32,0,0,0-4.39-.11C432.06,555.11,432.66,555.07,433.3,555Z"></path>
                <path d="M432.43,566.49c10.41,15.1,6.31,42.48-8.63,48-3.76,1.39-8.19,1.39-13.23-.53-25.54-9.69-17.16-34.81-17.16-34.81a5.78,5.78,0,0,1,.41-1.09,98.91,98.91,0,0,1,12.47-5.6,16.72,16.72,0,0,0-.15,8.94c1.69,7.17,7.18,12,12.21,10.78s7.7-8,6-15.14a16.72,16.72,0,0,0-4.81-8.45c3.68-.83,7.66-1.54,11.87-2.06a7.71,7.71,0,0,1,1,0Z"
                      class="cls-7"></path>
                <path d="M432.4,566.45s0,0,0,0a7.71,7.71,0,0,0-1,0A8.8,8.8,0,0,0,432.4,566.45Z"></path>
                <path d="M432.4,566.45a8.8,8.8,0,0,1-1,.08,31.68,31.68,0,0,0-5.67.82,5.69,5.69,0,0,1-4.85-1.09c6.16-.67,10.9-.67,10.9-.67A7.73,7.73,0,0,1,432.4,566.45Z"></path>
                <path d="M425.75,567.35a31.68,31.68,0,0,1,5.67-.82c-4.21.52-8.19,1.23-11.87,2.06a9.41,9.41,0,0,0-2.74-1.8c1.43-.23,2.78-.38,4.09-.53A5.69,5.69,0,0,0,425.75,567.35Z"></path>
                <path d="M423.42,556.35a41.94,41.94,0,0,1,7.74-1.13C428.49,555.52,425.9,555.9,423.42,556.35Z"></path>
                <path d="M424.36,577c1.69,7.18-1,13.94-6,15.14s-10.52-3.61-12.21-10.78a16.72,16.72,0,0,1,.15-8.94,112,112,0,0,1,13.26-3.87A16.72,16.72,0,0,1,424.36,577Z"
                      class="cls-8"></path>
                <path d="M419,563.14a5.63,5.63,0,0,0,1.95,3.12c-1.31.15-2.66.3-4.09.53h0a7.08,7.08,0,0,0-4.62-.53,7.28,7.28,0,0,0-3.72,2.26c-6.61,1.84-12.58,4.77-14.61,9.54-10.85,5.82-16.15,11.53-16.26,11.64a5.65,5.65,0,0,1-4.17,1.84,5.54,5.54,0,0,1-3.76-1.46,5.61,5.61,0,0,1-.41-7.93c.75-.86,17.88-19.53,53.94-25.77A5.67,5.67,0,0,0,419,563.14Z"></path>
                <path d="M416.81,566.79a9.41,9.41,0,0,1,2.74,1.8,112,112,0,0,0-13.26,3.87,11.37,11.37,0,0,1,2.14-3.94,71,71,0,0,1,8.34-1.73Z"
                      class="cls-8"></path>
                <path d="M412.15,566.26a7.08,7.08,0,0,1,4.62.53,71,71,0,0,0-8.34,1.73A7.28,7.28,0,0,1,412.15,566.26Z"
                      class="cls-8"></path>
                <path d="M409.86,517.17a5.67,5.67,0,0,1-4.88,6.31c-39.14,4.88-56,41.66-56.16,42a5.56,5.56,0,0,1-5.14,3.34,5.71,5.71,0,0,1-2.29-.48,5.63,5.63,0,0,1-2.82-7.44c.75-1.77,19.64-42.93,65-48.64A5.66,5.66,0,0,1,409.86,517.17Z"></path>
                <path d="M408.43,568.52a11.37,11.37,0,0,0-2.14,3.94,98.91,98.91,0,0,0-12.47,5.6C395.85,573.29,401.82,570.36,408.43,568.52Z"></path>
                <path d="M363.74,422.14c.18-18.14,28.35-18.14,28.17,0,0,4.4-.12,8.75-.23,13.15-2.4-1-4.77-2.1-7.14-3.27-9.91-4.88-20.43,1.17-21.18,12.17,0,.45-.07.86-.11,1.32C363.47,437.73,363.66,429.92,363.74,422.14Z"></path>
                <path d="M391.68,435.29c-.07,3-.15,6-.22,8.94-7,4-14.13,8.07-21.15,12.13a152.57,152.57,0,0,0,16.08,6.87C378.23,470,362.53,466.61,363,453c.08-2.52.15-5,.23-7.51,0-.46.07-.87.11-1.32.75-11,11.27-17.05,21.18-12.17C386.91,433.19,389.28,434.27,391.68,435.29Z"></path>
                <path d="M391.53,444.19c0,.45-.07.94-.11,1.39,0-.45,0-.9,0-1.35C391.49,444.23,391.49,444.19,391.53,444.19Z"></path>
                <path d="M391.46,444.23c0,.45,0,.9,0,1.35a118.56,118.56,0,0,1-1.84,13.67,11.9,11.9,0,0,1-3.19,4,152.57,152.57,0,0,1-16.08-6.87C377.33,452.3,384.43,448.28,391.46,444.23Z"></path>
                <path d="M391.42,445.58l-.23,7.44a13.93,13.93,0,0,1-1.61,6.23A118.56,118.56,0,0,0,391.42,445.58Z"></path>
                <path d="M389.58,459.25c-.27,1.58-.6,3.16-1,4.74-.75-.23-1.46-.49-2.21-.76A11.9,11.9,0,0,0,389.58,459.25Z"></path>
                <path d="M386.39,463.23c.75.27,1.46.53,2.21.76-8.75,38.46-34.86,70.35-70.05,83.76-.83-2.45-1.69-4.85-2.52-7.29-2.7-7.81-9.91-10.48-16.33-9.43l-1.58-6.42c35.83-7.93,62-40.79,65.13-79.1-.08,2.51-.15,5-.23,7.51C362.53,466.61,378.23,470,386.39,463.23Z"></path>
                <path d="M371.29,337.44c2.32,5.53-5.75,10.3-8.12,4.77C350,311,307.58,291.32,278,312.05c-5,3.5-9.66-4.65-4.74-8.11C306.72,280.5,356.15,301.69,371.29,337.44Z"
                      class="cls-6"></path>
                <path d="M346.83,167c6,.53,6,9.92,0,9.39-33.76-2.85-62.42,20.32-65.28,54.39-.48,6-9.87,6-9.39,0C275.43,191.86,307.58,163.69,346.83,167Z"
                      class="cls-6"></path>
                <path d="M316,540.46c.83,2.44,1.69,4.84,2.52,7.29A103.51,103.51,0,0,1,290.94,554c-.67-2-1.39-4-2.06-6-3.19-9.31,3.27-15.7,10.82-16.94C306.12,530,313.33,532.65,316,540.46Z"></path>
                <path d="M307.17,118.84c13.48,12.21-6.5,32.08-19.91,19.95l-.07-.08a13.31,13.31,0,0,1,.15-2,95.48,95.48,0,0,1,7.92-26.93A92.17,92.17,0,0,1,307.17,118.84Z"></path>
                <path d="M298.12,524.61,299.7,531c-7.55,1.24-14,7.63-10.82,16.94.67,2,1.39,4,2.06,6a107.21,107.21,0,0,1-24.9-.64c-57.13-8-94-58-86.13-111.93a67.51,67.51,0,0,0,12.36-1.88,8.91,8.91,0,0,0,1.35.45c7.93,2.18,14.62-2.7,17.32-9.84,0-.07,0-.15.08-.19l.07-.18s0-.08.08-.16c.52-1.08,1.05-2.17,1.65-3.23.11-.15.19-.33.3-.48,0,.07,0,.11-.08.18-17.61,46,7.25,92.33,56.76,99.46A78.13,78.13,0,0,0,298.12,524.61Z"></path>
                <path d="M295.26,109.75a95.48,95.48,0,0,0-7.92,26.93,13.31,13.31,0,0,0-.15,2c-38.84-35-90.07.08-81.28,45.71l-10.48.3a62.42,62.42,0,0,0-18,2.18c-5.33-29.9,6.05-61.6,32.61-78.8C236.89,90.71,269.68,93.38,295.26,109.75Z"></path>
                <path d="M284.22,988.89c4,15.4-9.84,26.75-24.19,32.19a58.08,58.08,0,0,1-20.66,3.53,75.13,75.13,0,0,1-8.52-.48l2.29-11.16c8.41.86,16.26.07,22.87-2.4,2.07-.79,20.13-8,17.32-18.78-2.33-8.94-16.45-16.72-30.84-24.23l2.37-11.46a.14.14,0,0,1,.11,0C263.22,965.64,280.46,974.62,284.22,988.89Z"></path>
                <path d="M282.79,908.51a5.64,5.64,0,0,1-6.72,9.06,83,83,0,0,0-20.88-11.5l2.29-11.19A96,96,0,0,1,282.79,908.51Z"></path>
                <path d="M273.33,991.79c2.81,10.74-15.25,18-17.32,18.78-6.61,2.47-14.46,3.26-22.87,2.4l9.35-45.41C256.88,975.07,271,982.85,273.33,991.79Z"
                      class="cls-2"></path>
                <path d="M258.83,860.4a5.61,5.61,0,0,1,4.39,6.65l-5.74,27.83a80.64,80.64,0,0,0-10.9-3l5.6-27.08A5.64,5.64,0,0,1,258.83,860.4Z"></path>
                <path d="M257.48,894.88l-2.29,11.19A64.55,64.55,0,0,0,244.33,903l2.25-11.08A80.64,80.64,0,0,1,257.48,894.88Z"></path>
                <path d="M255.19,906.07l-10.33,50c-3.5-1.84-7-3.64-10.37-5.48L244.33,903A64.55,64.55,0,0,1,255.19,906.07Z"></path>
                <path d="M246.58,891.87,244.33,903c-8.26-1.65-16.07-1.46-22.5.76-9.8,3.45-18.21,12.73-14.61,23.21,3.23,9.24,14.54,16.71,27.27,23.7l-2.37,11.49c-15.85-8.45-30.76-17.73-35.53-31.47-6.05-17.39,6.57-32.34,21.52-37.56C226.45,890.15,236.33,889.85,246.58,891.87Z"></path>
                <path d="M244.86,956.1l-2.37,11.46c-.94-.49-1.84-.94-2.74-1.43-2.56-1.31-5.07-2.63-7.63-4l2.37-11.49C237.87,952.46,241.36,954.26,244.86,956.1Z"></path>
                <path d="M244.33,903l-9.84,47.67c-12.73-7-24-14.46-27.27-23.7-3.6-10.48,4.81-19.76,14.61-23.21C228.26,901.49,236.07,901.3,244.33,903Z"
                      class="cls-2"></path>
                <path d="M242.49,967.56,233.14,1013a80,80,0,0,1-11.12-1.92l10.1-48.94c2.56,1.39,5.07,2.71,7.63,4C240.65,966.62,241.55,967.07,242.49,967.56Z"></path>
                <path d="M233.14,1013l-2.29,11.16a86.51,86.51,0,0,1-11.12-2l2.29-11.08A80,80,0,0,0,233.14,1013Z"></path>
                <path d="M222.13,415.42a.53.53,0,0,0-.22.15s.07,0,.19-.08a2.46,2.46,0,0,1-.31.27,50.27,50.27,0,0,0-5.18,5,33.32,33.32,0,0,0-3.49,5.15c3.38-9.39-7.85-21-17.39-17.13-2,.83-4.17,1.65-6.39,2.37A64.16,64.16,0,0,1,211.24,389c6.5-4,15.48-1.46,19.27,5a14.36,14.36,0,0,1-5.07,19.27c-.94.56-1.84,1.2-2.74,1.8a2.92,2.92,0,0,1-.6.34Z"></path>
                <path d="M230.85,1024.13l-8.27,40a5.62,5.62,0,0,1-5.52,4.51,3.92,3.92,0,0,1-1.12-.15,5.65,5.65,0,0,1-4.4-6.65l8.19-39.74A86.51,86.51,0,0,0,230.85,1024.13Z"></path>
                <path d="M222.13,415.42l0,0v0c-.12,0-.15.08-.19.08A.53.53,0,0,1,222.13,415.42Z"></path>
                <path d="M222,1011.05l-2.29,11.08a114.61,114.61,0,0,1-34.63-15.25,5.63,5.63,0,0,1,6.12-9.46A102.66,102.66,0,0,0,222,1011.05Z"></path>
                <path d="M211.28,429.2a5,5,0,0,0-.38.94A.39.39,0,0,0,211,430s0,.12-.08.19c-2.7,7.14-9.39,12-17.32,9.84a8.91,8.91,0,0,1-1.35-.45A73.85,73.85,0,0,0,203.2,436l-17.31-17.31c-1,2.74-2,5.48-2.78,8.23a10.74,10.74,0,0,1,.67-4.17,70.5,70.5,0,0,1,5.56-11.53c2.22-.72,4.4-1.54,6.39-2.37,9.54-3.91,20.77,7.74,17.39,17.13-.11.15-.19.33-.3.48-.6,1.06-1.13,2.15-1.65,3.23,0,.08,0,.12-.08.16C211.2,429.5,211.24,429.32,211.28,429.2Z"></path>
                <path d="M211.28,429.2c0,.12-.08.3-.19.61L211,430a.39.39,0,0,1-.12.15A5,5,0,0,1,211.28,429.2Z"></path>
                <path d="M209,195.05c3.35,8.57-5.18,18-13.59,17.84-38.05-.9-46.73,45.53-14.54,61.56-1.16-.41-2.33-.9-3.45-1.42-6.88-3.27-15.18-1.92-19.27,5a14.83,14.83,0,0,0-1.51,10.18c-.67.9-1.38,1.84-2.06,2.78-17.32-14.27-26.89-37.9-21.37-60.32,5.41-22.09,23.17-38.2,44.24-43.8a77.45,77.45,0,0,0,4.4,15.66l13.56-17.84,10.48-.3A59.22,59.22,0,0,0,209,195.05Z"></path>
                <path d="M185.89,418.65,203.2,436a73.85,73.85,0,0,1-10.93,3.61c-4.92-2-9-7.29-9.16-12.69C183.9,424.13,184.84,421.39,185.89,418.65Z"></path>
                <path d="M200.35,277.87c18.14.08,18.1,28.25,0,28.17a80.19,80.19,0,0,1-20-2.55c1.65-2.07,3.34-4.1,5.14-6.09,5.49-6,5.94-18.21-2.85-22.12-.6-.26-1.17-.52-1.73-.83A54.25,54.25,0,0,0,200.35,277.87Z"></path>
                <path d="M195.43,184.72l-13.56,17.84a77.45,77.45,0,0,1-4.4-15.66A62.42,62.42,0,0,1,195.43,184.72Z"></path>
                <path d="M182.62,275.28c8.79,3.91,8.34,16.08,2.85,22.12-1.8,2-3.49,4-5.14,6.09a84.84,84.84,0,0,1-11.91-3.87c-.94-7.36-1.91-14.76-2.85-22.12q-4.68,5.17-8.91,10.74a14.83,14.83,0,0,1,1.51-10.18c4.09-6.95,12.39-8.3,19.27-5,1.12.52,2.29,1,3.45,1.42C181.45,274.76,182,275,182.62,275.28Z"></path>
                <path d="M189.34,411.18a70.5,70.5,0,0,0-5.56,11.53,10.74,10.74,0,0,0-.67,4.17,97.07,97.07,0,0,0-3.2,14.57C150.35,443,128,422.07,125.75,387.7c-2.29-35,8.6-68.77,28.85-96.68a54.62,54.62,0,0,0,5.6,4.13s0,0,0,0a10.94,10.94,0,0,0,3,2.14c1.65.79,3.34,1.54,5,2.22,0,0,.11,0,.15.07a84.84,84.84,0,0,0,11.91,3.87,120.15,120.15,0,0,0-26.26,67.31c-.75,10.89-2,27.64,5.71,36.62C167.29,416.13,179.16,414.56,189.34,411.18Z"></path>
                <path d="M183.11,426.88c.19,5.4,4.24,10.7,9.16,12.69a67.51,67.51,0,0,1-12.36,1.88A97.07,97.07,0,0,1,183.11,426.88Z"></path>
                <path d="M165.57,277.5c.94,7.36,1.91,14.76,2.85,22.12,0,0-.11,0-.15-.07a60,60,0,0,1-8-4.36s0,0,0,0a13.45,13.45,0,0,1-3.54-6.91Q160.89,282.66,165.57,277.5Z"></path>
                <path d="M168.27,299.55c-1.69-.68-3.38-1.43-5-2.22a10.94,10.94,0,0,1-3-2.14A60,60,0,0,0,168.27,299.55Z"></path>
                <path d="M156.66,288.24a13.45,13.45,0,0,0,3.54,6.91,54.62,54.62,0,0,1-5.6-4.13C155.28,290.08,156,289.14,156.66,288.24Z"></path>
            </g>
            <path d="M582.81,672.9v0c-1.23,7.36-3.76,22.62-15.55,33.41-7.92,7.27-16.46,9.37-23.35,11a65.94,65.94,0,0,1-28.22.63,5.7,5.7,0,0,0-5.55,2.18,30.72,30.72,0,0,0-13-14A28,28,0,0,0,486.52,703a6.55,6.55,0,0,0,1.15-.4A124.27,124.27,0,0,1,526.18,692c4.41-.48,7.55-.55,10.34-.63a75.69,75.69,0,0,0,9.88-.72C558.92,688.76,571.09,682.79,582.81,672.9Z"
                  class="cls-9"></path>
            <path d="M638.25,772.47s52.68-11.3,79-130.87q1.46,90,2.92,180A263.32,263.32,0,0,1,687.5,839.1a267.73,267.73,0,0,1-87.85,22.2q-9.43-30.54-18.86-61.07L635,779.75S639.55,777.12,638.25,772.47Z"
                  class="cls-10"></path>
            <g class="cls-11">
                <path d="M324.71,565.6s64.19-23.06,73.11-72.83c0,0,100.06,17.84,153.32-40.38,0,0,38.92,59.44,163,20.33,0,0-9-6.58-14-26.13,0,0-72.9,49.19-149.32-26.73,0,0-61.53,76.84-162.17,44.12,0,0-16.47,65-70.06,83.74Z"
                      class="cls-3"></path>
            </g>
        </g>
    </g>
</svg>