<svg viewBox="0 0 1200 1200" xmlns="http://www.w3.org/2000/svg">
    <defs>
        <style>
            .cls-1{fill:#ffb3d2;}.cls-2{fill:#1e1e1e;}.cls-3{fill:#ffd9c0;}.cls-4{fill:#f4cdb8;}.cls-5{fill:#1149aa;}.cls-6{fill:#fff;}.cls-7{fill:#515151;}.cls-8{fill:#191919;}.cls-9{fill:#a5a5a5;}.cls-10{fill:#c6c6c6;}.cls-11{fill:#249cff;}.cls-12{fill:#ff8a8a;}.cls-13{fill:#dbb39e;}.cls-14{fill:#8fd2ff;}.cls-15{fill:#dcf3ff;}
        </style>
    </defs>
    <title>7 (4)</title>
    <g id="图层_2">
        <g id="_7">
            <g id="_编组_">
                <path d="M1200,0V1200H917.24v-.71a13,13,0,0,0,2.7-.27,15,15,0,0,0,12.1-17.46l-.75-4.1h246.17V22.54H22.54V870.22L7.21,882.81a15,15,0,0,0-5.48,11.6H0V0Z"></path>
                <path d="M1177.46,22.54V1177.46H931.29l-7.59-41.76,18-51.57.22-1.54c2.52-19.46,2.22-48.94-13.48-79-28.93-55.36-87-68.51-103.26-71.14l-180.56-80.6,20.48-37.75c3.08,2.52,6,4.88,8.6,7.17a117.51,117.51,0,0,0,76.55,28.36h2.7a115,115,0,0,0,83.65-36.09A343.63,343.63,0,0,0,962.2,623.16l15-108.44c7.06,4.55,16,9,24.86,6.84s15.78-10.33,20.77-24.87c14.24-41.28,21.34-162.29-50.29-252.93-32.61-41.24-72.16-68.54-117.64-81.2a216.45,216.45,0,0,0-93.61-4.92c-8.26-3.61-26.78-11.12-45-15a216.43,216.43,0,0,0-40.72-4.58c-12.84-.19-80.23.9-139,46.57-39.4,30.62-86.24,90.79-85.68,203.73a286.35,286.35,0,0,0,12.55,82,296.59,296.59,0,0,0,20.13,50L471.39,558a21.33,21.33,0,0,0,3.49,19.6l8.79,11.2c-8.26,19.83-10.93,34.7-7.85,44.28a22.52,22.52,0,0,0,7.7,11.38,21.07,21.07,0,0,0,13.15,4.32,32,32,0,0,0,5.9-.6l-37.79,92.25-55.48,3.45-145.66,9-36.43-53.34,22.68-14.83a33.35,33.35,0,0,0,10.56-44.62l-23.67-40.87a33.4,33.4,0,0,0-46.68-11.42L150.32,613a26,26,0,0,0-35-6.79l-13.14,8.26a26.06,26.06,0,0,0-8.87,34.67l-49,31a33.33,33.33,0,0,0-14.83,21.56,32.22,32.22,0,0,0-.64,6.54H22.54V22.54ZM400.93,255.82c1.61-17.28-1.73-33.58-9.66-47.1-12.62-21.6-38.2-38.46-66.82-44.06-21.48-4.17-40.86-1.09-53.22,8.45-10.89,8.38-19.72,24.83-15.59,40,7.17,26.22,49.39,33.32,57.77,34.48a88.23,88.23,0,0,0,21,.3,84.72,84.72,0,0,1,21,.34,115.23,115.23,0,0,1,37.34,12l7.44,3.87ZM385,306l-5.15-6.61c-7.24-9.2-16.45-15.62-26.66-18.63-16.15-4.69-36.44-1.09-52.93,9.39C287.76,298,279.64,308.67,278,319.3c-1.5,9.46,2,22.12,11.49,27.87a22.69,22.69,0,0,0,12,3.15c14.2,0,29.34-10.22,33-12.81A57.76,57.76,0,0,0,344.77,328a53.29,53.29,0,0,1,9.77-8.94A73.08,73.08,0,0,1,377,308.25Z"
                      class="cls-1"></path>
                <path d="M972.57,243.76c71.63,90.64,64.53,211.65,50.29,252.93-5,14.54-11.79,22.69-20.77,24.87s-17.8-2.29-24.86-6.84l4.54-33.05,0,0a5.74,5.74,0,0,0,.52-5.15c-.07-.18-.15-.41-.22-.6,2.52,5.64,5.93,10,10.29,12.85.41.3.86.56,1.24.83,10.93-27.27,22.42-142.32-44.66-227.17C938.35,249,906,208,846.89,191.48A187.42,187.42,0,0,0,762.11,188l-4.77.86-4.35-2c-.19-.11-22.43-10.44-43.2-14.83a193.13,193.13,0,0,0-34.74-3.91c-6.8,0-68.18,0-120,40.26-48.87,38-74.48,100.18-74.07,179.88a255.77,255.77,0,0,0,8.15,62.39,151,151,0,0,0-15.47,13.59,3.77,3.77,0,0,0-1,3.35l-9.16,2.81a286.35,286.35,0,0,1-12.55-82c-.56-112.94,46.28-173.11,85.68-203.73,58.78-45.67,126.17-46.76,139-46.57a216.43,216.43,0,0,1,40.72,4.58c18.25,3.87,36.77,11.38,45,15a216.45,216.45,0,0,1,93.61,4.92C900.41,175.22,940,202.52,972.57,243.76Z"></path>
                <path d="M949,262.39c67.08,84.85,55.59,199.9,44.66,227.17-.38-.27-.83-.53-1.24-.83-4.36-2.89-7.77-7.21-10.29-12.85-.3-.67-.6-1.42-.9-2.18a1.86,1.86,0,0,1-.12-.3,5.13,5.13,0,0,0-.45-1.08,2.89,2.89,0,0,0-.33-.72c0-.07,0-.11-.08-.19a150.08,150.08,0,0,0-7-14.08c-3.38-5.9-33.85-57.84-67.39-54.39h-1.28c-3.23,0-12.95.08-14,8.79a103.93,103.93,0,0,1-17.09,45.56.52.52,0,0,1-.56.23.55.55,0,0,1-.45-.49,122.22,122.22,0,0,0-5.93-21,125.73,125.73,0,0,0-15.89-29.45,11.82,11.82,0,0,0-21.3,5.67,158.33,158.33,0,0,1-15,51.87c-.08.12-.12.34-.49.27a.45.45,0,0,1-.49-.34,174.9,174.9,0,0,0-56.38-76.55,11.85,11.85,0,0,0-8.9-2.44,11.58,11.58,0,0,0-7.81,4.58,101.29,101.29,0,0,0-20.17,50.56.55.55,0,0,1-.42.52.56.56,0,0,1-.6-.22,58.25,58.25,0,0,1-13.45-31.44,11.79,11.79,0,0,0-7.28-9.69,12,12,0,0,0-12.06,1.8,87.42,87.42,0,0,0-25.47,34.45c0,.15-.15.22-.48.3a.51.51,0,0,1-.57-.38c-2.18-6-4.09-12.09-5.71-18.21-1.27-4.81-2.4-9.7-3.3-14.54a11.81,11.81,0,0,0-19.61-6.42c-.3.3-.64.6-.94.9-18.55,2.36-90.33,13.78-141.08,53.3a255.77,255.77,0,0,1-8.15-62.39c-.41-79.7,25.2-141.9,74.07-179.88,51.87-40.3,113.25-40.3,120-40.26A193.13,193.13,0,0,1,709.79,172c20.77,4.39,43,14.72,43.2,14.83l4.35,2,4.77-.86a187.42,187.42,0,0,1,84.78,3.49C906,208,938.35,249,949,262.39Z"
                      class="cls-2"></path>
                <path d="M982.33,476.48a5.74,5.74,0,0,1-.52,5.15l.11-.94a14.88,14.88,0,0,0-.56-6.57c.26.6.49,1.16.75,1.76C982.18,476.07,982.26,476.3,982.33,476.48Z"></path>
                <path d="M981.21,473.7c.3.76.6,1.51.9,2.18-.26-.6-.49-1.16-.75-1.76A1.73,1.73,0,0,0,981.21,473.7Z"></path>
                <path d="M981.36,474.12a14.88,14.88,0,0,1,.56,6.57l-.11.94,0,0a5.89,5.89,0,0,1-2.63,2.14,5.63,5.63,0,0,1-7.29-3.19A134.13,134.13,0,0,0,964,463.94a1,1,0,0,1,.33-.08c.34-.07.68-.11,1-.15a13.2,13.2,0,0,1,4,.08,11.07,11.07,0,0,1,1.12.22,13.44,13.44,0,0,1,3.08,1.09,7.64,7.64,0,0,1,1,.53,9.48,9.48,0,0,1,1,.6,14.5,14.5,0,0,1,1.76,1.43l.79.79c.26.3.53.56.75.86s.45.64.68.94a12.37,12.37,0,0,1,1,1.73C980.79,472.69,981.09,473.4,981.36,474.12Z"></path>
                <path d="M981.77,481.67l-4.54,33.05-1.58-1c-10.14-6.8-18-17.13-22.69-29.83a15.17,15.17,0,0,1-.56-8.64c.07-.33.19-.71.3-1.08s.22-.68.37-1.06.27-.67.45-1a7.64,7.64,0,0,1,.53-1c.19-.33.38-.64.6-1a13.59,13.59,0,0,1,2.59-2.93,7.94,7.94,0,0,1,1-.75c.19-.15.38-.27.56-.42s.57-.34.87-.49a11,11,0,0,1,2.14-1,11.6,11.6,0,0,1,2.18-.6,134.13,134.13,0,0,1,7.88,16.68,5.63,5.63,0,0,0,7.29,3.19A5.89,5.89,0,0,0,981.77,481.67Z"></path>
                <path d="M981.36,474.12c-.27-.72-.57-1.43-.9-2.14.07.11.11.22.18.34.15.33.3.71.45,1.08a1.86,1.86,0,0,0,.12.3A1.73,1.73,0,0,1,981.36,474.12Z"></path>
                <path d="M980.64,472.32a5.13,5.13,0,0,1,.45,1.08C980.94,473,980.79,472.65,980.64,472.32Z"></path>
                <path d="M980.64,472.32c-.07-.12-.11-.23-.18-.34a1.77,1.77,0,0,0-.15-.38A2.89,2.89,0,0,1,980.64,472.32Z"></path>
                <path d="M980.31,471.6a1.77,1.77,0,0,1,.15.38,12.37,12.37,0,0,0-1-1.73,7.63,7.63,0,0,1,.75,1.16C980.27,471.49,980.31,471.53,980.31,471.6Z"></path>
                <path d="M980.23,471.41a7.63,7.63,0,0,0-.75-1.16,5.1,5.1,0,0,0-.68-.94,5,5,0,0,0-.75-.86,3.7,3.7,0,0,0-.79-.79,8.61,8.61,0,0,0-1.76-1.43,9.48,9.48,0,0,0-1-.6,4.65,4.65,0,0,0-1-.53,13.44,13.44,0,0,0-3.08-1.09,11.07,11.07,0,0,0-1.12-.22,13.2,13.2,0,0,0-4-.08c-.34,0-.68.08-1,.15a1,1,0,0,0-.33.08c-.19-.34-.38-.71-.57-1.05-8.15-14.31-34.1-50.9-56.45-48.75a23.17,23.17,0,0,1-2.37.07,29.35,29.35,0,0,0-3,.15,116.75,116.75,0,0,1-6.91,26.71,115.54,115.54,0,0,1-11.91,22.53,11.82,11.82,0,0,1-21.41-4.43A114.32,114.32,0,0,0,856,440.05a116,116,0,0,0-14.5-26.82.43.43,0,0,0-.53-.18.57.57,0,0,0-.45.48,167.65,167.65,0,0,1-16.07,55.56,11.83,11.83,0,0,1-21.68-1A164.14,164.14,0,0,0,750,396.44a.51.51,0,0,0-.49-.15,86.47,86.47,0,0,0-14.39,27.08,89.93,89.93,0,0,0-3.9,18.11,11.82,11.82,0,0,1-20.81,6.35,70.66,70.66,0,0,1-11.23-18.41,71.64,71.64,0,0,1-4.85-19.12.47.47,0,0,0-.3-.48.54.54,0,0,0-.64.11,76.33,76.33,0,0,0-14.83,16.26,74.23,74.23,0,0,0-7.36,13.75,11.87,11.87,0,0,1-22.09-.49c-2.29-6.27-4.32-12.73-6-19.19-1.35-5.07-2.52-10.22-3.49-15.33a.39.39,0,0,0-.34-.37.43.43,0,0,0-.53.11l-.22.23-1.35-1.39a3.67,3.67,0,0,0,1.46-3.35,3.76,3.76,0,0,0-4.09-3.38c-.45,0-2,.19-4.4.53.3-.3.64-.6.94-.9a11.81,11.81,0,0,1,19.61,6.42c.9,4.84,2,9.73,3.3,14.54,1.62,6.12,3.53,12.24,5.71,18.21a.51.51,0,0,0,.57.38c.33-.08.45-.15.48-.3a87.42,87.42,0,0,1,25.47-34.45,12,12,0,0,1,12.06-1.8,11.79,11.79,0,0,1,7.28,9.69A58.25,58.25,0,0,0,719,440.54a.56.56,0,0,0,.6.22.55.55,0,0,0,.42-.52,101.29,101.29,0,0,1,20.17-50.56A11.58,11.58,0,0,1,748,385.1a11.85,11.85,0,0,1,8.9,2.44,174.9,174.9,0,0,1,56.38,76.55.45.45,0,0,0,.49.34c.37.07.41-.15.49-.27a158.33,158.33,0,0,0,15-51.87,11.82,11.82,0,0,1,21.3-5.67,125.73,125.73,0,0,1,15.89,29.45,122.22,122.22,0,0,1,5.93,21,.55.55,0,0,0,.45.49.52.52,0,0,0,.56-.23,103.93,103.93,0,0,0,17.09-45.56c1.06-8.71,10.78-8.75,14-8.79h1.28c33.54-3.45,64,48.49,67.39,54.39A150.08,150.08,0,0,1,980.23,471.41Z"></path>
                <path d="M979.48,470.25c-.23-.3-.45-.64-.68-.94A5.1,5.1,0,0,1,979.48,470.25Z"></path>
                <path d="M978.8,469.31c-.22-.3-.49-.56-.75-.86A5,5,0,0,1,978.8,469.31Z"></path>
                <path d="M978.05,468.45l-.79-.79A3.7,3.7,0,0,1,978.05,468.45Z"></path>
                <path d="M977.23,514.72l-15,108.44A343.63,343.63,0,0,1,836.56,813.55a115,115,0,0,1-83.65,36.09h-2.7a117.51,117.51,0,0,1-76.55-28.36c-2.63-2.29-5.52-4.65-8.6-7.17l8.45-15.59s0,0,0-.07l1.39,1.2a5.74,5.74,0,0,0,3.69,1.35,5.65,5.65,0,0,0,3.64-10l-9.62-8.19a13.32,13.32,0,0,0-2.66-3,16.71,16.71,0,0,1,3.34,2.11l5.78,4.73c5.22,4.28,10,8.19,14.16,11.76a87.27,87.27,0,0,0,57,21.1h2.7a84.78,84.78,0,0,0,62.5-27.41l.9-1,1.09-.83A313.75,313.75,0,0,0,932.87,616.62l19.26-140c.08-.45.15-.9.27-1.36a15.17,15.17,0,0,0,.56,8.64c4.7,12.7,12.55,23,22.69,29.83Z"></path>
                <path d="M975.5,466.23a8.61,8.61,0,0,1,1.76,1.43A14.5,14.5,0,0,0,975.5,466.23Z"></path>
                <path d="M974.52,465.63a7.64,7.64,0,0,0-1-.53A4.65,4.65,0,0,1,974.52,465.63Z"></path>
                <path d="M970.46,464a11.07,11.07,0,0,0-1.12-.22A11.07,11.07,0,0,1,970.46,464Z"></path>
                <path d="M965.32,463.71c-.34,0-.68.08-1,.15C964.64,463.79,965,463.75,965.32,463.71Z"></path>
                <path d="M963.4,462.89c.19.34.38.71.57,1.05a11.6,11.6,0,0,0-2.18.6,11,11,0,0,0-2.14,1c-.3.15-.6.34-.87.49s-.37.27-.56.42c-.34.22-.64.48-1,.75a13.59,13.59,0,0,0-2.59,2.93,4,4,0,0,0-.6,1,3.59,3.59,0,0,0-.53,1,8,8,0,0,0-.45,1,4.06,4.06,0,0,0-.37,1.06c-.11.37-.23.75-.3,1.08s-.19.91-.27,1.36l-19.26,140A313.75,313.75,0,0,1,817.4,790.37l-1.09.83-.9,1a84.78,84.78,0,0,1-62.5,27.41h-2.7a87.27,87.27,0,0,1-57-21.1c-4.2-3.57-8.94-7.48-14.16-11.76L673.32,782a16.71,16.71,0,0,0-3.34-2.11l0,0a13.89,13.89,0,0,0-2.48-1.69,2.41,2.41,0,0,0-.75-.34l-38.2-32.53a5.63,5.63,0,1,0-7.33,8.56l30,25.54a14.79,14.79,0,0,0-4.14,4.81l-36.62,67.57c-.15.34-.34.68-.49,1.05,0,0,0,.12-.07.15a3.84,3.84,0,0,0-.34.87,6.24,6.24,0,0,0-.34,1.09,2.05,2.05,0,0,0-.19.82,13.44,13.44,0,0,0-.37,3.2c0,.52,0,1.09.07,1.61a2.11,2.11,0,0,1,.08.53,12.48,12.48,0,0,0,.37,1.76,9.61,9.61,0,0,0,.61,1.73,3,3,0,0,0,.22.56c.15.34.3.64.45,1a0,0,0,0,0,0,0,.78.78,0,0,0,.19.34,5,5,0,0,0,.49.9c4.65,7,44.77,69.6,20.2,129.2a117.55,117.55,0,0,1-34.25,45c-22.88,18.48-52.17,21.37-73.77,20.32l-22.5-29.07a29.09,29.09,0,0,0-40.3-5.75l-.49.38A95,95,0,0,1,441,952.14a348,348,0,0,0,4.55-83.08A345.32,345.32,0,0,0,425.23,773l49.88-3.08.9,0a14.92,14.92,0,0,0,6.8-2.1,8.14,8.14,0,0,0,1-.67,11.53,11.53,0,0,0,1.31-1,10.67,10.67,0,0,0,1.54-1.61,13.77,13.77,0,0,0,1.32-1.84,13,13,0,0,0,1.05-2.07,1.68,1.68,0,0,0,.15-.34l52.13-127.33a15.54,15.54,0,0,0,.9-3.23,15,15,0,0,0-19.3-20.35c-5.52,2.29-11.2,4.47-16.83,6.49a149.77,149.77,0,0,1,8.56-22.72s.08-.07.08-.11a7,7,0,0,0,.45-1.17,9,9,0,0,0,.56-1.87,12.06,12.06,0,0,0,.3-1.66,19.78,19.78,0,0,0,0-2.66c0-.34,0-.72-.11-1.06a10.1,10.1,0,0,0-.19-1,9.37,9.37,0,0,0-.26-1l-.34-1.13a8.06,8.06,0,0,0-.38-.86,15.2,15.2,0,0,0-2.4-3.76L501.44,562.8l11.27-34.9a4.13,4.13,0,0,0,.34-1l1.05-3.23c0-.19.11-.34.15-.53a12.19,12.19,0,0,0,.41-2.1,11.8,11.8,0,0,0,.15-2,13.7,13.7,0,0,0-.11-1.69.47.47,0,0,0,0-.23,12.24,12.24,0,0,0-.26-1.57c0-.12,0-.19-.08-.3,1.21-7.14,3.38-13.64,6.46-16.12l.53-.45a16,16,0,0,1,2.7-1.91c.45.3.91.64,1.36,1a40.5,40.5,0,0,1,9,10c.75,1.13,1.46,2.22,2.14,3.31,3.38,5.37,6.84,10.85,13.78,12.35,6.73,1.43,14.84.12,16.87-6.23a261.8,261.8,0,0,1,12.09-30.84,249.31,249.31,0,0,1,12.59-23.81q1.51-2.54,3.15-5.07a264.56,264.56,0,0,1,43.5-52.58l.22-.23a.43.43,0,0,1,.53-.11.39.39,0,0,1,.34.37c1,5.11,2.14,10.26,3.49,15.33,1.69,6.46,3.72,12.92,6,19.19a11.87,11.87,0,0,0,22.09.49,74.23,74.23,0,0,1,7.36-13.75,76.33,76.33,0,0,1,14.83-16.26.54.54,0,0,1,.64-.11.47.47,0,0,1,.3.48,71.64,71.64,0,0,0,4.85,19.12,70.66,70.66,0,0,0,11.23,18.41,11.82,11.82,0,0,0,20.81-6.35,89.93,89.93,0,0,1,3.9-18.11,86.47,86.47,0,0,1,14.39-27.08.51.51,0,0,1,.49.15,164.14,164.14,0,0,1,52.73,71.63,11.83,11.83,0,0,0,21.68,1,167.65,167.65,0,0,0,16.07-55.56.57.57,0,0,1,.45-.48.43.43,0,0,1,.53.18A116,116,0,0,1,856,440.05a114.32,114.32,0,0,1,5.37,19.12,11.82,11.82,0,0,0,21.41,4.43,115.54,115.54,0,0,0,11.91-22.53,116.75,116.75,0,0,0,6.91-26.71,29.35,29.35,0,0,1,3-.15,23.17,23.17,0,0,0,2.37-.07C929.3,412,955.25,448.58,963.4,462.89Zm-30.8,63.44a5.65,5.65,0,0,0,.45-8c-11.11-12.47-22.68-16.79-30.42-18.21-26.71-5-48.3,14.83-59.91,25.46a111.42,111.42,0,0,0-13.6,15,150.61,150.61,0,0,0-9.73,15.13c-8.6,15.06-13.78,24.15-13.93,36.36-.15,14.31,8,26,12.88,33l.79,1.09a86.34,86.34,0,0,0,9.5,11.42c3.42,3.6,4.66,5,5.15,7.73,1.09,5.79-2.22,12.77-9.8,20.77a5.61,5.61,0,0,0,.22,8,5.62,5.62,0,0,0,8-.23c10.18-10.78,14.47-21,12.7-30.57-1.13-6.16-4.36-9.54-8.08-13.45a78.42,78.42,0,0,1-8.41-10.06l-.79-1.17c-4.35-6.23-11-15.66-10.85-26.33.11-9.31,4.24-16.52,12.47-30.91.49-.83,1-1.8,1.61-2.82a2.86,2.86,0,0,0,.19.94,5.61,5.61,0,0,0,5.37,4,5.11,5.11,0,0,0,1.65-.26c.15,0,5.79-1.73,14-3.31-1,5.94-1,14.12,3.46,20.77a17.1,17.1,0,0,0,4.81,5.11,231.29,231.29,0,0,1-25.09-7.92,5.68,5.68,0,0,0-7.29,3.23,5.61,5.61,0,0,0,3.23,7.28c4.28,1.66,35,13.15,57.36,13.15,5.93,0,11.26-.83,15.36-2.82a16.13,16.13,0,0,0,8.71-9.84,5.64,5.64,0,1,0-10.78-3.3,4.74,4.74,0,0,1-2.89,3c-5.86,2.86-17.5,1.88-29.94-.71a18.52,18.52,0,0,0,6-1.73c7.33-3.53,11.57-14.46,11.69-28.43A49.45,49.45,0,0,1,903.19,562a5.63,5.63,0,0,0,4.89-10.14c-11.54-5.56-26.11-6.43-39.22-5.49a168.86,168.86,0,0,0-34.14,6.09.34.34,0,0,0-.15.07c.83-1.27,1.8-2.66,2.82-4.09l.37-.11a133.53,133.53,0,0,1,76.4-3.35,3.75,3.75,0,0,0,1.84-7.28,139.53,139.53,0,0,0-39.89-4.17,138.13,138.13,0,0,0-29.9,4.39c1.32-1.31,2.67-2.66,4.13-4,10.15-9.31,29-26.59,50.26-22.72,6,1.13,15.06,4.58,24,14.65A5.65,5.65,0,0,0,932.6,526.33ZM805.72,709.88a5.64,5.64,0,0,0,0-11.27h0a81.85,81.85,0,0,1-9.69-.56c-11.54-1.43-17.47-4.81-23.74-8.38-5.71-3.3-11.65-6.68-21.22-8.3a59.64,59.64,0,0,0-20.17.23c-5.94.86-9.88,1.46-16-1.28-.3-.15-2.21-1.05-14.68-7.06l-4.06-2-2.78,3.49c-.71.9-17.28,22-9.88,43.46,1.69,4.92,5.86,12.35,16,19.79,15.48,11.31,34,14.54,49.92,14.54A133.51,133.51,0,0,0,774.92,750a5.62,5.62,0,1,0-2.14-11c-15.62,3-45.07,5.82-66.71-10-8.19-6.05-11-11.6-12-14.38-3.91-11.2,1.92-23.22,5.52-29.07,6.12,3,9,4.35,10.63,5l-.07.08c9.12,4.13,15.81,3.11,22.31,2.17,4.77-.71,9.73-1.42,16.64-.26,7.62,1.28,12.2,3.91,17.5,7,6.65,3.79,14.16,8.11,28,9.8A100.67,100.67,0,0,0,805.72,709.88Zm-25-148a5.64,5.64,0,0,0-11.2-1.32,126.81,126.81,0,0,1-7.77,31.33A129.43,129.43,0,0,1,756.25,604a5.62,5.62,0,0,0,2.41,7.59,5.29,5.29,0,0,0,2.59.64,5.62,5.62,0,0,0,5-3,131.76,131.76,0,0,0,6-13.15A139,139,0,0,0,780.71,561.9Zm-3.38-45.11a5.62,5.62,0,0,0-.15-8,216.75,216.75,0,0,0-19.5-16.52c-21.37-16.15-41.58-31.37-64.83-28.06-10.59,1.54-20.66,6.76-29.9,15.59a5.63,5.63,0,1,0,7.78,8.15c7.51-7.18,15.47-11.38,23.7-12.55C713,472.69,730.6,486,750.88,501.27A208,208,0,0,1,769.36,517a5.59,5.59,0,0,0,8-.18Zm-17.4,26.89a3.68,3.68,0,0,0-.6-5.26c-50.1-40-95.29-18.55-97.2-17.61a3.74,3.74,0,1,0,3.3,6.72c.41-.19,42.78-20.28,89.25,16.75a3.62,3.62,0,0,0,2.33.83A3.74,3.74,0,0,0,759.93,543.68ZM749.38,578a5.64,5.64,0,0,0-3.19-10.82,222.49,222.49,0,0,1-37.64,7.21l.34-.11c8.11-2.89,13.82-13.45,14.61-27.12a101.37,101.37,0,0,1,19.91,11,5.6,5.6,0,0,0,7.89-1.05,5.62,5.62,0,0,0-1-7.88c-1.61-1.24-39.93-30.2-80.79-16.94A5.63,5.63,0,1,0,673,543a58.85,58.85,0,0,1,13.86-2.7c-1.73,5.89-3.08,14.76.64,23.36,1.28,3,3.34,7.66,8.34,10.14A14.62,14.62,0,0,0,699.5,575c-10,.33-19.27-.68-25.32-4.14a12.09,12.09,0,0,1-6.19-7.77,5.63,5.63,0,0,0-10.93,2.74,23.25,23.25,0,0,0,11.53,14.84c7.32,4.17,17.42,5.63,28,5.63C720.91,586.27,747.77,578.5,749.38,578Z"
                      class="cls-3"></path>
                <path d="M959.65,465.55c-.3.15-.6.34-.87.49C959.05,465.89,959.35,465.7,959.65,465.55Z"></path>
                <path d="M958.22,466.46a7.94,7.94,0,0,0-1,.75C957.58,466.94,957.88,466.68,958.22,466.46Z"></path>
                <path d="M954.65,470.14c-.22.33-.41.64-.6,1A4,4,0,0,1,954.65,470.14Z"></path>
                <path d="M954.05,471.11a7.64,7.64,0,0,0-.53,1A3.59,3.59,0,0,1,954.05,471.11Z"></path>
                <path d="M953.52,472.09c-.18.34-.3.68-.45,1A8,8,0,0,1,953.52,472.09Z"></path>
                <path d="M953.07,473.1c-.15.38-.26.72-.37,1.06A4.06,4.06,0,0,1,953.07,473.1Z"></path>
                <path d="M928.4,1003.6c15.7,30.05,16,59.53,13.48,79l-.22,1.54-18,51.57,7.59,41.76H900.75l-8-44.17,19.53-56.07c1.77-15.14,1.21-37.34-10.47-59.72-17.55-33.58-50.26-47.29-69.12-52.59-.3-2.51-.6-5-.94-7.55a14.39,14.39,0,0,0,2.86-4.24A15,15,0,0,0,827,933.29l-1.84-.83C841.4,935.09,899.47,948.24,928.4,1003.6Z"></path>
                <path d="M933.05,518.36a5.63,5.63,0,1,1-8.41,7.48c-9-10.07-18-13.52-24-14.65-21.22-3.87-40.11,13.41-50.26,22.72-1.46,1.36-2.81,2.71-4.13,4-3.68.94-7.32,2.07-10.93,3.31a3.58,3.58,0,0,0-1.84,1.39l-4.32-2a111.42,111.42,0,0,1,13.6-15c11.61-10.63,33.2-30.46,59.91-25.46C910.37,501.57,921.94,505.89,933.05,518.36Z"></path>
                <path d="M932,1181.56a15,15,0,0,1-12.1,17.46,13,13,0,0,1-2.7.27,15,15,0,0,1-14.76-12.36l-1.73-9.47h30.54Z"></path>
                <path d="M916,537.71a3.75,3.75,0,0,1-1.84,7.28,133.53,133.53,0,0,0-76.4,3.35l-.37.11a102.53,102.53,0,0,1,8.82-10.52,138.13,138.13,0,0,1,29.9-4.39A139.53,139.53,0,0,1,916,537.71Z"></path>
                <path d="M917.24,1199.29v.71H820.86v-1.88a9.4,9.4,0,0,0,9.31-8.07c.61-4.17,1.17-8.38,1.66-12.59h68.92l1.73,9.47A15,15,0,0,0,917.24,1199.29Z"></path>
                <path d="M908.83,581.84a5.67,5.67,0,0,1,3.75,7.06,16.13,16.13,0,0,1-8.71,9.84c-4.1,2-9.43,2.82-15.36,2.82-22.35,0-53.08-11.49-57.36-13.15a5.61,5.61,0,0,1-3.23-7.28,5.68,5.68,0,0,1,7.29-3.23,231.29,231.29,0,0,0,25.09,7.92,12.11,12.11,0,0,0,3.49,1.73,15.38,15.38,0,0,0,5.11.34H869c12.44,2.59,24.08,3.57,29.94.71a4.74,4.74,0,0,0,2.89-3A5.65,5.65,0,0,1,908.83,581.84Z"></path>
                <path d="M901.77,1017.5c11.68,22.38,12.24,44.58,10.47,59.72l-19.53,56.07,8,44.17H831.83a870.58,870.58,0,0,0,6.87-103.62,872.14,872.14,0,0,0-6.05-108.93C851.51,970.21,884.22,983.92,901.77,1017.5Z"
                      class="cls-4"></path>
                <path d="M908.08,551.87A5.63,5.63,0,0,1,903.19,562a49.45,49.45,0,0,0-16.52-4.28c0-2.48-.12-5.11-.38-7.78-2.25-.19-4.62-.34-7.1-.41-3.19-.11-6.12-.11-7.66-.08l-2.41.12-.26-3.2C882,545.44,896.54,546.31,908.08,551.87Z"></path>
                <path d="M886.29,550c.26,2.67.38,5.3.38,7.78a92.79,92.79,0,0,0-15.55-.23c-1.32-2.44-3.38-4-5.75-4.13-2.93-.11-5.6,2.1-7,5.48-2.21.34-4.31.72-6.31,1.09a49.53,49.53,0,0,1,1.85-7.51,80.7,80.7,0,0,1,15.24-2.85l2.41-.12c1.54,0,4.47,0,7.66.08C881.67,549.61,884,549.76,886.29,550Z"></path>
                <path d="M871.12,557.5a92.79,92.79,0,0,1,15.55.23c-.12,14-4.36,24.9-11.69,28.43a18.52,18.52,0,0,1-6,1.73h-.07c-2.86-.64-5.75-1.32-8.6-2.07a17.1,17.1,0,0,1-4.81-5.11c-4.51-6.65-4.43-14.83-3.46-20.77,2-.37,4.1-.75,6.31-1.09a14.85,14.85,0,0,0-1.16,5.26c-.22,6.12,3,11.19,7.32,11.38s8-4.66,8.23-10.74A13.71,13.71,0,0,0,871.12,557.5Z"
                      class="cls-5"></path>
                <path d="M871.12,557.5a13.71,13.71,0,0,1,1.61,7.25c-.26,6.08-3.91,10.89-8.23,10.74s-7.54-5.26-7.32-11.38a14.85,14.85,0,0,1,1.16-5.26C862.33,558.25,866.65,557.76,871.12,557.5Z"
                      class="cls-6"></path>
                <path d="M868.86,546.38l.26,3.2a80.7,80.7,0,0,0-15.24,2.85,49.53,49.53,0,0,0-1.85,7.51c-8.22,1.58-13.86,3.27-14,3.31a5.11,5.11,0,0,1-1.65.26,5.61,5.61,0,0,1-5.37-4,2.86,2.86,0,0,1-.19-.94c1.05-1.76,2.26-3.79,3.76-6a.34.34,0,0,1,.15-.07A168.86,168.86,0,0,1,868.86,546.38Z"></path>
                <path d="M868.9,587.89a15.38,15.38,0,0,1-5.11-.34,12.11,12.11,0,0,1-3.49-1.73C863.15,586.57,866,587.25,868.9,587.89Z"></path>
                <path d="M865.37,553.37c2.37.11,4.43,1.69,5.75,4.13-4.47.26-8.79.75-12.78,1.35C859.77,555.47,862.44,553.26,865.37,553.37Z"
                      class="cls-6"></path>
                <path d="M844.86,643.29c1.77,9.54-2.52,19.79-12.7,30.57a5.62,5.62,0,0,1-8,.23,5.61,5.61,0,0,1-.22-8c7.58-8,10.89-15,9.8-20.77-.49-2.74-1.73-4.13-5.15-7.73a86.34,86.34,0,0,1-9.5-11.42l-.79-1.09c-4.88-7-13-18.67-12.88-33,.15-12.21,5.33-21.3,13.93-36.36a150.61,150.61,0,0,1,9.73-15.13l4.32,2a3.75,3.75,0,0,0,3.08,5.93,3.51,3.51,0,0,0,.87-.11c-1,1.43-2,2.82-2.82,4.09a5.52,5.52,0,0,0-3.76,6c-.6,1-1.12,2-1.61,2.82-8.23,14.39-12.36,21.6-12.47,30.91-.12,10.67,6.5,20.1,10.85,26.33l.79,1.17a78.42,78.42,0,0,0,8.41,10.06C840.5,633.75,843.73,637.13,844.86,643.29Z"></path>
                <path d="M835.28,541.24c3.61-1.24,7.25-2.37,10.93-3.31a102.53,102.53,0,0,0-8.82,10.52,3.51,3.51,0,0,1-.87.11,3.75,3.75,0,0,1-3.08-5.93A3.58,3.58,0,0,1,835.28,541.24Z"></path>
                <path d="M832.65,964.91a872.14,872.14,0,0,1,6.05,108.93,870.58,870.58,0,0,1-6.87,103.62H812.9a858.24,858.24,0,0,0,7-103.77A859.35,859.35,0,0,0,813.08,960l.53.23a14.31,14.31,0,0,0,2.48,1.05,4.13,4.13,0,0,0,.94.26,8.62,8.62,0,0,0,1.76.38c.15,0,.3,0,.53.08A107.07,107.07,0,0,1,832.65,964.91Z"></path>
                <path d="M827,933.29a15,15,0,0,1,7.59,19.83,14.39,14.39,0,0,1-2.86,4.24c-.33-2.89-.71-5.82-1.12-8.71A9.4,9.4,0,0,0,812,951.2c.37,2.9.79,5.75,1.12,8.64a15,15,0,0,1,9.84-27.72c.61.08,1.36.19,2.22.34Z"></path>
                <path d="M831.71,957.36c.34,2.52.64,5,.94,7.55a107.07,107.07,0,0,0-13.33-3c.52,0,1,.07,1.54.07A14.82,14.82,0,0,0,831.71,957.36Z"></path>
                <path d="M831.83,1177.46c-.49,4.21-1.05,8.42-1.66,12.59a9.4,9.4,0,0,1-9.31,8.07,8.81,8.81,0,0,1-1.32-.11,9.32,9.32,0,0,1-8-10.59c.45-3.31.9-6.61,1.32-10Z"></path>
                <path d="M830.59,948.65c.41,2.89.79,5.82,1.12,8.71A14.82,14.82,0,0,1,820.86,962c-.53,0-1,0-1.54-.07-.23,0-.38,0-.53-.08a8.62,8.62,0,0,1-1.76-.38,3.63,3.63,0,0,1-.94-.26,14.31,14.31,0,0,1-2.48-1.05,6.11,6.11,0,0,1-.53-.34c-.33-2.89-.75-5.74-1.12-8.64a9.4,9.4,0,0,1,18.63-2.55Z"></path>
                <path d="M834.57,552.54c-1.5,2.22-2.71,4.25-3.76,6A5.52,5.52,0,0,1,834.57,552.54Z"></path>
                <path d="M644.58,851.86l180.56,80.6c-.86-.15-1.61-.26-2.22-.34a15,15,0,0,0-9.84,27.72s0,.08,0,.11l-171.8-76.69c-2.4-5.22-4.77-9.84-6.91-13.79a14,14,0,0,0,2.51-3.38Z"></path>
                <path d="M820.86,1198.12V1200H400.29v-1.88l26-18.33,3.53,4.59a19.46,19.46,0,0,0,26.71,4.09l14.16-10a12.16,12.16,0,0,0,1.35-1.06H812.9c-.42,3.35-.87,6.65-1.32,10a9.32,9.32,0,0,0,8,10.59A8.81,8.81,0,0,0,820.86,1198.12Z"></path>
                <path d="M813.08,960a859.35,859.35,0,0,1,6.84,113.74,858.24,858.24,0,0,1-7,103.77H472a19.49,19.49,0,0,0,2.74-27l-2.44-3.08,50.82-35.83A28.87,28.87,0,0,0,535.21,1092a29.77,29.77,0,0,0-.45-11.23c23.13-.46,51-5.94,74.14-24.61a134.24,134.24,0,0,0,39.82-52.43c19-46.09,5.59-92.06-7.44-120.49Z"
                      class="cls-5"></path>
                <path d="M816.09,961.23a3.63,3.63,0,0,0,.94.26A4.13,4.13,0,0,1,816.09,961.23Z"></path>
                <path d="M813.61,960.18l-.53-.23s0-.07,0-.11A6.11,6.11,0,0,0,813.61,960.18Z"></path>
                <path d="M811.32,704.25a5.62,5.62,0,0,1-5.6,5.63,100.67,100.67,0,0,1-11.15-.64c-13.79-1.69-21.3-6-28-9.8-5.3-3-9.88-5.67-17.5-7-6.91-1.16-11.87-.45-16.64.26-6.5.94-13.19,2-22.31-2.17l.07-.08c-1.58-.64-4.51-2-10.63-5-3.6,5.85-9.43,17.87-5.52,29.07.94,2.78,3.79,8.33,12,14.38,21.64,15.85,51.09,13.07,66.71,10a5.62,5.62,0,1,1,2.14,11,133.51,133.51,0,0,1-25.58,2.56c-16,0-34.44-3.23-49.92-14.54-10.14-7.44-14.31-14.87-16-19.79-7.4-21.45,9.17-42.56,9.88-43.46l2.78-3.49,4.06,2c12.47,6,14.38,6.91,14.68,7.06,6.13,2.74,10.07,2.14,16,1.28a59.64,59.64,0,0,1,20.17-.23c9.57,1.62,15.51,5,21.22,8.3,6.27,3.57,12.2,7,23.74,8.38a81.85,81.85,0,0,0,9.69.56h0A5.66,5.66,0,0,1,811.32,704.25Z"></path>
                <path d="M775.75,555.66a5.61,5.61,0,0,1,5,6.24,139,139,0,0,1-8.49,34.1,131.76,131.76,0,0,1-6,13.15,5.62,5.62,0,0,1-5,3,5.29,5.29,0,0,1-2.59-.64,5.62,5.62,0,0,1-2.41-7.59,129.43,129.43,0,0,0,5.49-12.05,126.81,126.81,0,0,0,7.77-31.33A5.65,5.65,0,0,1,775.75,555.66Z"></path>
                <path d="M777.18,508.82a5.65,5.65,0,1,1-7.82,8.15,208,208,0,0,0-18.48-15.7C730.6,486,713,472.69,694.43,475.43c-8.23,1.17-16.19,5.37-23.7,12.55a5.63,5.63,0,1,1-7.78-8.15c9.24-8.83,19.31-14.05,29.9-15.59,23.25-3.31,43.46,11.91,64.83,28.06A216.75,216.75,0,0,1,777.18,508.82Z"></path>
                <path d="M759.33,538.42a3.68,3.68,0,0,1,.6,5.26,3.74,3.74,0,0,1-2.92,1.43,3.62,3.62,0,0,1-2.33-.83c-46.47-37-88.84-16.94-89.25-16.75a3.74,3.74,0,1,1-3.3-6.72C664,519.87,709.23,498.42,759.33,538.42Z"></path>
                <path d="M753.17,571a5.6,5.6,0,0,1-3.79,7c-1.61.49-28.47,8.26-52.81,8.26-10.56,0-20.66-1.46-28-5.63a23.25,23.25,0,0,1-11.53-14.84A5.63,5.63,0,0,1,668,563.06a12.09,12.09,0,0,0,6.19,7.77c6.05,3.46,15.29,4.47,25.32,4.14a17.89,17.89,0,0,0,9-.57,222.49,222.49,0,0,0,37.64-7.21A5.63,5.63,0,0,1,753.17,571Z"></path>
                <path d="M750.28,549.28a5.62,5.62,0,0,1,1,7.88,5.6,5.6,0,0,1-7.89,1.05,101.37,101.37,0,0,0-19.91-11,56.52,56.52,0,0,0,0-6.12,79.27,79.27,0,0,0-16.64-5.15,78.45,78.45,0,0,0-18-1.31,41.64,41.64,0,0,0-2.07,5.75A58.85,58.85,0,0,0,673,543a5.63,5.63,0,1,1-3.49-10.7C710.35,519.08,748.67,548,750.28,549.28Z"></path>
                <path d="M723.54,541.05a56.52,56.52,0,0,1,0,6.12,92.4,92.4,0,0,0-16.9-5.33,6,6,0,0,0-4-2.37,6.12,6.12,0,0,0-4.21,1.09,65.43,65.43,0,0,0-11.57-.22,41.64,41.64,0,0,1,2.07-5.75,78.45,78.45,0,0,1,18,1.31A79.27,79.27,0,0,1,723.54,541.05Z"></path>
                <path d="M723.5,547.17c-.79,13.67-6.5,24.23-14.61,27.12l-.34.11c-3,.3-6.08.49-9,.57a14.62,14.62,0,0,1-3.68-1.13c-5-2.48-7.06-7.1-8.34-10.14-3.72-8.6-2.37-17.47-.64-23.36a65.43,65.43,0,0,1,11.57.22c-2.48,1.62-4.39,4.92-4.92,8.9-.79,6,2,11.38,6.27,11.95s8.38-3.91,9.13-10a12.78,12.78,0,0,0-2.29-9.61A92.4,92.4,0,0,1,723.5,547.17Z"
                      class="cls-5"></path>
                <path d="M706.6,541.84a12.78,12.78,0,0,1,2.29,9.61c-.75,6-4.85,10.52-9.13,10s-7.06-5.9-6.27-11.95c.53-4,2.44-7.28,4.92-8.9A71.73,71.73,0,0,1,706.6,541.84Z"
                      class="cls-6"></path>
                <path d="M708.55,574.4a17.89,17.89,0,0,1-9,.57C702.47,574.89,705.51,574.7,708.55,574.4Z"></path>
                <path d="M702.62,539.47a6,6,0,0,1,4,2.37,71.73,71.73,0,0,0-8.19-1.28A6.12,6.12,0,0,1,702.62,539.47Z"
                      class="cls-6"></path>
                <path d="M682.26,791.05a5.65,5.65,0,0,1-3.64,10,5.74,5.74,0,0,1-3.69-1.35l-1.39-1.2a14.89,14.89,0,0,0-.9-15.59Z"></path>
                <path d="M672.64,782.86a14.89,14.89,0,0,1,.9,15.59L654.24,782a15,15,0,0,1,14.31-2.66Z"></path>
                <path d="M673.54,798.45s0,0,0,.07l-8.45,15.59c-1.62-1.35-3.27-2.7-5-4.13l-5.82-4.77a15,15,0,0,1-2.07-21.15,13.67,13.67,0,0,1,2.07-2Z"></path>
                <path d="M672.64,782.86l-4.09-3.49c.49.15.94.34,1.39.49l0,0A13.32,13.32,0,0,1,672.64,782.86Z"></path>
                <path d="M667.46,778.17a13.89,13.89,0,0,1,2.48,1.69c-.45-.15-.9-.34-1.39-.49l-1.84-1.54A2.41,2.41,0,0,1,667.46,778.17Z"></path>
                <path d="M666.71,777.83l1.84,1.54A15,15,0,0,0,654.24,782l-3-2.63A14.89,14.89,0,0,1,666.71,777.83Z"></path>
                <path d="M628.51,745.3l38.2,32.53a14.89,14.89,0,0,0-15.51,1.57l-30-25.54a5.63,5.63,0,1,1,7.33-8.56Z"></path>
                <path d="M665.06,814.11l-20.48,37.75-14.79-6.61a15,15,0,0,0-19.35,6.53l36.62-67.57a14.79,14.79,0,0,1,4.14-4.81l3,2.63a13.67,13.67,0,0,0-2.07,2,15,15,0,0,0,2.07,21.15l5.82,4.77C661.79,811.41,663.44,812.76,665.06,814.11Z"></path>
                <path d="M641.28,883.26c13,28.43,26.48,74.4,7.44,120.49a134.24,134.24,0,0,1-39.82,52.43c-23.17,18.67-51,24.15-74.14,24.61a29.09,29.09,0,0,0-5.34-11l-6.08-7.85c21.6,1,50.89-1.84,73.77-20.32a117.55,117.55,0,0,0,34.25-45c24.57-59.6-15.55-122.25-20.2-129.2a5,5,0,0,1-.49-.9c.11.15.22.33.34.52a9.55,9.55,0,0,0,.78,1.13,10.38,10.38,0,0,0,1.21,1.39,1.24,1.24,0,0,0,.22.19,11.36,11.36,0,0,0,1.43,1.24.15.15,0,0,0,.07,0,14,14,0,0,0,1.77,1.13,9.38,9.38,0,0,0,1,.53l.68.3Z"></path>
                <path d="M644.58,851.86l-7.7,14.23a14,14,0,0,1-2.51,3.38c-3.27-5.82-6-10.1-7.59-12.5a9.38,9.38,0,0,0-16.41,8.94,4.49,4.49,0,0,1-.38-.76,3,3,0,0,1-.22-.56,10.5,10.5,0,0,1-.61-1.73,13.79,13.79,0,0,1-.37-1.76,2.11,2.11,0,0,0-.08-.53c0-.52-.07-1.09-.07-1.61a13.44,13.44,0,0,1,.37-3.2,6.18,6.18,0,0,1,.19-.82,5.53,5.53,0,0,1,.34-1.09c.11-.3.23-.57.34-.87,0,0,0-.11.07-.15.15-.37.34-.71.49-1.05a15,15,0,0,1,19.35-6.53Z"></path>
                <path d="M641.28,883.26,618.22,873a15.44,15.44,0,0,0,5.44,1,15,15,0,0,0,10.71-4.51C636.51,873.42,638.88,878,641.28,883.26Z"></path>
                <path d="M638.65,400.16a3.67,3.67,0,0,1-1.46,3.35,3.87,3.87,0,0,1-1.92.75c-.23,0-5.52.56-14.24,2,3-3.08,6-6.05,9.13-9,2.44-.34,4-.49,4.4-.53A3.76,3.76,0,0,1,638.65,400.16Z"></path>
                <path d="M637.19,403.51l1.35,1.39a252.74,252.74,0,0,0-21.45,22.49l-1.46-1.24a3.75,3.75,0,0,0,.6-3.26,3.79,3.79,0,0,0-4.62-2.63c-.42.11-1.92.52-4.29,1.24,4.32-5.22,8.91-10.33,13.71-15.21,8.72-1.47,14-2,14.24-2A3.87,3.87,0,0,0,637.19,403.51Z"></path>
                <path d="M626.78,857c1.58,2.4,4.32,6.68,7.59,12.5A15,15,0,0,1,623.66,874a15.44,15.44,0,0,1-5.44-1l-.68-.3a9.38,9.38,0,0,1-1-.53,11.63,11.63,0,0,1-1.77-1.13.15.15,0,0,1-.07,0,11.36,11.36,0,0,1-1.43-1.24,1.24,1.24,0,0,1-.22-.19c-.42-.45-.83-.9-1.21-1.39A7.11,7.11,0,0,1,611,867c-.12-.19-.23-.37-.34-.52a.78.78,0,0,1-.19-.34,1.27,1.27,0,0,1-.11-.26A9.38,9.38,0,0,1,626.78,857Z"></path>
                <path d="M630.16,397.31c-3.12,2.93-6.16,5.9-9.13,9-27.15,4.58-87.44,18.06-129.81,52.24-.79-2.63-1.5-5.26-2.14-7.92C539.83,411.09,611.61,399.67,630.16,397.31Z"
                      class="cls-7"></path>
                <path d="M615.63,426.15l1.46,1.24A253.67,253.67,0,0,0,595,457.48l-1.61-1a3.91,3.91,0,0,0,.26-2.77,3.74,3.74,0,0,0-4.62-2.6c-.38.12-1.8.49-4.09,1.21q6.48-10.49,13.93-20.29c8.87-2.85,14.5-4.43,14.72-4.5A3.78,3.78,0,0,0,615.63,426.15Z"></path>
                <path d="M614.72,871a11.63,11.63,0,0,0,1.77,1.13A14,14,0,0,1,614.72,871Z"></path>
                <path d="M616.23,422.89a3.73,3.73,0,0,1-2.6,4.62c-.22.07-5.85,1.65-14.72,4.5q4-5.34,8.41-10.51c2.37-.72,3.87-1.13,4.29-1.24A3.79,3.79,0,0,1,616.23,422.89Z"></path>
                <path d="M613.22,869.74a11.36,11.36,0,0,0,1.43,1.24A11.36,11.36,0,0,1,613.22,869.74Z"></path>
                <path d="M611.79,868.16c.38.49.79.94,1.21,1.39A10.38,10.38,0,0,1,611.79,868.16Z"></path>
                <path d="M611,867a7.11,7.11,0,0,0,.78,1.13A9.55,9.55,0,0,1,611,867Z"></path>
                <path d="M621,406.29c-4.8,4.88-9.39,10-13.71,15.21-16.71,4.95-77.18,24-112,49.91-1.47-4.24-2.82-8.56-4.06-12.88C533.59,424.35,593.88,410.87,621,406.29Z"
                      class="cls-8"></path>
                <path d="M610.37,865.91a1.27,1.27,0,0,0,.11.26,0,0,0,0,1,0,0A.47.47,0,0,1,610.37,865.91Z"></path>
                <path d="M610.37,865.91a.47.47,0,0,0,.07.22c-.15-.34-.3-.64-.45-1A4.49,4.49,0,0,0,610.37,865.91Z"></path>
                <path d="M609.88,853c-.11.3-.23.57-.34.87A3.84,3.84,0,0,1,609.88,853Z"></path>
                <path d="M609.16,862.86a10.5,10.5,0,0,0,.61,1.73A9.61,9.61,0,0,1,609.16,862.86Z"></path>
                <path d="M609.54,853.85a5.53,5.53,0,0,0-.34,1.09A6.24,6.24,0,0,1,609.54,853.85Z"></path>
                <path d="M609.2,854.94a6.18,6.18,0,0,0-.19.82A2.05,2.05,0,0,1,609.2,854.94Z"></path>
                <path d="M608.79,861.1a13.79,13.79,0,0,0,.37,1.76A12.48,12.48,0,0,1,608.79,861.1Z"></path>
                <path d="M608.64,859c0,.52,0,1.09.07,1.61C608.68,860.05,608.64,859.48,608.64,859Z"></path>
                <path d="M607.32,421.5q-4.4,5.17-8.41,10.51c-24.3,7.82-72.94,25.17-100.93,46.8-1-2.44-1.87-4.92-2.7-7.4C530.14,445.46,590.61,426.45,607.32,421.5Z"
                      class="cls-7"></path>
                <path d="M595,457.48q-1.63,2.53-3.15,5.07a249.31,249.31,0,0,0-12.59,23.81l-1.72-.82a4,4,0,0,0-.15-2.52,3.77,3.77,0,0,0-4.92-2c-.15.08-1.54.64-4,1.84q4.8-10.59,10.6-20.73c7.21-2.44,11.83-3.76,12-3.79a3.9,3.9,0,0,0,2.33-1.85Z"></path>
                <path d="M593.69,453.69a3.67,3.67,0,0,1-2.59,4.62c-.15,0-4.77,1.35-12,3.79,1-1.8,2-3.57,3.08-5.33.9-1.51,1.8-3,2.78-4.47,2.29-.72,3.71-1.09,4.09-1.21A3.74,3.74,0,0,1,593.69,453.69Z"></path>
                <path d="M598.91,432q-7.44,9.81-13.93,20.29c-13.45,4.13-56.23,18.29-81.85,39.25-1.88-4.21-3.61-8.46-5.15-12.74C526,457.18,574.61,439.83,598.91,432Z"
                      class="cls-8"></path>
                <path d="M585,452.3c-1,1.46-1.88,3-2.78,4.47-1.06,1.76-2.11,3.53-3.08,5.33-13.11,4.43-34.79,12.51-53.45,23.21-5-.71-9.54,3-11.5,4.66l-.41.34a21.45,21.45,0,0,0-5.3,6.57c-.71.6-1.42,1.16-2.1,1.8-1.16-2.36-2.22-4.73-3.23-7.13C528.75,470.59,571.53,456.43,585,452.3Z"
                      class="cls-7"></path>
                <path d="M577.58,485.54l1.72.82a261.8,261.8,0,0,0-12.09,30.84c-2,6.35-10.14,7.66-16.87,6.23-6.94-1.5-10.4-7-13.78-12.35-.68-1.09-1.39-2.18-2.14-3.31l1.61-1a3.73,3.73,0,0,0,5.22.93c1.58-1.09,3.12-2.1,4.59-3.08.07.15.18.27.26.42,2.82,4.5,4.39,6.87,6.61,7.36a12.2,12.2,0,0,0,4.17.11c2.07-6.35,4.36-12.66,6.91-18.82,7.25-4,11.49-5.74,11.57-5.78A4.11,4.11,0,0,0,577.58,485.54Z"></path>
                <path d="M577.43,483a4,4,0,0,1,.15,2.52,4.11,4.11,0,0,1-2.22,2.4c-.08,0-4.32,1.8-11.57,5.78,1.47-3.68,3-7.28,4.73-10.89,2.45-1.2,3.84-1.76,4-1.84A3.77,3.77,0,0,1,577.43,483Z"></path>
                <path d="M579.12,462.1q-5.8,10.14-10.6,20.73a228.79,228.79,0,0,0-26.89,15.59,49.45,49.45,0,0,0-9.35-9.58c-1-.75-2-1.46-2.93-2.1a9,9,0,0,0-3.68-1.43C544.33,474.61,566,466.53,579.12,462.1Z"
                      class="cls-8"></path>
                <path d="M568.52,482.83c-1.69,3.61-3.26,7.21-4.73,10.89-4.77,2.63-10.89,6.24-17.95,10.93-1.2-1.91-2.59-4-4.21-6.23A228.79,228.79,0,0,1,568.52,482.83Z"
                      class="cls-7"></path>
                <path d="M563.79,493.72c-2.55,6.16-4.84,12.47-6.91,18.82a12.2,12.2,0,0,1-4.17-.11c-2.22-.49-3.79-2.86-6.61-7.36-.08-.15-.19-.27-.26-.42C552.9,500,559,496.35,563.79,493.72Z"
                      class="cls-8"></path>
                <path d="M545.84,504.65c-1.47,1-3,2-4.59,3.08a3.73,3.73,0,0,1-5.22-.93,3.75,3.75,0,0,1,.94-5.23c1.62-1.08,3.16-2.17,4.66-3.15C543.25,500.6,544.64,502.74,545.84,504.65Z"></path>
                <path d="M542.53,617.45a15,15,0,0,1-.34,12.2,15,15,0,0,0-28.69-8.15l-10.93,26.71a32,32,0,0,1-5.9.6,21.07,21.07,0,0,1-13.15-4.32,22.52,22.52,0,0,1-7.7-11.38c-3.08-9.58-.41-24.45,7.85-44.28l5.56,7.09a15,15,0,0,0,11.83,5.71,15.19,15.19,0,0,0,9.28-3.19,14.93,14.93,0,0,0,4.28-5.37,149.77,149.77,0,0,0-8.56,22.72c5.63-2,11.31-4.2,16.83-6.49A15.06,15.06,0,0,1,542.53,617.45Z"></path>
                <path d="M533.1,613.28a12.32,12.32,0,0,1,1.28,23.81c-6.53,2.7-13.26,5.26-19.94,7.63a77.26,77.26,0,0,1-11.87,3.49L513.5,621.5A15,15,0,0,1,533.1,613.28Z"></path>
                <path d="M542.19,629.65a15.54,15.54,0,0,1-.9,3.23L489.16,760.21a14.58,14.58,0,0,0,.94-6.27,15,15,0,0,0-15.93-14.05l-9.39.57,37.79-92.25a77.26,77.26,0,0,0,11.87-3.49c6.68-2.37,13.41-4.93,19.94-7.63A15.11,15.11,0,0,0,542.19,629.65Z"></path>
                <path d="M541.63,498.42c-1.5,1-3,2.07-4.66,3.15a3.75,3.75,0,0,0-.94,5.23l-1.61,1a40.5,40.5,0,0,0-9-10c-.45-.37-.91-.71-1.36-1a16,16,0,0,0-2.7,1.91l-.53.45c-3.08,2.48-5.25,9-6.46,16.12h0a9.28,9.28,0,0,0-.49-1.58,18.94,18.94,0,0,0-.79-1.73,6.73,6.73,0,0,0-.38-.68c-2-3.75-3.9-7.51-5.67-11.34.45-1.05,1-2.06,1.5-3a142.54,142.54,0,0,1,17.21-11.57,9,9,0,0,1,3.68,1.43c.94.64,1.91,1.35,2.93,2.1A49.45,49.45,0,0,1,541.63,498.42Z"></path>
                <path d="M534.76,1080.79a29.77,29.77,0,0,1,.45,11.23,28.87,28.87,0,0,1-12.06,19.49l-50.82,35.83-6.16-7.77a9.37,9.37,0,0,0-13.18-1.51l0,0,59.38-41.88a10,10,0,0,0,4.28-7,10.26,10.26,0,0,0-2.06-8l-3.16-4.06.53-.41a9.65,9.65,0,0,0,6.8,3.64c3.9.26,8,.45,12.39.45C532.32,1080.86,533.52,1080.86,534.76,1080.79Z"></path>
                <path d="M534.76,1080.79c-1.24.07-2.44.07-3.65.07-4.35,0-8.49-.19-12.39-.45a9.65,9.65,0,0,1-6.8-3.64,9.4,9.4,0,0,1,8.11-15.1l3.31.22,6.08,7.85A29.09,29.09,0,0,1,534.76,1080.79Z"></path>
                <path d="M514.17,490c2-1.62,6.54-5.37,11.5-4.66a142.54,142.54,0,0,0-17.21,11.57,21.45,21.45,0,0,1,5.3-6.57Z"></path>
                <path d="M500.84,1032.82l22.5,29.07-3.31-.22a9.4,9.4,0,0,0-8.11,15.1l-.53.41L486,1044.31a10.37,10.37,0,0,0-14.38-2.06l-7.25,5.26a5.92,5.92,0,0,0,.71-.6,9.42,9.42,0,0,0,.34-13.3,81.34,81.34,0,0,1-5.33-6.16l.49-.38A29.09,29.09,0,0,1,500.84,1032.82Z"></path>
                <path d="M514.55,1081.24a10.26,10.26,0,0,1,2.06,8,10,10,0,0,1-4.28,7L453,1138l-30.43,21.44-25.5,18H346.28L331,1157.93a10.38,10.38,0,0,1,2.1-14.83l37.37-27.23,80.65-58.71,12.51-9.13.71-.52,7.25-5.26a10.37,10.37,0,0,1,14.38,2.06l25.43,32.87Z"
                      class="cls-9"></path>
                <path d="M516.05,585.6a19.78,19.78,0,0,1,0,2.66c-.07.57-.18,1.09-.3,1.66a9,9,0,0,1-.56,1.87c-.15.42-.34.87-.53,1.28a14.93,14.93,0,0,1-4.28,5.37,15.19,15.19,0,0,1-9.28,3.19,15,15,0,0,1-11.83-5.71l-5.56-7.09c1.13-2.75,2.41-5.6,3.76-8.53A15,15,0,0,1,507.37,573a14.6,14.6,0,0,1,5,3.75,15.2,15.2,0,0,1,2.4,3.76c.12.3.27.6.38.86l.34,1.13a9.37,9.37,0,0,1,.26,1,10.1,10.1,0,0,1,.19,1C516,584.88,516,585.22,516.05,585.6Z"></path>
                <path d="M515.94,584.54c.07.34.07.72.11,1.06C516,585.22,516,584.88,515.94,584.54Z"></path>
                <path d="M515.71,589.92c.12-.57.23-1.09.3-1.66A12.06,12.06,0,0,1,515.71,589.92Z"></path>
                <path d="M515.94,584.54a10.1,10.1,0,0,0-.19-1A10.1,10.1,0,0,1,515.94,584.54Z"></path>
                <path d="M515.75,583.49a9.37,9.37,0,0,0-.26-1A9.37,9.37,0,0,1,515.75,583.49Z"></path>
                <path d="M515.15,581.35c-.11-.26-.26-.56-.38-.86A8.06,8.06,0,0,1,515.15,581.35Z"></path>
                <path d="M515.15,591.79a7,7,0,0,1-.45,1.17s0,.07-.08.11C514.81,592.66,515,592.21,515.15,591.79Z"></path>
                <path d="M514.81,519a13.7,13.7,0,0,0-.11-1.69A13.7,13.7,0,0,1,514.81,519Z"></path>
                <path d="M514.7,517.35a13.7,13.7,0,0,1,.11,1.69,17.6,17.6,0,0,1-.56,4.09,12.75,12.75,0,0,1-1,2.6,90,90,0,0,1,1.09-10.48h0c0,.11,0,.18.08.3a12.24,12.24,0,0,1,.26,1.57A.47.47,0,0,1,514.7,517.35Z"></path>
                <path d="M514.66,521a12.12,12.12,0,0,0,.15-2A11.8,11.8,0,0,1,514.66,521Z"></path>
                <path d="M514.66,517.12a12.24,12.24,0,0,0-.26-1.57A12.24,12.24,0,0,1,514.66,517.12Z"></path>
                <path d="M513.8,513.67a9.28,9.28,0,0,1,.49,1.58,90,90,0,0,0-1.09,10.48,13.79,13.79,0,0,1-4.44,5.33,4,4,0,0,1-1.16.15h-.26a5.65,5.65,0,0,1-5.37-5.86A84.8,84.8,0,0,1,505.12,505a15.24,15.24,0,0,1,7.51,6.23,6.73,6.73,0,0,1,.38.68A15,15,0,0,1,513.8,513.67Z"></path>
                <path d="M514.25,523.13c0,.19-.11.34-.15.53l-1.05,3.23a5.41,5.41,0,0,0,.15-1.09v-.07A12.75,12.75,0,0,0,514.25,523.13Z"></path>
                <path d="M513.8,513.67a15,15,0,0,0-.79-1.73A18.94,18.94,0,0,1,513.8,513.67Z"></path>
                <path d="M513.2,525.73v.07a5.41,5.41,0,0,1-.15,1.09,4.13,4.13,0,0,1-.34,1,5.52,5.52,0,0,1-4,3.16A13.79,13.79,0,0,0,513.2,525.73Z"></path>
                <path d="M512.71,527.9l-11.27,34.9,10.93,13.93a14.6,14.6,0,0,0-5-3.75,15,15,0,0,0-19.94,7.32c-1.35,2.93-2.63,5.78-3.76,8.53l-8.79-11.2a21.33,21.33,0,0,1-3.49-19.6l12.17-37.64c1,2,2,3.87,3,5.79a15,15,0,0,0,20.35,6.08,11.87,11.87,0,0,0,1.84-1.2A5.52,5.52,0,0,0,512.71,527.9Z"></path>
                <path d="M507,499.92c1.77,3.83,3.68,7.59,5.67,11.34a15.24,15.24,0,0,0-7.51-6.23A50.09,50.09,0,0,1,507,499.92Z"></path>
                <path d="M507.6,531.21a4,4,0,0,0,1.16-.15,11.87,11.87,0,0,1-1.84,1.2,15,15,0,0,1-20.35-6.08c-1-1.92-2-3.84-3-5.79l1.95-6a15,15,0,0,1,9.13-9.47l0,0a3.58,3.58,0,0,0,2.52,1,3.69,3.69,0,0,0,2.77-1.2c.23-.23.46-.49.72-.72a14.4,14.4,0,0,1,3.72.72,5.08,5.08,0,0,1,.71.26A84.8,84.8,0,0,0,502,525.35a5.65,5.65,0,0,0,5.37,5.86Z"></path>
                <path d="M506.36,498.68c.68-.64,1.39-1.2,2.1-1.8-.52,1-1,2-1.5,3A6.14,6.14,0,0,1,506.36,498.68Z"
                      class="cls-8"></path>
                <path d="M506.36,498.68a6.14,6.14,0,0,0,.6,1.24,50.09,50.09,0,0,0-1.84,5.11,5.08,5.08,0,0,0-.71-.26,14.4,14.4,0,0,0-3.72-.72A55,55,0,0,1,506.36,498.68Z"></path>
                <path d="M503.13,491.55c1,2.4,2.07,4.77,3.23,7.13a55,55,0,0,0-5.67,5.37,14.29,14.29,0,0,0-6.05.9,3.69,3.69,0,0,1-.19-5.25A83,83,0,0,1,503.13,491.55Z"></path>
                <path d="M500.69,504.05c-.26.23-.49.49-.72.72a3.69,3.69,0,0,1-2.77,1.2,3.58,3.58,0,0,1-2.52-1l0,0A14.29,14.29,0,0,1,500.69,504.05Z"></path>
                <path d="M498,478.81c1.54,4.28,3.27,8.53,5.15,12.74a83,83,0,0,0-8.68,8.15,3.69,3.69,0,0,0,.19,5.25,15,15,0,0,0-9.13,9.47l-1.95,6a296.59,296.59,0,0,1-20.13-50l9.16-2.81a3.9,3.9,0,0,0,1.05,1.95,3.77,3.77,0,0,0,5.3,0,141.65,141.65,0,0,1,12.28-11c1.24,4.32,2.59,8.64,4.06,12.88a114.28,114.28,0,0,0-10.71,9,3.78,3.78,0,0,0-.07,5.33,3.82,3.82,0,0,0,2.7,1.13,3.68,3.68,0,0,0,2.6-1.05A94.53,94.53,0,0,1,498,478.81Z"></path>
                <path d="M495.28,471.41c.83,2.48,1.73,5,2.7,7.4a94.53,94.53,0,0,0-8.18,7,3.68,3.68,0,0,1-2.6,1.05,3.82,3.82,0,0,1-2.7-1.13,3.78,3.78,0,0,1,.07-5.33A114.28,114.28,0,0,1,495.28,471.41Z"></path>
                <path d="M489.08,450.61c.64,2.66,1.35,5.29,2.14,7.92a141.65,141.65,0,0,0-12.28,11,3.77,3.77,0,0,1-5.3,0,3.9,3.9,0,0,1-1.05-1.95,3.77,3.77,0,0,1,1-3.35A151,151,0,0,1,489.08,450.61Z"></path>
                <path d="M490.1,753.94a14.58,14.58,0,0,1-.94,6.27,1.68,1.68,0,0,1-.15.34,15,15,0,0,1-2.37,3.91,10.67,10.67,0,0,1-1.54,1.61,11.53,11.53,0,0,1-1.31,1,5.86,5.86,0,0,1-1,.67,14.92,14.92,0,0,1-6.8,2.1l-.9,0a15.31,15.31,0,0,1-5.71-1.12,15,15,0,0,1-8.19-19.61l3.57-8.71,9.39-.57A15,15,0,0,1,490.1,753.94Z"></path>
                <path d="M488,762.62a13.86,13.86,0,0,0,1.05-2.07A13,13,0,0,1,488,762.62Z"></path>
                <path d="M486.64,764.46a13.77,13.77,0,0,0,1.32-1.84A13.77,13.77,0,0,1,486.64,764.46Z"></path>
                <path d="M485.1,766.07a10.67,10.67,0,0,0,1.54-1.61A10.67,10.67,0,0,1,485.1,766.07Z"></path>
                <path d="M483.79,767.09a8.14,8.14,0,0,1-1,.67A5.86,5.86,0,0,0,483.79,767.09Z"></path>
                <path d="M474.77,1150.42a19.49,19.49,0,0,1-2.74,27H429.59l12.09-8.52,3,4a.74.74,0,0,0,1,.19l14.16-10a.75.75,0,0,0,.3-.48.9.9,0,0,0-.15-.61l-3.08-3.9,15.36-10.82Z"></path>
                <path d="M475.11,769.9,425.23,773q-3.21-9-7-17.76a9.32,9.32,0,0,0-8.6-5.71l-.34-5.6,55.48-3.45-3.57,8.71a15,15,0,0,0,8.19,19.61A15.31,15.31,0,0,0,475.11,769.9Z"></path>
                <path d="M466.17,1139.57l6.16,7.77L457,1158.16l-5.52-6.91a9.4,9.4,0,0,1,14.72-11.68Z"></path>
                <path d="M472,1177.46a12.16,12.16,0,0,1-1.35,1.06l-14.16,10a19.46,19.46,0,0,1-26.71-4.09l-3.53-4.59,3.31-2.33Z"></path>
                <path d="M465.38,1033.61a9.42,9.42,0,0,1-.34,13.3,5.92,5.92,0,0,1-.71.6l-.71.52a9.36,9.36,0,0,1-11.84-1.46c-2.44-2.59-4.77-5.3-6.94-8.08l15.21-11A81.34,81.34,0,0,0,465.38,1033.61Z"></path>
                <path d="M463.62,1048l-12.51,9.13-10.22-15.78,3.95-2.89c2.17,2.78,4.5,5.49,6.94,8.08a9.36,9.36,0,0,0,11.84,1.46Z"></path>
                <path d="M460.05,1162.06a.9.9,0,0,1,.15.61.75.75,0,0,1-.3.48l-14.16,10a.74.74,0,0,1-1-.19l-3-4L457,1158.16Z"
                      class="cls-10"></path>
                <path d="M460.05,1027.45l-15.21,11a113.47,113.47,0,0,1-23.41-81.65c.27-2.67.61-5.34,1.09-8a330.18,330.18,0,0,0,4.29-78.57,327.25,327.25,0,0,0-21.15-96.08L425.23,773a345.32,345.32,0,0,1,20.32,96.08A348,348,0,0,1,441,952.14,95,95,0,0,0,460.05,1027.45Z"></path>
                <path d="M457,1158.16l-15.29,10.78-6-7.74a9.44,9.44,0,0,0-13.19-1.69v0L453,1138l0,0a9.35,9.35,0,0,0-1.54,13.19Z"></path>
                <polygon
                        points="440.89 1041.38 451.11 1057.16 370.46 1115.87 360.13 1100.2 422.64 1054.64 425.68 1052.43 440.89 1041.38"></polygon>
                <path d="M444.84,1038.49l-3.95,2.89-38.76-59.94c2.74-2.29,5.48-4.66,8.22-7.06a13.66,13.66,0,0,0,3.46-4.55,42.57,42.57,0,0,0,3.91-13.41l3.71.42A113.47,113.47,0,0,0,444.84,1038.49Z"
                      class="cls-5"></path>
                <path d="M441.68,1168.94l-12.09,8.52h-5.08l-3.68-4.8a9.39,9.39,0,0,1,14.88-11.46Z"></path>
                <path d="M402.13,981.44l38.76,59.94-15.21,11-38.16-59.05Q394.9,987.58,402.13,981.44Z"></path>
                <polygon points="429.59 1177.46 426.28 1179.79 424.51 1177.46 429.59 1177.46"></polygon>
                <path d="M426.81,870.3a330.18,330.18,0,0,1-4.29,78.57c-.48,2.63-.82,5.3-1.09,8l-3.71-.42c1.57-13.29-3.87-26-15.74-36,13.9-24,0-47.07-19.2-61.79,3.31-14.53,1.39-26.33-5.7-35.08-9.36-11.53-25.25-14.12-36.81-14.27a40.36,40.36,0,0,0-8.53-30.46l73.92-4.55A327.25,327.25,0,0,1,426.81,870.3Z"
                      class="cls-5"></path>
                <polygon
                        points="424.51 1177.46 426.28 1179.79 400.29 1198.12 338.57 1198.12 322.42 1177.46 346.27 1177.46 347.74 1179.34 394.35 1179.34 397.02 1177.46 424.51 1177.46"></polygon>
                <path d="M387.52,993.38l38.16,59.05-3,2.21-47.33,34.45-39.25-59.61A529.2,529.2,0,0,0,387.52,993.38Z"
                      class="cls-10"></path>
                <path d="M425.23,773l-19.57,1.24q-2.21-5.85-4.7-11.6a9.4,9.4,0,0,1,5-12.32,9.29,9.29,0,0,1,12.32,4.92Q422,764,425.23,773Z"></path>
                <path d="M420.83,1172.66l3.68,4.8H397l25.5-18v0A9.36,9.36,0,0,0,420.83,1172.66Z"></path>
                <path d="M422.64,1054.64l-62.5,45.56-40.27-61.07c5.45-3.12,10.85-6.31,16.19-9.65l39.25,59.61Z"></path>
                <path d="M402,920.37c11.87,10,17.31,22.76,15.74,36a42.57,42.57,0,0,1-3.91,13.41,13.66,13.66,0,0,1-3.46,4.55c-2.74,2.4-5.48,4.77-8.22,7.06l-3.83-5.94a9.42,9.42,0,0,0-13-2.81c-.34.22-.67.49-1,.71l-.75-.9q6.93-5.64,13.64-11.53c4.54-10.44,1.39-19.8-9.28-27.8l4.62-1.91a9.43,9.43,0,0,0,5.56-10.52Z"></path>
                <path d="M409.3,743.91l.34,5.6a9.25,9.25,0,0,0-3.72.79,9.4,9.4,0,0,0-5,12.32q2.49,5.75,4.7,11.6l-73.92,4.55a46,46,0,0,0-8.56-8.3c-11.95-9-31.33-5.71-57.81,9.65a14.9,14.9,0,0,0,3.08-20.21l-4.81-7Z"></path>
                <path d="M382.78,858.58c19.24,14.72,33.1,37.75,19.2,61.79l-3.87.37a10.22,10.22,0,0,0-.53-1.8,9.44,9.44,0,0,0-12.32-5l-1.91.82a11.07,11.07,0,0,1,.75-1.24c11.87-16.9-1.88-31.77-12.73-40l5.1-2.74a9.37,9.37,0,0,0,4.29-11.64Z"></path>
                <path d="M398.3,975.5l3.83,5.94q-7.22,6.13-14.61,11.94l-5-7.7a9.41,9.41,0,0,1,1.8-12.28c.31-.22.64-.49,1-.71A9.42,9.42,0,0,1,398.3,975.5Z"></path>
                <path d="M391.27,208.72c7.93,13.52,11.27,29.82,9.66,47.1l-.79,8.34-7.44-3.87a115.23,115.23,0,0,0-37.34-12,84.72,84.72,0,0,0-21-.34,88.23,88.23,0,0,1-21-.3c-8.38-1.16-50.6-8.26-57.77-34.48-4.13-15.21,4.7-31.66,15.59-40,12.36-9.54,31.74-12.62,53.22-8.45C353.07,170.26,378.65,187.12,391.27,208.72Zm-1.2,37.82a63.94,63.94,0,0,0-8.52-32.15c-11-18.85-33.73-33.69-59.28-38.65-18.25-3.57-34.36-1.27-44.17,6.28-9.09,7-14.05,19.11-11.57,28.16,5.49,20.14,46.65,26,48.42,26.3a76.4,76.4,0,0,0,18.48.22c3.12-.26,6.42-.52,10.33-.52a93.64,93.64,0,0,1,13.14.94A126.12,126.12,0,0,1,390.07,246.54Z"></path>
                <path d="M400.29,1198.12V1200h-264v-1.88a9.34,9.34,0,0,0,8.45-5.33l7.36-15.33h170.3l16.16,20.66Z"></path>
                <path d="M398.11,920.74a9.43,9.43,0,0,1-5.56,10.52l-4.62,1.91c-.19-.15-.41-.33-.64-.48a14,14,0,0,1-3.94-18l1.91-.82a9.44,9.44,0,0,1,12.32,5A10.22,10.22,0,0,1,398.11,920.74Z"></path>
                <path d="M387.93,933.17c10.67,8,13.82,17.36,9.28,27.8q-6.7,5.91-13.64,11.53a524.34,524.34,0,0,1-65.8,46.16,513.17,513.17,0,0,1-131.17,54.91,13.76,13.76,0,0,0-8.94,7.37l-46.35,96.52H22.54V1063.55a10.55,10.55,0,0,0,1.61-1.47L126,944.37a13.93,13.93,0,0,0,2.52-4.28l37-100.36a30.88,30.88,0,0,1,19.72-18.63l9.58-2.93.75-.23a16.46,16.46,0,0,1,11.5.71,40.87,40.87,0,0,0,41.24-4.54c26.74-20,46.16-28.81,56.6-29.82,3.23-.3,5.6.11,7,1.2,8.6,6.42,11.6,15,9,25.5a16.06,16.06,0,0,0-.33,1.92l-50.3,32a9.39,9.39,0,0,0,5,17.32,9.53,9.53,0,0,0,5-1.47l51.76-32.83a13.73,13.73,0,0,0,3.08.23c6.16-.38,21.18-.38,27.34,7.21,3.49,4.32,4,11.31,1.58,20.77l-57.54,31A9.38,9.38,0,0,0,311,904.74a9.64,9.64,0,0,0,4.47-1.12l55.93-30.13c10.85,8.23,24.6,23.1,12.73,40a11.07,11.07,0,0,0-.75,1.24l-66,27.68a9.38,9.38,0,0,0,3.65,18,9.28,9.28,0,0,0,3.6-.71Z"
                      class="cls-3"></path>
                <polygon points="397.02 1177.46 394.35 1179.34 347.74 1179.34 346.27 1177.46 397.02 1177.46"></polygon>
                <path d="M387.93,933.17,324.6,959.73a9.44,9.44,0,0,1-12.28-5,9.42,9.42,0,0,1,5-12.29l66-27.68a14,14,0,0,0,3.94,18C387.52,932.84,387.74,933,387.93,933.17Z"></path>
                <path d="M382.52,985.68l5,7.7a529.2,529.2,0,0,1-51.46,36.1l-4.43-6.69a9.38,9.38,0,0,0-13-2.66l-.86-1.47a524.34,524.34,0,0,0,65.8-46.16l.75.9A9.41,9.41,0,0,0,382.52,985.68Z"></path>
                <path d="M379.85,299.35,385,306l-8,2.29A73.08,73.08,0,0,0,354.54,319a53.29,53.29,0,0,0-9.77,8.94,57.76,57.76,0,0,1-10.36,9.54c-3.61,2.59-18.75,12.81-33,12.81a22.69,22.69,0,0,1-12-3.15c-9.5-5.75-13-18.41-11.49-27.87,1.65-10.63,9.77-21.26,22.27-29.19,16.49-10.48,36.78-14.08,52.93-9.39C363.4,283.73,372.61,290.15,379.85,299.35Zm-14.42,1a38.44,38.44,0,0,0-15.4-8.79,43.93,43.93,0,0,0-11.91-1.62,60.31,60.31,0,0,0-31.81,9.7c-9.62,6.12-16,14.12-17.2,21.4-1,6.54,1.73,13.79,6.23,16.53,7.82,4.73,23.7-2.89,32.49-9.2a46.42,46.42,0,0,0,8.53-7.89A65.36,65.36,0,0,1,348,309.87,84.77,84.77,0,0,1,365.43,300.33Z"></path>
                <path d="M381.55,214.39a63.94,63.94,0,0,1,8.52,32.15,126.12,126.12,0,0,0-33.17-9.42,93.64,93.64,0,0,0-13.14-.94c-3.91,0-7.21.26-10.33.52a76.4,76.4,0,0,1-18.48-.22c-1.77-.27-42.93-6.16-48.42-26.3C264.05,201.13,269,189,278.1,182c9.81-7.55,25.92-9.85,44.17-6.28C347.82,180.7,370.54,195.54,381.55,214.39Z"
                      class="cls-11"></path>
                <path d="M377.08,823.5c7.09,8.75,9,20.55,5.7,35.08l-2,.53a11.74,11.74,0,0,0-.49-1.09,9.36,9.36,0,0,0-12.7-3.8l-3.49,1.88c2.44-9.46,1.91-16.45-1.58-20.77-6.16-7.59-21.18-7.59-27.34-7.21a13.73,13.73,0,0,1-3.08-.23l.82-.52a9.4,9.4,0,0,0-10.06-15.89l-2.29,1.43a16.06,16.06,0,0,1,.33-1.92c2.63-10.48-.37-19.08-9-25.5-1.43-1.09-3.8-1.5-7-1.2l-.22-3.83,27.08-1.69a40.36,40.36,0,0,1,8.53,30.46C351.83,809.38,367.72,812,377.08,823.5Z"></path>
                <path d="M380.76,859.11a9.37,9.37,0,0,1-4.29,11.64l-5.1,2.74c-.76-.56-1.47-1.09-2.18-1.58a14,14,0,0,1-5.3-15.06,6.35,6.35,0,0,0,.19-.75l3.49-1.88a9.36,9.36,0,0,1,12.7,3.8A11.74,11.74,0,0,1,380.76,859.11Z"></path>
                <path d="M371.37,873.49l-55.93,30.13a9.64,9.64,0,0,1-4.47,1.12,9.38,9.38,0,0,1-4.43-17.65l57.54-31a6.35,6.35,0,0,1-.19.75,14,14,0,0,0,5.3,15.06C369.9,872.4,370.61,872.93,371.37,873.49Z"></path>
                <path d="M360.14,1100.2l10.32,15.67-37.37,27.23a10.38,10.38,0,0,0-2.1,14.83l15.29,19.53H322.42l-6.23-8a29.15,29.15,0,0,1,5.9-41.61Z"></path>
                <path d="M319.87,1039.13l40.27,61.07-38.05,27.69a29.15,29.15,0,0,0-5.9,41.61l6.23,8H152.12l41.47-86.35a529.13,529.13,0,0,0,64.6-21.82A524.9,524.9,0,0,0,319.87,1039.13Z"
                      class="cls-5"></path>
                <path d="M350,291.54a38.44,38.44,0,0,1,15.4,8.79A84.77,84.77,0,0,0,348,309.87a65.36,65.36,0,0,0-11.61,10.59,46.42,46.42,0,0,1-8.53,7.89c-8.79,6.31-24.67,13.93-32.49,9.2-4.5-2.74-7.25-10-6.23-16.53,1.16-7.28,7.58-15.28,17.2-21.4a60.31,60.31,0,0,1,31.81-9.7A43.93,43.93,0,0,1,350,291.54Z"
                      class="cls-11"></path>
                <path d="M335.8,814.41a9.38,9.38,0,0,1-2.9,13l-.82.52a13.63,13.63,0,0,1-8.42-4.77,14,14,0,0,1-3.11-10.21l2.29-1.43A9.39,9.39,0,0,1,335.8,814.41Z"></path>
                <path d="M331.63,1022.79l4.43,6.69c-5.34,3.34-10.74,6.53-16.19,9.65l-3.94-6a9.4,9.4,0,0,1,15.7-10.33Z"></path>
                <path d="M332.08,827.89l-51.76,32.83a9.53,9.53,0,0,1-5,1.47,9.39,9.39,0,0,1-5-17.32l50.3-32a14,14,0,0,0,3.11,10.21A13.63,13.63,0,0,0,332.08,827.89Z"></path>
                <path d="M331.74,778.77l-27.08,1.69-44.44,2.74c.45-.3.83-.53,1.24-.79a.15.15,0,0,1,.12,0,15.33,15.33,0,0,0,2.92-1.58,4.3,4.3,0,0,0,.87-.67c26.48-15.36,45.86-18.63,57.81-9.65A46,46,0,0,1,331.74,778.77Z"></path>
                <path d="M315.93,1033.12l3.94,6a524.9,524.9,0,0,1-61.68,30.16,529.13,529.13,0,0,1-64.6,21.82l-41.47,86.35H131.31l46.35-96.52a13.76,13.76,0,0,1,8.94-7.37,513.17,513.17,0,0,0,131.17-54.91l.86,1.47A9.35,9.35,0,0,0,315.93,1033.12Z"></path>
                <path d="M304.66,780.46l.22,3.83c-10.44,1-29.86,9.84-56.6,29.82A40.87,40.87,0,0,1,207,818.65a16.46,16.46,0,0,0-11.5-.71l-.75.23-.79-2.56a9.91,9.91,0,0,0,2.56-1.24A9.41,9.41,0,0,0,199,801.3l-1.84-2.66a34.32,34.32,0,0,1,17.54,2.89,22.19,22.19,0,0,0,22.35-2.44q12.33-9.24,23.17-15.89Z"></path>
                <path d="M268.45,759.91a14.9,14.9,0,0,1-3.08,20.21c-1.24.71-2.52,1.46-3.79,2.25a.15.15,0,0,0-.12,0,14.91,14.91,0,0,1-4,.94c-.45,0-.91.07-1.36.07a14.2,14.2,0,0,1-1.84-.11c-.49-.07-1-.15-1.5-.26a16.45,16.45,0,0,1-2.29-.72,14.88,14.88,0,0,1-2.48-1.27s0,0-.07-.08a3.83,3.83,0,0,1-.72-.49,13.83,13.83,0,0,1-2.33-2.1,10.24,10.24,0,0,1-.86-1.09,15,15,0,0,1,11.15-23.89l8.53-.52Z"></path>
                <path d="M265.37,780.12a4.3,4.3,0,0,1-.87.67,15.33,15.33,0,0,1-2.92,1.58C262.85,781.58,264.13,780.83,265.37,780.12Z"></path>
                <path d="M227.21,699.55l36.43,53.34-8.53.52A15,15,0,0,0,244,777.3a1.69,1.69,0,0,1-.34-.41L193.85,704a14.35,14.35,0,0,1-1.88-3.83l.38-.26a15.76,15.76,0,0,0,1.65,3.38,15.06,15.06,0,0,0,20.81,4.36Z"></path>
                <path d="M260.45,640.1a33.35,33.35,0,0,1-10.56,44.62l-22.68,14.83L218.68,687a15.07,15.07,0,0,0-16.34-6,5.55,5.55,0,0,0-3.08.93l34.18-22.42a3.27,3.27,0,0,0,1-4.39l-23.67-40.83a3.23,3.23,0,0,0-2.06-1.54,3,3,0,0,0-2.56.41L156,645c-.34.22-.71.41-1.05.6a15,15,0,0,0,3.57-20.7l-7.93-11.49c-.07-.11-.19-.26-.26-.38l39.78-25.2a33.4,33.4,0,0,1,46.68,11.42Z"></path>
                <path d="M261.46,782.41c-.41.26-.79.49-1.24.79l-2.81.15A14.91,14.91,0,0,0,261.46,782.41Z"></path>
                <path d="M257.41,783.35l2.81-.15q-10.82,6.64-23.17,15.89a22.19,22.19,0,0,1-22.35,2.44,34.32,34.32,0,0,0-17.54-2.89l-26-37.75-.22-.34c-2.14-3.31-4.73-7.36-7.33-11.42-4.58-7.13-9.2-14.27-11.23-17.5a14,14,0,0,0-3.11-3.53L192,700.19a14.35,14.35,0,0,0,1.88,3.83l49.77,72.87a1.69,1.69,0,0,0,.34.41,6.47,6.47,0,0,0,.86,1.09,13.83,13.83,0,0,0,2.33,2.1,2.87,2.87,0,0,0,.72.49s0,.08.07.08a14.88,14.88,0,0,0,2.48,1.27,16.45,16.45,0,0,0,2.29.72c.49.11,1,.19,1.5.26a14.2,14.2,0,0,0,1.84.11C256.5,783.42,257,783.39,257.41,783.35Z"
                      class="cls-10"></path>
                <path d="M252.71,783.05c.49.11,1,.19,1.5.26C253.69,783.24,253.2,783.16,252.71,783.05Z"></path>
                <path d="M247.94,781.06a14.88,14.88,0,0,0,2.48,1.27A14.88,14.88,0,0,1,247.94,781.06Z"></path>
                <path d="M247.15,780.49a3.83,3.83,0,0,0,.72.49A2.87,2.87,0,0,1,247.15,780.49Z"></path>
                <path d="M244,777.3a10.24,10.24,0,0,0,.86,1.09A6.47,6.47,0,0,1,244,777.3Z"></path>
                <path d="M234.46,655.16a3.27,3.27,0,0,1-1,4.39L199.26,682l-1.16.76L130.56,726.9l-1.09.71-37.11,24.3a3.25,3.25,0,0,1-4.47-.86L59.42,710.18a3.26,3.26,0,0,1,.94-4.62l61.3-38.83a2.68,2.68,0,0,0,.34-.27,14.45,14.45,0,0,0,1.31-.82,7.65,7.65,0,0,0,1.24-1l.23-.11,27.42-17.35a15.55,15.55,0,0,0,2.51-1.39,1.28,1.28,0,0,0,.23-.19c.34-.19.71-.38,1.05-.6l50.18-31.78a3,3,0,0,1,2.56-.41,3.23,3.23,0,0,1,2.06,1.54Z"
                      class="cls-9"></path>
                <path d="M218.68,687l8.53,12.51-12.4,8.12A15.06,15.06,0,0,1,194,703.31a15.76,15.76,0,0,1-1.65-3.38l13.07-8.53A5.63,5.63,0,0,0,202.34,681,15.07,15.07,0,0,1,218.68,687Z"></path>
                <path d="M207.07,683.59a5.65,5.65,0,0,1-1.65,7.81l-13.07,8.53a14.93,14.93,0,0,1,1.84-13.3,9.94,9.94,0,0,1,.79-1,13.85,13.85,0,0,1,2.82-2.48,14.38,14.38,0,0,1,4.54-2.1A5.66,5.66,0,0,1,207.07,683.59Z"></path>
                <path d="M199.26,682a5.55,5.55,0,0,1,3.08-.93,14.38,14.38,0,0,0-4.54,2.1,13.85,13.85,0,0,0-2.82,2.48,13.91,13.91,0,0,1,3.12-2.89Z"></path>
                <path d="M199,801.3a9.41,9.41,0,0,1-2.44,13.07,9.91,9.91,0,0,1-2.56,1.24,9.44,9.44,0,0,1-2.74.42,9.31,9.31,0,0,1-7.74-4.1l-5.63-8.19c.6-.22,1.2-.41,1.84-.6L190.06,800a32,32,0,0,1,7.1-1.35Z"></path>
                <path d="M130.56,726.9l67.54-44.17a13.91,13.91,0,0,0-3.12,2.89,9.94,9.94,0,0,0-.79,1A15,15,0,0,0,192,700.19L149.31,728.1a14.28,14.28,0,0,0-6.92-3.19,2.69,2.69,0,0,0-.78-.15A14.7,14.7,0,0,0,130.56,726.9Z"></path>
                <path d="M171.2,760.89l26,37.75a32,32,0,0,0-7.1,1.35l-10.33,3.15c-.64.19-1.24.38-1.84.6l-9.8-14.23,3.75-3.08a13.69,13.69,0,0,0,2.48-2.63,4.16,4.16,0,0,0,.6-.86,6.27,6.27,0,0,0,.38-.57c.15-.26.3-.56.45-.86s.22-.49.34-.75a9.78,9.78,0,0,0,.37-1,8,8,0,0,0,.41-1.39,11.5,11.5,0,0,0,.34-1.73,14.45,14.45,0,0,0-.37-5.59,5.13,5.13,0,0,0-.38-1.21,3.84,3.84,0,0,0-.34-.86,4.78,4.78,0,0,0-.26-.64,4.44,4.44,0,0,0-.45-.86,6.59,6.59,0,0,0-.41-.72C174.13,765.43,172.78,763.37,171.2,760.89Z"></path>
                <path d="M194,815.61l.79,2.56-9.58,2.93a30.88,30.88,0,0,0-19.72,18.63l-37,100.36a13.93,13.93,0,0,1-2.52,4.28L24.15,1062.08a10.55,10.55,0,0,1-1.61,1.47v-28.33l88.64-102.46,36.7-99.53a49.62,49.62,0,0,1,30-29.49l5.63,8.19a9.31,9.31,0,0,0,7.74,4.1A9.44,9.44,0,0,0,194,815.61Z"></path>
                <path d="M192.35,699.93l-.38.26a15,15,0,0,1,2.22-13.56A14.93,14.93,0,0,0,192.35,699.93Z"></path>
                <path d="M168.09,789.51l9.8,14.23a49.62,49.62,0,0,0-30,29.49l-36.7,99.53L22.54,1035.22v-127A15.89,15.89,0,0,0,26.29,906Z"
                      class="cls-4"></path>
                <path d="M176.84,771.07a14.45,14.45,0,0,1,.37,5.59,11.5,11.5,0,0,1-.34,1.73,8,8,0,0,1-.41,1.39,7.1,7.1,0,0,1-.37,1c-.12.26-.23.52-.34.75s-.3.56-.45.86a6.27,6.27,0,0,1-.38.57,5.59,5.59,0,0,1-.6.86,13.69,13.69,0,0,1-2.48,2.63c-.49.37-1,.75-1.5,1.09a11.28,11.28,0,0,1-2.71,1.31l-12.77-18.55a9.47,9.47,0,0,1-1.35-7.63,15,15,0,0,1,20.4,2.67,14.33,14.33,0,0,1,1.5,2.18c.15.3.3.56.45.86a4.78,4.78,0,0,1,.26.64,3.84,3.84,0,0,1,.34.86C176.61,770.28,176.72,770.65,176.84,771.07Z"></path>
                <path d="M177.21,776.66a14.21,14.21,0,0,0,.12-1.84A14.21,14.21,0,0,1,177.21,776.66Z"></path>
                <path d="M176.87,778.39a11.5,11.5,0,0,0,.34-1.73A11.5,11.5,0,0,1,176.87,778.39Z"></path>
                <path d="M176.84,771.07c-.12-.42-.23-.79-.38-1.21A5.13,5.13,0,0,1,176.84,771.07Z"></path>
                <path d="M176.46,769.86a3.84,3.84,0,0,0-.34-.86A3.84,3.84,0,0,1,176.46,769.86Z"></path>
                <path d="M176.09,780.76a7.1,7.1,0,0,0,.37-1A9.78,9.78,0,0,1,176.09,780.76Z"></path>
                <path d="M175.86,768.36c-.15-.3-.3-.56-.45-.86A4.44,4.44,0,0,1,175.86,768.36Z"></path>
                <path d="M175.3,782.37c.15-.3.3-.56.45-.86C175.6,781.81,175.45,782.11,175.3,782.37Z"></path>
                <path d="M175,766.78a6.59,6.59,0,0,1,.41.72,14.33,14.33,0,0,0-1.5-2.18,15,15,0,0,0-20.4-2.67,9.27,9.27,0,0,1,3.76-5.44,9.41,9.41,0,0,1,13.07,2.44l.64.9.22.34C172.78,763.37,174.13,765.43,175,766.78Z"></path>
                <path d="M174.32,783.8a5.59,5.59,0,0,0,.6-.86A4.16,4.16,0,0,1,174.32,783.8Z"></path>
                <path d="M171.84,786.43l-3.75,3.08-.46-.68a11.28,11.28,0,0,0,2.71-1.31C170.87,787.18,171.35,786.8,171.84,786.43Z"></path>
                <path d="M163.65,749.13c2.6,4.06,5.19,8.11,7.33,11.42l-.64-.9a9.41,9.41,0,0,0-13.07-2.44,9.27,9.27,0,0,0-3.76,5.44,9.29,9.29,0,0,0-.75.57l-10.29,8.45c-1.35-2-2.71-4.17-4.1-6.31L134.92,760,147,752.06a15,15,0,0,0,1.88-23.7l.42-.26a14,14,0,0,1,3.11,3.53C154.45,734.86,159.07,742,163.65,749.13Z"></path>
                <path d="M167.63,788.83l.46.68L26.29,906a15.89,15.89,0,0,1-3.75,2.25v-38l119.93-98.55c3,4.77,5.71,8.94,7.14,11.23a15,15,0,0,0,12.69,7A13.76,13.76,0,0,0,167.63,788.83Z"></path>
                <path d="M154.86,770.28l12.77,18.55a13.76,13.76,0,0,1-5.33,1,15,15,0,0,1-12.69-7c-1.43-2.29-4.14-6.46-7.14-11.23l10.29-8.45a9.29,9.29,0,0,1,.75-.57A9.47,9.47,0,0,0,154.86,770.28Z"></path>
                <path d="M158.51,624.88a15,15,0,0,1-3.57,20.7c-.3.15-.6.3-.86.41a5.66,5.66,0,0,0-6.09-9.54l-10.48,6.65a16.27,16.27,0,0,1-2.25-2.78,15,15,0,0,1,4.65-20.73L150.32,613c.07.12.19.27.26.38Z"></path>
                <path d="M155.77,638.22a5.68,5.68,0,0,1-1.69,7.77.15.15,0,0,1-.12,0,15,15,0,0,1-16.45-2.93L148,636.45A5.66,5.66,0,0,1,155.77,638.22Z"></path>
                <path d="M154.08,646c.26-.11.56-.26.86-.41a1.28,1.28,0,0,1-.23.19,15.55,15.55,0,0,1-2.51,1.39L154,646A.15.15,0,0,0,154.08,646Z"></path>
                <path d="M154,646l-1.76,1.13a15,15,0,0,1-16.49-2.93l1.8-1.13A15,15,0,0,0,154,646Z"></path>
                <path d="M152.2,647.16l-27.42,17.35-.23.11a14.93,14.93,0,0,0,4.25-16l6.91-4.39A15,15,0,0,0,152.2,647.16Z"></path>
                <path d="M152.12,1177.46l-7.36,15.33a9.37,9.37,0,0,1-16.9-8.11l3.45-7.22Z"></path>
                <path d="M151.37,731.25A15,15,0,0,1,147,752.06L134.92,760c-3.34-5.19-6.35-9.84-7.89-12.29a15,15,0,0,1-.07-15.88,5.6,5.6,0,0,0,5.59,6.12,5.77,5.77,0,0,0,3.08-.9l13.26-8.68A15,15,0,0,1,151.37,731.25Z"></path>
                <path d="M150.32,613l-10.41,6.58a15,15,0,0,0-4.65,20.73,16.27,16.27,0,0,0,2.25,2.78l-1.8,1.13a13.9,13.9,0,0,1-1.92-2.26l-5.74-8.3-6.28,4,5,7a15.06,15.06,0,0,1,2,3.94l-.94.6a14.06,14.06,0,0,0-1.54-3.23,15.08,15.08,0,0,0-20.74-4.66l-12.32,7.82a26.06,26.06,0,0,1,8.87-34.67l13.14-8.26A26,26,0,0,1,150.32,613Z"></path>
                <path d="M149.31,728.1l-.42.26a14.91,14.91,0,0,0-6.5-3.45A14.28,14.28,0,0,1,149.31,728.1Z"></path>
                <path d="M148.89,728.36,135.63,737a5.77,5.77,0,0,1-3.08.9,5.6,5.6,0,0,1-5.59-6.12,14.5,14.5,0,0,1,4.73-4.85,15,15,0,0,1,9.92-2.21,2.69,2.69,0,0,1,.78.15A14.91,14.91,0,0,1,148.89,728.36Z"></path>
                <path d="M142.47,771.67,22.54,870.22v-162h6.27a33.6,33.6,0,0,0,6,19.11l28.47,40.83a33.13,33.13,0,0,0,45.6,8.83l26.07-17,3.45,5.37C139.76,767.5,141.12,769.64,142.47,771.67Z"
                      class="cls-1"></path>
                <path d="M141.61,724.76a15,15,0,0,0-9.92,2.21,14.5,14.5,0,0,0-4.73,4.85,5.48,5.48,0,0,1,2.51-4.21l1.09-.71A14.7,14.7,0,0,1,141.61,724.76Z"></path>
                <path d="M136.31,1198.12V1200H0V1055.92H7.66a9.34,9.34,0,0,0,3.23,7.1,9.46,9.46,0,0,0,11.65.53v113.91H131.31l-3.45,7.22a9.4,9.4,0,0,0,8.45,13.44Z"></path>
                <path d="M135.71,644.23l-6.91,4.39a15.06,15.06,0,0,0-2-3.94l-5-7,6.28-4,5.74,8.3A13.9,13.9,0,0,0,135.71,644.23Z"
                      class="cls-10"></path>
                <path d="M134.92,760l-26.07,17a33.13,33.13,0,0,1-45.6-8.83L34.78,727.38a33.6,33.6,0,0,1-6-19.11,32.22,32.22,0,0,1,.64-6.54,33.33,33.33,0,0,1,14.83-21.56l49-31c.49.86,1,1.69,1.58,2.51l7.51,10.48A14.95,14.95,0,0,0,122,666.46a2.68,2.68,0,0,1-.34.27l-61.3,38.83a3.26,3.26,0,0,0-.94,4.62l28.47,40.87a3.25,3.25,0,0,0,4.47.86l37.11-24.3a5.48,5.48,0,0,0-2.51,4.21A15,15,0,0,0,127,747.7C128.57,750.15,131.58,754.8,134.92,760Z"></path>
                <path d="M128.8,648.62a14.93,14.93,0,0,1-4.25,16,3.14,3.14,0,0,1-.64.3,14.91,14.91,0,0,0,4-15.7Z"></path>
                <path d="M127.86,649.22a14.91,14.91,0,0,1-4,15.7,5.2,5.2,0,0,1-2.14.45,5.71,5.71,0,0,1-4.77-2.63,5.64,5.64,0,0,1,1.77-7.77Z"></path>
                <path d="M127.86,649.22,118.77,655a5.64,5.64,0,0,0-1.77,7.77,5.71,5.71,0,0,0,4.77,2.63,5.2,5.2,0,0,0,2.14-.45,10.49,10.49,0,0,1-1.91,1.54,14.95,14.95,0,0,1-19.65-4.32l-7.51-10.48c-.56-.82-1.09-1.65-1.58-2.51l12.32-7.82A15.08,15.08,0,0,1,126.32,646,14.06,14.06,0,0,1,127.86,649.22Z"></path>
                <path d="M124.55,664.62a7.65,7.65,0,0,1-1.24,1,14.45,14.45,0,0,1-1.31.82,10.49,10.49,0,0,0,1.91-1.54A3.14,3.14,0,0,0,124.55,664.62Z"></path>
                <path d="M22.54,1035.22v28.33a9.46,9.46,0,0,1-11.65-.53,9.42,9.42,0,0,1-.94-13.26Z"></path>
                <path d="M22.54,908.27v127L10,1049.76a9.43,9.43,0,0,0-2.29,6.16H0V894.41H1.73a15,15,0,0,0,15,15A14.72,14.72,0,0,0,22.54,908.27Z"></path>
                <path d="M22.54,870.22v38a14.72,14.72,0,0,1-5.79,1.17,15,15,0,0,1-9.54-26.63Z"></path>
            </g>
            <path d="M741.74,630.68a5,5,0,0,1-4.67-6.77A36.5,36.5,0,0,1,743.51,613,37.13,37.13,0,0,1,758,602.7a5,5,0,1,1,3.71,9.28,27.32,27.32,0,0,0-10.57,7.54,26.65,26.65,0,0,0-4.69,7.93A5,5,0,0,1,741.74,630.68Z"></path>
            <path d="M805.71,709.89s-30.47,9.87-32.94,29.09c0,0-46.51,11-71.36-13.92,0,0-18.33-12.72-1.79-39.56,1,.56,2.71,1.42,4.85,2.34,5.14,2.2,16.1,6.9,28,4.91,3.59-.6,4.88-1.41,8.9-1.53a34.61,34.61,0,0,1,10.8,1.51,52.58,52.58,0,0,1,14.47,6.71C772.38,703.25,783.24,707.62,805.71,709.89Z"
                  class="cls-12"></path>
            <polygon points="621.19 753.86 608.64 745.84 608.83 856.65 651.72 779.03 621.19 753.86"
                     class="cls-13"></polygon>
            <ellipse transform="translate(83.57 470.34) rotate(-82.41)" ry="26.61" rx="13" cy="187.45" cx="310.36"
                     class="cls-14"></ellipse>
            <ellipse transform="translate(88.64 465.89) rotate(-82.41)" ry="16.39" rx="8.01" cy="182.33" cx="310.36"
                     class="cls-15"></ellipse>
            <ellipse transform="translate(-132.04 294.79) rotate(-43.43)" ry="9.26" rx="18.95" cy="313.15" cx="304.07"
                     class="cls-14"></ellipse>
            <ellipse transform="translate(-132.54 291.76) rotate(-43.43)" ry="5.62" rx="11.5" cy="312.27" cx="300.02"
                     class="cls-15"></ellipse>
        </g>
    </g>
</svg>