<svg viewBox="0 0 1200 1200" xmlns="http://www.w3.org/2000/svg">
    <defs>
        <style>
            .cls-1{fill:#ffec3b;}.cls-2{fill:#e8ffe1;}.cls-3{fill:#191919;}.cls-4{fill:#ff8f1f;}.cls-5{fill:#2b2b2b;}.cls-6{fill:#3a3a3a;}.cls-7{fill:#ffd9c0;}.cls-8{fill:#d0dedd;}.cls-9{fill:#212121;}.cls-10{fill:#eefffd;}.cls-11{fill:#ff8a8a;}.cls-12{fill:#dbb39e;}
        </style>
    </defs>
    <title>11 (4)</title>
    <g id="图层_2">
        <g id="_11">
            <g id="_编组_">
                <path d="M1200,0V1200h-79.51v-1.31a15,15,0,0,0,13.67-21.23h43.3V22.54H22.54V993.68l-13.23,6a15.08,15.08,0,0,0-8.78,13.71H0V0Z"></path>
                <path d="M1177.46,22.54V1177.46h-43.3c0-.07,0-.11-.08-.18l-11.42-24.42-14.83-13.93a21.3,21.3,0,0,1-3.38-26.94,48.31,48.31,0,0,0,7.17-31.4l-.75-6.23a78.19,78.19,0,0,0-43.23-61.3L966.26,963,788.57,875.32,652.75,773.61l12-30c.79,0,1.54-.11,2.33-.15,63.62-3.9,105.88-63.21,126.2-91.68,38-53.3,53.22-110.73,58.89-155.62,3.83,2.37,7.36,4.58,10.63,6.61C886.86,517.85,901.44,526.94,916,518a24.42,24.42,0,0,0,8.53-9.05c8.22-14.57-.94-27.83-7.67-37.52-5.07-7.36-10.33-14.95-11.15-23.74-.3-3.31,0-4.21,2.51-10.44A208.53,208.53,0,0,0,918,406.52c1.54-6.42,2.89-13,4-19.49a130,130,0,0,0,13.86,1.76c4.58.34,9.2.79,13.59,1.21,23,2.17,38.24,3.64,43-11.16,4.13-12.85-7-20.43-15.06-25.95-1.5-1.06-3.12-2.15-4.77-3.35-.64-.49-12-9.31-34.93-36.66-15.25-18.14-25.84-44.47-36.1-69.94-15.73-39.17-30.64-76.21-63.13-82.52-2.56-.49-5.3-1.16-8.19-1.87-15.33-3.87-36.21-9.13-71.74,3.23-67.8-63.82-158.88-90-238.17-68.29-58.78,16-109.49,56.9-142.76,115-31,54.17-43.46,118.25-35.61,182.21a26.86,26.86,0,0,0-22.84,33.43L341,507.6a47.36,47.36,0,0,0,10.89,19.91l42.74,46.2,17.17,47.14a258.71,258.71,0,0,1,15.55,97l-.9,36.06-24,21.6-101,90.79L22.54,993.68V22.54Zm-57,718.61c4.13-3.26,8.79-6.91,8.3-13.74-.45-6.5-5.3-9.58-9.17-12.06-3.19-2.07-6.53-4.21-8.86-8.41-2.59-4.77-2.1-8.68-1.54-13.23.56-4.88,1.31-10.93-3.34-16.48-5.26-6.31-12.47-6.05-18.86-5.83-5.78.23-11.79.45-18.63-3.19-5.71-3-8.64-6.91-11.45-10.7-3.35-4.44-7.1-9.47-14.46-9.54h-.15c-7.29,0-11.08,4.88-14.39,9.16-2.74,3.49-5.56,7.14-10.78,9.77-8.19,4.09-16.49,2.89-23.81,1.84s-15.1-2.18-19.46,4.28c-3.94,5.82-1,12.21,1.39,17.31,2.44,5.34,4,9.09,2.56,12.62-1.51,3.69-5.64,5.45-10.07,7.37-5.11,2.18-11.53,4.92-12.62,11.9-1.13,7.22,4.43,11.42,9.35,15.14,4.28,3.23,9.13,6.91,12.21,13.15,4,8.11,2.78,16.19,1.73,23.28-1.17,7.59-2.33,15.4,4.2,20.44,6.13,4.73,13,2.29,19.16.11,5.6-2,10.89-3.83,16.26-1.58,5.07,2.18,7.66,7.06,10.14,11.76,2.78,5.33,6,11.38,13.15,11.53.07,0,.19,0,.3,0,7.4,0,11-6.61,14.27-12.47,3-5.41,6.09-11,11.68-13,5.94-2.1,12.14.83,18.18,3.72,6.43,3,13.71,6.5,20.1,1.8s5.18-13,3.94-20.92S1107,758,1112,749.83C1114.4,745.89,1117.48,743.48,1120.45,741.15ZM326.66,149a5.29,5.29,0,0,0,0-.79c-.38-5.33-4.28-7.85-7.1-9.65-2.1-1.35-4.13-2.63-5.48-5.15-1.54-2.78-1.24-5.1-.9-8,.45-3.5,1-8.27-2.67-12.66-4.17-5-9.84-4.81-14.39-4.62-3.9.15-7.62.26-11.9-2a21.13,21.13,0,0,1-7.29-6.88c-2.4-3.19-5.37-7.17-11.34-7.25h-.11c-5.86,0-9,4-11.27,7-1.84,2.33-3.57,4.58-6.84,6.2-5.11,2.55-10.52,1.8-15.29,1.09-5.1-.72-11.49-1.65-15.09,3.72-3.27,4.8-.91,9.91.82,13.63,1.5,3.23,2.41,5.48,1.69,7.25s-2.7,2.7-5.93,4.09c-3.72,1.62-8.83,3.8-9.73,9.54-.94,6,3.53,9.4,7.1,12.1,2.89,2.18,5.93,4.47,7.85,8.38,2.52,5.1,1.76,10.14,1.05,15-.79,5.19-1.77,11.61,3.53,15.7,5,3.83,10.67,1.84,14.84.34s7.06-2.33,9.91-1.09,4.47,4.13,6.09,7.25c2,3.68,4.58,8.72,10.55,8.87H265c6.13,0,9-5.23,11.35-9.47,2-3.57,3.87-7,7.06-8.08s6.46.23,11.15,2.48,10.41,4.92,15.63,1.06,4.28-10.37,3.38-16.08c-.86-5.52-1.77-11.19,1.31-16.26a20.45,20.45,0,0,1,5.38-5.53C322.94,157,326.66,154.15,326.66,149Zm-99.84,537.5c2.86-2.25,6.8-5.33,6.39-10.93-.38-5.33-4.25-7.81-7.1-9.65-2.1-1.36-4.09-2.63-5.48-5.15-1.51-2.78-1.24-5.11-.9-8,.45-3.49,1-8.26-2.67-12.65-4.17-5-9.8-4.81-14.35-4.62-3.94.15-7.66.26-11.94-2a21.11,21.11,0,0,1-7.29-6.87c-2.4-3.19-5.37-7.17-11.34-7.25H172c-5.86,0-9,4-11.26,7-1.84,2.33-3.57,4.58-6.84,6.2-5.11,2.55-10.52,1.76-15.29,1.08-5.1-.71-11.49-1.65-15.1,3.72-3.23,4.81-.9,9.92.83,13.64,1.5,3.23,2.4,5.48,1.69,7.25s-2.7,2.7-5.93,4.09c-3.72,1.62-8.83,3.79-9.73,9.54-.94,6,3.53,9.39,7.1,12.1,2.93,2.18,5.93,4.47,7.88,8.37,2.48,5.11,1.73,10.14,1,15-.79,5.18-1.77,11.61,3.53,15.7,5,3.83,10.67,1.8,14.84.34s7.06-2.33,9.91-1.13,4.47,4.17,6.09,7.29c2,3.68,4.62,8.71,10.55,8.86h.26c6.13,0,9-5.22,11.35-9.46,2-3.57,3.87-7,7.06-8.08s6.46.23,11.15,2.48,10.41,4.92,15.63,1S221,714,220.14,708.33c-.87-5.53-1.77-11.2,1.31-16.27A21.13,21.13,0,0,1,226.82,686.54Z"
                      class="cls-1"></path>
                <path d="M1134.16,1177.46a15,15,0,0,1-27.27,12.59l-5.9-12.59Z"></path>
                <path d="M1134.08,1177.28c0,.07.08.11.08.18H1101l-3.12-6.64-10.62-10a51.38,51.38,0,0,1-8.19-64.87,18,18,0,0,0,2.7-11.83l-.71-6.24a48.35,48.35,0,0,0-26.71-37.86l-86.72-42.82c-.53-7.06-1.2-14.16-2-21.11a5.65,5.65,0,0,0-3.53-4.62l4.16-8.41,101.38,50a78.19,78.19,0,0,1,43.23,61.3l.75,6.23a48.31,48.31,0,0,1-7.17,31.4,21.3,21.3,0,0,0,3.38,26.94l14.83,13.93Z"></path>
                <path d="M1128.75,727.41c.49,6.83-4.17,10.48-8.3,13.74-3,2.33-6,4.74-8.45,8.68-5,8.15-3.53,17.35-2.22,25.43s2.56,16.11-3.94,20.92-13.67,1.24-20.1-1.8c-6-2.89-12.24-5.82-18.18-3.72-5.59,2-8.67,7.55-11.68,13-3.23,5.86-6.87,12.47-14.27,12.47-.11,0-.23,0-.3,0-7.17-.15-10.37-6.2-13.15-11.53-2.48-4.7-5.07-9.58-10.14-11.76-5.37-2.25-10.66-.37-16.26,1.58-6.12,2.18-13,4.62-19.16-.11-6.53-5-5.37-12.85-4.2-20.44,1.05-7.09,2.29-15.17-1.73-23.28-3.08-6.24-7.93-9.92-12.21-13.15-4.92-3.72-10.48-7.92-9.35-15.14,1.09-7,7.51-9.72,12.62-11.9,4.43-1.92,8.56-3.68,10.07-7.37,1.39-3.53-.12-7.28-2.56-12.62-2.36-5.1-5.33-11.49-1.39-17.31,4.36-6.46,12-5.37,19.46-4.28s15.62,2.25,23.81-1.84c5.22-2.63,8-6.28,10.78-9.77,3.31-4.28,7.1-9.16,14.39-9.16h.15c7.36.07,11.11,5.1,14.46,9.54,2.81,3.79,5.74,7.7,11.45,10.7,6.84,3.64,12.85,3.42,18.63,3.19,6.39-.22,13.6-.48,18.86,5.83,4.65,5.55,3.9,11.6,3.34,16.48-.56,4.55-1,8.46,1.54,13.23,2.33,4.2,5.67,6.34,8.86,8.41C1123.45,717.83,1128.3,720.91,1128.75,727.41Zm-15.29,4.88c2.56-2,4.1-3.27,4.06-4.09s-1.32-1.66-4-3.35c-3.76-2.44-8.94-5.74-12.66-12.54-4.32-7.89-3.49-14.88-2.85-19.95.52-4.5.6-6.23-.79-7.89-1.58-2-3.83-2-9.77-1.8-6.27.23-14.87.57-24.37-4.51-8-4.2-12.14-9.8-15.21-13.89s-3.95-5-5.53-5h0c-1.58,0-2.56,1-5.53,4.81s-7.09,9.13-14.61,12.92c-11.3,5.67-22.38,4.1-30.46,2.93-3-.45-7.51-1.09-8.6-.49-.11.83,1.43,4.21,2.37,6.2,2.59,5.6,6.12,13.22,2.78,21.52-3.2,8-10.63,11.23-16,13.53-1.92.82-5.82,2.51-5.94,3.34.27.83,3.12,3,5,4.39,4.73,3.57,11.23,8.49,15.51,17.13,5.56,11.31,4,22.09,2.74,30-.63,4.35-1.31,8.82,0,9.84s4.95-.34,8.52-1.62c4.13-1.43,9.21-3.23,14.84-3.23a24.36,24.36,0,0,1,9.58,1.92c8.79,3.75,12.77,11.34,15.7,16.86,1.09,2,2.7,5.11,3.57,5.56.9-.45,3.08-4.32,4.35-6.65,3.42-6.2,8.15-14.72,17.73-18.14,10.33-3.64,19.87.86,26.82,4.17,2.63,1.24,7.59,3.64,8.52,2.93s0-6.84-.48-10.1c-1.43-9-3.38-21.34,3.75-33.06C1105.84,738.26,1110.27,734.81,1113.46,732.29Z"></path>
                <path d="M1120.49,1198.69V1200H940.24v-5.63a5.62,5.62,0,0,0,5.37-3.95c1.35-4.28,2.63-8.64,3.87-13H1101l5.9,12.59A15,15,0,0,0,1120.49,1198.69Z"></path>
                <path d="M1117.52,728.2c0,.82-1.5,2.06-4.06,4.09-3.19,2.52-7.62,6-11.08,11.68-7.13,11.72-5.18,24-3.75,33.06.52,3.26,1.5,9.35.48,10.1s-5.89-1.69-8.52-2.93c-6.95-3.31-16.49-7.81-26.82-4.17-9.58,3.42-14.31,11.94-17.73,18.14-1.27,2.33-3.45,6.2-4.35,6.65-.87-.45-2.48-3.53-3.57-5.56-2.93-5.52-6.91-13.11-15.7-16.86a24.36,24.36,0,0,0-9.58-1.92c-5.63,0-10.71,1.8-14.84,3.23-3.57,1.28-7.25,2.59-8.52,1.62s-.6-5.49,0-9.84c1.21-7.89,2.82-18.67-2.74-30-4.28-8.64-10.78-13.56-15.51-17.13-1.88-1.42-4.73-3.56-5-4.39.12-.83,4-2.52,5.94-3.34,5.41-2.3,12.84-5.49,16-13.53,3.34-8.3-.19-15.92-2.78-21.52-.94-2-2.48-5.37-2.37-6.2,1.09-.6,5.6,0,8.6.49,8.08,1.17,19.16,2.74,30.46-2.93,7.52-3.79,11.65-9.05,14.61-12.92s4-4.81,5.53-4.81h0c1.58,0,2.56,1.06,5.53,5s7.24,9.69,15.21,13.89c9.5,5.08,18.1,4.74,24.37,4.51,5.94-.22,8.19-.15,9.77,1.8,1.39,1.66,1.31,3.39.79,7.89-.64,5.07-1.47,12.06,2.85,19.95,3.72,6.8,8.9,10.1,12.66,12.54C1116.2,726.54,1117.44,727.44,1117.52,728.2ZM1072.41,732a30.54,30.54,0,1,0-30.54,30.53A30.56,30.56,0,0,0,1072.41,732Z"
                      class="cls-2"></path>
                <path d="M1097.87,1170.82l3.12,6.64H949.48c.82-3,1.65-6,2.44-8.94a5.64,5.64,0,0,0-10.9-2.89c-1,3.95-2.14,7.89-3.3,11.83H595.14a563.25,563.25,0,0,1,65.61-360.28l112,83.87,183,90.3c.27,2.74.49,5.44.68,8.19a5.65,5.65,0,0,0,5.63,5.22h.38a5.63,5.63,0,0,0,5.22-6l-.11-1.58,86.72,42.82a48.35,48.35,0,0,1,26.71,37.86l.71,6.24a18,18,0,0,1-2.7,11.83,51.38,51.38,0,0,0,8.19,64.87Zm-129.16-115a5.64,5.64,0,1,0-11.27-.42,504.93,504.93,0,0,1-5.11,55.37l5.52,1,5.6.75A522.11,522.11,0,0,0,968.71,1055.77Zm-173-43.73a9.22,9.22,0,0,0-1.54-10l-32.15-36a8.76,8.76,0,0,0-7.14-3.08,9.26,9.26,0,0,0-7,3.42l-29.14,36a9.26,9.26,0,0,0,7.21,15.1h61.3A9.12,9.12,0,0,0,795.67,1012Z"
                      class="cls-3"></path>
                <path d="M1041.87,701.49A30.54,30.54,0,1,1,1011.34,732,30.56,30.56,0,0,1,1041.87,701.49ZM1061.14,732a19.27,19.27,0,1,0-19.27,19.27A19.29,19.29,0,0,0,1061.14,732Z"></path>
                <circle r="19.27" cy="732.03" cx="1041.87" class="cls-4"></circle>
                <path d="M977.42,352.89c8.11,5.52,19.19,13.1,15.06,25.95-4.73,14.8-19.94,13.33-43,11.16-4.39-.42-9-.87-13.59-1.21A130,130,0,0,1,922.06,387c-1.13,6.53-2.48,13.07-4,19.49a208.53,208.53,0,0,1-9.81,30.73c-2.51,6.23-2.81,7.13-2.51,10.44.82,8.79,6.08,16.38,11.15,23.74,6.73,9.69,15.89,22.95,7.67,37.52A24.42,24.42,0,0,1,916,518c-14.57,8.94-29.15-.15-53.26-15.21-3.27-2-6.8-4.24-10.63-6.61,1-8.45,1.77-16.41,2.22-23.85.3.3.64.6,1,.9,11.65,10.48,26.3,18.18,43.46,22.84a5.64,5.64,0,1,0,2.93-10.89,106,106,0,0,1-15.29-5.38c-4.84-7.85-9.5-17.5-10.59-29.33-1-10.63,1.54-17,4.51-24.38a176.56,176.56,0,0,0,8.49-26.67c1.95-8,3.56-16.26,4.73-24.45a22.62,22.62,0,0,1,27.87-18.78,100.52,100.52,0,0,0,16.68,2.63c.18,0,.37,0,.52,0-6.12-6.27-14.08-14.95-23.92-26.67-18.3-21.79-29.83-50.41-40.94-78.05-12.06-30-24.57-61-41-64.19-3.34-.68-6.61-1.51-9.77-2.3-13.82-3.45-28.09-7.06-56.22,3.08a21.24,21.24,0,0,1-3.46,1,26.26,26.26,0,0,1-24-6.8c-60.4-57.62-141.26-81.54-211-62.46-107.8,29.48-176.87,155.46-154,280.88a57.09,57.09,0,0,0-9.58-2.37,5.62,5.62,0,1,0-1.69,11.12,41.28,41.28,0,0,1,13.75,4.62l.9,5-28.36-.94L370,500a16.88,16.88,0,0,0,3.87,7.06l46.87,50.67L440,610.55a289.64,289.64,0,0,1,17.36,108.22l-.83,31a5.67,5.67,0,0,0-5.07-3.31h0a5.33,5.33,0,0,0-3.49,1.28,15.06,15.06,0,0,0-17,2.18L426.42,754l.9-36.06a258.71,258.71,0,0,0-15.55-97L394.6,573.71l-42.74-46.2A47.36,47.36,0,0,1,341,507.6l-21.79-83.5A26.86,26.86,0,0,1,342,390.67c-7.85-64,4.58-128,35.61-182.21,33.27-58.07,84-98.93,142.76-115C599.68,71.78,690.76,98,758.56,161.78c35.53-12.36,56.41-7.1,71.74-3.23,2.89.71,5.63,1.38,8.19,1.87,32.49,6.31,47.4,43.35,63.13,82.52,10.26,25.47,20.85,51.8,36.1,69.94,22.95,27.35,34.29,36.17,34.93,36.66C974.3,350.74,975.92,351.83,977.42,352.89Z"></path>
                <path d="M963.3,1049.91a5.65,5.65,0,0,1,5.41,5.86,522.11,522.11,0,0,1-5.26,56.71l-5.6-.75-5.52-1a504.93,504.93,0,0,0,5.11-55.37A5.65,5.65,0,0,1,963.3,1049.91Z"
                      class="cls-5"></path>
                <path d="M967.73,998.75a5.63,5.63,0,0,1-5.22,6h-.38a5.65,5.65,0,0,1-5.63-5.22c-.19-2.75-.41-5.45-.68-8.19l11.8,5.82Z"
                      class="cls-5"></path>
                <path d="M967.62,997.17l-11.8-5.82c-.37-4.7-.86-9.39-1.39-14a5.69,5.69,0,0,1,5-6.24,5.55,5.55,0,0,1,2.71.34,5.65,5.65,0,0,1,3.53,4.62C966.42,983,967.09,990.11,967.62,997.17Z"></path>
                <path d="M966.26,963l-4.16,8.41a5.55,5.55,0,0,0-2.71-.34,5.69,5.69,0,0,0-5,6.24c.53,4.62,1,9.31,1.39,14l-183-90.3-112-83.87c2.63-4.7,5.3-9.32,8.08-13.94a9.39,9.39,0,1,0-16.11-9.65c-2.45,4.06-4.81,8.11-7.1,12.24L625.9,791.07a17.81,17.81,0,0,0,3.08,1.66,15.15,15.15,0,0,0,5.56,1.08,15,15,0,0,0,13.93-9.5l4.28-10.7L788.57,875.32Z"></path>
                <path d="M947.9,1161.65a5.64,5.64,0,0,1,4,6.87c-.79,3-1.62,5.94-2.44,8.94H937.72c1.16-3.94,2.25-7.88,3.3-11.83A5.59,5.59,0,0,1,947.9,1161.65Z"
                      class="cls-5"></path>
                <path d="M937.72,1177.46h11.76c-1.24,4.32-2.52,8.68-3.87,13a5.62,5.62,0,0,1-5.37,3.95,5.2,5.2,0,0,1-1.69-.27,5.58,5.58,0,0,1-3.69-7C935.84,1183.89,936.82,1180.69,937.72,1177.46Z"></path>
                <path d="M940.24,1194.37V1200H587.4v-1.88a11.05,11.05,0,0,0,1.54-.11,9.4,9.4,0,0,0,7.74-10.82c-.53-3.23-1.06-6.5-1.54-9.73H937.72c-.9,3.23-1.88,6.43-2.86,9.62a5.58,5.58,0,0,0,3.69,7A5.2,5.2,0,0,0,940.24,1194.37Z"></path>
                <path d="M938.62,358.86c-.15,0-.34,0-.52,0a100.52,100.52,0,0,1-16.68-2.63A22.62,22.62,0,0,0,893.55,375c-1.17,8.19-2.78,16.42-4.73,24.45a176.56,176.56,0,0,1-8.49,26.67c-3,7.36-5.49,13.75-4.51,24.38,1.09,11.83,5.75,21.48,10.59,29.33a86.25,86.25,0,0,1-23.55-14.94C820.16,426.39,810,339.7,824.81,278.14l.53-2.18c2.74-11.15,6.91-28-.83-45.18-9.5-21.08-36.2-40.05-60.39-35.27l-.83-3.8a21.24,21.24,0,0,0,3.46-1c28.13-10.14,42.4-6.53,56.22-3.08,3.16.79,6.43,1.62,9.77,2.3,16.45,3.19,29,34.21,41,64.19,11.11,27.64,22.64,56.26,40.94,78.05C924.54,343.91,932.5,352.59,938.62,358.86Z"
                      class="cls-6"></path>
                <path d="M901.7,485.18a5.64,5.64,0,1,1-2.93,10.89c-17.16-4.66-31.81-12.36-43.46-22.84-.33-.3-.67-.6-1-.9a1.31,1.31,0,0,0,0-.34,15,15,0,0,0-7.24-13.82c2.1,1.28,6.27,3.68,11.38,6.72,7.62,4.59,14.31,8.75,20.13,12.4,3.45,2.14,6.91,4.32,10.14,6.27-.79-1.2-1.58-2.44-2.37-3.76A106,106,0,0,0,901.7,485.18Z"></path>
                <path d="M886.41,479.8c.79,1.32,1.58,2.56,2.37,3.76-3.23-1.95-6.69-4.13-10.14-6.27-5.82-3.65-12.51-7.81-20.13-12.4-5.11-3-9.28-5.44-11.38-6.72l-.23-.11s0,0-.08,0a9.11,9.11,0,0,0-1.72-.83,12.82,12.82,0,0,0-3.76-1h0a6,6,0,0,0-1-.11h-.19a134.19,134.19,0,0,1-11.53-19.42l3.38-9.17-2.71-2.55c-1.46-1.35-4.39-4-8.63-7.18a222.67,222.67,0,0,1-9.92-39.55,5.52,5.52,0,0,0-.19-1.09v0c-5.44-34.45-4-71,3.31-101.57l.56-2.22c2.52-10.25,6-24.26-.19-37.89-8-17.62-30.91-33.47-49.69-28.4a27.46,27.46,0,0,0-8.41,3.91,9.84,9.84,0,0,1-12.58-1.36c-23-23.47-53.42-36.28-83.31-35.3C638.74,175,620,183,608.85,196.07c-15.37,18-18.26,48-7.59,78.31a8.14,8.14,0,0,1-13.64,8.23c-9.16-9.92-25-30.24-29.22-56.27-14.31,15.59-34.21,49.32-16.11,105.77a11.05,11.05,0,0,1-1.13,9.24c-2.85.42-5.78.87-8.79,1.39l-.56-7.32c-21.33-65.54,6.46-104.27,19.42-117.87a10.53,10.53,0,0,1,10.89-2.81,10.42,10.42,0,0,1,7.21,8.52c2.29,16.12,9.81,30,17,40-6.38-28.92-1.46-56.53,13.86-74.52,13.23-15.51,34.93-24.94,59.57-25.8,32.76-1.17,65.88,12.69,91,37.93a39.39,39.39,0,0,1,10.74-4.8c.87-.23,1.69-.42,2.56-.6,24.19-4.78,50.89,14.19,60.39,35.27,7.74,17.16,3.57,34,.83,45.18l-.53,2.18C810,339.7,820.16,426.39,862.86,464.86A86.25,86.25,0,0,0,886.41,479.8Z"></path>
                <path d="M847.13,458.17A15,15,0,0,1,854.37,472a1.31,1.31,0,0,1,0,.34,104.4,104.4,0,0,1-14.16-16.23,10.54,10.54,0,0,1,1.12.08h0a15.41,15.41,0,0,1,3.76,1,12.29,12.29,0,0,1,1.72.83s0,0,.08,0Z"></path>
                <path d="M854.34,472.33c-.45,7.44-1.17,15.4-2.22,23.85-2.85-1.73-5.86-3.57-9-5.48-5.15-3.08-9.24-5.49-11.19-6.61a14.94,14.94,0,0,1-7.4-14.69,10.47,10.47,0,0,1,.45-2.44,14.81,14.81,0,0,1,.56-1.62,8.09,8.09,0,0,1,.68-1.39,1.83,1.83,0,0,1,.18-.41c.3-.49.61-.94.94-1.39s.57-.71.87-1a10.88,10.88,0,0,1,.94-1,13.54,13.54,0,0,1,2.36-1.8,6.24,6.24,0,0,1,.83-.49,9.13,9.13,0,0,1,1.09-.52,2.16,2.16,0,0,1,.45-.19,12.51,12.51,0,0,1,1.73-.57,15,15,0,0,1,1.91-.37,13.65,13.65,0,0,1,2.71-.08A104.4,104.4,0,0,0,854.34,472.33Z"></path>
                <path d="M846.82,458a12.29,12.29,0,0,0-1.72-.83A9.11,9.11,0,0,1,846.82,458Z"></path>
                <path d="M843.07,490.7c3.19,1.91,6.2,3.75,9,5.48-5.67,44.89-20.92,102.32-58.89,155.62-20.32,28.47-62.58,87.78-126.2,91.68-.79,0-1.54.12-2.33.15l3.79-9.57a14.9,14.9,0,0,0-12.28-20.48s0,0-.08,0a80.54,80.54,0,0,0,9.06,0c49.31-3,84.62-52.55,103.55-79.18,41.13-57.66,53-121.13,55.62-164.18a2.31,2.31,0,0,1,.12-.75,14.94,14.94,0,0,0,7.4,14.69C833.83,485.21,837.92,487.62,843.07,490.7Z"></path>
                <path d="M845.1,457.19a15.41,15.41,0,0,0-3.76-1A12.82,12.82,0,0,1,845.1,457.19Z"></path>
                <path d="M841.3,456.18a10.54,10.54,0,0,0-1.12-.08s0,0,0,0h.19A6,6,0,0,1,841.3,456.18Z"></path>
                <path d="M840.18,456.1a13.65,13.65,0,0,0-2.71.08,15.78,15.78,0,0,1,2.67-.11S840.18,456.1,840.18,456.1Z"></path>
                <path d="M840.14,456.07a15.78,15.78,0,0,0-2.67.11,10.42,10.42,0,0,0-1.91.37,12.51,12.51,0,0,0-1.73.57,2.16,2.16,0,0,0-.45.19,9.13,9.13,0,0,0-1.09.52c-.26.15-.56.3-.83.49a13.54,13.54,0,0,0-2.36,1.8,7.21,7.21,0,0,0-.94,1,6,6,0,0,0-.87,1c-.33.45-.64.9-.94,1.39a1.83,1.83,0,0,0-.18.41,9.4,9.4,0,0,0-.68,1.39,12.91,12.91,0,0,0-.56,1.62,10.47,10.47,0,0,0-.45,2.44,2.31,2.31,0,0,0-.12.75c-2.66,43.05-14.49,106.52-55.62,164.18C749.81,661,714.5,710.47,665.19,713.51a80.54,80.54,0,0,1-9.06,0,5.4,5.4,0,0,0-2.89-.87l-76.43-.86h-.08a5.67,5.67,0,0,0-5.63,5.6,5.57,5.57,0,0,0,5.56,5.67l63.59.71-16.19,40.64a5.67,5.67,0,0,0-1.69,2.29l-21.86,54.09a5.62,5.62,0,0,0,3.11,7.33,5.15,5.15,0,0,0,2.11.41A5.64,5.64,0,0,0,611,825l14-34.67.56.45.38.26,19.72,14.76a581.47,581.47,0,0,0-69.45,371.63H497c-.49-28.62-3.6-109.6-21.33-225.59-8.87-57.92-20.28-96-31.1-121.09l1.35-.61a5.74,5.74,0,0,0,5.18,3.5,5.63,5.63,0,0,0,5.64-5.64l.34-75.95a5,5,0,0,0-.53-2.36l.83-31A289.64,289.64,0,0,0,440,610.55l-19.23-52.81-46.87-50.67A16.88,16.88,0,0,1,370,500l-20.7-79.29,28.36.94-.9-5a37.34,37.34,0,0,1,6.42,4.55c.75.64,1.58,1.31,2.48,2.06,5,4.06,8.53,7.36,8.19,13.11-1.77,28.17,3,53.3,7.4,69.41a9.22,9.22,0,0,0,8.94,6.88,10.76,10.76,0,0,0,1.13,0,9.25,9.25,0,0,0,8.18-9c1.13-41.81,13.68-100.63,20.74-130.75a166.17,166.17,0,0,0,12.88,19.3,9,9,0,0,0,15.29-1.73v85.91l145,8.45,18.1-73.92c10.89.34,39.77,2,62.65,9.8-7.51,16.53-15.89,44.32-7.74,75.57A105.3,105.3,0,0,0,700,526.76a5.65,5.65,0,0,0,7.78,1.65,5.61,5.61,0,0,0,1.69-7.78,94.15,94.15,0,0,1-12.1-27.19A96.9,96.9,0,0,1,697.6,445l1.84,41,107.46,9.73,21.71-59A134.19,134.19,0,0,0,840.14,456.07Zm-106.71,149a5.64,5.64,0,0,0-3.12-10.85c-.26.07-23.32,6.53-35.72-2.63-16-11.87-53.93-13.6-92.24-4.21-13.49,3.3-22.31,3.49-27.8,2.59-4.43-.67-6.64-2.06-7.32-3a1.21,1.21,0,0,1,.22.41L557.2,592c.64,1.39,3.16,5.63,10.89,8a4.62,4.62,0,0,0,.72,1.5,97.43,97.43,0,0,0,40.07,33.09,93.42,93.42,0,0,0,37.9,7.89,111.82,111.82,0,0,0,46.91-10.67,5.65,5.65,0,0,0-4.92-10.18c-9.09,4.4-41.46,17.58-75.34,2.67a84.61,84.61,0,0,1-30.2-22.65A109.77,109.77,0,0,0,605,598.35c34.18-8.42,69.79-7.4,82.86,2.29,7.48,5.52,17,7.1,25.47,7.1A79.59,79.59,0,0,0,733.43,605.07Z"
                      class="cls-7"></path>
                <path d="M837.47,456.18a15,15,0,0,0-1.91.37A10.42,10.42,0,0,1,837.47,456.18Z"></path>
                <path d="M835.56,456.55a12.51,12.51,0,0,0-1.73.57A12.51,12.51,0,0,1,835.56,456.55Z"></path>
                <path d="M833.38,457.31a9.13,9.13,0,0,0-1.09.52A9.13,9.13,0,0,1,833.38,457.31Z"></path>
                <path d="M832.29,457.83a6.24,6.24,0,0,0-.83.49C831.73,458.13,832,458,832.29,457.83Z"></path>
                <path d="M832,427.48l-3.38,9.17c-1.05-2.07-2.07-4.21-3-6.39q-2.7-6.08-5-12.51c4.24,3.2,7.17,5.83,8.63,7.18Z"></path>
                <path d="M829.1,460.12a10.88,10.88,0,0,0-.94,1A7.21,7.21,0,0,1,829.1,460.12Z"></path>
                <path d="M828.61,436.65l-21.71,59L699.44,486l-1.84-41a118.56,118.56,0,0,1,9.2-24.46c.08-.11.11-.22.19-.33l.75.3.23,4.8a15.4,15.4,0,0,0-1.54,1.17,5.63,5.63,0,0,0-.68,7.92,5.36,5.36,0,0,0,2.7,1.73l.42,9.28a5.63,5.63,0,0,0-4.43,5.56,5.51,5.51,0,0,0,4.95,5.52l.87,19.16,89,8,19.49-53,6.8-.41C826.54,432.44,827.56,434.58,828.61,436.65Z"></path>
                <path d="M828.16,461.1c-.3.34-.6.68-.87,1A6,6,0,0,1,828.16,461.1Z"></path>
                <path d="M826.17,464a8.09,8.09,0,0,0-.68,1.39A9.4,9.4,0,0,1,826.17,464Z"></path>
                <path d="M825.6,430.26l-6.8.41c-9.61-8.22-37.33-28.32-73.73-23.88a87.32,87.32,0,0,0-37.33,13.71l-.75-.3c.07-.15.11-.31.19-.46a1.34,1.34,0,0,1,.07-.18,7.37,7.37,0,0,0,.27-.87,4.86,4.86,0,0,0,0-1.91,5.94,5.94,0,0,0-.37-1.39,5.15,5.15,0,0,0-1.32-1.84,2.66,2.66,0,0,0-.64-.53,1.89,1.89,0,0,0-.67-.41,1.69,1.69,0,0,0-.42-.23l-2.81-1.12a99.31,99.31,0,0,1,42.37-15.67c35.19-4.28,63.06,11.8,77,22.16Q822.9,424.19,825.6,430.26Z"></path>
                <path d="M825.49,465.34a14.81,14.81,0,0,0-.56,1.62A12.91,12.91,0,0,1,825.49,465.34Z"></path>
                <path d="M818.8,430.67l-19.49,53-89-8-.87-19.16a2.25,2.25,0,0,0,.68.07h0c7.28-.07,19.75,0,33,.61a21.36,21.36,0,0,0,5.67.33,1.76,1.76,0,0,0,.45-.07c18.18.9,36.74,2.63,45,5.75a5.5,5.5,0,0,0,2,.37,5.63,5.63,0,0,0,2-10.89c-7.1-2.71-19.57-4.4-33-5.49.07-.07.11-.15.15-.18,5.45-7.07,6.57-15.18,6.46-21.15,7.89,3,16.15,8,24.6,15.85a5.64,5.64,0,0,0,8-.3,5.66,5.66,0,0,0-.3-8C777,408.21,750.56,408.29,732,413.66A79.64,79.64,0,0,0,708,425.3l-.23-4.8a87.32,87.32,0,0,1,37.33-13.71C781.47,402.35,809.19,422.45,818.8,430.67Z"
                      class="cls-8"></path>
                <path d="M814.22,235.4c6.16,13.63,2.71,27.64.19,37.89l-.56,2.22c-7.36,30.57-8.75,67.12-3.31,101.57a5.69,5.69,0,0,0-2.66-3.42c-67-38.13-105.21-6.84-106.79-5.49a5.63,5.63,0,1,0,7.29,8.57c.34-.27,33.62-27.57,93.94,6.72a5.69,5.69,0,0,0,7.66-2.1,6.06,6.06,0,0,0,.75-3.16,222.67,222.67,0,0,0,9.92,39.55c-13.9-10.36-41.77-26.44-77-22.16a99.31,99.31,0,0,0-42.37,15.67h0c-27.64-10.41-63.89-11.54-72.38-11.65-69-48.79-153.39-14.91-157-13.41l-2.74,1.13a8.53,8.53,0,0,0,0-1.43C466,352,479.71,322.05,487.87,307.62c6.68,16.94,22.91,29,36.54,36.59-4.54.9-9.28,1.91-14.23,3.08a5.64,5.64,0,1,0,2.59,11c7.58-1.81,14.65-3.23,21.22-4.36,70.87-12.21,83.87,11.38,84.21,12a5.64,5.64,0,0,0,5.14,3.34,5.48,5.48,0,0,0,2.18-.41,5.64,5.64,0,0,0,3-7.4c-1.46-3.46-15.21-30.31-87.4-20.1a11.05,11.05,0,0,0,1.13-9.24c-18.1-56.45,1.8-90.18,16.11-105.77,4.21,26,20.06,46.35,29.22,56.27a8.14,8.14,0,0,0,13.64-8.23c-10.67-30.27-7.78-60.28,7.59-78.31C620,183,638.74,175,660.23,174.25c29.89-1,60.32,11.83,83.31,35.3a9.84,9.84,0,0,0,12.58,1.36,27.46,27.46,0,0,1,8.41-3.91C783.31,201.93,806.26,217.78,814.22,235.4Z"
                      class="cls-7"></path>
                <path d="M810.73,378.2a6.06,6.06,0,0,1-.75,3.16,5.69,5.69,0,0,1-7.66,2.1c-60.32-34.29-93.6-7-93.94-6.72a5.63,5.63,0,1,1-7.29-8.57c1.58-1.35,39.74-32.64,106.79,5.49a5.69,5.69,0,0,1,2.66,3.42v0A8.82,8.82,0,0,0,810.73,378.2Z"></path>
                <path d="M810.73,378.2a8.82,8.82,0,0,1-.19-1.09A5.52,5.52,0,0,1,810.73,378.2Z"></path>
                <path d="M804.19,433.42a5.63,5.63,0,0,1-3.83,9.76,5.57,5.57,0,0,1-3.83-1.5c-8.45-7.81-16.71-12.85-24.6-15.85a40,40,0,0,0-1-8.34c-12.77-.49-25.5-1-38.27-1.5l-.64-2.33C750.56,408.29,777,408.21,804.19,433.42Z"></path>
                <path d="M798.3,452.65a5.63,5.63,0,0,1-2,10.89,5.5,5.5,0,0,1-2-.37c-8.26-3.12-26.82-4.85-45-5.75,8.68-1,13.9-7.51,16-10.26C778.73,448.25,791.2,449.94,798.3,452.65Z"></path>
                <path d="M794.13,1002.05a9.22,9.22,0,0,1,1.54,10,9.12,9.12,0,0,1-8.45,5.45h-61.3a9.26,9.26,0,0,1-7.21-15.1l29.14-36a9.26,9.26,0,0,1,7-3.42,8.76,8.76,0,0,1,7.14,3.08Zm-11.38,4.17-27.61-30.91-25,30.91Z"></path>
                <polygon points="755.14 975.31 782.75 1006.22 730.13 1006.22 755.14 975.31" class="cls-2"></polygon>
                <path d="M771.93,425.83c.11,6-1,14.08-6.46,21.15,0,0-.08.11-.15.18-5.22-.41-10.55-.75-15.78-1,3.35-2.1,5.68-6.84,5.71-12.32,0-5.11-1.91-9.58-4.8-11.91A57.71,57.71,0,0,1,771.93,425.83Z"></path>
                <path d="M771,417.49a40,40,0,0,1,1,8.34,57.71,57.71,0,0,0-21.48-3.91,7.34,7.34,0,0,0-4.62-1.72,8.08,8.08,0,0,0-5.94,2.85,64.19,64.19,0,0,0-11.19,3.42,45.7,45.7,0,0,1,4-10.48C745.45,416.48,758.18,417,771,417.49Z"></path>
                <path d="M763.29,191.71l.83,3.8c-.87.18-1.69.37-2.56.6a39.39,39.39,0,0,0-10.74,4.8c-25.13-25.24-58.25-39.1-91-37.93-24.64.86-46.34,10.29-59.57,25.8-15.32,18-20.24,45.6-13.86,74.52-7.24-10.06-14.76-23.92-17-40a10.42,10.42,0,0,0-7.21-8.52,10.53,10.53,0,0,0-10.89,2.81c-13,13.6-40.75,52.33-19.42,117.87-10.82-5.78-29.75-18-34.59-35.23a9.19,9.19,0,0,0-7.63-6.69,9,9,0,0,0-9,4.28c-9.35,15.29-24.12,45.38-23.06,81.32A108.07,108.07,0,0,1,446.92,361a8.4,8.4,0,0,0-8.37-5,8.1,8.1,0,0,0-7.29,6.31c-5.89,24.19-18.89,81.62-22.27,127.18a204.86,204.86,0,0,1-3.87-52.36c.75-12-7.44-18.59-12.32-22.54-.75-.6-1.46-1.2-2.06-1.73a48.67,48.67,0,0,0-16.42-9.5c-22.87-125.42,46.2-251.4,154-280.88,69.75-19.08,150.61,4.84,211,62.46A26.26,26.26,0,0,0,763.29,191.71Z"
                      class="cls-9"></path>
                <path d="M765.32,447.16c-2.14,2.75-7.36,9.28-16,10.26-2.06-.11-4.09-.19-6.12-.26a19.11,19.11,0,0,1-8.56-3.72,17.79,17.79,0,0,1-5.41-8c3.72.08,7.85.19,12.13.34a7,7,0,0,0,8.22.34C754.77,446.41,760.1,446.75,765.32,447.16Z"></path>
                <path d="M750.45,421.92c2.89,2.33,4.84,6.8,4.8,11.91,0,5.48-2.36,10.22-5.71,12.32l-8.22-.34c-3.08-2.25-5.15-6.83-5.11-12.13a16.33,16.33,0,0,1,3.68-10.63A62.69,62.69,0,0,1,750.45,421.92Z"
                      class="cls-10"></path>
                <path d="M749.28,457.42a1.76,1.76,0,0,1-.45.07,21.36,21.36,0,0,1-5.67-.33C745.19,457.23,747.22,457.31,749.28,457.42Z"></path>
                <path d="M745.83,420.2a7.34,7.34,0,0,1,4.62,1.72,62.69,62.69,0,0,0-10.56,1.13A8.08,8.08,0,0,1,745.83,420.2Z"
                      class="cls-10"></path>
                <path d="M749.54,446.15a7,7,0,0,1-8.22-.34Z" class="cls-10"></path>
                <path d="M737.26,598.08a5.64,5.64,0,0,1-3.83,7,79.59,79.59,0,0,1-20.09,2.67c-8.42,0-18-1.58-25.47-7.1C674.8,591,639.19,589.93,605,598.35a109.77,109.77,0,0,1-21.78,3.34,81.56,81.56,0,0,1-5.18-6.65,5.57,5.57,0,0,0-3.95-2.36l.45-2.71c5.49.9,14.31.71,27.8-2.59,38.31-9.39,76.24-7.66,92.24,4.21,12.4,9.16,35.46,2.7,35.72,2.63A5.61,5.61,0,0,1,737.26,598.08Z"></path>
                <path d="M739.89,423.05a16.33,16.33,0,0,0-3.68,10.63c0,5.3,2,9.88,5.11,12.13-4.28-.15-8.41-.26-12.13-.34-2-5.25-2.26-11.94-.49-19A64.19,64.19,0,0,1,739.89,423.05Z"></path>
                <path d="M734.6,453.44a19.11,19.11,0,0,0,8.56,3.72c-13.3-.57-25.77-.68-33-.61h0a2.25,2.25,0,0,1-.68-.07l-.52-11.08a5.32,5.32,0,0,1,1.12-.11c.91,0,8.61,0,19.2.18A17.79,17.79,0,0,0,734.6,453.44Z"></path>
                <path d="M732,413.66l.64,2.33a45.7,45.7,0,0,0-4,10.48,59.48,59.48,0,0,0-15,8.64,5.54,5.54,0,0,1-5.22,1L708,425.3A79.64,79.64,0,0,1,732,413.66Z"></path>
                <path d="M728.7,426.47c-1.77,7.06-1.5,13.75.49,19-10.59-.22-18.29-.18-19.2-.18a5.32,5.32,0,0,0-1.12.11l-.42-9.28a5.54,5.54,0,0,0,5.22-1A59.48,59.48,0,0,1,728.7,426.47Z"
                      class="cls-8"></path>
                <path d="M709.47,520.63a5.64,5.64,0,0,1-4.73,8.68,5.68,5.68,0,0,1-4.74-2.55,105.3,105.3,0,0,1-13.52-30.47c-8.15-31.25.23-59,7.74-75.57.79.26,1.54.53,2.29.83L697.6,445a96.9,96.9,0,0,0-.23,48.45A94.15,94.15,0,0,0,709.47,520.63Z"></path>
                <path d="M708.87,445.4l.52,11.08a5.51,5.51,0,0,1-4.95-5.52A5.63,5.63,0,0,1,708.87,445.4Z"></path>
                <path d="M708,425.3l.48,10.82a5.36,5.36,0,0,1-2.7-1.73,5.63,5.63,0,0,1,.68-7.92A15.4,15.4,0,0,1,708,425.3Z"></path>
                <path d="M707.63,417.6a5.69,5.69,0,0,0-.08-.82A5.69,5.69,0,0,1,707.63,417.6Z"></path>
                <path d="M707.55,416.78a5.69,5.69,0,0,1,.08.82,6,6,0,0,1-.11,1.09c-.08.27-.16.57-.27.87a1.34,1.34,0,0,0-.07.18c-.08.15-.12.31-.19.46s-.11.22-.19.33a5.6,5.6,0,0,1-4.81,2.71,5.91,5.91,0,0,1-2.14-.42c-1.09-.45-2.21-.86-3.34-1.27l-.23-5.19L697,415a5.62,5.62,0,0,1,1.8-2,1,1,0,0,1,.34-.22,5.61,5.61,0,0,1,5.45-.15,2.72,2.72,0,0,1,.67.41,4.1,4.1,0,0,1,.64.53,5.15,5.15,0,0,1,1.32,1.84A5.94,5.94,0,0,1,707.55,416.78Z"></path>
                <path d="M707.52,418.69a6,6,0,0,0,.11-1.09A5.68,5.68,0,0,1,707.52,418.69Z"></path>
                <path d="M707.25,419.56c.11-.3.19-.6.27-.87A7.37,7.37,0,0,1,707.25,419.56Z"></path>
                <path d="M707.18,415.39a5.94,5.94,0,0,1,.37,1.39A5.94,5.94,0,0,0,707.18,415.39Z"></path>
                <path d="M705.86,413.55a4.1,4.1,0,0,0-.64-.53A2.66,2.66,0,0,1,705.86,413.55Z"></path>
                <path d="M705.22,413a2.72,2.72,0,0,0-.67-.41A1.89,1.89,0,0,1,705.22,413Z"></path>
                <path d="M704.13,412.38a1.69,1.69,0,0,1,.42.23,5.61,5.61,0,0,0-5.45.15c.72-.53,1.43-1,2.18-1.5h0Z"></path>
                <path d="M702,423.24a5.6,5.6,0,0,0,4.81-2.71A118.56,118.56,0,0,0,697.6,445l-1.09-23.44c1.13.41,2.25.82,3.34,1.27A5.91,5.91,0,0,0,702,423.24Z"></path>
                <path d="M701.28,411.26c-.75.48-1.46,1-2.18,1.5a1,1,0,0,0-.34.22h0l-2.52,1.81.07,1.57c-.67,1.36-1.39,2.82-2.06,4.36-22.88-7.81-51.76-9.46-62.65-9.8l1.95-8-3.08-2.22a18.25,18.25,0,0,0-1.54-1.05C637.39,399.72,673.64,400.85,701.28,411.26Z"></path>
                <path d="M698.73,413h0a5.62,5.62,0,0,0-1.8,2l-.68,1.35-.07-1.57Z"></path>
                <path d="M696.32,624.3a5.68,5.68,0,0,1-2.63,7.55,111.82,111.82,0,0,1-46.91,10.67,93.42,93.42,0,0,1-37.9-7.89,97.43,97.43,0,0,1-40.07-33.09,4.62,4.62,0,0,1-.72-1.5,45.5,45.5,0,0,0,15.14,1.65,84.61,84.61,0,0,0,30.2,22.65c33.88,14.91,66.25,1.73,75.34-2.67A5.72,5.72,0,0,1,696.32,624.3Z"></path>
                <path d="M696.28,416.36l.23,5.19c-.75-.3-1.5-.57-2.29-.83C694.89,419.18,695.61,417.72,696.28,416.36Z"></path>
                <path d="M665.6,790.36a9.4,9.4,0,0,1,3.23,12.88c-2.78,4.62-5.45,9.24-8.08,13.94l-15.13-11.35c2.29-4.13,4.65-8.18,7.1-12.24A9.4,9.4,0,0,1,665.6,790.36Z"></path>
                <path d="M660.11,714.52a15,15,0,0,1,8.38,19.54l-3.79,9.57c-1.47,0-2.93.08-4.4.08-2.21,0-4.47-.08-6.68-.23a15,15,0,0,1-14-15.92,13.76,13.76,0,0,1,.71-3.76l12.85.15h.07a5.64,5.64,0,0,0,5.64-5.56,5.55,5.55,0,0,0-2.63-4.81A15,15,0,0,1,660.11,714.52Z"></path>
                <path d="M664.7,743.63l-12,30-9.2-6.88a15.13,15.13,0,0,0-12.77-2.51,5.79,5.79,0,0,0-1.09-.6,5.6,5.6,0,0,0-5.63.82l16.19-40.64h0a13.76,13.76,0,0,0-.71,3.76,15,15,0,0,0,14,15.92c2.21.15,4.47.23,6.68.23C661.77,743.71,663.23,743.67,664.7,743.63Z"></path>
                <path d="M645.62,805.83l15.13,11.35a563.25,563.25,0,0,0-65.61,360.28h-19a581.47,581.47,0,0,1,69.45-371.63Z"></path>
                <path d="M656.21,713.58a5.55,5.55,0,0,1,2.63,4.81A5.64,5.64,0,0,1,653.2,724h-.07l-12.85-.15c0-.15.12-.34.15-.49l.15-.37a12.34,12.34,0,0,1,1.32-2.52c.15-.26.34-.53.52-.79s.57-.75.87-1.09.79-.82,1.2-1.2a15.14,15.14,0,0,1,1.73-1.35,20.65,20.65,0,0,1,1.95-1.09,19.85,19.85,0,0,1,2-.79c.71-.19,1.39-.34,2.1-.49a14.4,14.4,0,0,1,3.83-.07S656.17,713.55,656.21,713.58Z"></path>
                <path d="M656.13,713.55a14.4,14.4,0,0,0-3.83.07,13.36,13.36,0,0,0-2.1.49,10.28,10.28,0,0,0-2,.79,11.08,11.08,0,0,0-1.95,1.09,11.68,11.68,0,0,0-1.73,1.35c-.41.38-.83.79-1.2,1.2s-.6.72-.87,1.09-.37.53-.52.79a12.34,12.34,0,0,0-1.32,2.52l-.15.37-.18.49-63.59-.71a5.57,5.57,0,0,1-5.56-5.67,5.67,5.67,0,0,1,5.63-5.6h.08l76.43.86A5.4,5.4,0,0,1,656.13,713.55Z"></path>
                <path d="M652.75,773.61l-4.28,10.7a15,15,0,0,1-13.93,9.5,15.15,15.15,0,0,1-5.56-1.08,17.81,17.81,0,0,1-3.08-1.66l-.38-.26-.56-.45,7.85-19.42a5.58,5.58,0,0,0-2-6.72,15.13,15.13,0,0,1,12.77,2.51Z"></path>
                <path d="M650.2,714.11a13.36,13.36,0,0,1,2.1-.49C651.59,713.77,650.91,713.92,650.2,714.11Z"></path>
                <path d="M650.2,714.11a19.85,19.85,0,0,0-2,.79A10.28,10.28,0,0,1,650.2,714.11Z"></path>
                <path d="M648.17,714.9a20.65,20.65,0,0,0-1.95,1.09A11.08,11.08,0,0,1,648.17,714.9Z"></path>
                <path d="M646.22,716a15.14,15.14,0,0,0-1.73,1.35A11.68,11.68,0,0,1,646.22,716Z"></path>
                <path d="M643.29,718.54c-.3.34-.6.72-.87,1.09C642.69,719.26,643,718.88,643.29,718.54Z"></path>
                <path d="M642.42,719.63c-.18.26-.37.53-.52.79C642.05,720.16,642.24,719.89,642.42,719.63Z"></path>
                <path d="M640.25,723.8l.18-.49c0,.15-.11.34-.15.49Z"></path>
                <path d="M633.52,402.88l-1.95,8c-2.71-.08-4.32-.08-4.43-.08a5.64,5.64,0,1,1,0-11.27h.07c.23,0,.83,0,1.69,0a18.25,18.25,0,0,1,1.54,1.05Z"></path>
                <path d="M630.78,764.22a5.58,5.58,0,0,1,2,6.72L625,790.36a14.16,14.16,0,0,1-2.93-3.27c-.19-.3-.38-.6-.56-.94a10,10,0,0,1-.94-2c-.12-.26-.19-.52-.3-.82a2.11,2.11,0,0,1-.15-.53,4.33,4.33,0,0,1-.19-.75,1.05,1.05,0,0,1-.08-.34c-.07-.41-.15-.83-.18-1.24a11.14,11.14,0,0,1-.12-1.65v-.11c0-.46,0-.91.08-1.36a7.73,7.73,0,0,1,.26-1.61,4.35,4.35,0,0,1,.23-1,10.56,10.56,0,0,1,.6-1.8,15.13,15.13,0,0,1,1.84-3.19A14.79,14.79,0,0,1,630.78,764.22Z"></path>
                <path d="M631.57,410.92l-18.1,73.92-145-8.45V390.48a8.1,8.1,0,0,0,.75-3.15l2.74-1.13c3.57-1.5,87.93-35.38,157,13.41-.86,0-1.46,0-1.69,0h-.07a5.64,5.64,0,1,0,0,11.27C627.25,410.84,628.86,410.84,631.57,410.92Zm-19.79,33.35,9-36.66c-19.23-13.11-40-19.3-59.57-21.6-37.52-4.39-70.84,5.64-81.47,9.32v70.43l125,7.28Z"></path>
                <path d="M629.69,763.62a5.79,5.79,0,0,1,1.09.6,14.79,14.79,0,0,0-8.26,5.56,15.13,15.13,0,0,0-1.84,3.19l3.38-8.53A5.6,5.6,0,0,1,629.69,763.62Z"></path>
                <path d="M628.56,361.45a5.64,5.64,0,0,1-3,7.4,5.48,5.48,0,0,1-2.18.41,5.64,5.64,0,0,1-5.14-3.34c-.34-.64-13.34-24.23-84.21-12l-1.32-7.29a11,11,0,0,0,6.16-2.55,11.22,11.22,0,0,0,2.33-2.71C613.35,331.14,627.1,358,628.56,361.45Z"></path>
                <path d="M625,790.36,611,825a5.64,5.64,0,0,1-5.22,3.53,5.15,5.15,0,0,1-2.11-.41,5.62,5.62,0,0,1-3.11-7.33l21.86-54.09a5.67,5.67,0,0,1,1.69-2.29L620.68,773a10.56,10.56,0,0,0-.6,1.8,4.35,4.35,0,0,0-.23,1,7.73,7.73,0,0,0-.26,1.61c0,.45-.08.9-.08,1.36v.11a11.45,11.45,0,0,0,.12,1.65c0,.41.11.83.18,1.24a1.05,1.05,0,0,0,.08.34,5.15,5.15,0,0,0,.19.75,2.11,2.11,0,0,0,.15.53,5.42,5.42,0,0,0,.3.82,10,10,0,0,0,.94,2,4.49,4.49,0,0,0,.56.94A14.16,14.16,0,0,0,625,790.36Z"></path>
                <path d="M621.47,786.15c.18.34.37.64.56.94A4.49,4.49,0,0,1,621.47,786.15Z"></path>
                <path d="M620.75,407.61l-9,36.66L602.42,442a5.55,5.55,0,0,0-3.42-6.27c-7.54-3-17.09-5.07-27.19-6.39,5.3-5.78,6.91-12.88,7.18-18.51a50.21,50.21,0,0,1,13.82,9.42,5.64,5.64,0,0,0,8.19-7.77c-.19-.19-8-8.27-22.39-13.79a78.19,78.19,0,0,0-18.44-4.58l1-8.08C580.79,388.31,601.52,394.5,620.75,407.61Z"
                      class="cls-8"></path>
                <path d="M620.23,783.34c.11.3.18.56.3.82A5.42,5.42,0,0,1,620.23,783.34Z"></path>
                <path d="M620.08,774.77a4.35,4.35,0,0,0-.23,1A4.35,4.35,0,0,1,620.08,774.77Z"></path>
                <path d="M619.89,782.06a4.33,4.33,0,0,0,.19.75A5.15,5.15,0,0,1,619.89,782.06Z"></path>
                <path d="M619.63,780.48c0,.41.11.83.18,1.24C619.74,781.31,619.66,780.89,619.63,780.48Z"></path>
                <path d="M619.51,778.83a11.14,11.14,0,0,0,.12,1.65A11.45,11.45,0,0,1,619.51,778.83Z"></path>
                <path d="M619.59,777.36c0,.45-.08.9-.08,1.36C619.51,778.26,619.55,777.81,619.59,777.36Z"></path>
                <path d="M611.78,444.27l-7,28.77-125-7.28V395.33c10.63-3.68,43.95-13.71,81.47-9.32l-1,8.08c-17.24-2-39.52,1.2-65.92,17.47a5.62,5.62,0,0,0,3,10.4l1.91,6.09A5.65,5.65,0,0,0,501,439.13a449,449,0,0,1,53.26-.19c15,1,30.05,3,40.53,7.25a6.21,6.21,0,0,0,2.1.41,5.58,5.58,0,0,0,5.22-3.57,4.54,4.54,0,0,0,.3-1Z"
                      class="cls-8"></path>
                <path d="M599,435.71a5.55,5.55,0,0,1,3.42,6.27,4.54,4.54,0,0,1-.3,1,5.58,5.58,0,0,1-5.22,3.57,6.21,6.21,0,0,1-2.1-.41c-10.48-4.21-25.54-6.28-40.53-7.25l0-.79c8.52,0,14.65-6,16.52-7.81.34-.34.68-.68,1-1C581.91,430.64,591.46,432.67,599,435.71Z"></path>
                <path d="M601,412.46a5.64,5.64,0,0,1-8.19,7.77A50.21,50.21,0,0,0,579,410.81a40.9,40.9,0,0,0-.64-9.62l.26-2.52C593,404.19,600.81,412.27,601,412.46Z"></path>
                <path d="M596.68,1187.19a9.4,9.4,0,0,1-7.74,10.82,11.05,11.05,0,0,1-1.54.11,9.38,9.38,0,0,1-9.24-7.85c-.71-4.28-1.39-8.56-2-12.81h19C595.62,1180.69,596.15,1184,596.68,1187.19Z"></path>
                <path d="M587.4,1198.12V1200H487.71v-1.88a9.36,9.36,0,0,0,9.39-9.28c0-.18,0-4-.11-11.38h79.18c.6,4.25,1.28,8.53,2,12.81A9.38,9.38,0,0,0,587.4,1198.12Z"></path>
                <path d="M583.23,601.69A45.5,45.5,0,0,1,568.09,600a5.61,5.61,0,0,1,2.07-6.35,5.77,5.77,0,0,1,3.94-1,5.57,5.57,0,0,1,3.95,2.36A81.56,81.56,0,0,0,583.23,601.69Z"></path>
                <path d="M578.35,401.19a40.9,40.9,0,0,1,.64,9.62A62.39,62.39,0,0,0,557.65,405a7,7,0,0,0-3.15-1.36,7.09,7.09,0,0,0-4.92,1.09,77.63,77.63,0,0,0-17.73,2.52,40.8,40.8,0,0,1,1.58-8.23Q555.9,400.1,578.35,401.19Z"></path>
                <path d="M578.61,398.67l-.26,2.52q-22.49-1.06-44.92-2.22a40.8,40.8,0,0,0-1.58,8.23c-9.54,2.4-20.1,6.8-31.67,13.93a5.63,5.63,0,1,1-5.93-9.57c26.4-16.27,48.68-19.5,65.92-17.47A78.19,78.19,0,0,1,578.61,398.67Z"></path>
                <path d="M574.55,590l-.45,2.71a5.77,5.77,0,0,0-3.94,1,5.61,5.61,0,0,0-2.07,6.35c-7.73-2.37-10.25-6.61-10.89-8l10.25-4.66a1.21,1.21,0,0,0-.22-.41C567.91,587.91,570.12,589.3,574.55,590Z"></path>
                <path d="M579,410.81c-.27,5.63-1.88,12.73-7.18,18.51-5-.67-10.06-1.16-15.17-1.54a16.08,16.08,0,0,0,5-9.61c.86-5.6-.83-10.82-4-13.22A62.39,62.39,0,0,1,579,410.81Z"></path>
                <path d="M571.81,429.32c-.3.34-.64.68-1,1-1.87,1.8-8,7.81-16.52,7.81-.68,0-1.39,0-2.1-.11-7.48-.94-12.21-6.2-13.79-8a25.61,25.61,0,0,1-2.37-3.11c3.2,0,6.5.11,9.88.26a7.24,7.24,0,0,0,4.43,2.59,7.64,7.64,0,0,0,6.28-2C561.75,428.16,566.85,428.65,571.81,429.32Z"></path>
                <path d="M557.65,405c3.19,2.4,4.88,7.62,4,13.22a16.08,16.08,0,0,1-5,9.61c-3.57-.22-7.18-.41-10.71-.56-2.33-2.71-3.49-7.17-2.74-12s3.31-8.75,6.39-10.56A70.46,70.46,0,0,1,557.65,405Z"
                      class="cls-10"></path>
                <path d="M554.5,403.59a7,7,0,0,1,3.15,1.36,70.46,70.46,0,0,0-8.07-.27A7.09,7.09,0,0,1,554.5,403.59Z"
                      class="cls-10"></path>
                <path d="M554.31,438.15l0,.79a449,449,0,0,0-53.26.19,5.65,5.65,0,0,1-1.88-11.08,5.31,5.31,0,0,1,1.09-.19c1.28-.08,16.68-1.17,35.83-.9a25.61,25.61,0,0,0,2.37,3.11c1.58,1.77,6.31,7,13.79,8C552.92,438.11,553.63,438.15,554.31,438.15Z"></path>
                <path d="M556.64,427.78a7.64,7.64,0,0,1-6.28,2,7.24,7.24,0,0,1-4.43-2.59C549.46,427.37,553.07,427.56,556.64,427.78Z"
                      class="cls-10"></path>
                <path d="M549.58,404.68c-3.08,1.81-5.6,5.75-6.39,10.56s.41,9.27,2.74,12c-3.38-.15-6.68-.23-9.88-.26-4.28-6.61-4.73-14.13-4.2-19.76A77.63,77.63,0,0,1,549.58,404.68Z"></path>
                <path d="M541.16,341.35a11.22,11.22,0,0,1-2.33,2.71,11,11,0,0,1-6.16,2.55,11.14,11.14,0,0,1-6.16-1.24c-.67-.37-1.39-.75-2.1-1.16,2.71-.53,5.37-1,8-1.47C535.38,342.22,538.31,341.77,541.16,341.35Z"></path>
                <path d="M536.05,427c-19.15-.27-34.55.82-35.83.9a5.31,5.31,0,0,0-1.09.19L497.22,422a5.63,5.63,0,0,0,3-.83c11.57-7.13,22.13-11.53,31.67-13.93C531.32,412.83,531.77,420.35,536.05,427Z"
                      class="cls-8"></path>
                <path d="M532.67,346.61,534,353.9c-6.57,1.13-13.64,2.55-21.22,4.36a5.64,5.64,0,1,1-2.59-11c4.95-1.17,9.69-2.18,14.23-3.08.71.41,1.43.79,2.1,1.16A11.14,11.14,0,0,0,532.67,346.61Z"></path>
                <path d="M531.81,335.42l.56,7.32c-2.59.46-5.25.94-8,1.47-13.63-7.59-29.86-19.65-36.54-36.59C479.71,322.05,466,352,469.2,385.9a8.53,8.53,0,0,1,0,1.43l-.75.3v2.85a9,9,0,0,1-15.29,1.73,166.17,166.17,0,0,1-12.88-19.3c-7.06,30.12-19.61,88.94-20.74,130.75a9.25,9.25,0,0,1-8.18,9,10.76,10.76,0,0,1-1.13,0,9.22,9.22,0,0,1-8.94-6.88c-4.36-16.11-9.17-41.24-7.4-69.41.34-5.75-3.19-9.05-8.19-13.11-.9-.75-1.73-1.42-2.48-2.06a37.34,37.34,0,0,0-6.42-4.55l-2.48-13.37a48.67,48.67,0,0,1,16.42,9.5c.6.53,1.31,1.13,2.06,1.73,4.88,3.95,13.07,10.59,12.32,22.54A204.86,204.86,0,0,0,409,489.46c3.38-45.56,16.38-103,22.27-127.18a8.1,8.1,0,0,1,7.29-6.31,8.4,8.4,0,0,1,8.37,5,108.07,108.07,0,0,0,10.6,18.14c-1.06-35.94,13.71-66,23.06-81.32a9,9,0,0,1,9-4.28,9.19,9.19,0,0,1,7.63,6.69C502.06,317.39,521,329.64,531.81,335.42Z"></path>
                <path d="M497,1177.46c.15,7.33.11,11.2.11,11.38a9.36,9.36,0,0,1-9.39,9.28h-.11a9.42,9.42,0,0,1-9.28-9.5c0-.19,0-4-.11-11.16Z"></path>
                <path d="M497,1177.46H478.21c-.49-28.17-3.6-108.06-21.14-222.73-14.46-94.66-35.27-132.07-46.54-146.08l13.93-12.54c5.83,7.06,12.85,17.95,20.1,34.67,10.82,25.05,22.23,63.17,31.1,121.09C493.39,1067.86,496.5,1148.84,497,1177.46Z"></path>
                <path d="M487.71,1198.12V1200H0V1013.43H.53a15,15,0,0,0,15,15,14.55,14.55,0,0,0,6.23-1.35l.76-.34v150.73H478.21c.15,7.18.11,11,.11,11.16a9.42,9.42,0,0,0,9.28,9.5Z"></path>
                <path d="M478.21,1177.46H22.54V1026.73L316,892.71l2.11-.94,92.47-83.12c11.27,14,32.08,51.42,46.54,146.08C474.61,1069.4,477.72,1149.29,478.21,1177.46ZM372.41,1012a9.14,9.14,0,0,0-1.54-10l-32.16-36a8.92,8.92,0,0,0-7.13-3.08,9.24,9.24,0,0,0-7,3.42l-29.11,36a9.26,9.26,0,0,0,7.21,15.1H364A9.1,9.1,0,0,0,372.41,1012Z"
                      class="cls-3"></path>
                <path d="M468.45,387.63l.75-.3a8.1,8.1,0,0,1-.75,3.15Z"></path>
                <path d="M456.54,749.72a5,5,0,0,1,.53,2.36L456.73,828a5.63,5.63,0,0,1-5.64,5.64,5.74,5.74,0,0,1-5.18-3.5,5.11,5.11,0,0,1-.45-2.17l.23-50.75a15,15,0,0,0,10.51-14Z"></path>
                <path d="M456.54,749.72l-.34,13.56a15,15,0,0,1-10.51,14v-.19l5.37-4.84a15.09,15.09,0,0,0-3.12-24.53,5.33,5.33,0,0,1,3.49-1.28h0A5.67,5.67,0,0,1,456.54,749.72Z"></path>
                <path d="M452.18,751a15,15,0,0,1-1.12,21.22l-5.37,4.84.11-25a5.65,5.65,0,0,1,2.14-4.36A14.94,14.94,0,0,1,452.18,751Z"></path>
                <path d="M447.94,747.69a5.65,5.65,0,0,0-2.14,4.36l-.11,25-.34.27a13.9,13.9,0,0,1-4.13.6h-.42a15,15,0,0,1-14.61-15.4l.23-8.57,4.54-4.09A15.06,15.06,0,0,1,447.94,747.69Z"></path>
                <path d="M445.91,830.17l-1.35.61c-7.25-16.72-14.27-27.61-20.1-34.67l20.89-18.78a1.11,1.11,0,0,0,.34-.08L445.46,828A5.11,5.11,0,0,0,445.91,830.17Z"
                      class="cls-7"></path>
                <path d="M445.69,777.06v.19a1.11,1.11,0,0,1-.34.08Z"></path>
                <path d="M445.35,777.33l-20.89,18.78c-7.7-9.32-13.37-12-14.87-12.55l-7.21-8,24-21.6-.23,8.57a15,15,0,0,0,14.61,15.4h.42A13.9,13.9,0,0,0,445.35,777.33Z"></path>
                <path d="M424.46,796.11l-13.93,12.54c-4.4-5.37-7.32-7.29-8-7.66a1.13,1.13,0,0,1,.34.11l6.72-17.54C411.09,784.12,416.76,786.79,424.46,796.11Z"></path>
                <path d="M402.53,801c.68.37,3.6,2.29,8,7.66l-92.47,83.12-2.11.94-293.41,134V993.68L301.38,866.35l101-90.79,7.21,8-6.72,17.54A1.13,1.13,0,0,0,402.53,801Z"></path>
                <path d="M374.32,403.33l2.48,13.37a41.28,41.28,0,0,0-13.75-4.62A5.62,5.62,0,1,1,364.74,401,57.09,57.09,0,0,1,374.32,403.33Z"></path>
                <path d="M370.87,1002.05a9.26,9.26,0,0,1-6.91,15.44H302.69a9.26,9.26,0,0,1-7.21-15.1l29.11-36a9.24,9.24,0,0,1,7-3.42,8.92,8.92,0,0,1,7.13,3.08Zm-11.35,4.17-27.64-30.91-25,30.91Z"></path>
                <polygon points="331.88 975.31 359.52 1006.22 306.86 1006.22 331.88 975.31" class="cls-2"></polygon>
                <path d="M326.62,148.25a5.29,5.29,0,0,1,0,.79c0,5.11-3.72,8-6.42,10.14a20.45,20.45,0,0,0-5.38,5.53c-3.08,5.07-2.17,10.74-1.31,16.26.9,5.71,1.92,12.13-3.38,16.08s-11,1.12-15.63-1.06-8-3.6-11.15-2.48-5.07,4.51-7.06,8.08c-2.33,4.24-5.22,9.47-11.35,9.47h-.26c-6-.15-8.6-5.19-10.55-8.87-1.62-3.12-3.16-6-6.09-7.25s-5.63-.41-9.91,1.09-9.88,3.49-14.84-.34C218,191.6,219,185.18,219.8,180c.71-4.84,1.47-9.88-1.05-15-1.92-3.91-5-6.2-7.85-8.38-3.57-2.7-8-6.09-7.1-12.1.9-5.74,6-7.92,9.73-9.54,3.23-1.39,5.26-2.36,5.93-4.09s-.19-4-1.69-7.25c-1.73-3.72-4.09-8.83-.82-13.63,3.6-5.37,10-4.44,15.09-3.72,4.77.71,10.18,1.46,15.29-1.09,3.27-1.62,5-3.87,6.84-6.2,2.29-3,5.41-7,11.27-7h.11c6,.08,8.94,4.06,11.34,7.25a21.13,21.13,0,0,0,7.29,6.88c4.28,2.25,8,2.14,11.9,2,4.55-.19,10.22-.38,14.39,4.62,3.68,4.39,3.12,9.16,2.67,12.66-.34,2.93-.64,5.25.9,8,1.35,2.52,3.38,3.8,5.48,5.15C322.34,140.4,326.24,142.92,326.62,148.25Zm-11.76.79c-.41-.3-1-.67-1.42-.94-2.59-1.69-6.54-4.2-9.28-9.24-3.27-5.93-2.63-11-2.18-14.8.34-2.85.3-3.53-.15-4-.56-.68-1.73-.75-5.29-.6-4.51.15-10.71.37-17.66-3.31-5.78-3.08-8.82-7.14-11-10.07a12.53,12.53,0,0,0-2.33-2.74,10.81,10.81,0,0,0-2.48,2.63,29.73,29.73,0,0,1-10.63,9.35c-8.26,4.17-16.19,3-22,2.18-1-.15-2.25-.3-3.27-.41.26.64.57,1.31.83,1.88,1.8,3.87,4.51,9.76,1.95,16.19-2.48,6.19-8,8.52-12,10.25-.6.26-1.39.6-2,.9.57.45,1.2.94,1.77,1.35,3.38,2.6,8,6.13,11.15,12.44,4.1,8.22,2.93,16,2.07,21.63a29.94,29.94,0,0,0-.49,5.07c.68-.18,2.67-.86,4-1.35,3-1,6.69-2.33,10.78-2.33a18.75,18.75,0,0,1,7.29,1.47c6.61,2.81,9.54,8.34,11.64,12.39.26.49.6,1.13.94,1.69.49-.79,1-1.73,1.43-2.48,2.48-4.5,5.89-10.7,13.14-13.26,7.78-2.77,14.69.53,19.76,2.93,1.09.49,2.55,1.21,3.64,1.58-.07-1.31-.37-3.23-.6-4.66-1-6.46-2.44-15.28,2.78-23.88a31.29,31.29,0,0,1,8.08-8.53C313.78,149.94,314.41,149.46,314.86,149Z"></path>
                <path d="M313.44,148.1c.45.27,1,.64,1.42.94-.45.42-1.08.9-1.57,1.28a31.29,31.29,0,0,0-8.08,8.53c-5.22,8.6-3.79,17.42-2.78,23.88.23,1.43.53,3.35.6,4.66-1.09-.37-2.55-1.09-3.64-1.58-5.07-2.4-12-5.7-19.76-2.93-7.25,2.56-10.66,8.76-13.14,13.26-.42.75-.94,1.69-1.43,2.48-.34-.56-.68-1.2-.94-1.69-2.1-4.05-5-9.58-11.64-12.39a18.75,18.75,0,0,0-7.29-1.47c-4.09,0-7.77,1.32-10.78,2.33-1.31.49-3.3,1.17-4,1.35a29.94,29.94,0,0,1,.49-5.07c.86-5.63,2-13.41-2.07-21.63-3.12-6.31-7.77-9.84-11.15-12.44-.57-.41-1.2-.9-1.77-1.35.64-.3,1.43-.64,2-.9,4-1.73,9.5-4.06,12-10.25,2.56-6.43-.15-12.32-1.95-16.19-.26-.57-.57-1.24-.83-1.88,1,.11,2.26.26,3.27.41,5.78.83,13.71,2,22-2.18A29.73,29.73,0,0,0,263,105.92a10.81,10.81,0,0,1,2.48-2.63,12.53,12.53,0,0,1,2.33,2.74c2.22,2.93,5.26,7,11,10.07,6.95,3.68,13.15,3.46,17.66,3.31,3.56-.15,4.73-.08,5.29.6.45.52.49,1.2.15,4-.45,3.76-1.09,8.87,2.18,14.8C306.9,143.9,310.85,146.41,313.44,148.1Zm-25.51,3.46a3.14,3.14,0,0,0,0-.53,22.73,22.73,0,0,0-22.2-22.2,3.14,3.14,0,0,0-.53,0,22.79,22.79,0,0,0-22.76,22.76,2.24,2.24,0,0,0,0,.52,22.67,22.67,0,0,0,18.74,21.83,20.12,20.12,0,0,0,4,.37A22.76,22.76,0,0,0,287.93,151.56Z"
                      class="cls-2"></path>
                <path d="M287.9,151a3.14,3.14,0,0,1,0,.53,22.76,22.76,0,0,1-22.76,22.72,20.12,20.12,0,0,1-4-.37l1.65-11.12a12,12,0,0,0,2.33.22,11.51,11.51,0,0,0,11.5-11.45Z"></path>
                <path d="M287.9,151l-11.23.53a11.52,11.52,0,0,0-11.5-11.49l.53-11.24A22.73,22.73,0,0,1,287.9,151Z"></path>
                <path d="M265.17,140.07a11.47,11.47,0,1,1,0,22.94,12,12,0,0,1-2.33-.22,11.48,11.48,0,0,1,2.33-22.72Z"
                      class="cls-4"></path>
                <path d="M265.7,128.83l-.53,11.24a11.49,11.49,0,0,0-11.49,11.49l-11.23.52a2.24,2.24,0,0,1,0-.52,22.79,22.79,0,0,1,22.76-22.76A3.14,3.14,0,0,1,265.7,128.83Z"></path>
                <path d="M262.84,162.79l-1.65,11.12a22.67,22.67,0,0,1-18.74-21.83l11.23-.52A11.51,11.51,0,0,0,262.84,162.79Z"></path>
                <path d="M233.21,675.61c.41,5.6-3.53,8.68-6.39,10.93a21.13,21.13,0,0,0-5.37,5.52c-3.08,5.07-2.18,10.74-1.31,16.27.9,5.71,2,12.13-3.38,16.07s-11,1.13-15.63-1-8-3.61-11.15-2.48-5.07,4.51-7.06,8.08c-2.33,4.24-5.22,9.46-11.35,9.46h-.26c-5.93-.15-8.6-5.18-10.55-8.86-1.62-3.12-3.16-6-6.09-7.29s-5.63-.37-9.91,1.13-9.84,3.49-14.84-.34c-5.3-4.09-4.32-10.52-3.53-15.7.71-4.85,1.46-9.88-1-15-2-3.9-5-6.19-7.88-8.37-3.57-2.71-8-6.09-7.1-12.1.9-5.75,6-7.92,9.73-9.54,3.23-1.39,5.25-2.37,5.93-4.09s-.19-4-1.69-7.25c-1.73-3.72-4.06-8.83-.83-13.64,3.61-5.37,10-4.43,15.1-3.72,4.77.68,10.18,1.47,15.29-1.08,3.27-1.62,5-3.87,6.84-6.2,2.29-3,5.4-7,11.26-7h.12c6,.08,8.94,4.06,11.34,7.25a21.11,21.11,0,0,0,7.29,6.87c4.28,2.26,8,2.15,11.94,2,4.55-.19,10.18-.38,14.35,4.62,3.68,4.39,3.12,9.16,2.67,12.65-.34,2.93-.61,5.26.9,8,1.39,2.52,3.38,3.79,5.48,5.15C229,667.8,232.83,670.28,233.21,675.61Zm-11.76.79c-.41-.3-1-.68-1.42-.94-2.6-1.69-6.54-4.21-9.28-9.24-3.27-5.93-2.63-11.08-2.18-14.8.34-2.85.3-3.53-.15-4.06s-1.77-.75-5.3-.6c-4.5.15-10.7.38-17.65-3.3a31.7,31.7,0,0,1-11-10.07,14,14,0,0,0-2.37-2.74,10.63,10.63,0,0,0-2.48,2.63A29.82,29.82,0,0,1,159,642.63c-8.26,4.17-16.19,3-22,2.18-1-.15-2.26-.3-3.27-.41.26.64.56,1.31.83,1.88,1.8,3.86,4.5,9.76,1.95,16.18-2.48,6.16-8,8.53-12,10.26-.6.26-1.39.56-2,.9.56.45,1.2.94,1.77,1.35,3.41,2.59,8,6.12,11.15,12.4,4.09,8.3,2.93,16,2.07,21.67a29.85,29.85,0,0,0-.49,5.07c.67-.19,2.67-.86,4-1.35a32.4,32.4,0,0,1,10.78-2.33,18.73,18.73,0,0,1,7.29,1.46c6.61,2.82,9.54,8.34,11.64,12.4.3.49.6,1.13.94,1.69.49-.79,1-1.73,1.43-2.48,2.47-4.51,5.89-10.7,13.14-13.26,7.78-2.78,14.69.53,19.76,2.93,1.09.49,2.55,1.2,3.64,1.58-.07-1.32-.37-3.23-.6-4.66-1-6.46-2.44-15.29,2.82-23.89a31.17,31.17,0,0,1,8-8.52C220.36,677.3,221,676.81,221.45,676.4Z"></path>
                <path d="M220,675.46c.45.26,1,.64,1.42.94-.45.41-1.09.9-1.57,1.28a31.17,31.17,0,0,0-8,8.52c-5.26,8.6-3.83,17.43-2.82,23.89.23,1.43.53,3.34.6,4.66-1.09-.38-2.55-1.09-3.64-1.58-5.07-2.4-12-5.71-19.76-2.93C179,712.8,175.55,719,173.08,723.5c-.42.75-.94,1.69-1.43,2.48-.34-.56-.64-1.2-.94-1.69-2.1-4.06-5-9.58-11.64-12.4a18.73,18.73,0,0,0-7.29-1.46A32.4,32.4,0,0,0,141,712.76c-1.31.49-3.31,1.16-4,1.35a29.85,29.85,0,0,1,.49-5.07c.86-5.63,2-13.37-2.07-21.67-3.12-6.28-7.74-9.81-11.15-12.4-.57-.41-1.21-.9-1.77-1.35.64-.34,1.43-.64,2-.9,4-1.73,9.5-4.1,12-10.26,2.55-6.42-.15-12.32-1.95-16.18-.27-.57-.57-1.24-.83-1.88,1,.11,2.25.26,3.27.41,5.78.83,13.71,2,22-2.18a29.82,29.82,0,0,0,10.63-9.35,10.63,10.63,0,0,1,2.48-2.63,14,14,0,0,1,2.37,2.74,31.7,31.7,0,0,0,11,10.07c6.95,3.68,13.15,3.45,17.65,3.3,3.53-.15,4.74-.07,5.3.6s.49,1.21.15,4.06c-.45,3.72-1.09,8.87,2.18,14.8C213.49,671.25,217.43,673.77,220,675.46Zm-25.51,3.46a2.37,2.37,0,0,0,0-.53,22.71,22.71,0,0,0-22.19-22.2,2.37,2.37,0,0,0-.53,0A22.8,22.8,0,0,0,149,678.92a2.32,2.32,0,0,0,0,.52,22.68,22.68,0,0,0,22.2,22.16,2.24,2.24,0,0,0,.52,0A22.76,22.76,0,0,0,194.52,678.92Z"
                      class="cls-2"></path>
                <path d="M194.48,678.39a2.37,2.37,0,0,1,0,.53,22.76,22.76,0,0,1-22.76,22.72,2.24,2.24,0,0,1-.52,0l.52-11.23a11.5,11.5,0,0,0,11.49-11.45Z"></path>
                <path d="M194.48,678.39l-11.23.53a11.52,11.52,0,0,0-11.49-11.5l.53-11.23A22.71,22.71,0,0,1,194.48,678.39Z"></path>
                <path d="M171.76,667.42a11.48,11.48,0,1,1-11.49,11.5A11.52,11.52,0,0,1,171.76,667.42Z"
                      class="cls-4"></path>
                <path d="M172.29,656.19l-.53,11.23a11.49,11.49,0,0,0-11.49,11.5l-11.23.52a2.32,2.32,0,0,1,0-.52,22.8,22.8,0,0,1,22.76-22.77A2.37,2.37,0,0,1,172.29,656.19Z"></path>
                <path d="M171.76,690.37l-.52,11.23A22.68,22.68,0,0,1,149,679.44l11.23-.52A11.48,11.48,0,0,0,171.76,690.37Z"></path>
                <path d="M22.54,993.68v33.05l-.76.34a14.55,14.55,0,0,1-6.23,1.35,15,15,0,0,1-6.24-28.7Z"></path>
            </g>
            <path d="M702.45,606.73s-7.57,10.38-13.66,15c0,0-60.17,33.32-105.59-20,0,0,18.48-1.8,31.76-5.51s48.84-7.08,68.17,1.74Z"
                  class="cls-11"></path>
            <path d="M640.59,722.94l-63.92.17s-5.13-.64-5.57-5.7-48.65-23.22-48.65-23.22,87.55,71.08,78,126.63Z"
                  class="cls-12"></path>
            <path d="M807.26,332.78c-1.92.21-1.06-41.51-20.64-77.74a133.71,133.71,0,0,0-36.89-42.51s35.94-23.75,60.44,15.8a47.85,47.85,0,0,1,6.92,16.11c3.14,14.25-2.17,23.21-6.36,46.5a260.3,260.3,0,0,0-2.65,27.93C807.73,327.49,807.94,332.71,807.26,332.78Z"
                  class="cls-12"></path>
        </g>
    </g>
</svg>