<svg viewBox="0 0 1200 1200" xmlns="http://www.w3.org/2000/svg">
    <defs>
        <style>
            .cls-1{fill:#7790ed;}.cls-2{fill:#606060;}.cls-3{fill:#efaa30;}.cls-4{fill:#ffd9c0;}.cls-5{fill:#191717;}.cls-6{fill:#515151;}.cls-7{fill:#ff704a;}.cls-8{fill:#fff;}.cls-9{fill:#dbb39e;}
        </style>
    </defs>
    <title>12 (4)</title>
    <g id="图层_2">
        <g id="_12">
            <g id="_编组_">
                <path d="M1200,859.9V1200H1034.74v-7a9.52,9.52,0,0,0,4.09-.94,9.42,9.42,0,0,0,4.36-12.54l-1-2.11h135.29V873.23a14.45,14.45,0,0,0,6.84,1.69,15.09,15.09,0,0,0,13-7.4,14.79,14.79,0,0,0,2.06-7.62Z"></path>
                <path d="M1200,0V859.9h-.68a15,15,0,0,0-7.4-13l-14.46-8.49V22.54H22.54V1177.46h528q1.19,3.39,2.48,6.76a15.09,15.09,0,0,0,14.09,9.73v6H0V0Z"></path>
                <path d="M1199.32,859.9a14.79,14.79,0,0,1-2.06,7.62,15.09,15.09,0,0,1-13,7.4,14.45,14.45,0,0,1-6.84-1.69V838.45l14.46,8.49A15,15,0,0,1,1199.32,859.9Z"></path>
                <path d="M1177.46,873.23v304.23H1042.17C1035.3,1163,994.62,1076.8,959.05,978c-7.73-21.45-6.79-41.62,2.86-61.75,25.91-54.08,106.71-87.74,126.54-95.32l88.23,51.9A4,4,0,0,0,1177.46,873.23Z"></path>
                <path d="M1177.46,838.45v34.78a4,4,0,0,1-.78-.38L1088.45,821c2.74-1,4.32-1.58,4.43-1.62a9.41,9.41,0,0,0,5.82-11.94A9.62,9.62,0,0,0,1094,802l5.56-9.43Z"></path>
                <path d="M1177.46,22.54V838.45l-77.93-45.86L923.52,689A33.36,33.36,0,0,0,918,676.87c-15.59-21.49-50.93-17.77-81.88-8.94l-32.3-66.67,2.44-5.41a97.06,97.06,0,0,0,8.26-31.74l1.54-17.58c9.47-23.17,56.42-152.23-17.39-269.23-34.07-54-86.39-93-151.4-113C594.05,148,532.79,145.17,479.23,156.7c-123.65,26.63-169.89,89.39-186.9,137.39-23.66,66.75-2.22,129.25,13.37,161.51l21.41,94.54,16.6,73.24a182.31,182.31,0,0,0,25.13,59.35l45.41,69.71a82.65,82.65,0,0,0,102.09,30.8l.86-.38,96.42-57.09L663,776c-7.4,11.31-10.82,24.23-9.47,35.84a287.73,287.73,0,0,0-90.67,102.8c-25.73,49.54-29.67,93.56-31.59,114.74a346.21,346.21,0,0,0,19.27,148.06h-528V22.54ZM1102.53,527a20,20,0,0,0-15.7-21.74L904.7,466.08a20.21,20.21,0,0,0-15.92,3.34,19.93,19.93,0,0,0-8.19,14.09l-1.8,16.56a20.05,20.05,0,0,0,11.38,20.28l177.32,83.54a20,20,0,0,0,28.47-16Zm-42.14-305a20.06,20.06,0,0,0,8.19-25.58l-25.24-55.82a20,20,0,0,0-32-6.31L868.8,268.85a20,20,0,0,0-4.51,22.8l6.84,15.21a20.12,20.12,0,0,0,12.17,10.82,20.2,20.2,0,0,0,16.18-1.76ZM443.17,828a20.12,20.12,0,0,0-7.06-21.67l-16.3-12.47a20.13,20.13,0,0,0-27.2,2.63l-197.07,223a20,20,0,0,0,8.26,32.11l136,48.46a19.67,19.67,0,0,0,6.72,1.16,20.09,20.09,0,0,0,19.19-14.31ZM297.92,611.21V594.57a20.13,20.13,0,0,0-13.48-19l-185.32-64a20,20,0,0,0-26.55,19v61.26a20,20,0,0,0,18,19.91L275.8,631.16a20.5,20.5,0,0,0,2.07.11,20.06,20.06,0,0,0,20.05-20.06Z"
                      class="cls-1"></path>
                <path d="M1086.83,505.26a20,20,0,0,1,15.7,21.74L1096,587.92a20,20,0,0,1-28.47,16L890.17,520.35a20.05,20.05,0,0,1-11.38-20.28l1.8-16.56a19.93,19.93,0,0,1,8.19-14.09,20.21,20.21,0,0,1,15.92-3.34Zm-3,19.71a1.23,1.23,0,0,0-1-1.35L900.76,484.45a1.38,1.38,0,0,0-1,.18,1.24,1.24,0,0,0-.49.91l-1.8,16.56a1.29,1.29,0,0,0,.71,1.28l177.32,83.53a1.38,1.38,0,0,0,1.16,0,1.23,1.23,0,0,0,.64-1Z"></path>
                <path d="M923.52,689l176,103.55L1094,802a9.27,9.27,0,0,0-7.18-.46c-1.08.38-8.18,2.82-18.78,7.37l-153.2-90.15-1.62-6a15,15,0,0,0,11.35-14.53A40.15,40.15,0,0,0,923.52,689Z"></path>
                <path d="M1098.7,807.39a9.41,9.41,0,0,1-5.82,11.94c-.11,0-1.69.6-4.43,1.62l-20.44-12c10.6-4.55,17.7-7,18.78-7.37a9.27,9.27,0,0,1,7.18.46A9.62,9.62,0,0,1,1098.7,807.39Z"></path>
                <path d="M1068,808.93l20.44,12c-19.83,7.58-100.63,41.24-126.54,95.32-9.65,20.13-10.59,40.3-2.86,61.75,35.57,98.78,76.25,185,83.12,199.44H1021.4c-12.77-27.26-48.41-105.31-80-193.05-9.39-26.07-8.15-51.76,3.65-76.29C969.83,856.33,1035.41,822.86,1068,808.93Z"
                      class="cls-2"></path>
                <path d="M1082.89,523.62a1.23,1.23,0,0,1,1,1.35l-6.57,60.93a1.23,1.23,0,0,1-.64,1,1.38,1.38,0,0,1-1.16,0L898.17,503.38a1.29,1.29,0,0,1-.71-1.28l1.8-16.56a1.24,1.24,0,0,1,.49-.91,1.38,1.38,0,0,1,1-.18Z"
                      class="cls-3"></path>
                <path d="M1068.58,196.44a20.06,20.06,0,0,1-8.19,25.58l-160.91,93.9a20.07,20.07,0,0,1-28.35-9.06l-6.84-15.21a20,20,0,0,1,4.51-22.8l142.54-134.54a20,20,0,0,1,32,6.31Zm-17.66,9.35a1.26,1.26,0,0,0,.53-1.61l-25.2-55.82a1.16,1.16,0,0,0-.9-.71,1.15,1.15,0,0,0-1.13.3L881.68,282.49a1.32,1.32,0,0,0-.3,1.42l6.87,15.22a1.24,1.24,0,0,0,.75.67,1.17,1.17,0,0,0,1-.11Z"></path>
                <path d="M914.81,718.78,1068,808.93c-32.6,13.93-98.18,47.4-123,99.19-11.8,24.53-13,50.22-3.65,76.29,31.63,87.74,67.27,165.79,80,193.05H636.3c-4.24-15.62-8-31.51-11.15-47.32a736,736,0,0,1-14.24-129.21,9.36,9.36,0,0,0-9.39-9.16h-.19a9.39,9.39,0,0,0-9.2,9.58,756,756,0,0,0,14.57,132.47c2.93,14.57,6.35,29.18,10.18,43.64H582.07a14.26,14.26,0,0,0-.91-3.86c-17.5-46.24-24.22-93.87-19.94-141.53,1.73-19.23,5.33-59.31,28.32-103.59,25-48.19,60.92-78.76,87.48-96.23a93.35,93.35,0,0,0,26.51,28.55c21.11,14.72,43.5,16.64,57.09,16.64,2.78,0,5.23-.08,7.18-.15.75,0,78.09-2.56,136.45-93a84.82,84.82,0,0,0,10.22-22.05c3.79-13.22,4.09-27.23.79-41.88Zm-17.43,320.46a9.39,9.39,0,0,0-18.67-2l-1.91,18.37a45.33,45.33,0,0,1-40.42,40.19l-83,8.22a44.88,44.88,0,0,1-42.52-20.62l-16.71-26.21a9.4,9.4,0,1,0-15.85,10.1L695,1093.52a63.46,63.46,0,0,0,60.21,29.22l83-8.26a64.13,64.13,0,0,0,57.24-56.91Z"></path>
                <path d="M1051.45,204.18a1.26,1.26,0,0,1-.53,1.61L890,299.69a1.17,1.17,0,0,1-1,.11,1.24,1.24,0,0,1-.75-.67l-6.87-15.22a1.32,1.32,0,0,1,.3-1.42L1024.22,148a1.15,1.15,0,0,1,1.13-.3,1.16,1.16,0,0,1,.9.71Z"
                      class="cls-3"></path>
                <path d="M1043.19,1179.57a9.42,9.42,0,0,1-4.36,12.54,9.52,9.52,0,0,1-4.09.94,9.36,9.36,0,0,1-8.45-5.29c-.08-.19-1.84-3.8-4.89-10.3h20.77Z"></path>
                <path d="M1034.74,1193.05v7h-405v-1.88a8.91,8.91,0,0,0,2.59-.37,9.44,9.44,0,0,0,6.46-11.61c-.82-2.89-1.61-5.78-2.44-8.68h385.1c3.05,6.5,4.81,10.11,4.89,10.3A9.36,9.36,0,0,0,1034.74,1193.05Z"></path>
                <path d="M923.52,689a40.15,40.15,0,0,1,1,9.2,15,15,0,0,1-11.35,14.53l-6.38-23.36a5.65,5.65,0,0,0-4.89-4.13,15,15,0,0,1,15.22,0Z"></path>
                <path d="M923.52,689l-6.38-3.76a15,15,0,0,0-15.22,0,5.13,5.13,0,0,0-2,.15,5.61,5.61,0,0,0-4,6.57,14.35,14.35,0,0,0-1.28,7.55c0,.08,0,.12,0,.19,0-.49-.07-1-.07-1.5a6.7,6.7,0,0,0-.79-3.76c-3.57-4.88-26.63-5.59-60.62,5.9a8,8,0,0,1-1.2.34,12.91,12.91,0,0,0,3-1.09,15,15,0,0,0,6.95-20.06l-5.63-11.64c31-8.83,66.29-12.55,81.88,8.94A33.36,33.36,0,0,1,923.52,689Z"></path>
                <path d="M915.26,720.4c3.3,14.65,3,28.66-.79,41.88a84.82,84.82,0,0,1-10.22,22.05c-58.36,90.4-135.7,93-136.45,93-1.95.07-4.4.15-7.18.15-13.59,0-36-1.92-57.09-16.64A93.35,93.35,0,0,1,677,832.25c.75-.49,1.42-.94,2.14-1.39a13.86,13.86,0,0,0,3.53-3.23,34.06,34.06,0,0,0,8.56,6.35,10,10,0,0,0,.94.45A79,79,0,0,0,710,851.56c22.42,15.62,46.2,14.83,57.65,14.46.71,0,72.87-3.65,127.14-87.82a69,69,0,0,0,9.58-55.1l-1.73-6.27c.15-.38.23-.75.34-1.13.3-1.12.56-2.25.83-3.41l11,6.49Z"></path>
                <path d="M914.81,718.78l-11-6.49v0s0-.08,0-.12a15.06,15.06,0,0,0,5.71,1.13,13.08,13.08,0,0,0,3.68-.49Z"></path>
                <path d="M906.81,689.41l6.38,23.36a13.08,13.08,0,0,1-3.68.49,15.06,15.06,0,0,1-5.71-1.13c.75-3.38,1.36-6.83,1.77-10.14a5.6,5.6,0,0,0-8.49-5.52L896,692.38a1.59,1.59,0,0,1-.07-.38,10.1,10.1,0,0,1,.71-1.39,14.8,14.8,0,0,1,5.33-5.33A5.65,5.65,0,0,1,906.81,689.41Z"></path>
                <path d="M900.69,695.68a5.69,5.69,0,0,1,4.88,6.31c-.41,3.31-1,6.76-1.77,10.14-.45-.18-.9-.41-1.31-.6l-.6-.37a8.26,8.26,0,0,1-1-.64s0,0,0,0l-3.79-14A5.64,5.64,0,0,1,900.69,695.68Z"></path>
                <path d="M904.33,723.1a69,69,0,0,1-9.58,55.1C840.48,862.37,768.32,866,767.61,866c-11.45.37-35.23,1.16-57.65-14.46a79,79,0,0,1-17.77-17.13,37.12,37.12,0,0,0,16.53,3.64,62.07,62.07,0,0,0,13-1.57c39.14-8.64,157.94-34.9,180.89-119.67Z"
                      class="cls-2"></path>
                <path d="M903.8,712.13s0,.08,0,.12l-1.28-.72C902.9,711.72,903.35,712,903.8,712.13Z"></path>
                <path d="M903.77,712.25v0c-.27,1.16-.53,2.29-.83,3.41-.11.38-.19.75-.34,1.13l-1.69-6.31a5.69,5.69,0,0,0,1,.64l.6.37Z"></path>
                <path d="M900.91,710.52l1.69,6.31c-23,84.77-141.75,111-180.89,119.67a62.07,62.07,0,0,1-13,1.57,37.12,37.12,0,0,1-16.53-3.64A83.47,83.47,0,0,1,685,823.61a15.17,15.17,0,0,0-1.13-13.11l-.11-.33a7.55,7.55,0,0,1-.27-1.09c3.16,7,7.48,12,13,14.91,7.74,4.09,16.27,2.93,22.8,1.5,37.64-8.34,152.27-33.65,172.74-112.64a98.26,98.26,0,0,0,2.37-12.25,4.94,4.94,0,0,1,.18-.82,1.23,1.23,0,0,0,.08.37,12.5,12.5,0,0,0,1,3.68,13.89,13.89,0,0,0,3.12,4.85,12.49,12.49,0,0,0,1.24,1.16,8.14,8.14,0,0,0,.9.64S900.87,710.52,900.91,710.52Z"></path>
                <path d="M899.9,685.43a5.13,5.13,0,0,1,2-.15,14.8,14.8,0,0,0-5.33,5.33,10.1,10.1,0,0,0-.71,1.39A5.61,5.61,0,0,1,899.9,685.43Z"></path>
                <path d="M900.91,710.52a8.26,8.26,0,0,0,1,.64A5.69,5.69,0,0,1,900.91,710.52Z"></path>
                <path d="M897.08,696.47l3.79,14a8.14,8.14,0,0,1-.9-.64,12.49,12.49,0,0,1-1.24-1.16,15.21,15.21,0,0,1-3.12-4.85,16.11,16.11,0,0,1-1-3.68c0-.18,0-.41,0-.6A5.81,5.81,0,0,1,897.08,696.47Z"></path>
                <path d="M898.73,708.68a12.49,12.49,0,0,0,1.24,1.16A12.49,12.49,0,0,1,898.73,708.68Z"></path>
                <path d="M889,1028.91a9.36,9.36,0,0,1,8.34,10.33l-1.92,18.33a64.13,64.13,0,0,1-57.24,56.91l-83,8.26A63.46,63.46,0,0,1,695,1093.52l-16.71-26.22a9.4,9.4,0,1,1,15.85-10.1l16.71,26.21A44.88,44.88,0,0,0,753.34,1104l83-8.22a45.33,45.33,0,0,0,40.42-40.19l1.91-18.37A9.41,9.41,0,0,1,889,1028.91Z"
                      class="cls-3"></path>
                <path d="M896,692.38l1.13,4.09a5.81,5.81,0,0,0-2.48,3.08,14.35,14.35,0,0,1,1.28-7.55A1.59,1.59,0,0,0,896,692.38Z"></path>
                <path d="M895.61,703.83a15.21,15.21,0,0,0,3.12,4.85A13.89,13.89,0,0,1,895.61,703.83Z"></path>
                <path d="M894.64,700.15a16.11,16.11,0,0,0,1,3.68A12.5,12.5,0,0,1,894.64,700.15Z"></path>
                <path d="M894.6,699.55c0,.19,0,.42,0,.6a1.23,1.23,0,0,1-.08-.37v0C894.56,699.67,894.6,699.63,894.6,699.55Z"></path>
                <path d="M894.49,698.24c0,.52,0,1,.07,1.5v0a4.94,4.94,0,0,0-.18.82A98.26,98.26,0,0,1,892,712.85c-20.47,79-135.1,104.3-172.74,112.64-6.53,1.43-15.06,2.59-22.8-1.5-5.48-2.86-9.8-7.89-13-14.91-.93-5,1.28-14.54,9.66-22.76a14.25,14.25,0,0,0,2.51-3.35l26.37,27.65a5.68,5.68,0,0,0,4.09,1.76A5.52,5.52,0,0,0,730,810.8a5.59,5.59,0,0,0,.19-8l-36.92-38.72a15.11,15.11,0,0,0-1.24-1.43l-4.54-4.62-57.92-58.89a1,1,0,0,0-.11-.27,15.8,15.8,0,0,0-2.48-3.15l40.26-25a5.63,5.63,0,0,0-5.93-9.58l-51.57,32s-.08,0-.12.08a12.92,12.92,0,0,0-1.76,1L503.6,756a52.63,52.63,0,0,1-64.19-20L394,666.31a151.68,151.68,0,0,1-21-49.58l-7.77-34.33,9.61-2.18a5.63,5.63,0,0,0,10,2c12.77-17.66,16.6-39.44,17.24-56.8a148.06,148.06,0,0,0-1.8-29.7,4,4,0,0,1-.07-.46,3.69,3.69,0,0,0-.27-.93,5.57,5.57,0,0,0-2.63-3c-5.71-3.27-25.16-12.84-46.38-5a48.56,48.56,0,0,0-6.84,3.11l-7.81-34.59c7.44-1.61,25.31-3.19,42.63,13.19a5.71,5.71,0,0,0,3.87,1.54,5.64,5.64,0,0,0,3.87-9.73C365.34,439.6,343.07,441.7,333.46,444a1.63,1.63,0,0,0-.19-.34c-1.5-3.12-3.27-6.95-5.11-11.38,3.76-22.95,9.13-39.29,14.46-43.65s22.88.61,43.72,12.32a15.71,15.71,0,0,0,17-1.05L430,380.33a2.48,2.48,0,0,1,2.55-.26l37.6,16.83a15.78,15.78,0,0,0,16.23-2L520,368.09a2.59,2.59,0,0,1,2.74-.27L573.13,393a15.62,15.62,0,0,0,15.28-.72l15.18-9.39a2.53,2.53,0,0,1,3.38.64c4.58,6.16,13.52,18.63,23.47,34.41s20.92,35.26,29.22,54.91a205,205,0,0,1,8.79,24.49,13.17,13.17,0,0,0,11.35,9.54,10.13,10.13,0,0,0,1.46.07,13.15,13.15,0,0,0,11.68-7,206.6,206.6,0,0,1,11.91-19.46c1.65-2.36,3.34-4.65,5.07-6.95a4.93,4.93,0,0,0,2,.15l60.88-7.88a19.88,19.88,0,0,1,22.88,20.28l-1,31.32c-3.23,10.11-6,16.91-7.13,19.57a1.26,1.26,0,0,0-.12.34,13.22,13.22,0,0,0-.86,3,9,9,0,0,0-.19,1.35l0,.3-1.69,19.61a66.34,66.34,0,0,1-5.71,21.89l-5.34,11.8c0,.07-.07.15-.11.26a7.77,7.77,0,0,0-.56,1.62,2.11,2.11,0,0,0-.19.67s-.08.12,0,.15l-18.44,8.38a5.65,5.65,0,0,0,2.33,10.78,5.09,5.09,0,0,0,2.33-.53l15.55-7.06,40.3,83.16a7.43,7.43,0,0,0,.67,1.16c0,.12.12.23.19.38L836,735.91a5.54,5.54,0,0,0,5,3.16,5.24,5.24,0,0,0,2.48-.57,5.6,5.6,0,0,0,2.59-7.51l-14.72-30.16.49-.11a8,8,0,0,0,1.2-.34c34-11.49,57-10.78,60.62-5.9A6.7,6.7,0,0,1,894.49,698.24ZM590.22,606.93a5.67,5.67,0,0,0,4-6.87c-10.78-42.45-44.36-49-45.78-49.21a5.63,5.63,0,1,0-2,11.08c.26,0,27.83,5.41,36.84,40.91a5.66,5.66,0,0,0,5.49,4.24A6.22,6.22,0,0,0,590.22,606.93Zm-40.46-181.3a5.63,5.63,0,0,0-3.71-7c-66.26-20.43-116.14,25.92-118.24,27.91a5.63,5.63,0,0,0-.23,8,5.72,5.72,0,0,0,4.1,1.77,5.64,5.64,0,0,0,3.9-1.58c.45-.41,47.1-43.83,107.12-25.28A5.66,5.66,0,0,0,549.76,425.63Zm.23,203.5c0-16.27-4-26.07-12.21-29.94-15.62-7.36-38.53,11.5-57,26.67-3.11,2.55-6,4.92-8.41,6.84-18.93,14.61-51.79,15.7-52.13,15.7a5.63,5.63,0,1,0,.3,11.26c1.27,0,26.63-.82,47.66-11.23l9.09,3.16a5.61,5.61,0,0,0,2.63,7.51c1,.49,18.25,8.75,35.53,8.71,6.87,0,13.79-1.31,19.65-4.95C545,656.66,550,645.32,550,629.13Zm-20.4-129.66a5.62,5.62,0,1,0-9.27-6.35c-3.5,5.11-9.17,9.73-15.63,13.79,3.31-10.07.49-21.94.08-23.48a40.41,40.41,0,0,0-4.51-7.36c5.75,1.17,12.13,2.82,19.34,5a5.63,5.63,0,0,0,3.23-10.78q-21.8-6.6-38-7.85c-16.34-1.35-28.33,1.31-35.8,8a24.11,24.11,0,0,0-7.81,21.22,5.59,5.59,0,0,0,5.52,4.66,4.06,4.06,0,0,0,1-.08,5.63,5.63,0,0,0,4.58-6.53,12.89,12.89,0,0,1,4.2-10.86c2.6-2.29,7.59-4.88,17.09-5.41a27.15,27.15,0,0,0-3.11,7.25c-.34,2.18-2.41,17.66,6.08,29.45a29.51,29.51,0,0,0,7.29,7.36,223,223,0,0,1-24.15,8.45,5.58,5.58,0,0,0-4,6.88,5.64,5.64,0,0,0,5.44,4.2,5.41,5.41,0,0,0,1.47-.22A221.12,221.12,0,0,0,498.79,523v0C510.93,517,523,509.05,529.59,499.47Z"
                      class="cls-4"></path>
                <path d="M846.11,731a5.6,5.6,0,0,1-2.59,7.51,5.24,5.24,0,0,1-2.48.57,5.54,5.54,0,0,1-5-3.16l-20.4-41.69s0,.07.08.11a3.18,3.18,0,0,0,.41.6,16.24,16.24,0,0,0,2.59,2.78c.49.38,1,.72,1.47,1a2.59,2.59,0,0,0,.49.3,12.71,12.71,0,0,0,1.5.79s.07,0,.11,0a11,11,0,0,0,1.47.56s.11,0,.15,0a4.85,4.85,0,0,0,.75.19,15.09,15.09,0,0,0,3.68.49,12.46,12.46,0,0,0,2-.15c.3,0,.6-.08.94-.15a.23.23,0,0,0,.15,0Z"></path>
                <path d="M841.79,679.57a15,15,0,0,1-6.95,20.06,12.91,12.91,0,0,1-3,1.09l-.49.11-10.86-22.2a5.48,5.48,0,0,0-3.19-2.82,15.12,15.12,0,0,1,6.12-3.9c4.1-1.39,8.34-2.74,12.7-4Z"></path>
                <path d="M803.86,601.26l32.3,66.67c-4.36,1.24-8.6,2.59-12.7,4a15.12,15.12,0,0,0-6.12,3.9A5.54,5.54,0,0,0,813,676a5.67,5.67,0,0,0-2.59,7.55l3.87,7.89a11.59,11.59,0,0,0,.49,1.2l-40.3-83.16.11,0a15,15,0,0,0,26.37-1.84Z"></path>
                <path d="M831.39,700.83a.23.23,0,0,1-.15,0c-.34.07-.64.11-.94.15a12.46,12.46,0,0,1-2,.15,15.09,15.09,0,0,1-3.68-.49,4.85,4.85,0,0,1-.75-.19s-.12,0-.15,0a11,11,0,0,1-1.47-.56s-.07,0-.11,0a12.71,12.71,0,0,1-1.5-.79,2.59,2.59,0,0,1-.49-.3,11.15,11.15,0,0,1-1.47-1,16.24,16.24,0,0,1-2.59-2.78c-.15-.22-.3-.41-.41-.6s0-.07-.08-.11-.15-.26-.19-.38l-1.16-2.36-.23-.57a15.08,15.08,0,0,1,3.31-15.1,5.48,5.48,0,0,1,3.19,2.82Z"></path>
                <path d="M830.3,701c.3,0,.6-.08.94-.15C830.9,700.94,830.6,701,830.3,701Z"></path>
                <path d="M826.32,701a11.8,11.8,0,0,0,2,.15A11.8,11.8,0,0,1,826.32,701Z"></path>
                <path d="M823.88,700.49a4.85,4.85,0,0,0,.75.19A4.85,4.85,0,0,1,823.88,700.49Z"></path>
                <path d="M822.26,699.89a11,11,0,0,0,1.47.56A11,11,0,0,1,822.26,699.89Z"></path>
                <path d="M820.65,699.06a12.71,12.71,0,0,0,1.5.79A12.71,12.71,0,0,1,820.65,699.06Z"></path>
                <path d="M818.69,697.71a11.15,11.15,0,0,0,1.47,1C819.67,698.43,819.18,698.09,818.69,697.71Z"></path>
                <path d="M798.71,277.3c73.81,117,26.86,246.06,17.39,269.23l.19-2.33a15,15,0,0,0-10.71-15.66l1.36-42.06a31.91,31.91,0,0,0-1.84-11.61c8.33-48.23,8.86-117.07-31.82-181.53C708.72,191,578.87,166,485.54,186.07c-88.38,19-143.86,58.75-164.89,118.05-14.2,40-8.45,79.37.11,107.57-1.95,8-3.45,16.45-4.66,24.38a15,15,0,0,0-10.78,17.84l.38,1.69c-15.59-32.26-37-94.76-13.37-161.51,17-48,63.25-110.76,186.9-137.39,53.56-11.53,114.82-8.75,168.08,7.62C712.32,184.27,764.64,223.33,798.71,277.3Z"></path>
                <path d="M805.58,528.54a15,15,0,0,1,10.71,15.66l-.19,2.33c-.41.94-.71,1.69-1,2.29A15,15,0,0,1,801.3,558a14.68,14.68,0,0,1-5.89-1.2,15,15,0,0,1-9.09-14.8l0-.3c0-.45.12-.9.19-1.35a13.22,13.22,0,0,1,.86-3,14.86,14.86,0,0,1,6.88-7.62l-.19,5.82a5.63,5.63,0,0,0,5.45,5.82h.18a5.63,5.63,0,0,0,5.64-5.45Z"></path>
                <path d="M813,676a5.54,5.54,0,0,1,4.36-.23,15.08,15.08,0,0,0-3.31,15.1l.23.57-3.87-7.89A5.67,5.67,0,0,1,813,676Z"></path>
                <path d="M815.69,694.33c.11.19.26.38.41.6A3.18,3.18,0,0,1,815.69,694.33Z"></path>
                <path d="M816.1,546.53l-1.54,17.58a97.06,97.06,0,0,1-8.26,31.74l-2.44,5.41-3.08-6.35a15,15,0,0,0-27.2.34l5.34-11.8a66.34,66.34,0,0,0,5.71-21.89L786.32,542a15,15,0,0,0,9.09,14.8,14.68,14.68,0,0,0,5.89,1.2,15,15,0,0,0,13.82-9.13C815.39,548.22,815.69,547.47,816.1,546.53Z"></path>
                <path d="M815.42,693.84a7.43,7.43,0,0,1-.67-1.16,11.59,11.59,0,0,1-.49-1.2Z"></path>
                <path d="M805.1,474.87a31.91,31.91,0,0,1,1.84,11.61l-1.36,42.06a13.19,13.19,0,0,0-3-.6,14.88,14.88,0,0,0-8.3,1.77l.37-12.29A318.43,318.43,0,0,0,805.1,474.87Z"></path>
                <path d="M805.58,528.54l-.22,7.36a5.63,5.63,0,0,1-5.64,5.45h-.18a5.63,5.63,0,0,1-5.45-5.82l.19-5.82a14.88,14.88,0,0,1,8.3-1.77A13.19,13.19,0,0,1,805.58,528.54Z"></path>
                <path d="M773.28,293.34C814,357.8,813.43,426.64,805.1,474.87a31.55,31.55,0,0,0-8.64-12.7,31.06,31.06,0,0,0-25.28-7.51l-51,6.61a192.55,192.55,0,0,1,18.14-17.65,5.64,5.64,0,0,0,.64-8,5.23,5.23,0,0,0-2.59-1.66,171.47,171.47,0,0,0-42.48-17.42,174,174,0,0,0-54.31-5.34c-9.28-14.72-18-26.85-23.55-34.4a13.76,13.76,0,0,0-18.37-3.49l-15.17,9.38a4.31,4.31,0,0,1-4.32.19l-50.41-25.16a13.84,13.84,0,0,0-14.76,1.5L479.3,386a4.49,4.49,0,0,1-4.58.56l-37.64-16.82a13.83,13.83,0,0,0-13.82,1.46l-26.59,19.53a4.47,4.47,0,0,1-4.81.34c-18.93-10.67-44.09-21.26-56.38-11.23-6.53,5.33-11.3,17.8-14.72,31.81-8.56-28.2-14.31-67.53-.11-107.57,21-59.3,76.51-99,164.89-118C578.87,166,708.72,191,773.28,293.34Z"
                      class="cls-5"></path>
                <path d="M800.78,594.91l3.08,6.35-2.93,6.38a15,15,0,0,1-26.37,1.84l11.23-5.1a5.63,5.63,0,1,0-4.66-10.26L772.68,598s0-.11,0-.15a1.42,1.42,0,0,1,.19-.67,11.06,11.06,0,0,1,.56-1.62c0-.11.08-.19.11-.26a15,15,0,0,1,27.2-.34Z"></path>
                <path d="M796.46,462.17a31.55,31.55,0,0,1,8.64,12.7,318.43,318.43,0,0,1-10.45,42.55l1-31.32a19.88,19.88,0,0,0-22.88-20.28l-60.88,7.88a4.93,4.93,0,0,1-2-.15c.75-1,1.5-1.95,2.25-2.89,2.56-3.23,5.22-6.34,8-9.39l51-6.61A31.06,31.06,0,0,1,796.46,462.17Z"></path>
                <path d="M794.65,517.42l-.37,12.29a14.86,14.86,0,0,0-6.88,7.62,1.26,1.26,0,0,1,.12-.34C788.64,534.33,791.42,527.53,794.65,517.42Z"></path>
                <path d="M788.61,596.94a5.65,5.65,0,0,1-2.82,7.44l-11.23,5.1c-.19-.3-.34-.6-.53-.9s-.33-.64-.45-.94a14,14,0,0,1-1.2-4.13c0-.3-.07-.56-.11-.86s0-.79,0-1.2a11.45,11.45,0,0,1,.15-2,.43.43,0,0,1,0-.22,5.33,5.33,0,0,1,.26-1.32l8.45-3.83A5.66,5.66,0,0,1,788.61,596.94Z"></path>
                <path d="M786.54,540.3c-.07.45-.15.9-.19,1.35A9,9,0,0,1,786.54,540.3Z"></path>
                <path d="M774,608.58c.19.3.34.6.53.9l-.11,0Z"></path>
                <path d="M774,608.58l.42.94-15.55,7.06a5.09,5.09,0,0,1-2.33.53,5.65,5.65,0,0,1-2.33-10.78L772.68,598a5.61,5.61,0,0,0-.26,1.32.43.43,0,0,0,0,.22,11.76,11.76,0,0,0-.15,2c0,.41,0,.78,0,1.2s.07.6.11.86a14,14,0,0,0,1.2,4.13,1.77,1.77,0,0,0,.15.38Z"></path>
                <path d="M773.58,607.64c.12.3.3.64.45.94l-.3-.56A1.77,1.77,0,0,1,773.58,607.64Z"></path>
                <path d="M773.47,595.51a11.06,11.06,0,0,0-.56,1.62A7.77,7.77,0,0,1,773.47,595.51Z"></path>
                <path d="M772.91,597.13a1.42,1.42,0,0,0-.19.67A2.11,2.11,0,0,1,772.91,597.13Z"></path>
                <path d="M772.68,598a5.33,5.33,0,0,0-.26,1.32A5.61,5.61,0,0,1,772.68,598Z"></path>
                <path d="M772.38,599.49a11.45,11.45,0,0,0-.15,2A11.76,11.76,0,0,1,772.38,599.49Z"></path>
                <path d="M772.27,602.65c0,.3.07.56.11.86C772.34,603.25,772.31,603,772.27,602.65Z"></path>
                <path d="M739,435.66a5.64,5.64,0,0,1-.64,8,192.55,192.55,0,0,0-18.14,17.65l-9.69,1.24a5.68,5.68,0,0,0-4.88,6.31,5.51,5.51,0,0,0,4.32,4.73c-1.73,2.3-3.42,4.59-5.07,6.95l-1.54-1.09a3.78,3.78,0,0,0-1.13-4.73,24.7,24.7,0,0,0-5-2.78c1.95-2.78,4-5.56,6.16-8.22,1.72-2.18,3.53-4.36,5.37-6.46l1.57.9a3.75,3.75,0,1,0,3.76-6.5l-.22-.11c4.43-4.77,9.08-9.36,14-13.67,1.69.9,3.38,1.8,5,2.77a3.45,3.45,0,0,0,1.88.53,3.76,3.76,0,0,0,1.88-7l-.23-.12A5.23,5.23,0,0,1,739,435.66Z"></path>
                <path d="M736.59,434.12a3.76,3.76,0,0,1-1.88,7,3.45,3.45,0,0,1-1.88-.53c-1.65-1-3.34-1.87-5-2.77,1.05-.94,2.14-1.88,3.23-2.82a5.55,5.55,0,0,1,5.33-1Z"></path>
                <path d="M736.36,434a5.55,5.55,0,0,0-5.33,1c-1.09.94-2.18,1.88-3.23,2.82a165.83,165.83,0,0,0-83.69-19.27c-1.5-2.52-3-5-4.54-7.33a174,174,0,0,1,54.31,5.34A171.47,171.47,0,0,1,736.36,434Z"
                      class="cls-6"></path>
                <path d="M730.2,802.84a5.59,5.59,0,0,1-.19,8,5.52,5.52,0,0,1-3.87,1.58,5.68,5.68,0,0,1-4.09-1.76L695.68,783a15,15,0,0,0-.56-15.66,14.19,14.19,0,0,0-1.84-3.19Z"></path>
                <path d="M710.48,462.51l9.69-1.24c-2.78,3.05-5.44,6.16-8,9.39-.75.94-1.5,1.92-2.25,2.89a5.51,5.51,0,0,1-4.32-4.73A5.68,5.68,0,0,1,710.48,462.51Z"></path>
                <path d="M727.8,437.84c-4.89,4.31-9.54,8.9-14,13.67a95.39,95.39,0,0,0-27.12-10.63,96.76,96.76,0,0,0-30.88-2C652,431.83,648,425,644.11,418.57a165.83,165.83,0,0,1,83.69,19.27Z"
                      class="cls-5"></path>
                <path d="M714.05,451.62a3.75,3.75,0,1,1-3.76,6.5l-1.57-.9c1.65-2,3.34-3.83,5.11-5.71Z"></path>
                <path d="M713.83,451.51c-1.77,1.88-3.46,3.75-5.11,5.71a90,90,0,0,0-49.06-11.08c-1.27-2.45-2.55-4.85-3.83-7.25a96.76,96.76,0,0,1,30.88,2A95.39,95.39,0,0,1,713.83,451.51Z"
                      class="cls-6"></path>
                <path d="M708.72,457.22c-1.84,2.1-3.65,4.28-5.37,6.46-2.14,2.66-4.21,5.44-6.16,8.22-8.72-3.72-21-4.69-27.72-5-3-7-6.35-14-9.81-20.8a90,90,0,0,1,49.06,11.08Z"
                      class="cls-5"></path>
                <path d="M703.31,479.41l1.54,1.09A206.6,206.6,0,0,0,692.94,500a13.15,13.15,0,0,1-11.68,7,10.13,10.13,0,0,1-1.46-.07,13.17,13.17,0,0,1-11.35-9.54,205,205,0,0,0-8.79-24.49l1.77-.75a3.77,3.77,0,0,0,3.45,2.25h0c1.81,0,4.55.08,7.7.3a205.45,205.45,0,0,1,6.69,19.61,1.85,1.85,0,0,0,1.69,1.43,1.92,1.92,0,0,0,2-1.06c3-5.59,6.27-11.08,9.76-16.41a18.7,18.7,0,0,1,4.92,2.48,3.85,3.85,0,0,0,2.22.75,3.77,3.77,0,0,0,3-1.54C703.08,479.75,703.2,479.6,703.31,479.41Z"></path>
                <path d="M702.18,474.68a3.78,3.78,0,0,1,1.13,4.73c-.11.19-.23.34-.34.53a3.77,3.77,0,0,1-3,1.54,3.85,3.85,0,0,1-2.22-.75,18.7,18.7,0,0,0-4.92-2.48c1.43-2.14,2.86-4.24,4.4-6.35A24.7,24.7,0,0,1,702.18,474.68Z"></path>
                <path d="M695.12,767.31a15,15,0,0,1,.56,15.66L694,781.25A15,15,0,0,0,695.12,767.31Z"></path>
                <path d="M694,781.25l1.65,1.72a14.25,14.25,0,0,1-2.51,3.35c-8.38,8.22-10.59,17.76-9.66,22.76a3.49,3.49,0,0,0-.15-.34,5.51,5.51,0,0,0-4.62-3.34,14.87,14.87,0,0,0-15.88.22c-3.16,2-6.28,4.13-9.32,6.24-1.35-11.61,2.07-24.53,9.47-35.84l7.62,7.74a15,15,0,0,0,21.26.19A13.31,13.31,0,0,0,694,781.25Z"></path>
                <path d="M695.12,767.31A15,15,0,0,1,694,781.25l-14.68-15.4a5.45,5.45,0,0,1-1.47-4.47,15,15,0,0,1,15.4,3.68A16.92,16.92,0,0,1,695.12,767.31Z"></path>
                <path d="M697.19,471.9c-1.54,2.11-3,4.21-4.4,6.35-5.82-2.18-13.86-3.16-20.17-3.57-1-2.59-2.06-5.14-3.15-7.74C676.19,467.21,688.47,468.18,697.19,471.9Z"
                      class="cls-6"></path>
                <path d="M695.12,767.31a16.92,16.92,0,0,0-1.84-2.25,15,15,0,0,0-15.4-3.68,5.24,5.24,0,0,1,1.65-3.5,5.65,5.65,0,0,1,8,.19l5.78,6A14.19,14.19,0,0,1,695.12,767.31Z"></path>
                <path d="M679.35,765.85,694,781.25a13.31,13.31,0,0,1-2.14,2.7,15,15,0,0,1-21.26-.19L663,776a66.19,66.19,0,0,1,9-11.08,14.51,14.51,0,0,1,5.82-3.56A5.45,5.45,0,0,0,679.35,765.85Z"></path>
                <path d="M693.28,764.12l-5.78-6,4.54,4.62A15.11,15.11,0,0,1,693.28,764.12Z"></path>
                <path d="M692.19,834.43a10,10,0,0,1-.94-.45,34.06,34.06,0,0,1-8.56-6.35,14.19,14.19,0,0,0,2.33-4A83.47,83.47,0,0,0,692.19,834.43Z"></path>
                <path d="M629.58,699.18l57.92,58.89a5.65,5.65,0,0,0-8-.19,5.24,5.24,0,0,0-1.65,3.5,14.51,14.51,0,0,0-5.82,3.56A66.19,66.19,0,0,0,663,776l-49.39-50.25,10.59-6.27A15,15,0,0,0,629.58,699.18Z"></path>
                <path d="M683.89,810.5A15.17,15.17,0,0,1,685,823.61c-.57-1-1.09-2-1.58-3.08A15.27,15.27,0,0,0,683.89,810.5Z"></path>
                <path d="M692.79,478.25c-3.49,5.33-6.76,10.82-9.76,16.41a1.92,1.92,0,0,1-2,1.06,1.85,1.85,0,0,1-1.69-1.43,205.45,205.45,0,0,0-6.69-19.61C678.93,475.09,687,476.07,692.79,478.25Z"
                      class="cls-5"></path>
                <path d="M683.44,820.53c.49,1.05,1,2.07,1.58,3.08a14.19,14.19,0,0,1-2.33,4,23.07,23.07,0,0,1-2.26-2.4A15.29,15.29,0,0,0,683.44,820.53Z"></path>
                <path d="M683.89,810.5a15.27,15.27,0,0,1-.45,10c-.34-.6-.64-1.2-.94-1.8A5.62,5.62,0,0,0,675,816.1a3.47,3.47,0,0,0-.45.26c-.53-1-1-2-1.5-3.11a5.62,5.62,0,0,1,2.92-7.4,5.92,5.92,0,0,1,2.78-.45,14.56,14.56,0,0,1,4.89,4.69C683.7,810.24,683.81,810.35,683.89,810.5Z"></path>
                <path d="M683.89,810.5c-.08-.15-.19-.26-.26-.41a14.56,14.56,0,0,0-4.89-4.69,5.51,5.51,0,0,1,4.62,3.34,3.49,3.49,0,0,1,.15.34,7.55,7.55,0,0,0,.27,1.09Z"></path>
                <path d="M682.5,818.73c.3.6.6,1.2.94,1.8a15.29,15.29,0,0,1-3,4.7,42.23,42.23,0,0,1-5.89-8.87,3.47,3.47,0,0,1,.45-.26A5.62,5.62,0,0,1,682.5,818.73Z"></path>
                <path d="M680.43,825.23a23.07,23.07,0,0,0,2.26,2.4,13.86,13.86,0,0,1-3.53,3.23c-.72.45-1.39.9-2.14,1.39-.68-1.13-1.36-2.25-2-3.38A15.47,15.47,0,0,0,680.43,825.23Z"></path>
                <path d="M678.74,805.4a5.92,5.92,0,0,0-2.78.45,5.62,5.62,0,0,0-2.92,7.4c.45,1.09,1,2.1,1.5,3.11a5.61,5.61,0,0,0-2.18,7.25c.86,1.77,1.73,3.53,2.67,5.26-.27.08-.53.19-.79.26a14.82,14.82,0,0,1-4.74.79,15.08,15.08,0,0,1-14.27-10.33,38.29,38.29,0,0,1-1.69-7.73c3-2.11,6.16-4.21,9.32-6.24A14.87,14.87,0,0,1,678.74,805.4Z"></path>
                <path d="M680.43,825.23a15.47,15.47,0,0,1-5.4,3.64c-.94-1.73-1.81-3.49-2.67-5.26a5.61,5.61,0,0,1,2.18-7.25A42.23,42.23,0,0,0,680.43,825.23Z"></path>
                <path d="M675,828.87c.63,1.13,1.31,2.25,2,3.38-26.56,17.47-62.5,48-87.48,96.23-23,44.28-26.59,84.36-28.32,103.59-4.28,47.66,2.44,95.29,19.94,141.53a14.26,14.26,0,0,1,.91,3.86H550.55a346.21,346.21,0,0,1-19.27-148.06c1.92-21.18,5.86-65.2,31.59-114.74a287.73,287.73,0,0,1,90.67-102.8,38.29,38.29,0,0,0,1.69,7.73,15.08,15.08,0,0,0,14.27,10.33,14.82,14.82,0,0,0,4.74-.79C674.5,829.06,674.76,829,675,828.87Z"></path>
                <path d="M669.47,466.94c1.09,2.6,2.18,5.15,3.15,7.74-3.15-.22-5.89-.3-7.7-.3h0a3.76,3.76,0,0,1,0-7.51C665.45,466.87,667.14,466.87,669.47,466.94Z"></path>
                <path d="M669.05,663a5.57,5.57,0,0,1-1.8,7.74l-40.26,25a15,15,0,0,0-17.24-2.56l51.57-32A5.58,5.58,0,0,1,669.05,663Z"></path>
                <path d="M669.47,466.94c-2.33-.07-4-.07-4.62-.07a3.78,3.78,0,0,0-3.42,5.26l-1.77.75c-8.3-19.65-19.23-39-29.22-54.91l1.65-1a3.6,3.6,0,0,0,3.69,2.11c2.78-.23,5.55-.42,8.33-.49C648,425,652,431.83,655.83,438.89c-.45,0-.9.11-1.35.15a3.74,3.74,0,1,0,.83,7.43c1.46-.15,2.89-.26,4.35-.33C663.12,452.93,666.46,459.92,669.47,466.94Z"></path>
                <path d="M659.66,446.14c-1.46.07-2.89.18-4.35.33a3.74,3.74,0,1,1-.83-7.43c.45,0,.9-.12,1.35-.15C657.11,441.29,658.39,443.69,659.66,446.14Z"></path>
                <path d="M639.57,411.24c1.5,2.37,3,4.81,4.54,7.33-2.78.07-5.55.26-8.33.49a3.6,3.6,0,0,1-3.69-2.11,3.39,3.39,0,0,1-.37-1.35,3.75,3.75,0,0,1,3.42-4.06C636.6,411.43,638.1,411.32,639.57,411.24Z"></path>
                <path d="M638.74,1186.14a9.44,9.44,0,0,1-6.46,11.61,8.91,8.91,0,0,1-2.59.37,9.37,9.37,0,0,1-9-6.83c-1.32-4.59-2.59-9.21-3.8-13.83H636.3C637.13,1180.36,637.92,1183.25,638.74,1186.14Z"></path>
                <path d="M639.57,411.24c-1.47.08-3,.19-4.43.3a3.75,3.75,0,0,0-3.42,4.06,3.39,3.39,0,0,0,.37,1.35l-1.65,1c-10-15.78-18.89-28.25-23.47-34.41a2.53,2.53,0,0,0-3.38-.64l-15.18,9.39a15.62,15.62,0,0,1-15.28.72l-50.41-25.21a2.59,2.59,0,0,0-2.74.27l-33.65,26.78a15.78,15.78,0,0,1-16.23,2l-37.6-16.83a2.48,2.48,0,0,0-2.55.26l-26.63,19.53a15.71,15.71,0,0,1-17,1.05c-20.84-11.71-38.42-16.67-43.72-12.32s-10.7,20.7-14.46,43.65c-2.44-5.86-5-12.77-7.4-20.55,3.42-14,8.19-26.48,14.72-31.81,12.29-10,37.45.56,56.38,11.23a4.47,4.47,0,0,0,4.81-.34l26.59-19.53a13.83,13.83,0,0,1,13.82-1.46l37.64,16.82a4.49,4.49,0,0,0,4.58-.56L513,359.26a13.84,13.84,0,0,1,14.76-1.5l50.41,25.16a4.31,4.31,0,0,0,4.32-.19l15.17-9.38A13.76,13.76,0,0,1,616,376.84C621.62,384.39,630.29,396.52,639.57,411.24Z"></path>
                <path d="M636.3,1177.46H616.88c-3.83-14.46-7.25-29.07-10.18-43.64a756,756,0,0,1-14.57-132.47,9.39,9.39,0,0,1,9.2-9.58h.19a9.36,9.36,0,0,1,9.39,9.16,736,736,0,0,0,14.24,129.21C628.3,1146,632.06,1161.84,636.3,1177.46Z"
                      class="cls-2"></path>
                <path d="M629.58,699.18a15,15,0,0,1-5.37,20.32l-10.59,6.27-8.27-8.38a15.09,15.09,0,0,1,.19-21.26,13.37,13.37,0,0,1,2.33-1.87,12.92,12.92,0,0,1,1.76-1l-.9.56a5.63,5.63,0,0,0,3,10.41,5.78,5.78,0,0,0,3-.83l11.87-7.36.26.26Z"></path>
                <path d="M629.69,1198.12V1200H567.12v-6a14.75,14.75,0,0,0,5.29-1,15,15,0,0,0,9.66-15.52h34.81c1.21,4.62,2.48,9.24,3.8,13.83A9.37,9.37,0,0,0,629.69,1198.12Z"></path>
                <path d="M629.58,699.18l-2.78-2.86-.26-.26.45-.3a15.8,15.8,0,0,1,2.48,3.15A1,1,0,0,1,629.58,699.18Z"></path>
                <path d="M627,695.76l-.45.3a15.06,15.06,0,0,0-16.79-2.86A15,15,0,0,1,627,695.76Z"></path>
                <path d="M626.54,696.06l-11.87,7.36a5.78,5.78,0,0,1-3,.83,5.63,5.63,0,0,1-3-10.41l.9-.56s.08-.08.12-.08A15.06,15.06,0,0,1,626.54,696.06Z"></path>
                <path d="M613.62,725.77,517.2,782.86l-.86.38a82.65,82.65,0,0,1-102.09-30.8l-45.41-69.71a182.31,182.31,0,0,1-25.13-59.35l-16.6-73.24,9.2-2.07a5.65,5.65,0,0,0,5.56,4.85,6.44,6.44,0,0,0,.83-.08,121.78,121.78,0,0,0,15.13-3.19l7.44,32.75L373,616.73a151.68,151.68,0,0,0,21,49.58L439.41,736a52.63,52.63,0,0,0,64.19,20l104.27-61.74a13.37,13.37,0,0,0-2.33,1.87,15.09,15.09,0,0,0-.19,21.26Z"></path>
                <path d="M594.27,600.06a5.67,5.67,0,0,1-4,6.87,6.22,6.22,0,0,1-1.39.15,5.66,5.66,0,0,1-5.49-4.24c-9-35.5-36.58-40.87-36.84-40.91a5.63,5.63,0,1,1,2-11.08C549.91,551.08,583.49,557.61,594.27,600.06Z"></path>
                <path d="M582.07,1177.46a15,15,0,0,1-9.66,15.52,14.75,14.75,0,0,1-5.29,1,15.09,15.09,0,0,1-14.09-9.73q-1.29-3.37-2.48-6.76Z"></path>
                <path d="M546.05,418.6a5.64,5.64,0,0,1-3.35,10.78c-60-18.55-106.67,24.87-107.12,25.28a5.64,5.64,0,0,1-3.9,1.58,5.72,5.72,0,0,1-4.1-1.77,5.63,5.63,0,0,1,.23-8C429.91,444.52,479.79,398.17,546.05,418.6Z"></path>
                <path d="M537.78,599.19C546,603.06,550,612.86,550,629.13s-5,27.53-14.87,33.73c-5.86,3.64-12.78,4.95-19.65,4.95-17.28,0-34.52-8.22-35.53-8.71A5.64,5.64,0,1,1,484.86,649c8,3.91,31.66,12.24,44.28,4.32,6.35-4,9.58-12.13,9.58-24.15,0-11-2-18-5.75-19.76-9.16-4.28-32.48,14.87-45,25.17-3.23,2.66-6.16,5.1-8.72,7.06a68.64,68.64,0,0,1-11,6.83c-21,10.41-46.39,11.2-47.66,11.23a5.63,5.63,0,1,1-.3-11.26c.34,0,33.2-1.09,52.13-15.7,2.44-1.92,5.3-4.29,8.41-6.84C499.25,610.69,522.16,591.83,537.78,599.19Z"></path>
                <path d="M533,609.37c3.72,1.77,5.75,8.79,5.75,19.76,0,12-3.23,20.17-9.58,24.15-12.62,7.92-36.24-.41-44.28-4.32a5.65,5.65,0,0,0-7.55,2.63l-9.09-3.16a68.64,68.64,0,0,0,11-6.83c2.56-2,5.49-4.4,8.72-7.06C500.49,624.24,523.81,605.09,533,609.37Z"
                      class="cls-7"></path>
                <path d="M528.13,491.66a5.58,5.58,0,0,1,1.46,7.81C523,509.05,510.93,517,498.79,523l-2.4-4.88a18.09,18.09,0,0,0,5-4.66,22,22,0,0,0,3.34-6.53c6.46-4.06,12.13-8.68,15.63-13.79A5.58,5.58,0,0,1,528.13,491.66Z"></path>
                <path d="M522.83,470.25A5.63,5.63,0,0,1,519.6,481c-7.21-2.14-13.59-3.79-19.34-5-4.7-6-10.52-9.35-15.81-9.35l.34-4.32Q501,463.65,522.83,470.25Z"></path>
                <path d="M504.77,483.43c.41,1.54,3.23,13.41-.08,23.48a145,145,0,0,1-20.88,10.55,29.51,29.51,0,0,1-7.29-7.36c-8.49-11.79-6.42-27.27-6.08-29.45a27.15,27.15,0,0,1,3.11-7.25c6.54-.37,15.22.27,26.71,2.67A40.41,40.41,0,0,1,504.77,483.43ZM492,505.52c5.11-.53,8.68-6.88,8-14.16s-5.52-12.81-10.67-12.28-8.67,6.87-7.92,14.16S486.81,506,492,505.52Z"></path>
                <path d="M504.69,506.91a22,22,0,0,1-3.34,6.53,18.09,18.09,0,0,1-5,4.66,10.86,10.86,0,0,1-5.52,1.62,12.82,12.82,0,0,1-7.06-2.26A145,145,0,0,0,504.69,506.91Z"></path>
                <path d="M499.92,491.36c.72,7.28-2.85,13.63-8,14.16s-9.92-5-10.63-12.28,2.82-13.64,7.92-14.16S499.17,484,499.92,491.36Z"
                      class="cls-8"></path>
                <path d="M498.79,523v0a221.12,221.12,0,0,1-36.2,13.75,5.41,5.41,0,0,1-1.47.22,5.64,5.64,0,0,1-5.44-4.2,5.58,5.58,0,0,1,4-6.88,223,223,0,0,0,24.15-8.45,12.82,12.82,0,0,0,7.06,2.26,10.86,10.86,0,0,0,5.52-1.62Z"></path>
                <path d="M484.45,466.72c5.29,0,11.11,3.34,15.81,9.35-11.49-2.4-20.17-3-26.71-2.67a14,14,0,0,1,6.88-6A11.17,11.17,0,0,1,484.45,466.72Z"></path>
                <path d="M484.79,462.4l-.34,4.32a11.17,11.17,0,0,0-4,.71,14,14,0,0,0-6.88,6c-9.5.53-14.49,3.12-17.09,5.41a12.89,12.89,0,0,0-4.2,10.86,5.63,5.63,0,0,1-4.58,6.53,4.06,4.06,0,0,1-1,.08,5.59,5.59,0,0,1-5.52-4.66A24.11,24.11,0,0,1,449,470.4C456.46,463.71,468.45,461.05,484.79,462.4Z"></path>
                <path d="M436.11,806.3A20.12,20.12,0,0,1,443.17,828l-77.49,258.9a20.09,20.09,0,0,1-19.19,14.31,19.67,19.67,0,0,1-6.72-1.16l-136-48.46a20,20,0,0,1-8.26-32.11l197.07-223a20.13,20.13,0,0,1,27.2-2.63Zm-10.93,16.3a1.31,1.31,0,0,0-.45-1.39l-16.34-12.47a1.14,1.14,0,0,0-.75-.26,1.22,1.22,0,0,0-.94.41l-197.12,223a1.09,1.09,0,0,0-.26,1.13,1.1,1.1,0,0,0,.79.86l136,48.45a1.07,1.07,0,0,0,1-.07,1.26,1.26,0,0,0,.64-.75Z"></path>
                <path d="M424.73,821.21a1.31,1.31,0,0,1,.45,1.39l-77.49,258.9a1.26,1.26,0,0,1-.64.75,1.07,1.07,0,0,1-1,.07l-136-48.45a1.1,1.1,0,0,1-.79-.86,1.09,1.09,0,0,1,.26-1.13l197.12-223a1.22,1.22,0,0,1,.94-.41,1.14,1.14,0,0,1,.75.26Z"
                      class="cls-3"></path>
                <path d="M400.35,495.72a148.06,148.06,0,0,1,1.8,29.7l-1.76,0a5.64,5.64,0,0,0-9-4.51l-.41.3a151.37,151.37,0,0,0-1.31-21.26c.93.49,1.72.9,2.29,1.24a5.61,5.61,0,0,0,7.7-2A5.9,5.9,0,0,0,400.35,495.72Z"></path>
                <path d="M400.39,525.39l1.76,0c-.64,17.36-4.47,39.14-17.24,56.8a5.62,5.62,0,0,1-10-2,5.71,5.71,0,0,1,.91-4.62c8.79-12.09,12.73-26.81,14.27-40.18,2.78-1.73,5.45-3.57,8.07-5.53A5.57,5.57,0,0,0,400.39,525.39Z"></path>
                <path d="M400.35,495.72a5.9,5.9,0,0,1-.71,3.41,5.61,5.61,0,0,1-7.7,2c-.57-.34-1.36-.75-2.29-1.24-.23-1.61-.42-2.48-.42-2.55a5.64,5.64,0,0,1,4.47-6.61,5.81,5.81,0,0,1,3.68.56,5.57,5.57,0,0,1,2.63,3,6.69,6.69,0,0,1,.27.93A4,4,0,0,0,400.35,495.72Z"></path>
                <path d="M400.28,495.26a6.69,6.69,0,0,0-.27-.93A3.69,3.69,0,0,1,400.28,495.26Z"></path>
                <path d="M399.26,522a5.7,5.7,0,0,1,1.13,3.38,5.57,5.57,0,0,1-2.26,4.5c-2.62,2-5.29,3.8-8.07,5.53a129.74,129.74,0,0,0,.9-14.24l.41-.3A5.67,5.67,0,0,1,399.26,522Z"></path>
                <path d="M397.38,491.32a5.81,5.81,0,0,0-3.68-.56,5.64,5.64,0,0,0-4.47,6.61c0,.07.19.94.42,2.55a51.17,51.17,0,0,0-12.89-4.47,13.54,13.54,0,0,0-5.26-2.74,13.22,13.22,0,0,0-11.64,2.7,45.19,45.19,0,0,0-5,1.47,38,38,0,0,0-8.08,4.13l-2.63-11.61a48.56,48.56,0,0,1,6.84-3.11C372.22,478.48,391.67,488.05,397.38,491.32Z"></path>
                <path d="M389.65,499.92A151.37,151.37,0,0,1,391,521.18c-1.5,1.13-3,2.22-4.62,3.23.71-5.9-.34-13.07-3.38-20.28a23.1,23.1,0,0,0-6.2-8.68A51.17,51.17,0,0,1,389.65,499.92Z"
                      class="cls-4"></path>
                <path d="M391,521.18a129.74,129.74,0,0,1-.9,14.24,118.73,118.73,0,0,1-32.23,14.23l-2.48-11c2.9-.82,5.79-1.76,8.64-2.85a13.7,13.7,0,0,0,6.35,3c.26,0,6.31,1,10.7-2.67,2.93-2.44,4.77-6.64,5.3-11.79C387.92,523.4,389.46,522.31,391,521.18Z"></path>
                <path d="M386.72,459.81a5.64,5.64,0,0,1-3.87,9.73A5.71,5.71,0,0,1,379,468c-17.32-16.38-35.19-14.8-42.63-13.19l-1.69-7.4,0-.15c0-.11-.07-.26-.11-.37a8.34,8.34,0,0,0-.38-1.32c-.19-.49-.37-.94-.56-1.39l-.11-.22C343.07,441.7,365.34,439.6,386.72,459.81Z"></path>
                <path d="M383,504.13c3,7.21,4.09,14.38,3.38,20.28a108.15,108.15,0,0,1-17,9.28c-1.76.75-3.56,1.5-5.37,2.14a27.23,27.23,0,0,1-5.93-7c-6.73-10.78-4.21-23.44-3.72-25.7a18.53,18.53,0,0,1,5.52-7.7,41.33,41.33,0,0,1,16.9,0A23.1,23.1,0,0,1,383,504.13Zm-6.38,18.7c3.86-.6,6.31-5.56,5.44-11s-4.69-9.46-8.56-8.86-6.31,5.56-5.45,11S372.71,523.43,376.58,522.83Z"></path>
                <path d="M386.34,524.41c-.53,5.15-2.37,9.35-5.3,11.79-4.39,3.72-10.44,2.71-10.7,2.67a13.7,13.7,0,0,1-6.35-3c1.81-.64,3.61-1.39,5.37-2.14A108.15,108.15,0,0,0,386.34,524.41Z"></path>
                <path d="M382,511.79c.87,5.48-1.58,10.44-5.44,11s-7.7-3.34-8.57-8.86,1.58-10.44,5.45-11S381.16,506.31,382,511.79Z"
                      class="cls-8"></path>
                <path d="M390.06,535.42c-1.54,13.37-5.48,28.09-14.27,40.18a5.71,5.71,0,0,0-.91,4.62l-9.61,2.18-7.44-32.75a118.73,118.73,0,0,0,32.23-14.23Z"
                      class="cls-4"></path>
                <path d="M371.5,492.71a13.54,13.54,0,0,1,5.26,2.74,41.33,41.33,0,0,0-16.9,0A13.22,13.22,0,0,1,371.5,492.71Z"></path>
                <path d="M358.06,528.81a27.23,27.23,0,0,0,5.93,7c-2.85,1.09-5.74,2-8.64,2.85L346.79,501a38,38,0,0,1,8.08-4.13,45.19,45.19,0,0,1,5-1.47,18.53,18.53,0,0,0-5.52,7.7C353.85,505.37,351.33,518,358.06,528.81Z"
                      class="cls-4"></path>
                <path d="M355.35,538.68l2.48,11a121.78,121.78,0,0,1-15.13,3.19,6.44,6.44,0,0,1-.83.08,5.64,5.64,0,0,1-.79-11.23A109,109,0,0,0,355.35,538.68Z"></path>
                <path d="M346.79,501l8.56,37.67a109,109,0,0,1-14.27,3,5.63,5.63,0,0,0-4.77,6.38l-9.2,2.07L305.7,455.6c.26.56.53,1.09.79,1.62a15,15,0,0,0,20.13,6.83,14.75,14.75,0,0,0,7.55-8.67c.56-.15,1.31-.38,2.18-.57l7.81,34.59A52.51,52.51,0,0,0,331.84,499a5.64,5.64,0,0,0,8.15,7.81A41.38,41.38,0,0,1,346.79,501Z"></path>
                <path d="M344.16,489.4,346.79,501a41.38,41.38,0,0,0-6.8,5.75,5.63,5.63,0,0,1-4.09,1.73,5.63,5.63,0,0,1-4.06-9.54A52.51,52.51,0,0,1,344.16,489.4Z"></path>
                <path d="M334.66,447.41l1.69,7.4c-.87.19-1.62.42-2.18.57A14.37,14.37,0,0,0,334.66,447.41Z"></path>
                <path d="M334.66,447.41a14.37,14.37,0,0,1-.49,8c-.86.26-1.31.45-1.35.45a5.64,5.64,0,1,1-4.17-10.48,34,34,0,0,1,4.77-1.39s0,0,0,0l.11.22a11.54,11.54,0,0,1,.56,1.39,9.36,9.36,0,0,1,.38,1.32c0,.11.07.26.11.37Z"></path>
                <path d="M334.51,446.89a9.36,9.36,0,0,0-.38-1.32A8.34,8.34,0,0,1,334.51,446.89Z"></path>
                <path d="M334.13,445.57a11.54,11.54,0,0,0-.56-1.39C333.76,444.63,333.94,445.08,334.13,445.57Z"></path>
                <path d="M333.27,443.62a1.63,1.63,0,0,1,.19.34s0,0,0,0A1.47,1.47,0,0,0,333.27,443.62Z"></path>
                <path d="M333.27,443.62a1.47,1.47,0,0,1,.15.34,34,34,0,0,0-4.77,1.39,5.64,5.64,0,1,0,4.17,10.48s.49-.19,1.35-.45a14.75,14.75,0,0,1-7.55,8.67,15,15,0,0,1-20.13-6.83c-.26-.53-.53-1.06-.79-1.62l-.38-1.69a15,15,0,0,1,10.78-17.84c-.18,1.39-.37,2.78-.56,4.13a5.67,5.67,0,0,0,4.85,6.35,5.58,5.58,0,0,0,6.31-4.81c.18-1.43.41-2.85.63-4.24A14.79,14.79,0,0,1,333.27,443.62Z"></path>
                <path d="M328.16,432.24c1.84,4.43,3.61,8.26,5.11,11.38a14.79,14.79,0,0,0-5.94-6.12C327.56,435.69,327.86,434,328.16,432.24Z"></path>
                <path d="M328.16,432.24c-.3,1.73-.6,3.45-.83,5.26a14.86,14.86,0,0,0-10.66-1.58,3,3,0,0,0-.57.15c1.21-7.93,2.71-16.41,4.66-24.38C323.13,419.47,325.72,426.38,328.16,432.24Z"></path>
                <path d="M327.33,437.5c-.22,1.39-.45,2.81-.63,4.24a5.58,5.58,0,0,1-6.31,4.81,5.67,5.67,0,0,1-4.85-6.35c.19-1.35.38-2.74.56-4.13a3,3,0,0,1,.57-.15A14.86,14.86,0,0,1,327.33,437.5Z"></path>
                <path d="M297.92,594.57v16.64a20.06,20.06,0,0,1-20.05,20.06,20.5,20.5,0,0,1-2.07-.11L90.52,611.78a20,20,0,0,1-18-19.91V530.61a20,20,0,0,1,26.55-19l185.32,64A20.13,20.13,0,0,1,297.92,594.57Zm-18.78,16.64V594.57a1.25,1.25,0,0,0-.86-1.2L93,529.41a1.49,1.49,0,0,0-.41-.08,1.24,1.24,0,0,0-1.24,1.28v61.26a1.25,1.25,0,0,0,1.12,1.24l185.29,19.38a1.36,1.36,0,0,0,1-.34A1.22,1.22,0,0,0,279.14,611.21Z"></path>
                <path d="M279.14,594.57v16.64a1.22,1.22,0,0,1-.41.94,1.36,1.36,0,0,1-1,.34L92.47,593.11a1.25,1.25,0,0,1-1.12-1.24V530.61a1.24,1.24,0,0,1,1.24-1.28,1.49,1.49,0,0,1,.41.08l185.28,64A1.25,1.25,0,0,1,279.14,594.57Z"
                      class="cls-3"></path>
            </g>
            <path d="M667.26,670.79l39.82-23.52q-5.07,16.61-9.7,34.48c-6.41,24.91-11.28,48.71-15,71.14,0,0-53.55-52.95-55.56-57.23Z"
                  class="cls-9"></path>
        </g>
    </g>
</svg>