<svg viewBox="0 0 1200 1200" xmlns="http://www.w3.org/2000/svg">
    <defs>
        <style>
            .cls-1{fill:#ffd9c0;}.cls-2{fill:#ffb600;}.cls-3{fill:#ff4e00;}.cls-4{fill:#840707;}.cls-5{fill:#111;}.cls-6{fill:#ff673e;}.cls-7{fill:#fff;}.cls-8{fill:#dbb39e;}
        </style>
    </defs>
    <title>4 (4)</title>
    <g id="图层_2">
        <g id="_4">
            <g id="_编组_">
                <path d="M1200,11.27V1200H234.68v-1.88a9.34,9.34,0,0,0,7.59-3.9l4-5.49H947.93a9.4,9.4,0,0,0,4.17,1,9,9,0,0,0,4.13-1h238.25V11.27Z"></path>
                <path d="M1200,0V11.27H17V1188.73H225.25a9.3,9.3,0,0,0,3.91,7.59,9.43,9.43,0,0,0,5.52,1.8V1200H0V0Z"></path>
                <path d="M1194.48,11.27V1188.73H956.23c.3-.15.64-.34.94-.52a9.39,9.39,0,0,0,3.87-10.75h216.42V1023.77l0,0v-38a0,0,0,0,1,0,0V22.54H22.54V1177.46H17V11.27Z"></path>
                <path d="M1177.5,985.76v38l0,0v-38A0,0,0,0,0,1177.5,985.76Z"></path>
                <path d="M1177.46,1023.77v153.69H961a10.65,10.65,0,0,0-1.06-2.21l-49.5-76.89c13-48.64,95.78-128.19,123.16-153.47A445,445,0,0,1,1177.46,1023.77Z"
                      class="cls-1"></path>
                <path d="M1177.46,985.72v38a445,445,0,0,0-143.82-78.88c5.34-4.88,8.57-7.73,8.75-7.92a9.37,9.37,0,0,0-4.32-16.23l1.77-5.44.94.3A474.28,474.28,0,0,1,1177.46,985.72Z"></path>
                <path d="M1177.46,22.54V985.72a474.28,474.28,0,0,0-136.68-70.12l-.94-.3-201.4-64.64L803.36,736.92c83.27-64,84.09-181.6,72.3-236.59-5.56-25.95-6.46-44.92-6-57.16l41.32,16.41,1.88-19.94c.67-6.95,15.06-171.54-73.17-276.44-41.24-49-98.07-76.7-168.95-82.22C559,72.27,411.11,106.41,331,228.4c-69,105.06-54.35,219.69-44.47,265.14l-6.88,4.77A33.69,33.69,0,0,0,268,539.17l31.36,72.53A47.25,47.25,0,0,0,345.64,640l3.23-.23a12.67,12.67,0,0,1,12.43,7.74l15.44,37.34a174.77,174.77,0,0,1,12.47,82.85l-7.48,79.44c-22.72,7.74-84.62,29.07-157.34,56.38-46.24,17.39-96.87,37.15-144.57,57.39a345.36,345.36,0,0,0-57.28,31V22.54Zm-92.73,153c7.51-18.22,5.7-44.85-12.48-58.3-21.93-16.18-51.3-1.54-63.77,8.49C985.9,143.85,972.79,181.45,991,210.6c11.49,18.29,32.45,29,54.58,29a68.19,68.19,0,0,0,17.27-2.21,5.63,5.63,0,0,0-2.85-10.9c-23.14,6-47.59-3-59.42-21.93-15-23.89-3.91-55,14.95-70.09,11.75-9.46,34.82-19.45,50-8.19,13.11,9.66,14.76,30.43,8.79,44.93-4.13,10-14.8,23.55-25.54,22.16-5.26-.64-11.68-4.81-13.22-11.2-1.73-7.06,3-16.75,13.75-20.77a5.63,5.63,0,1,0-4-10.55c-14.91,5.56-24,20.47-20.73,34,2.74,11.38,13.52,18.55,22.72,19.72C1066.47,207,1080.14,186.63,1084.73,175.52Zm-41.06,595.06c17.13-9.73,32.08-31.85,26-53.64-7.32-26.25-39.51-32.67-55.47-32.52-29,.41-62.43,22-66,56.19-2.82,27,13.67,53.93,40.11,65.31a5.42,5.42,0,0,0,2.26.49,5.65,5.65,0,0,0,2.21-10.82c-22-9.46-35.68-31.62-33.39-53.82,2.89-28.06,30.76-45.75,54.92-46.09,15.21-.18,39.4,6.09,44.47,24.3,4.36,15.67-7.1,33.06-20.74,40.79-9.42,5.38-26.14,9.47-33.76,1.81-3.72-3.76-6.24-11-3.53-17,3-6.61,12.65-11.38,23.62-7.92a5.63,5.63,0,0,0,3.38-10.75c-15.17-4.8-31.55,1.36-37.26,14.05-4.84,10.67-.75,22.95,5.79,29.52C1009.87,784.14,1033.19,776.51,1043.67,770.58ZM265.93,205.53c8-26-15.62-48.87-29.22-57.32-24.6-15.25-64.42-15.06-85.83,11.8-17,21.29-17.54,52.84-1.42,76.69a5.63,5.63,0,0,0,4.69,2.48,5.79,5.79,0,0,0,3.16-1,5.66,5.66,0,0,0,1.5-7.81c-13.41-19.83-13-45.86.86-63.36,17.58-22.05,50.6-21.94,71.11-9.24,12.84,8,29.89,26.37,24.37,44.47-4.77,15.55-23.77,24-39.44,23.21-10.85-.56-27.15-6.12-29.44-16.71-1.09-5.19.67-12.58,6.19-16.19,6.09-4,16.79-2.78,24.15,6.05a5.64,5.64,0,1,0,8.64-7.25c-10.18-12.21-27.3-15.82-38.95-8.23-9.84,6.39-13,18.93-11,28,4.06,18.82,27.83,25,39.85,25.58C234.79,237.72,259.28,227.16,265.93,205.53ZM217.22,683.66c24.49-13.93,45.86-45.41,37.22-76.35C244,570,197.87,560.88,174.88,561.07c-41.73.6-89.92,31.66-95,80.79-4,38.95,19.76,77.6,57.85,94a5.65,5.65,0,0,0,7.4-3,5.61,5.61,0,0,0-3-7.4C108.51,711.05,87.52,677.13,91.05,643c4.47-43,47.06-70.16,84-70.68,20-.19,60,7.32,68.55,38,6.84,24.53-10.89,51.57-32,63.55-13.71,7.81-40.3,15.29-53.3,2.18-6.16-6.2-10.25-18.14-5.75-28.13,4.92-10.89,20.55-18.82,38.24-13.22a5.63,5.63,0,0,0,3.38-10.75c-21.18-6.68-44,1.81-51.91,19.31-6.65,14.72-1,31.66,8,40.75C169.25,703.05,202.34,692.12,217.22,683.66Z"
                      class="cls-2"></path>
                <path d="M1072.25,117.22c18.18,13.45,20,40.08,12.48,58.3-4.59,11.11-18.26,31.51-37.38,29.07-9.2-1.17-20-8.34-22.72-19.72-3.31-13.52,5.82-28.43,20.73-34a5.63,5.63,0,1,1,4,10.55c-10.78,4-15.48,13.71-13.75,20.77,1.54,6.39,8,10.56,13.22,11.2,10.74,1.39,21.41-12.14,25.54-22.16,6-14.5,4.32-35.27-8.79-44.93-15.17-11.26-38.24-1.27-50,8.19-18.86,15.1-29.9,46.2-14.95,70.09,11.83,19,36.28,27.94,59.42,21.93a5.63,5.63,0,0,1,2.85,10.9,68.19,68.19,0,0,1-17.27,2.21c-22.13,0-43.09-10.74-54.58-29-18.22-29.15-5.11-66.75,17.47-84.89C1021,115.68,1050.32,101,1072.25,117.22Z"
                      class="cls-3"></path>
                <path d="M1069.66,716.94c6.09,21.79-8.86,43.91-26,53.64-10.48,5.93-33.8,13.56-47.36-.08-6.54-6.57-10.63-18.85-5.79-29.52,5.71-12.69,22.09-18.85,37.26-14.05a5.63,5.63,0,0,1-3.38,10.75c-11-3.46-20.62,1.31-23.62,7.92-2.71,6-.19,13.22,3.53,17,7.62,7.66,24.34,3.57,33.76-1.81,13.64-7.73,25.1-25.12,20.74-40.79-5.07-18.21-29.26-24.48-44.47-24.3-24.16.34-52,18-54.92,46.09-2.29,22.2,11.42,44.36,33.39,53.82a5.65,5.65,0,0,1-2.21,10.82,5.42,5.42,0,0,1-2.26-.49c-26.44-11.38-42.93-38.27-40.11-65.31,3.53-34.18,37-55.78,66-56.19C1030.15,684.27,1062.34,690.69,1069.66,716.94Z"
                      class="cls-3"></path>
                <path d="M1043.22,923.71a9.43,9.43,0,0,1-.83,13.26c-.18.19-3.41,3-8.75,7.92l-2.06-.67-18.45-5.94c9.43-8.82,15.74-14.42,16.83-15.4a9.44,9.44,0,0,1,13.26.83Z"></path>
                <path d="M1039.84,915.3l-1.77,5.44a9.44,9.44,0,0,0-8.11,2.14c-1.09,1-7.4,6.58-16.83,15.4L909.39,905a9.38,9.38,0,0,0-15.85-8.67c-.79.79-1.65,1.73-2.63,2.74l-76.59-24.6L771.58,735.91q5.63-3.43,11.15-7.1a5.63,5.63,0,0,0-6.23-9.39c-2.63,1.77-5.3,3.46-8,5.11l8.86-5.93c79-53.19,79.63-161.89,68.89-212-12.32-57.39-4.47-85.93-3.53-89l1.39-4.51a59.72,59.72,0,0,0,19.9,8.34,5.63,5.63,0,1,0,2.52-11,48.13,48.13,0,0,1-18.18-8.15l35.42,14.08c.79-45.89-4.28-159.25-67.23-234-35.87-42.6-85.75-66.64-148.22-71.52-103.14-8-239.34,22.91-312.28,133.94-67.35,102.5-47,215.56-38.43,250.07-2.1,1.24-4,2.45-5.59,3.61a5.64,5.64,0,0,0,3.34,10.18,5.84,5.84,0,0,0,3.34-1.09c.57-.41,1.17-.83,1.81-1.24L296.77,523a3.52,3.52,0,0,0-1.2,4.29l31.32,72.49A17.15,17.15,0,0,0,343.68,610l3.23-.19A42.51,42.51,0,0,1,389.06,636l15.47,37.37a205,205,0,0,1,14.61,97.13l-8.9,94.35c.23-6.57.72-12.24,1.24-16.64A9.4,9.4,0,1,0,392.81,846c-.11.78-.18,1.65-.26,2.51l-10.82-1.39,7.48-79.44a174.77,174.77,0,0,0-12.47-82.85L361.3,647.53a12.67,12.67,0,0,0-12.43-7.74l-3.23.23a47.25,47.25,0,0,1-46.32-28.32L268,539.17a33.69,33.69,0,0,1,11.64-40.86l6.88-4.77C276.6,448.09,261.91,333.46,331,228.4,411.11,106.41,559,72.27,670.69,81c70.88,5.52,127.71,33.2,168.95,82.22,88.23,104.9,73.84,269.49,73.17,276.44l-1.88,19.94-41.32-16.41c-.41,12.24.49,31.21,6,57.16,11.79,55,11,172.63-72.3,236.59l35.08,113.74Z"></path>
                <path d="M1031.58,944.22l2.06.67c-27.38,25.28-110.2,104.83-123.16,153.47l49.5,76.89a10.65,10.65,0,0,1,1.06,2.21H939.1L890.5,1102l.75-3.72c10-50,87.06-127.18,121.88-160Z"></path>
                <path d="M909.39,905l103.74,33.28c-34.82,32.79-111.93,109.94-121.88,160l-.75,3.72,48.6,75.49H254.4l52.32-72.19.38-2c.79-3.87,16.94-91.3-57.21-177.2,65.77-24.46,120.54-43.31,141.5-50.45.56,34.14,8.94,84,45.44,128.19,49.74,60.25,117.83,69.08,146.91,72.83a258.55,258.55,0,0,0,32.82,2.11c159.3-8,265.52-143.93,290.39-169.29A8.89,8.89,0,0,0,909.39,905Z"
                      class="cls-4"></path>
                <path d="M961,1177.46a9.39,9.39,0,0,1-3.87,10.75c-.3.18-.64.37-.94.52h-8.3a9.2,9.2,0,0,1-3.72-3.3l-5.11-8Z"></path>
                <path d="M947.93,1188.73h8.3a9,9,0,0,1-4.13,1A9.4,9.4,0,0,1,947.93,1188.73Z"></path>
                <path d="M947.93,1188.73H246.25l8.15-11.27H939.1l5.11,8A9.2,9.2,0,0,0,947.93,1188.73Z"></path>
                <path d="M906.8,896.18a9.36,9.36,0,0,1,2.59,8.82l-18.48-5.93c1-1,1.84-2,2.63-2.74A9.34,9.34,0,0,1,906.8,896.18Z"></path>
                <path d="M890.91,899.07,909.39,905a8.89,8.89,0,0,1-2.44,4.47c-24.87,25.36-131.09,161.25-290.39,169.29a258.55,258.55,0,0,1-32.82-2.11c-29.08-3.75-97.17-12.58-146.91-72.83-36.5-44.2-44.88-94.05-45.44-128.19,5.74-2,8.94-3,9.16-3.11l9.28-3.08.41-4.17c-1,30.76,4.25,82,41.09,126.61,45,54.5,107.92,62.65,134.81,66.14a205.26,205.26,0,0,0,30.39,2C746.68,1057.35,862.18,929.23,890.91,899.07Z"></path>
                <path d="M814.32,874.47l76.59,24.6C862.18,929.23,746.68,1057.35,616.53,1060a205.26,205.26,0,0,1-30.39-2c-26.89-3.49-89.81-11.64-134.81-66.14-36.84-44.66-42.06-95.85-41.09-126.61v-.38l8.9-94.35a205,205,0,0,0-14.61-97.13L389.06,636a42.51,42.51,0,0,0-42.15-26.22l-3.23.19a17.15,17.15,0,0,1-16.79-10.25l-31.32-72.49a3.52,3.52,0,0,1,1.2-4.29l23.78-16.56h0v0c17.06-11.45,56.23-25.2,67.8-39.92,33.73-42.9,44.44-90.11,47.14-124.25a134.83,134.83,0,0,1,15.63,14.68,138.13,138.13,0,0,1,14.42,19.05,16.59,16.59,0,0,0,8,6.72,106.66,106.66,0,0,0-20,8.71,5.64,5.64,0,0,0,5.52,9.84,99.45,99.45,0,0,1,53.49-12.43A98.73,98.73,0,0,1,565,407.71a5.56,5.56,0,0,0,3.34,1.09,5.62,5.62,0,0,0,3.38-10.14,110.53,110.53,0,0,0-58.52-21.15,107.59,107.59,0,0,0-21.14.91,16.32,16.32,0,0,0,2.93-4.21c.49-1,.94-1.84,1.39-2.71,2.1-4.05,4.24-8.22,7.51-19.68,2.85-9.95,5.67-21.11,7.44-28.39,12.92,9.95,22.16,17.28,23.58,18.67,3.27,3.23,5.9,5.74,8.16,7.81,5.07,4.81,7.62,7.17,11,12.13a17,17,0,0,0,30.46-5.6c1.77-7.28,3.46-14.65,5-21.89,1.77-8.46,3.38-17,4.81-25.58a87,87,0,0,1,39.85,36.09,16.59,16.59,0,0,0,15.93,8.3,17,17,0,0,0,14.61-11.08c1.69-4.58,3.19-9.27,4.51-13.93a174.09,174.09,0,0,0,4.47-20.21,195.71,195.71,0,0,1,14.65,18.18,187.74,187.74,0,0,1,15.17,25.5,16.67,16.67,0,0,0,13.9,9.32,16.85,16.85,0,0,0,15.29-7.4,190.5,190.5,0,0,0,14.12-24.49,184.59,184.59,0,0,0,8.22-20,127.41,127.41,0,0,1,27,46.53,12.63,12.63,0,0,0,20.92,5l1-1a93.88,93.88,0,0,0,29.83,45.26l1.65,1.39a78.11,78.11,0,0,0,8.68,6.61v0l-1.39,4.51c-.94,3-8.79,31.58,3.53,89,10.74,50.07,10.14,158.77-68.89,212l-8.86,5.93a1.42,1.42,0,0,1-.38.26,333.47,333.47,0,0,1-42.78,22.54C667.53,772.57,601.2,781.09,533.63,772a5.61,5.61,0,0,0-6.35,4.81,3.11,3.11,0,0,0,0,1,5.55,5.55,0,0,0,3.27,5.41c46.31,20.92,92.7,25.73,125.57,25.73,26.74,0,44.54-3.2,46.16-3.5a5.64,5.64,0,0,0-2.07-11.08c-.71.15-60.21,10.71-127.18-7.81q6.54.23,13.07.23c50.63,0,99.58-9.84,143.79-29.11a341.29,341.29,0,0,0,41.69-21.75ZM767.67,369.59a5.6,5.6,0,0,0-4.39-6.65c-65.4-13.15-98.45,30.69-99.8,32.57a5.63,5.63,0,0,0,1.2,7.88,5.76,5.76,0,0,0,3.34,1.09,5.67,5.67,0,0,0,4.55-2.29c.26-.41,30-40,88.49-28.21A5.61,5.61,0,0,0,767.67,369.59ZM765.42,450a5.65,5.65,0,0,0-1.2-7.89c-10.6-7.81-32.57-20.54-60.51-18-8.91.83-36,3.31-49.32,24.53-.34.56-.72,1.13-1,1.73a5.24,5.24,0,0,0-.93,1.69c0,.07,0,.15-.08.22a46.42,46.42,0,0,0-4.81,16.94c-3.57,16.9-1.8,28.66,5.34,35.72,3.94,3.95,8.26,5.15,12.43,6.27s8.49,2.33,13.71,6.73c3.3,2.78,11.08,9.35,11.15,18.7,0,7.63-5.07,13.41-7.25,15.55a5.64,5.64,0,0,0,4,9.66,5.53,5.53,0,0,0,3.94-1.62c4-3.91,10.67-12.17,10.63-23.62-.07-14.62-11-23.82-15.17-27.31-7.1-6-13.11-7.63-18-8.94-3.72-1-5.74-1.65-7.51-3.42-3.72-3.68-4.69-11.15-2.93-21.67L668,476a6.86,6.86,0,0,0,0,1.92,5.69,5.69,0,0,0,6.5,4.66,270.78,270.78,0,0,1,35.91-3.42c10.37-.23,19.64.49,24.26,2.85a5.28,5.28,0,0,0,2.56.64,5.69,5.69,0,0,0,5-3,5.62,5.62,0,0,0-2.44-7.59c-4.32-2.21-10.55-3.38-17.5-3.87,6.42-7.85,9-21.33,4.95-31.13a83.92,83.92,0,0,1,30.28,14.19A5.6,5.6,0,0,0,765.42,450ZM733,626.24c11.26-10.33,23.21-29.45,16.22-38.35-4.32-5.52-11.3-3.53-20.17-1a161.05,161.05,0,0,1-20.32,4.77c-13.14,2.07-20.88,1.13-29.86,0a145.67,145.67,0,0,0-25.54-1.31c-18,.75-36.4,5.14-54.58,13a5.63,5.63,0,0,0-3.26,6.31l-7.07.79a55.68,55.68,0,0,0-7-21.56,5.64,5.64,0,0,0-9.81,5.56,44.48,44.48,0,0,1,5.75,18.67,46.5,46.5,0,0,1-8.15,29.33,5.66,5.66,0,0,0,1.5,7.85,5.79,5.79,0,0,0,3.16,1,5.6,5.6,0,0,0,4.66-2.48A59.4,59.4,0,0,0,585.13,636l.07,0a5.82,5.82,0,0,0-.34,1.12,5.62,5.62,0,0,0,4.55,6.54c9.65,1.73,19.45,3,29.22,3.83H619c11.53.94,24.46,2,37.71,2C683.87,649.6,712.35,645.17,733,626.24Zm-20.1,90.51a5.61,5.61,0,0,0-3.49-7.13C654.61,690.69,607,725.06,605,726.52a5.6,5.6,0,0,0-1.21,7.85,5.66,5.66,0,0,0,4.55,2.33,5.84,5.84,0,0,0,3.34-1.09c.41-.34,45-32.3,94-15.36A5.62,5.62,0,0,0,712.87,716.75ZM574,491.85a5.65,5.65,0,0,0-4.88-6.31c-7.06-.91-15.89-.23-24.76,1.16,5.68-7.06,8.27-18.52,5.83-27.83a101.49,101.49,0,0,1,12.43,2.4,5.63,5.63,0,1,0,3-10.85c-2.51-.68-62.05-16.53-97.13,20.21A76.15,76.15,0,0,0,451,500.33a5.61,5.61,0,0,0,5.37,7.37,5.59,5.59,0,0,0,5.34-3.91,66,66,0,0,1,14.83-25.39c11.16-11.64,25.32-17.13,38.92-19.38a2.59,2.59,0,0,0-.34.52s-10.82,19.09,8.45,31.07a3.87,3.87,0,0,0,.49.26c-12.21,3-21.6,6.16-22.42,6.42a5.63,5.63,0,0,0,1.76,11,5.15,5.15,0,0,0,1.8-.3c.42-.11,41.62-13.86,62.47-11.23A5.62,5.62,0,0,0,574,491.85Z"
                      class="cls-1"></path>
                <path d="M816.58,182.47c62.95,74.74,68,188.1,67.23,234l-35.42-14.08-.07,0h0c-2.07-1.54-3.91-3.08-5.56-4.47L841,396.41c-17.05-14-24.37-32-27.53-44.66A8.07,8.07,0,0,0,799.9,348L795,352.87a1.24,1.24,0,0,1-1.24.38,1.33,1.33,0,0,1-1-.94,139.27,139.27,0,0,0-34-55.32,7.59,7.59,0,0,0-12.66,3.15,174.94,174.94,0,0,1-9.5,24.23,177,177,0,0,1-13.3,23,5.78,5.78,0,0,1-5.18,2.52,5.58,5.58,0,0,1-4.59-3.08,198,198,0,0,0-37.11-52,7.6,7.6,0,0,0-13,4.47,177,177,0,0,1-5.15,26c-1.24,4.35-2.67,8.78-4.28,13.07a5.72,5.72,0,0,1-5,3.75,5.3,5.3,0,0,1-5.22-2.7,98.46,98.46,0,0,0-49.69-42.71,7.62,7.62,0,0,0-10.3,5.86c-1.57,9.92-3.41,19.87-5.48,29.64-1.46,7.17-3.12,14.38-4.85,21.52a5.62,5.62,0,0,1-4.54,4.24,5.49,5.49,0,0,1-5.67-2.29c-4.06-6-7.25-9-12.58-14-2.15-2.07-4.74-4.47-7.93-7.63-2.74-2.7-19.42-15.58-29.11-23a7.47,7.47,0,0,0-7.17-1.13,7.64,7.64,0,0,0-4.89,5.41c-1.35,5.75-5,20.59-8.6,33.39-3,10.37-4.77,13.86-6.68,17.54-.53,1-1,2-1.54,3.05a5.55,5.55,0,0,1-4,3.15,5.7,5.7,0,0,1-5.75-2.52,145.75,145.75,0,0,0-38.28-40.9,7.62,7.62,0,0,0-12.09,5.75c-1.73,32.86-11,81.17-45.22,124.66-10.18,13-44,25.13-61.87,35.49-8.6-34.51-28.92-147.57,38.43-250.07,72.94-111,209.14-142,312.28-133.94C730.83,115.83,780.71,139.87,816.58,182.47Z"
                      class="cls-5"></path>
                <path d="M866.57,410.53a5.63,5.63,0,1,1-2.52,11,59.72,59.72,0,0,1-19.9-8.34v0L847.49,402l.79.3h0l.07,0A48.13,48.13,0,0,0,866.57,410.53Z"></path>
                <path d="M848.28,402.34l-.79-.3-3.34,11.08a78.11,78.11,0,0,1-8.68-6.61l-1.65-1.39A93.88,93.88,0,0,1,804,359.86l-1,1a12.63,12.63,0,0,1-20.92-5,127.41,127.41,0,0,0-27-46.53,184.59,184.59,0,0,1-8.22,20,190.5,190.5,0,0,1-14.12,24.49,16.85,16.85,0,0,1-15.29,7.4,16.67,16.67,0,0,1-13.9-9.32,187.74,187.74,0,0,0-15.17-25.5,195.71,195.71,0,0,0-14.65-18.18,174.09,174.09,0,0,1-4.47,20.21c-1.32,4.66-2.82,9.35-4.51,13.93a17,17,0,0,1-14.61,11.08,16.59,16.59,0,0,1-15.93-8.3A87,87,0,0,0,594.29,309c-1.43,8.56-3,17.12-4.81,25.58-1.5,7.24-3.19,14.61-5,21.89a17,17,0,0,1-30.46,5.6c-3.34-5-5.89-7.32-11-12.13-2.26-2.07-4.89-4.58-8.16-7.81-1.42-1.39-10.66-8.72-23.58-18.67-1.77,7.28-4.59,18.44-7.44,28.39-3.27,11.46-5.41,15.63-7.51,19.68-.45.87-.9,1.73-1.39,2.71a16.32,16.32,0,0,1-2.93,4.21c-3.27.45-6.39,1-9.39,1.72l-1.84-7.66a5.55,5.55,0,0,0,4-3.15c.52-1.09,1-2,1.54-3.05,1.91-3.68,3.71-7.17,6.68-17.54,3.64-12.8,7.25-27.64,8.6-33.39a7.64,7.64,0,0,1,4.89-5.41,7.47,7.47,0,0,1,7.17,1.13c9.69,7.44,26.37,20.32,29.11,23,3.19,3.16,5.78,5.56,7.93,7.63,5.33,5,8.52,8,12.58,14a5.49,5.49,0,0,0,5.67,2.29,5.62,5.62,0,0,0,4.54-4.24c1.73-7.14,3.39-14.35,4.85-21.52,2.07-9.77,3.91-19.72,5.48-29.64a7.62,7.62,0,0,1,10.3-5.86,98.46,98.46,0,0,1,49.69,42.71,5.3,5.3,0,0,0,5.22,2.7,5.72,5.72,0,0,0,5-3.75c1.61-4.29,3-8.72,4.28-13.07a177,177,0,0,0,5.15-26,7.6,7.6,0,0,1,13-4.47,198,198,0,0,1,37.11,52,5.58,5.58,0,0,0,4.59,3.08,5.78,5.78,0,0,0,5.18-2.52,177,177,0,0,0,13.3-23,174.94,174.94,0,0,0,9.5-24.23A7.59,7.59,0,0,1,758.81,297a139.27,139.27,0,0,1,34,55.32,1.33,1.33,0,0,0,1,.94,1.24,1.24,0,0,0,1.24-.38L799.9,348a8.07,8.07,0,0,1,13.52,3.76c3.16,12.62,10.48,30.65,27.53,44.66l1.77,1.46C844.37,399.26,846.21,400.8,848.28,402.34Z"></path>
                <path d="M784.31,721a5.62,5.62,0,0,1-1.58,7.81q-5.52,3.66-11.15,7.1l-3.42-11.12a1.42,1.42,0,0,0,.38-.26c2.66-1.65,5.33-3.34,8-5.11A5.62,5.62,0,0,1,784.31,721Z"></path>
                <path d="M768.16,724.79l3.42,11.12a341.29,341.29,0,0,1-41.69,21.75c-44.21,19.27-93.16,29.11-143.79,29.11q-6.52,0-13.07-.23a257.86,257.86,0,0,1-37.82-13.6,5.68,5.68,0,0,0-7.48,2.82,5,5,0,0,0-.45,2,3.11,3.11,0,0,1,0-1,5.61,5.61,0,0,1,6.35-4.81c67.57,9.12,133.9.6,191.75-24.64A333.47,333.47,0,0,0,768.16,724.79Z"></path>
                <path d="M763.28,362.94a5.63,5.63,0,0,1-2.22,11c-58.44-11.75-88.23,27.8-88.49,28.21a5.67,5.67,0,0,1-4.55,2.29,5.76,5.76,0,0,1-3.34-1.09,5.63,5.63,0,0,1-1.2-7.88C664.83,393.63,697.88,349.79,763.28,362.94Z"></path>
                <path d="M764.22,442.15a5.63,5.63,0,0,1-6.65,9.09,83.92,83.92,0,0,0-30.28-14.19c-.18-.42-.33-.79-.52-1.17-4.51-.64-9.39-1.2-14.69-1.46a155.7,155.7,0,0,0-19,.15,28.68,28.68,0,0,0-1.16,2.66c-9.65,2.15-21.3,6.77-28,17.47-.38.6-.71,1.2-1,1.8l.22-.71a5.64,5.64,0,0,0-9.73-5.37c.3-.6.68-1.17,1-1.73,13.33-21.22,40.41-23.7,49.32-24.53C731.65,421.61,753.62,434.34,764.22,442.15Z"></path>
                <path d="M749.19,587.89c7,8.9-5,28-16.22,38.35-20.62,18.93-49.1,23.36-76.22,23.36-13.25,0-26.18-1.09-37.71-2h-.41c-9.77-.83-19.57-2.1-29.22-3.83a5.62,5.62,0,0,1-4.55-6.54,5.82,5.82,0,0,1,.34-1.12,5.68,5.68,0,0,1,6.2-3.42c9.28,1.65,18.74,2.89,28.17,3.64l.37,0c33.06,2.7,78.36,6.42,105.4-18.41,9-8.26,13.94-18.1,14.65-22.19-2,.3-5.15,1.24-7.85,2a161.51,161.51,0,0,1-21.71,5.07c-14.65,2.33-23.55,1.24-33,.07a133.29,133.29,0,0,0-23.66-1.24,143.62,143.62,0,0,0-50.6,12.06,5.61,5.61,0,0,1-7.4-2.93,5.82,5.82,0,0,1-.33-1.13,5.63,5.63,0,0,1,3.26-6.31c18.18-7.81,36.55-12.2,54.58-13a145.67,145.67,0,0,1,25.54,1.31c9,1.13,16.72,2.07,29.86,0A161.05,161.05,0,0,0,729,586.91C737.89,584.36,744.87,582.37,749.19,587.89Z"></path>
                <path d="M739.84,472.05a5.62,5.62,0,0,1,2.44,7.59,5.69,5.69,0,0,1-5,3,5.28,5.28,0,0,1-2.56-.64c-4.62-2.36-13.89-3.08-24.26-2.85l-.08-4.58c4.7,0,8.83-2.52,12-6.43C729.29,468.67,735.52,469.84,739.84,472.05Z"></path>
                <path d="M740,595.74c-.71,4.09-5.63,13.93-14.65,22.19-27,24.83-72.34,21.11-105.4,18.41l-.37,0c-9.43-.75-18.89-2-28.17-3.64a5.68,5.68,0,0,0-6.2,3.42l-.07,0a56.27,56.27,0,0,0,3.45-23.78c0-.6-.11-1.24-.19-1.84l7.07-.79a5.82,5.82,0,0,0,.33,1.13,5.61,5.61,0,0,0,7.4,2.93,143.62,143.62,0,0,1,50.6-12.06,133.29,133.29,0,0,1,23.66,1.24c9.43,1.17,18.33,2.26,33-.07a161.51,161.51,0,0,0,21.71-5.07C734.84,597,738,596,740,595.74Z"
                      class="cls-6"></path>
                <path d="M727.29,437.05c4.1,9.8,1.47,23.28-4.95,31.13A123.34,123.34,0,0,0,709,468l-.11-4.88c4.28-.19,7.59-5.26,7.33-11.39-.27-6-3.8-10.7-8-10.7l-.15-5.82A68.82,68.82,0,0,1,727.29,437.05Z"></path>
                <path d="M726.77,435.88c.19.38.34.75.52,1.17A68.82,68.82,0,0,0,708,435.17c-1.06,0-2.15.11-3.27.22A106.27,106.27,0,0,0,692,437.23a28.68,28.68,0,0,1,1.16-2.66,155.7,155.7,0,0,1,19-.15C717.38,434.68,722.26,435.24,726.77,435.88Z"></path>
                <path d="M709,468a123.34,123.34,0,0,1,13.38.22c-3.16,3.91-7.29,6.43-12,6.43a16.18,16.18,0,0,1-8.6-2.71,25,25,0,0,1-4.28-3.38C701.19,468.26,705.06,468,709,468Z"></path>
                <path d="M716.18,451.69c.26,6.13-3,11.2-7.33,11.39s-8-4.62-8.22-10.75,3-11.19,7.32-11.34h.23C712.38,441,715.91,445.72,716.18,451.69Z"
                      class="cls-7"></path>
                <path d="M709.38,709.62a5.62,5.62,0,1,1-3.68,10.63c-49.06-16.94-93.61,15-94,15.36a5.84,5.84,0,0,1-3.34,1.09,5.66,5.66,0,0,1-4.55-2.33,5.6,5.6,0,0,1,1.21-7.85C607,725.06,654.61,690.69,709.38,709.62Z"></path>
                <path d="M710.35,474.61l.08,4.58a270.78,270.78,0,0,0-35.91,3.42A5.69,5.69,0,0,1,668,478a6.86,6.86,0,0,1,0-1.92,5.63,5.63,0,0,1,4.66-4.54c2.29-.41,12.58-2,24.79-3a25,25,0,0,0,4.28,3.38A16.18,16.18,0,0,0,710.35,474.61Z"></path>
                <path d="M708.85,463.08,709,468c-3.9.07-7.77.3-11.49.56a26.11,26.11,0,0,1-5.82-8.07c-4.21-9.28-1.54-18.63.3-23.22a106.27,106.27,0,0,1,12.81-1.84c1.12-.11,2.21-.18,3.27-.22l.15,5.82H708c-4.28.15-7.59,5.26-7.32,11.34S704.57,463.23,708.85,463.08Z"></path>
                <path d="M706.79,798.9a5.62,5.62,0,0,1-4.51,6.53c-1.62.3-19.42,3.5-46.16,3.5-32.87,0-79.26-4.81-125.57-25.73a5.55,5.55,0,0,1-3.27-5.41,5.61,5.61,0,0,0,4.85,5.33,409.31,409.31,0,0,0,40.9,3.42c67,18.52,126.47,8,127.18,7.81A5.65,5.65,0,0,1,706.79,798.9Z"></path>
                <path d="M701.45,536.66c0,11.45-6.65,19.71-10.63,23.62a5.53,5.53,0,0,1-3.94,1.62,5.64,5.64,0,0,1-4-9.66c2.18-2.14,7.29-7.92,7.25-15.55-.07-9.35-7.85-15.92-11.15-18.7-5.22-4.4-9.54-5.56-13.71-6.73s-8.49-2.32-12.43-6.27c-7.14-7.06-8.91-18.82-5.34-35.72a3.16,3.16,0,0,0-.07.6,5.65,5.65,0,0,0,5.11,6.13c.18,0,.33,0,.52,0a5.66,5.66,0,0,0,5.41-4.09c-.26,1.16-.45,2.29-.64,3.38-1.76,10.52-.79,18,2.93,21.67,1.77,1.77,3.79,2.41,7.51,3.42,4.85,1.31,10.86,3,18,8.94C690.41,512.84,701.38,522,701.45,536.66Z"></path>
                <path d="M691.65,460.45a26.11,26.11,0,0,0,5.82,8.07c-12.21.94-22.5,2.56-24.79,3A5.63,5.63,0,0,0,668,476l-10.14-.71c.19-1.09.38-2.22.64-3.38a.12.12,0,0,1,0-.11,122.46,122.46,0,0,1,4.28-15.25.14.14,0,0,1,0-.08c.34-.6.67-1.2,1-1.8,6.72-10.7,18.37-15.32,28-17.47C690.11,441.82,687.44,451.17,691.65,460.45Z"
                      class="cls-1"></path>
                <path d="M659.61,448.61a5.65,5.65,0,0,1,3.49,7.18l-.22.71a.14.14,0,0,0,0,.08,36.42,36.42,0,0,0-4.13,14.31,8.41,8.41,0,0,1-.15.94.12.12,0,0,0,0,.11,5.66,5.66,0,0,1-5.41,4.09c-.19,0-.34,0-.52,0a5.65,5.65,0,0,1-5.11-6.13,3.16,3.16,0,0,1,.07-.6,148.86,148.86,0,0,1,4.81-16.94c.3-.64.64-1.27,1-1.91A5.69,5.69,0,0,1,659.61,448.61Z"></path>
                <path d="M662.84,456.58a122.46,122.46,0,0,0-4.28,15.25,8.41,8.41,0,0,0,.15-.94A36.42,36.42,0,0,1,662.84,456.58Z"></path>
                <path d="M653.37,450.42c-.37.64-.71,1.27-1,1.91,0-.07,0-.15.08-.22A5.24,5.24,0,0,1,653.37,450.42Z"></path>
                <path d="M652.36,452.33a148.86,148.86,0,0,0-4.81,16.94A46.42,46.42,0,0,1,652.36,452.33Z"></path>
                <path d="M588.58,612.26A56.27,56.27,0,0,1,585.13,636a59.4,59.4,0,0,1-6.61,12.73,5.6,5.6,0,0,1-4.66,2.48,5.79,5.79,0,0,1-3.16-1,5.66,5.66,0,0,1-1.5-7.85,46.5,46.5,0,0,0,8.15-29.33,44.48,44.48,0,0,0-5.75-18.67,5.64,5.64,0,0,1,9.81-5.56,55.68,55.68,0,0,1,7,21.56C588.47,611,588.54,611.66,588.58,612.26Z"></path>
                <path d="M569.09,485.54a5.64,5.64,0,0,1-1.39,11.19c-20.85-2.63-62.05,11.12-62.47,11.23a5.15,5.15,0,0,1-1.8.3,5.63,5.63,0,0,1-1.76-11c.82-.26,10.21-3.42,22.42-6.42,8.15,4.81,15.36,2,20.24-4.17C553.2,485.31,562,484.63,569.09,485.54Z"></path>
                <path d="M571.75,398.66a5.62,5.62,0,0,1-3.38,10.14,5.56,5.56,0,0,1-3.34-1.09,98.73,98.73,0,0,0-52.43-18.93,96.38,96.38,0,0,0-25.73,2l-1.73-7.89a16.3,16.3,0,0,0,6.95-4.5,107.59,107.59,0,0,1,21.14-.91A110.53,110.53,0,0,1,571.75,398.66Z"></path>
                <path d="M565.59,450.42a5.63,5.63,0,1,1-3,10.85,101.49,101.49,0,0,0-12.43-2.4,28.07,28.07,0,0,0-1.58-4.25s-27-5.4-33.09,4.4c-13.6,2.25-27.76,7.74-38.92,19.38a66,66,0,0,0-14.83,25.39,5.59,5.59,0,0,1-5.34,3.91,5.61,5.61,0,0,1-5.37-7.37,76.15,76.15,0,0,1,17.43-29.7C503.54,433.89,563.08,449.74,565.59,450.42Z"></path>
                <path d="M550.16,458.87c2.44,9.31-.15,20.77-5.83,27.83-7,1.09-14,2.59-20.24,4.17a3.87,3.87,0,0,1-.49-.26c-19.27-12-8.45-31.07-8.45-31.07a2.59,2.59,0,0,1,.34-.52A116.08,116.08,0,0,1,550.16,458.87ZM532.05,480.2c4.28-.15,7.55-5.26,7.33-11.34s-4-10.89-8.23-10.74-7.59,5.29-7.32,11.38S527.77,480.39,532.05,480.2Z"></path>
                <path d="M548.58,454.62a28.07,28.07,0,0,1,1.58,4.25,116.08,116.08,0,0,0-34.67.15C521.57,449.22,548.58,454.62,548.58,454.62Z"></path>
                <path d="M539.38,468.86c.22,6.08-3,11.19-7.33,11.34s-8-4.62-8.22-10.7,3-11.19,7.32-11.38S539.11,462.74,539.38,468.86Z"
                      class="cls-7"></path>
                <path d="M535.21,772.94A257.86,257.86,0,0,0,573,786.54a409.31,409.31,0,0,1-40.9-3.42,5.61,5.61,0,0,1-4.85-5.33,5,5,0,0,1,.45-2A5.68,5.68,0,0,1,535.21,772.94Z"></path>
                <path d="M544.33,486.7c-4.88,6.16-12.09,9-20.24,4.17C530.36,489.29,537.35,487.79,544.33,486.7Z"></path>
                <path d="M492.09,378.42a16.3,16.3,0,0,1-6.95,4.5,18.06,18.06,0,0,1-4.47.87,17.22,17.22,0,0,1-7.1-1.13c2.89-.94,5.93-1.8,9.13-2.52C485.7,379.43,488.82,378.87,492.09,378.42Z"></path>
                <path d="M485.14,382.92l1.73,7.89a97.25,97.25,0,0,0-27.76,10.4,5.64,5.64,0,0,1-5.52-9.84,106.66,106.66,0,0,1,20-8.71,17.22,17.22,0,0,0,7.1,1.13A18.06,18.06,0,0,0,485.14,382.92Z"></path>
                <path d="M480.86,372.48l1.84,7.66c-3.2.72-6.24,1.58-9.13,2.52a16.59,16.59,0,0,1-8-6.72,138.13,138.13,0,0,0-14.42-19.05,134.83,134.83,0,0,0-15.63-14.68c-2.7,34.14-13.41,81.35-47.14,124.25-11.57,14.72-50.74,28.47-67.8,39.92l-2.59-10c-.11-.45-.22-.94-.34-1.39,17.85-10.36,51.69-22.53,61.87-35.49C413.73,416,423,367.67,424.74,334.81a7.62,7.62,0,0,1,12.09-5.75A145.75,145.75,0,0,1,475.11,370a5.7,5.7,0,0,0,5.75,2.52Z"></path>
                <path d="M403.26,837.81a9.44,9.44,0,0,1,8.22,10.44c-.52,4.4-1,10.07-1.24,16.64v.38l-.41,4.17-9.28,3.08c-.22.07-3.42,1.12-9.16,3.11a219.88,219.88,0,0,1,1.16-27.08c.08-.86.15-1.73.26-2.51A9.45,9.45,0,0,1,403.26,837.81Z"></path>
                <path d="M381.73,847.16l10.82,1.39a219.88,219.88,0,0,0-1.16,27.08c-21,7.14-75.73,26-141.5,50.45q-6-7.05-12.92-14A9.33,9.33,0,0,0,226.79,910l-2.4-6.42C297.11,876.23,359,854.9,381.73,847.16Z"></path>
                <path d="M318,496.35l2.59,10v0h0c-.64.41-1.24.83-1.81,1.24a5.84,5.84,0,0,1-3.34,1.09,5.64,5.64,0,0,1-3.34-10.18c1.57-1.16,3.49-2.37,5.59-3.61C317.77,495.41,317.88,495.9,318,496.35Z"></path>
                <path d="M249.89,926.08c74.15,85.9,58,173.33,57.21,177.2l-9.17-1.84h0l-8.91-3.68c1.77-13,9.21-90.67-58-164.62C237.39,930.73,243.7,928.37,249.89,926.08Z"></path>
                <polygon
                        points="307.1 1103.28 306.72 1105.27 254.4 1177.46 231.23 1177.46 289 1097.76 297.9 1101.44 297.93 1101.44 307.1 1103.28"></polygon>
                <path d="M231,933.14c67.16,74,59.72,151.66,58,164.62l-57.76,79.7H22.54V1028.88a313.54,313.54,0,0,1,69-40.27C137.51,969.12,186.19,950,231,933.14Z"
                      class="cls-1"></path>
                <path d="M236.71,148.21c13.6,8.45,37.19,31.29,29.22,57.32-6.65,21.63-31.14,32.19-50.82,31.17-12-.6-35.79-6.76-39.85-25.58-1.95-9.05,1.2-21.59,11-28,11.65-7.59,28.77-4,38.95,8.23a5.64,5.64,0,1,1-8.64,7.25c-7.36-8.83-18.06-10-24.15-6.05-5.52,3.61-7.28,11-6.19,16.19,2.29,10.59,18.59,16.15,29.44,16.71,15.67.83,34.67-7.66,39.44-23.21,5.52-18.1-11.53-36.51-24.37-44.47-20.51-12.7-53.53-12.81-71.11,9.24-13.9,17.5-14.27,43.53-.86,63.36a5.66,5.66,0,0,1-1.5,7.81,5.79,5.79,0,0,1-3.16,1,5.63,5.63,0,0,1-4.69-2.48c-16.12-23.85-15.55-55.4,1.42-76.69C172.29,133.15,212.11,133,236.71,148.21Z"
                      class="cls-3"></path>
                <path d="M254.44,607.31c8.64,30.94-12.73,62.42-37.22,76.35-14.88,8.46-48,19.39-66.9.34-9-9.09-14.69-26-8-40.75,7.93-17.5,30.73-26,51.91-19.31a5.63,5.63,0,0,1-3.38,10.75c-17.69-5.6-33.32,2.33-38.24,13.22-4.5,10-.41,21.93,5.75,28.13,13,13.11,39.59,5.63,53.3-2.18,21.07-12,38.8-39,32-63.55-8.52-30.65-48.56-38.16-68.55-38-36.92.52-79.51,27.68-84,70.68-3.53,34.11,17.46,68,51.08,82.52a5.61,5.61,0,0,1,3,7.4,5.65,5.65,0,0,1-7.4,3c-38.09-16.45-61.9-55.1-57.85-94,5.11-49.13,53.3-80.19,95-80.79C197.87,560.88,244,570,254.44,607.31Z"
                      class="cls-3"></path>
                <path d="M254.4,1177.46l-8.15,11.27h-21a9.46,9.46,0,0,1,1.81-5.52l4.17-5.75Z"></path>
                <path d="M246.25,1188.73l-4,5.49a9.41,9.41,0,0,1-17-5.49Z"></path>
                <path d="M249.89,926.08c-6.19,2.29-12.5,4.65-18.85,7.06q-3.56-3.95-7.44-7.89a9.34,9.34,0,0,1,.11-13.26,10,10,0,0,1,3.08-2A9.33,9.33,0,0,1,237,912.07Q243.86,919,249.89,926.08Z"></path>
                <path d="M231.23,1177.46l-4.17,5.75a9.46,9.46,0,0,0-1.81,5.52H17v-11.27H231.23Z"></path>
                <path d="M223.6,925.25q3.89,3.94,7.44,7.89c-44.85,16.9-93.53,36-139.47,55.47a313.54,313.54,0,0,0-69,40.27v-37a345.36,345.36,0,0,1,57.28-31c47.7-20.24,98.33-40,144.57-57.39l2.4,6.42a10,10,0,0,0-3.08,2A9.34,9.34,0,0,0,223.6,925.25Z"></path>
            </g>
            <path d="M533.64,772c-18.07-6.16-40.15-12-44.79-4.82-6,9.35,19.21,38,38.4,53.83,73.51,60.84,213.66,63.8,249,3.77,7.26-12.34,10.47-27.88,8.18-47.18l-12.84-41.62S694.89,790.41,574,786.59c0,0,54.9,18.12,126.18,7.78a5.85,5.85,0,0,1,6.56,4.51,5.69,5.69,0,0,1-4.51,6.57s-90.77,15.61-171.7-22.24c0,0-3.47-1.16-3.26-6.43Z"
                  class="cls-8"></path>
        </g>
    </g>
</svg>